<svg xmlns="http://www.w3.org/2000/svg" xmlns:xlink="http://www.w3.org/1999/xlink" viewBox="0 0 3000.45 2000.5"><defs><style>.cls-1{fill:url(#radial-gradient);}.cls-10,.cls-11,.cls-12,.cls-13,.cls-14,.cls-15,.cls-16,.cls-17,.cls-18,.cls-19,.cls-2,.cls-23,.cls-24,.cls-25,.cls-26,.cls-27,.cls-28,.cls-29,.cls-3,.cls-30,.cls-4,.cls-5,.cls-6,.cls-7,.cls-8,.cls-9{fill:none;stroke-width:0.5px;}.cls-10,.cls-11,.cls-12,.cls-2,.cls-3,.cls-4,.cls-5,.cls-6,.cls-7,.cls-8,.cls-9{stroke-linecap:round;stroke-linejoin:round;}.cls-2{stroke:url(#linear-gradient);}.cls-3{stroke:url(#linear-gradient-2);}.cls-4{stroke:url(#linear-gradient-3);}.cls-5{stroke:url(#linear-gradient-4);}.cls-6{stroke:url(#linear-gradient-5);}.cls-7{stroke:url(#linear-gradient-6);}.cls-8{stroke:url(#linear-gradient-7);}.cls-9{stroke:url(#linear-gradient-8);}.cls-10{stroke:url(#linear-gradient-9);}.cls-11{stroke:url(#linear-gradient-10);}.cls-12{stroke:url(#linear-gradient-11);}.cls-13,.cls-14,.cls-15,.cls-16,.cls-17,.cls-18,.cls-19,.cls-23,.cls-24,.cls-25,.cls-26,.cls-27,.cls-28,.cls-29,.cls-30{stroke-miterlimit:10;}.cls-13{stroke:url(#linear-gradient-12);}.cls-14{stroke:url(#linear-gradient-13);}.cls-15{stroke:url(#linear-gradient-14);}.cls-16{stroke:url(#linear-gradient-15);}.cls-17{stroke:url(#linear-gradient-16);}.cls-18{stroke:url(#linear-gradient-17);}.cls-19{stroke:url(#linear-gradient-18);}.cls-20{opacity:0.8;}.cls-21{fill:#fff;}.cls-22{opacity:0.5;}.cls-23{stroke:#29efbb;}.cls-24{stroke:url(#linear-gradient-19);}.cls-25{stroke:url(#linear-gradient-20);}.cls-26{stroke:url(#linear-gradient-21);}.cls-27{stroke:url(#linear-gradient-22);}.cls-28{stroke:url(#linear-gradient-23);}.cls-29{stroke:url(#linear-gradient-24);}.cls-30{stroke:url(#linear-gradient-25);}.cls-31{fill:#f9fbfc;}</style><radialGradient id="radial-gradient" cx="-1550.28" cy="2396.32" r="704.28" gradientTransform="translate(-5692.93 16872.18) rotate(180) scale(4 6)" gradientUnits="userSpaceOnUse"><stop offset="0" stop-color="#29efbb"/><stop offset="0.21" stop-color="#2bb7b1"/><stop offset="0.49" stop-color="#2e74a6"/><stop offset="0.72" stop-color="#2f439d"/><stop offset="0.9" stop-color="#312498"/><stop offset="1" stop-color="#311996"/></radialGradient><linearGradient id="linear-gradient" x1="2690.78" y1="1793.11" x2="2795.96" y2="1793.11" gradientUnits="userSpaceOnUse"><stop offset="0" stop-color="#29efbb"/><stop offset="0.16" stop-color="#4ef1c7"/><stop offset="0.57" stop-color="#a9f6e3"/><stop offset="0.86" stop-color="#e3faf5"/><stop offset="1" stop-color="#f9fbfc"/></linearGradient><linearGradient id="linear-gradient-2" x1="2171.14" y1="1553.52" x2="2986.49" y2="1553.52" xlink:href="#linear-gradient"/><linearGradient id="linear-gradient-3" x1="2168.19" y1="1553.52" x2="2795.96" y2="1553.52" xlink:href="#linear-gradient"/><linearGradient id="linear-gradient-4" x1="2795.46" y1="861.15" x2="2986.49" y2="861.15" xlink:href="#linear-gradient"/><linearGradient id="linear-gradient-5" x1="2327.74" y1="660.13" x2="2986.49" y2="660.13" xlink:href="#linear-gradient"/><linearGradient id="linear-gradient-6" x1="2139.41" y1="1100.74" x2="2986.49" y2="1100.74" xlink:href="#linear-gradient"/><linearGradient id="linear-gradient-7" x1="1895.44" y1="1460.12" x2="2171.64" y2="1460.12" xlink:href="#linear-gradient"/><linearGradient id="linear-gradient-8" x1="2231.59" y1="458.11" x2="2891.22" y2="458.11" xlink:href="#linear-gradient"/><linearGradient id="linear-gradient-9" x1="1434.13" y1="939.48" x2="2986.49" y2="939.48" xlink:href="#linear-gradient"/><linearGradient id="linear-gradient-10" x1="930.83" y1="1689.56" x2="1650.05" y2="1689.56" xlink:href="#linear-gradient"/><linearGradient id="linear-gradient-11" x1="991.31" y1="1883.46" x2="1171.33" y2="1883.46" xlink:href="#linear-gradient"/><linearGradient id="linear-gradient-12" x1="1763.29" y1="1041.83" x2="1895.99" y2="1041.83" xlink:href="#linear-gradient"/><linearGradient id="linear-gradient-13" x1="1058.86" y1="1436.02" x2="1219.09" y2="1436.02" xlink:href="#linear-gradient"/><linearGradient id="linear-gradient-14" x1="1270.52" y1="1337.2" x2="1406.81" y2="1337.2" xlink:href="#linear-gradient"/><linearGradient id="linear-gradient-15" x1="1433.9" y1="990.83" x2="1534.44" y2="990.83" xlink:href="#linear-gradient"/><linearGradient id="linear-gradient-16" x1="1733.54" y1="696.73" x2="2268.33" y2="696.73" xlink:href="#linear-gradient"/><linearGradient id="linear-gradient-17" x1="2462.98" y1="292.61" x2="2657.42" y2="292.61" xlink:href="#linear-gradient"/><linearGradient id="linear-gradient-18" x1="1763.14" y1="170.75" x2="2029.59" y2="170.75" xlink:href="#linear-gradient"/><linearGradient id="linear-gradient-19" x1="587.82" y1="1788.21" x2="991.73" y2="1788.21" xlink:href="#linear-gradient"/><linearGradient id="linear-gradient-20" x1="382.73" y1="1788.32" x2="991.96" y2="1788.32" xlink:href="#linear-gradient"/><linearGradient id="linear-gradient-21" x1="0" y1="1836.67" x2="383.74" y2="1836.67" xlink:href="#linear-gradient"/><linearGradient id="linear-gradient-22" x1="383.11" y1="1894.63" x2="758.3" y2="1894.63" xlink:href="#linear-gradient"/><linearGradient id="linear-gradient-23" x1="292.05" y1="1508.78" x2="434.06" y2="1508.78" xlink:href="#linear-gradient"/><linearGradient id="linear-gradient-24" x1="604.92" y1="1356.56" x2="805.18" y2="1356.56" xlink:href="#linear-gradient"/><linearGradient id="linear-gradient-25" x1="93.06" y1="1572.78" x2="138.84" y2="1572.78" xlink:href="#linear-gradient"/></defs><g id="Layer_2" data-name="Layer 2"><g id="artboard_2" data-name="artboard 2"><rect class="cls-1" x="500.2" y="-499.75" width="2000" height="3000" transform="translate(499.95 2500.45) rotate(-90)"/><line class="cls-2" x1="2795.71" y1="1612.4" x2="2691.03" y2="1973.81"/><polyline class="cls-3" points="2795.71 1612.4 2986.24 1417.48 2795.71 1133.22 2607.25 1449.97 2379.86 1523.06 2171.39 1506.82 2531.45 1973.81 2607.25 1449.97 2607.25 1973.81 2795.71 1612.4 2607.25 1449.97 2986.24 1559.61 2795.71 1612.4 2986.24 1973.81"/><polygon class="cls-4" points="2795.71 1133.22 2379.86 1523.06 2531.45 1973.81 2168.44 1793.11 2171.39 1506.82 2795.71 1133.22"/><polygon class="cls-5" points="2795.71 1133.22 2986.24 873.33 2890.97 589.07 2795.71 1133.22"/><polyline class="cls-6" points="2986.24 873.33 2327.99 678.41 2890.97 589.07 2986.24 446.94"/><polyline class="cls-7" points="2795.71 1133.22 2327.99 678.41 2482.07 1056.07 2139.66 1092.61 2379.86 1523.06 2482.07 1056.07 2795.71 1133.22 2986.24 1320.02"/><polyline class="cls-8" points="2139.66 1092.61 1895.69 1287.53 2171.39 1506.82 1925.37 1827.62 2168.44 1793.11"/><polyline class="cls-9" points="2890.97 589.07 2761.33 237.81 2635.66 518.01 2231.84 487.55 2327.99 678.41"/><polyline class="cls-10" points="2986.24 0.25 2761.33 237.81 2986.24 272.33 2890.97 589.07 2635.66 518.01 2327.99 678.41 2139.66 1092.61 2171.39 1506.82 1649.8 1553.52 1925.37 1827.62 1542.09 1878.72 1649.8 1553.52 1895.69 1287.53 1434.38 1405.3 1542.09 1878.72"/><polyline class="cls-11" points="1649.8 1553.52 1434.38 1405.3 1171.08 1793.11 1542.09 1878.72 1219.78 1721.37 931.08 1815.44 1171.08 1793.11 1382.52 1973.81 1542.09 1878.72 1637.84 1973.81 1649.8 1553.52"/><line class="cls-12" x1="1171.08" y1="1793.11" x2="991.56" y2="1973.81"/><polygon class="cls-13" points="1763.63 1043.88 1878.16 1173.83 1895.69 909.88 1763.63 1043.88"/><polyline class="cls-14" points="1081.32 1153.53 1191.03 1380.93 1059.38 1717.98 1218.95 1612.4"/><polygon class="cls-15" points="1270.81 1214.44 1286.77 1460.12 1406.45 1356.57 1270.81 1214.44"/><polygon class="cls-16" points="1434.38 939.48 1506.19 1041.85 1534.11 939.48 1434.38 939.48"/><polyline class="cls-17" points="1733.65 617.5 1934.14 520.04 2088.17 873.33 2268.15 696.68"/><polygon class="cls-18" points="2607.25 418.52 2463.63 166.74 2657.12 272.33 2607.25 418.52"/><polygon class="cls-19" points="1900.07 48.98 1763.63 292.63 2029.17 237.81 1900.07 48.98"/><g class="cls-20"><path class="cls-21" d="M2192.21,1069.45a1.5,1.5,0,0,0,0-3,1.5,1.5,0,0,0,0,3Z"/><path class="cls-21" d="M2301.55,1469.51a1.5,1.5,0,0,0,0-3,1.5,1.5,0,0,0,0,3Z"/><path class="cls-21" d="M2712.3,1144.65a1.5,1.5,0,0,0,0-3,1.5,1.5,0,0,0,0,3Z"/><path class="cls-21" d="M2735.94,967.17a1.5,1.5,0,0,0,0-3,1.5,1.5,0,0,0,0,3Z"/><path class="cls-21" d="M2780.27,991.24a1.5,1.5,0,0,0,0-3,1.5,1.5,0,0,0,0,3Z"/><path class="cls-21" d="M2133.11,1776.33a1.5,1.5,0,0,0,0-3,1.5,1.5,0,0,0,0,3Z"/><path class="cls-21" d="M2094.69,1776.33a1.5,1.5,0,0,0,0-3,1.5,1.5,0,0,0,0,3Z"/><path class="cls-21" d="M1169.75,1842.51a1.5,1.5,0,0,0,0-3,1.5,1.5,0,0,0,0,3Z"/><path class="cls-21" d="M1205.21,1878.61a1.5,1.5,0,0,0,0-3,1.5,1.5,0,0,0,0,3Z"/><path class="cls-21" d="M2928,1938.77a1.5,1.5,0,0,0,0-3,1.5,1.5,0,0,0,0,3Z"/><path class="cls-21" d="M2883.7,1899.66a1.5,1.5,0,0,0,0-3,1.5,1.5,0,0,0,0,3Z"/><path class="cls-21" d="M2741.85,1604.88a1.5,1.5,0,0,0,0-3,1.5,1.5,0,0,0,0,3Z"/><path class="cls-21" d="M2801,1668a1.5,1.5,0,0,0,0-3,1.5,1.5,0,0,0,0,3Z"/><path class="cls-21" d="M2721.17,1638a1.5,1.5,0,0,0,0-3,1.5,1.5,0,0,0,0,3Z"/><path class="cls-21" d="M1855.33,1256a1.5,1.5,0,0,0,0-3,1.5,1.5,0,0,0,0,3Z"/><path class="cls-21" d="M1881.92,1252.94a1.5,1.5,0,0,0,0-3,1.5,1.5,0,0,0,0,3Z"/><path class="cls-21" d="M1406.16,1358.22a1.5,1.5,0,0,0,0-3,1.5,1.5,0,0,0,0,3Z"/><path class="cls-21" d="M1737.13,618.24a1.5,1.5,0,0,0,0-3,1.5,1.5,0,0,0,0,3Z"/><path class="cls-21" d="M2608.87,422.72a1.5,1.5,0,0,0,0-3,1.5,1.5,0,0,0,0,3Z"/><path class="cls-21" d="M2032.63,239.23a1.5,1.5,0,0,0,0-3,1.5,1.5,0,0,0,0,3Z"/><path class="cls-21" d="M2928,825.8a1.5,1.5,0,0,0,0-3,1.5,1.5,0,0,0,0,3Z"/><path class="cls-21" d="M2901.43,804.74a1.5,1.5,0,0,0,0-3,1.5,1.5,0,0,0,0,3Z"/><path class="cls-21" d="M1909.11,1638.26a1.5,1.5,0,0,0,0-3,1.5,1.5,0,0,0,0,3Z"/><path class="cls-21" d="M1941,1654.51a1.5,1.5,0,0,0,0-3,1.5,1.5,0,0,0,0,3Z"/><path class="cls-21" d="M2280.12,1094.11a1.5,1.5,0,0,0,0-3,1.5,1.5,0,0,0,0,3Z"/><path class="cls-21" d="M2340,1179.39a1.5,1.5,0,0,0,0-3,1.5,1.5,0,0,0,0,3Z"/><path class="cls-21" d="M2479.59,1057.57a1.5,1.5,0,0,0,0-3,1.5,1.5,0,0,0,0,3Z"/><path class="cls-21" d="M1414.43,1297.15a1.5,1.5,0,0,0,0-3,1.5,1.5,0,0,0,0,3Z"/><path class="cls-21" d="M1191,1386.49a1.5,1.5,0,0,0,0-3,1.5,1.5,0,0,0,0,3Z"/><path class="cls-21" d="M1338.63,1609.84a1.5,1.5,0,0,0,0-3,1.5,1.5,0,0,0,0,3Z"/><path class="cls-21" d="M1402.46,1613.9a1.5,1.5,0,0,0,0-3,1.5,1.5,0,0,0,0,3Z"/><path class="cls-21" d="M1330.65,1691.06a1.5,1.5,0,0,0,0-3,1.5,1.5,0,0,0,0,3Z"/><path class="cls-21" d="M1434.38,1406.8a1.5,1.5,0,0,0,0-3,1.5,1.5,0,0,0,0,3Z"/><path class="cls-21" d="M2232.25,489.05a1.5,1.5,0,0,0,0-3,1.5,1.5,0,0,0,0,3Z"/></g><g class="cls-20"><path class="cls-21" d="M2148.32,1059.82a1.5,1.5,0,0,0,0-3,1.5,1.5,0,0,0,0,3Z"/><path class="cls-21" d="M2257.66,659.75a1.5,1.5,0,0,0,0-3,1.5,1.5,0,0,0,0,3Z"/><path class="cls-21" d="M2668.42,984.62a1.5,1.5,0,0,0,0-3,1.5,1.5,0,0,0,0,3Z"/><path class="cls-21" d="M2692.06,1162.09a1.5,1.5,0,0,0,0-3,1.5,1.5,0,0,0,0,3Z"/><path class="cls-21" d="M2736.38,1138a1.5,1.5,0,0,0,0-3,1.5,1.5,0,0,0,0,3Z"/><path class="cls-21" d="M2089.22,352.93a1.5,1.5,0,0,0,0-3,1.5,1.5,0,0,0,0,3Z"/><path class="cls-21" d="M2050.8,352.93a1.5,1.5,0,0,0,0-3,1.5,1.5,0,0,0,0,3Z"/><path class="cls-21" d="M1125.86,286.76a1.5,1.5,0,0,0,0-3,1.5,1.5,0,0,0,0,3Z"/><path class="cls-21" d="M1161.33,250.66a1.5,1.5,0,0,0,0-3,1.5,1.5,0,0,0,0,3Z"/><path class="cls-21" d="M2884.14,190.5a1.5,1.5,0,0,0,0-3,1.5,1.5,0,0,0,0,3Z"/><path class="cls-21" d="M2839.81,229.6a1.5,1.5,0,0,0,0-3,1.5,1.5,0,0,0,0,3Z"/><path class="cls-21" d="M2698,524.39a1.5,1.5,0,0,0,0-3,1.5,1.5,0,0,0,0,3Z"/><path class="cls-21" d="M2757.07,461.22a1.5,1.5,0,0,0,0-3,1.5,1.5,0,0,0,0,3Z"/><path class="cls-21" d="M2677.28,491.3a1.5,1.5,0,0,0,0-3,1.5,1.5,0,0,0,0,3Z"/><path class="cls-21" d="M1811.44,873.32a1.5,1.5,0,0,0,0-3,1.5,1.5,0,0,0,0,3Z"/><path class="cls-21" d="M1838,876.33a1.5,1.5,0,0,0,0-3,1.5,1.5,0,0,0,0,3Z"/><path class="cls-21" d="M1362.27,771.05a1.5,1.5,0,0,0,0-3,1.5,1.5,0,0,0,0,3Z"/><path class="cls-21" d="M1693.24,1511a1.5,1.5,0,0,0,0-3,1.5,1.5,0,0,0,0,3Z"/><path class="cls-21" d="M2537.06,1706.54a1.5,1.5,0,0,0,0-3,1.5,1.5,0,0,0,0,3Z"/><path class="cls-21" d="M1988.75,1890a1.5,1.5,0,0,0,0-3,1.5,1.5,0,0,0,0,3Z"/><path class="cls-21" d="M2884.14,1303.47a1.5,1.5,0,0,0,0-3,1.5,1.5,0,0,0,0,3Z"/><path class="cls-21" d="M2857.54,1324.52a1.5,1.5,0,0,0,0-3,1.5,1.5,0,0,0,0,3Z"/><path class="cls-21" d="M1865.23,491a1.5,1.5,0,0,0,0-3,1.5,1.5,0,0,0,0,3Z"/><path class="cls-21" d="M1897.14,474.76a1.5,1.5,0,0,0,0-3,1.5,1.5,0,0,0,0,3Z"/><path class="cls-21" d="M2236.24,1035.15a1.5,1.5,0,0,0,0-3,1.5,1.5,0,0,0,0,3Z"/><path class="cls-21" d="M2296.08,949.88a1.5,1.5,0,0,0,0-3,1.5,1.5,0,0,0,0,3Z"/><path class="cls-21" d="M2435.7,1071.7a1.5,1.5,0,0,0,0-3,1.5,1.5,0,0,0,0,3Z"/><path class="cls-21" d="M1370.54,832.11a1.5,1.5,0,0,0,0-3,1.5,1.5,0,0,0,0,3Z"/><path class="cls-21" d="M1147.14,742.77a1.5,1.5,0,0,0,0-3,1.5,1.5,0,0,0,0,3Z"/><path class="cls-21" d="M1294.75,519.43a1.5,1.5,0,0,0,0-3,1.5,1.5,0,0,0,0,3Z"/><path class="cls-21" d="M1358.58,515.37a1.5,1.5,0,0,0,0-3,1.5,1.5,0,0,0,0,3Z"/><path class="cls-21" d="M1286.77,438.21a1.5,1.5,0,0,0,0-3,1.5,1.5,0,0,0,0,3Z"/><path class="cls-21" d="M1390.49,722.47a1.5,1.5,0,0,0,0-3,1.5,1.5,0,0,0,0,3Z"/><path class="cls-21" d="M731,1028.57a1.5,1.5,0,0,0,0-3,1.5,1.5,0,0,0,0,3Z"/><path class="cls-21" d="M765.92,1065.19a1.5,1.5,0,0,0,0-3,1.5,1.5,0,0,0,0,3Z"/><path class="cls-21" d="M251.81,1262.1a1.5,1.5,0,0,0,0-3,1.5,1.5,0,0,0,0,3Z"/><path class="cls-21" d="M519.53,1778.11a1.5,1.5,0,0,0,0-3,1.5,1.5,0,0,0,0,3Z"/><path class="cls-21" d="M191.7,1269.63a1.5,1.5,0,0,0,0-3,1.5,1.5,0,0,0,0,3Z"/><path class="cls-21" d="M282.73,1043.55a1.5,1.5,0,0,0,0-3,1.5,1.5,0,0,0,0,3Z"/><path class="cls-21" d="M500,1197.05a1.5,1.5,0,0,0,0-3,1.5,1.5,0,0,0,0,3Z"/><path class="cls-21" d="M503,1262.08a1.5,1.5,0,0,0,0-3,1.5,1.5,0,0,0,0,3Z"/><path class="cls-21" d="M579.86,1190.12a1.5,1.5,0,0,0,0-3,1.5,1.5,0,0,0,0,3Z"/><path class="cls-21" d="M299.11,1291.53a1.5,1.5,0,0,0,0-3,1.5,1.5,0,0,0,0,3Z"/><path class="cls-21" d="M950.24,1540.8a1.5,1.5,0,0,0,0-3,1.5,1.5,0,0,0,0,3Z"/><path class="cls-21" d="M903,1502.27a1.5,1.5,0,0,0,0-3,1.5,1.5,0,0,0,0,3Z"/><path class="cls-21" d="M1169.3,1676.13a1.5,1.5,0,0,0,0-3,1.5,1.5,0,0,0,0,3Z"/><path class="cls-21" d="M1125.71,1723.78a1.5,1.5,0,0,0,0-3,1.5,1.5,0,0,0,0,3Z"/><path class="cls-21" d="M1230,1729.49a1.5,1.5,0,0,0,0-3,1.5,1.5,0,0,0,0,3Z"/><path class="cls-21" d="M962.59,1595.82a1.5,1.5,0,0,0,0-3,1.5,1.5,0,0,0,0,3Z"/><path class="cls-21" d="M2188.36,1640.22a1.5,1.5,0,0,0,0-3,1.5,1.5,0,0,0,0,3Z"/></g><g class="cls-22"><path class="cls-21" d="M2753.67,903a.5.5,0,0,0,0-1,.5.5,0,0,0,0,1Z"/><path class="cls-21" d="M2762.54,945.12a.5.5,0,0,0,0-1,.5.5,0,0,0,0,1Z"/><path class="cls-21" d="M2774.36,924.06a.5.5,0,0,0,0-1,.5.5,0,0,0,0,1Z"/><path class="cls-21" d="M2192.21,1032.35a.5.5,0,0,0,0-1,.5.5,0,0,0,0,1Z"/><path class="cls-21" d="M2221.76,1029.34a.5.5,0,0,0,0-1,.5.5,0,0,0,0,1Z"/><path class="cls-21" d="M1908.52,1209.82a.5.5,0,0,0,0-1,.5.5,0,0,0,0,1Z"/><path class="cls-21" d="M1958.76,1300.07a.5.5,0,0,0,0-1,.5.5,0,0,0,0,1Z"/><path class="cls-21" d="M1973.53,1273a.5.5,0,0,0,0-1,.5.5,0,0,0,0,1Z"/><path class="cls-21" d="M2000.13,1288a.5.5,0,0,0,0-1,.5.5,0,0,0,0,1Z"/><path class="cls-21" d="M1163.84,1880.61a.5.5,0,0,0,0-1,.5.5,0,0,0,0,1Z"/><path class="cls-21" d="M1110.65,1883.62a.5.5,0,0,0,0-1,.5.5,0,0,0,0,1Z"/><path class="cls-21" d="M1920.34,1700.13a.5.5,0,0,0,0-1,.5.5,0,0,0,0,1Z"/><path class="cls-21" d="M1873.06,1631a.5.5,0,0,0,0-1,.5.5,0,0,0,0,1Z"/><path class="cls-21" d="M1988.31,1624.93a.5.5,0,0,0,0-1,.5.5,0,0,0,0,1Z"/><path class="cls-21" d="M1961.71,1468.51a.5.5,0,0,0,0-1,.5.5,0,0,0,0,1Z"/><path class="cls-21" d="M1852.37,1450.47a.5.5,0,0,0,0-1,.5.5,0,0,0,0,1Z"/><path class="cls-21" d="M1920.34,1420.39a.5.5,0,0,0,0-1,.5.5,0,0,0,0,1Z"/><path class="cls-21" d="M1577.55,1429.41a.5.5,0,0,0,0-1,.5.5,0,0,0,0,1Z"/><path class="cls-21" d="M1592.33,1465.51a.5.5,0,0,0,0-1,.5.5,0,0,0,0,1Z"/><path class="cls-21" d="M1627.79,1408.35a.5.5,0,0,0,0-1,.5.5,0,0,0,0,1Z"/><path class="cls-21" d="M1314.55,1306.08a.5.5,0,0,0,0-1,.5.5,0,0,0,0,1Z"/><path class="cls-21" d="M1353,1339.17a.5.5,0,0,0,0-1,.5.5,0,0,0,0,1Z"/><path class="cls-21" d="M1367.74,1273a.5.5,0,0,0,0-1,.5.5,0,0,0,0,1Z"/><path class="cls-21" d="M2351.78,560.09a.5.5,0,0,0,0-1,.5.5,0,0,0,0,1Z"/><path class="cls-21" d="M2369.51,1128.61a.5.5,0,0,0,0-1,.5.5,0,0,0,0,1Z"/><path class="cls-21" d="M2741.85,1402.34a.5.5,0,0,0,0-1,.5.5,0,0,0,0,1Z"/><path class="cls-21" d="M2765.49,1342.18a.5.5,0,0,0,0-1,.5.5,0,0,0,0,1Z"/><path class="cls-21" d="M2830.51,1372.26a.5.5,0,0,0,0-1,.5.5,0,0,0,0,1Z"/><path class="cls-21" d="M2777.31,1378.27a.5.5,0,0,0,0-1,.5.5,0,0,0,0,1Z"/><path class="cls-21" d="M2951.66,1128.61a.5.5,0,0,0,0-1,.5.5,0,0,0,0,1Z"/><path class="cls-21" d="M2910.29,1134.62a.5.5,0,0,0,0-1,.5.5,0,0,0,0,1Z"/><path class="cls-21" d="M2579.32,833.82a.5.5,0,0,0,0-1,.5.5,0,0,0,0,1Z"/><path class="cls-21" d="M2620.7,836.83a.5.5,0,0,0,0-1,.5.5,0,0,0,0,1Z"/><path class="cls-21" d="M2535,782.69a.5.5,0,0,0,0-1,.5.5,0,0,0,0,1Z"/><path class="cls-21" d="M2783.22,656.35a.5.5,0,0,0,0-1,.5.5,0,0,0,0,1Z"/><path class="cls-21" d="M2809.82,653.34a.5.5,0,0,0,0-1,.5.5,0,0,0,0,1Z"/><path class="cls-21" d="M2818.69,623.26a.5.5,0,0,0,0-1,.5.5,0,0,0,0,1Z"/><path class="cls-21" d="M2836.42,701.47a.5.5,0,0,0,0-1,.5.5,0,0,0,0,1Z"/><path class="cls-21" d="M2874.83,403.67a.5.5,0,0,0,0-1,.5.5,0,0,0,0,1Z"/><path class="cls-21" d="M2827.55,298.39a.5.5,0,0,0,0-1,.5.5,0,0,0,0,1Z"/><path class="cls-21" d="M2220.28,1344.88a.5.5,0,0,0,0-1,.5.5,0,0,0,0,1Z"/><path class="cls-21" d="M2264.16,1344.88a.5.5,0,0,0,0-1,.5.5,0,0,0,0,1Z"/><path class="cls-21" d="M2555.39,1040.32a.5.5,0,0,0,0-1,.5.5,0,0,0,0,1Z"/><path class="cls-21" d="M2615.23,1048.44a.5.5,0,0,0,0-1,.5.5,0,0,0,0,1Z"/><path class="cls-21" d="M2523.47,983.47a.5.5,0,0,0,0-1,.5.5,0,0,0,0,1Z"/><path class="cls-21" d="M2782.78,443.38a.5.5,0,0,0,0-1,.5.5,0,0,0,0,1Z"/><path class="cls-21" d="M2387.83,1641.33a.5.5,0,0,0,0-1,.5.5,0,0,0,0,1Z"/><path class="cls-21" d="M2467.62,1686a.5.5,0,0,0,0-1,.5.5,0,0,0,0,1Z"/><path class="cls-21" d="M2459.64,1576.35a.5.5,0,0,0,0-1,.5.5,0,0,0,0,1Z"/><path class="cls-21" d="M2443.69,1641.33a.5.5,0,0,0,0-1,.5.5,0,0,0,0,1Z"/><path class="cls-21" d="M2284.11,1824.06a.5.5,0,0,0,0-1,.5.5,0,0,0,0,1Z"/><path class="cls-21" d="M2359.91,1921.52a.5.5,0,0,0,0-1,.5.5,0,0,0,0,1Z"/><path class="cls-21" d="M2647.14,1706.3a.5.5,0,0,0,0-1,.5.5,0,0,0,0,1Z"/><path class="cls-21" d="M1789.43,752a.5.5,0,0,0,0-1,.5.5,0,0,0,0,1Z"/><path class="cls-21" d="M1881.19,760.13a.5.5,0,0,0,0-1,.5.5,0,0,0,0,1Z"/><path class="cls-21" d="M1586,524.6a.5.5,0,0,0,0-1,.5.5,0,0,0,0,1Z"/><path class="cls-21" d="M1546.08,228.16a.5.5,0,0,0,0-1,.5.5,0,0,0,0,1Z"/><path class="cls-21" d="M1637.83,358.1a.5.5,0,0,0,0-1,.5.5,0,0,0,0,1Z"/><path class="cls-21" d="M1542.09,187.55a.5.5,0,0,0,0-1,.5.5,0,0,0,0,1Z"/><path class="cls-21" d="M1574,183.49a.5.5,0,0,0,0-1,.5.5,0,0,0,0,1Z"/><path class="cls-21" d="M1326.66,313.43a.5.5,0,0,0,0-1,.5.5,0,0,0,0,1Z"/><path class="cls-21" d="M1454.32,475.87a.5.5,0,0,0,0-1,.5.5,0,0,0,0,1Z"/><path class="cls-21" d="M1222.94,423.08a.5.5,0,0,0,0-1,.5.5,0,0,0,0,1Z"/><path class="cls-21" d="M1222.94,898.19a.5.5,0,0,0,0-1,.5.5,0,0,0,0,1Z"/><path class="cls-21" d="M1322.68,1117.48a.5.5,0,0,0,0-1,.5.5,0,0,0,0,1Z"/><path class="cls-21" d="M2355.92,975.35a.5.5,0,0,0,0-1,.5.5,0,0,0,0,1Z"/><path class="cls-21" d="M2407.78,1003.78a.5.5,0,0,0,0-1,.5.5,0,0,0,0,1Z"/><path class="cls-21" d="M2367.89,1036.26a.5.5,0,0,0,0-1,.5.5,0,0,0,0,1Z"/><path class="cls-21" d="M2140.49,1698.18a.5.5,0,0,0,0-1,.5.5,0,0,0,0,1Z"/><path class="cls-21" d="M2280.12,1746.91a.5.5,0,0,0,0-1,.5.5,0,0,0,0,1Z"/><path class="cls-21" d="M2347.94,1815.94a.5.5,0,0,0,0-1,.5.5,0,0,0,0,1Z"/><path class="cls-21" d="M1741.56,1751a.5.5,0,0,0,0-1,.5.5,0,0,0,0,1Z"/></g><path class="cls-23" d="M1651.37,1973.81a14,14,0,1,1-14-14.21A14.09,14.09,0,0,1,1651.37,1973.81Z"/><path class="cls-21" d="M1644.81,1973.81a7.4,7.4,0,1,1-7.4-7.53A7.46,7.46,0,0,1,1644.81,1973.81Z"/><path class="cls-23" d="M1907.34,1287.87a11.65,11.65,0,1,1-11.65-11.86A11.75,11.75,0,0,1,1907.34,1287.87Z"/><path class="cls-21" d="M1901.86,1287.87a6.17,6.17,0,1,1-6.17-6.28A6.22,6.22,0,0,1,1901.86,1287.87Z"/><path class="cls-23" d="M2393.82,1523.06a14,14,0,1,1-14-14.21A14.09,14.09,0,0,1,2393.82,1523.06Z"/><path class="cls-21" d="M2387.25,1523.06a7.4,7.4,0,1,1-7.39-7.53A7.46,7.46,0,0,1,2387.25,1523.06Z"/><path class="cls-23" d="M1663.77,1553.52a14,14,0,1,1-14-14.22A14.09,14.09,0,0,1,1663.77,1553.52Z"/><ellipse class="cls-21" cx="1649.8" cy="1553.52" rx="7.4" ry="7.53"/><path class="cls-23" d="M1910.36,909.88a14,14,0,1,1-14-14.22A14.09,14.09,0,0,1,1910.36,909.88Z"/><path class="cls-21" d="M1903.8,909.88a7.4,7.4,0,1,1-7.4-7.53A7.47,7.47,0,0,1,1903.8,909.88Z"/><path class="cls-23" d="M3000.2,873.33a14,14,0,1,1-14-14.21A14.09,14.09,0,0,1,3000.2,873.33Z"/><ellipse class="cls-21" cx="2986.24" cy="873.33" rx="7.4" ry="7.53"/><path class="cls-23" d="M2153.63,1092.61a14,14,0,1,1-14-14.21A14.1,14.1,0,0,1,2153.63,1092.61Z"/><path class="cls-21" d="M2147.06,1092.61a7.4,7.4,0,1,1-7.4-7.53A7.46,7.46,0,0,1,2147.06,1092.61Z"/><path class="cls-23" d="M1560.29,1878.72a18.12,18.12,0,1,1-18.12-18.44A18.28,18.28,0,0,1,1560.29,1878.72Z"/><path class="cls-21" d="M1551.77,1878.72a9.6,9.6,0,1,1-9.6-9.77A9.69,9.69,0,0,1,1551.77,1878.72Z"/><path class="cls-23" d="M1189.19,1793.11a18.11,18.11,0,1,1-18.11-18.44A18.27,18.27,0,0,1,1189.19,1793.11Z"/><path class="cls-21" d="M1180.68,1793.11a9.6,9.6,0,1,1-9.6-9.77A9.68,9.68,0,0,1,1180.68,1793.11Z"/><path class="cls-23" d="M2346.11,678.41A18.12,18.12,0,1,1,2328,660,18.28,18.28,0,0,1,2346.11,678.41Z"/><path class="cls-21" d="M2337.59,678.41a9.6,9.6,0,1,1-9.6-9.77A9.69,9.69,0,0,1,2337.59,678.41Z"/><path class="cls-23" d="M2813.82,1612.4a18.12,18.12,0,1,1-18.11-18.44A18.28,18.28,0,0,1,2813.82,1612.4Z"/><path class="cls-21" d="M2805.3,1612.4a9.6,9.6,0,1,1-9.59-9.77A9.68,9.68,0,0,1,2805.3,1612.4Z"/><path class="cls-23" d="M2821.68,1133.22a26,26,0,1,1-26-26.43A26.21,26.21,0,0,1,2821.68,1133.22Z"/><path class="cls-21" d="M2809.47,1133.22a13.76,13.76,0,1,1-13.76-14A13.88,13.88,0,0,1,2809.47,1133.22Z"/><path class="cls-23" d="M2197.36,1508.85a26,26,0,1,1-26-26.44A26.2,26.2,0,0,1,2197.36,1508.85Z"/><path class="cls-21" d="M2185.15,1508.85a13.76,13.76,0,1,1-13.76-14A13.88,13.88,0,0,1,2185.15,1508.85Z"/><path class="cls-23" d="M2916.94,589.07a26,26,0,1,1-26-26.44A26.21,26.21,0,0,1,2916.94,589.07Z"/><path class="cls-21" d="M2904.73,589.07a13.76,13.76,0,1,1-13.76-14A13.88,13.88,0,0,1,2904.73,589.07Z"/><path class="cls-23" d="M2560.37,1973.81a26,26,0,1,1-26-26.43A26.21,26.21,0,0,1,2560.37,1973.81Z"/><path class="cls-21" d="M2548.16,1973.81a13.76,13.76,0,1,1-13.76-14A13.88,13.88,0,0,1,2548.16,1973.81Z"/><polyline class="cls-24" points="931.08 1815.44 587.99 1602.63 991.56 1973.81"/><polyline class="cls-25" points="587.99 1602.63 383.21 1815.44 991.56 1973.81 931.08 1815.44"/><polyline class="cls-26" points="0.2 1973.81 202.35 1699.63 383.21 1815.44 0.2 1973.81"/><line class="cls-27" x1="758.21" y1="1973.81" x2="383.21" y2="1815.44"/><polygon class="cls-28" points="292.78 1429.77 396.5 1587.93 433.74 1502.65 292.78 1429.77"/><polygon class="cls-29" points="687.73 1243.92 605.28 1453.88 804.75 1469.52 687.73 1243.92"/><polygon class="cls-30" points="93.31 1509.52 138.53 1593.96 93.31 1636.46 93.31 1509.52"/></g><g id="designed_by_freepik" data-name="designed by freepik"><path class="cls-31" d="M1500,1332a7.35,7.35,0,0,0-1.11,1.45l-.47-.24a.61.61,0,0,0-.66-.47.6.6,0,0,0,.15,1.2.61.61,0,0,0,.18,0l.45.23a7.56,7.56,0,0,0-.54,1.75l.75.13a6.57,6.57,0,0,1,1.79-3.47Z"/><path class="cls-31" d="M1505.49,1329.72H1505l-.08-.62a.72.72,0,0,0,.27-.65.72.72,0,1,0-1.43.17.71.71,0,0,0,.41.56l.07.63a7.57,7.57,0,0,0-2.06.64l.33.69a6.83,6.83,0,0,1,3-.68,7.27,7.27,0,0,1,1.47.16l.16-.74A7.4,7.4,0,0,0,1505.49,1329.72Z"/><path class="cls-31" d="M1512.09,1332.26a.6.6,0,0,0,.52-.67.6.6,0,0,0-1.2.08l-.42.37a7,7,0,0,0-1.4-1.14l-.41.64a6.78,6.78,0,0,1,2.57,2.92l.69-.31a7.18,7.18,0,0,0-1-1.54l.41-.35Z"/><path class="cls-31" d="M1504.94,1339.92c-.39,0-.78,0-1.16,0a16,16,0,0,1-2.48-.18,8.19,8.19,0,0,1-1.27-.29,6.2,6.2,0,0,0,11.34-1.38,9.83,9.83,0,0,1-2.46,1.12A16.6,16.6,0,0,1,1504.94,1339.92Z"/><path class="cls-31" d="M1505.49,1331.23a6,6,0,0,0-6,7.21c.68.48,2.71.89,5.35.73,2.88-.18,5.3-1,6.67-2.16a5.46,5.46,0,0,0,0-.58A6,6,0,0,0,1505.49,1331.23Zm-2.16,6.52a1.85,1.85,0,1,1,1.85-1.85A1.85,1.85,0,0,1,1503.33,1337.75Zm4.73-.91a1.36,1.36,0,1,1,1.36-1.36A1.36,1.36,0,0,1,1508.06,1336.84Z"/><path class="cls-31" d="M1521.49,1333.1a2.8,2.8,0,0,0-1.38-.24.87.87,0,0,0-.85,1v.86h2.23v1.72h-2.23v5.46h-1.93v-5.46H1516v-1.72h1.34v-.88a2.47,2.47,0,0,1,2.57-2.79,4,4,0,0,1,1.59.31Z"/><path class="cls-31" d="M1526.19,1336.43a3.23,3.23,0,0,0-.53,0,1.43,1.43,0,0,0-1.5,1.61v3.91h-1.94v-7.18h1.88v.79a2.27,2.27,0,0,1,2-1,1.79,1.79,0,0,1,1.09.34Z"/><path class="cls-31" d="M1533.86,1338.31a6,6,0,0,1,0,.65h-5.08a1.72,1.72,0,0,0,1.84,1.49,2.88,2.88,0,0,0,1.81-.69l1.14,1.24a4.37,4.37,0,0,1-3.06,1.09,3.78,3.78,0,0,1-.1-7.55A3.47,3.47,0,0,1,1533.86,1338.31Zm-5.12-.67h3.18a1.55,1.55,0,0,0-1.56-1.43A1.57,1.57,0,0,0,1528.74,1337.64Z"/><path class="cls-31" d="M1541.51,1338.31a4.19,4.19,0,0,1,0,.65h-5.08a1.73,1.73,0,0,0,1.84,1.49,2.91,2.91,0,0,0,1.82-.69l1.13,1.24a4.35,4.35,0,0,1-3.06,1.09,3.78,3.78,0,0,1-.09-7.55A3.46,3.46,0,0,1,1541.51,1338.31Zm-5.11-.67h3.17a1.59,1.59,0,0,0-3.17,0Z"/><path class="cls-31" d="M1549.86,1338.32a3.55,3.55,0,0,1-3.47,3.77,2.62,2.62,0,0,1-2.11-.93v3.71h-1.93v-10.14h1.89v.8a2.59,2.59,0,0,1,2.14-1A3.56,3.56,0,0,1,1549.86,1338.32Zm-5.68,0a1.85,1.85,0,1,0,1.84-2A1.84,1.84,0,0,0,1544.18,1338.32Z"/><path class="cls-31" d="M1553,1332.39a1.23,1.23,0,1,1-1.24-1.24A1.22,1.22,0,0,1,1553,1332.39Zm-.26,9.52h-1.93v-7.18h1.93Z"/><path class="cls-31" d="M1555.93,1337.29l2.7-2.56H1561l-3.48,3.38,3.5,3.8h-2.38l-2.71-2.9v2.9H1554v-10.66h1.94Z"/><path class="cls-31" d="M1424.31,1341.84v-1a3,3,0,0,1-2.39,1.23c-1.85,0-3.15-1.41-3.15-3.71s1.29-3.72,3.15-3.72a3,3,0,0,1,2.39,1.25v-3.77h1.09v9.77Zm0-1.92v-3.2a2.67,2.67,0,0,0-2.13-1.15c-1.42,0-2.27,1.17-2.27,2.74s.85,2.73,2.27,2.73A2.64,2.64,0,0,0,1424.31,1339.92Z"/><path class="cls-31" d="M1426.83,1338.3a3.54,3.54,0,0,1,3.48-3.71c2.14,0,3.4,1.67,3.4,3.79v.28H1428a2.5,2.5,0,0,0,2.55,2.45,3.07,3.07,0,0,0,2.18-.89l.53.71a3.8,3.8,0,0,1-2.81,1.09A3.5,3.5,0,0,1,1426.83,1338.3Zm3.47-2.8a2.36,2.36,0,0,0-2.32,2.36h4.65A2.3,2.3,0,0,0,1430.3,1335.5Z"/><path class="cls-31" d="M1434.5,1340.9l.57-.79a3.17,3.17,0,0,0,2.33,1c1.08,0,1.67-.51,1.67-1.21,0-1.72-4.38-.66-4.38-3.28,0-1.1,1-2,2.64-2a3.58,3.58,0,0,1,2.62,1l-.51.76a2.78,2.78,0,0,0-2.11-.9c-1,0-1.57.49-1.57,1.12,0,1.55,4.38.53,4.38,3.28,0,1.19-1,2.14-2.78,2.14A3.75,3.75,0,0,1,1434.5,1340.9Z"/><path class="cls-31" d="M1441.37,1333a.74.74,0,1,1,.73.74A.74.74,0,0,1,1441.37,1333Zm.19,8.82v-7.07h1.1v7.07Z"/><path class="cls-31" d="M1444.48,1343.66l.55-.82a2.71,2.71,0,0,0,2.3,1,2,2,0,0,0,2.27-2.12v-1a2.93,2.93,0,0,1-2.37,1.26c-1.85,0-3.15-1.38-3.15-3.66s1.29-3.68,3.15-3.68a2.92,2.92,0,0,1,2.37,1.25v-1.07h1.1v6.87c0,2.34-1.64,3.07-3.37,3.07A3.59,3.59,0,0,1,1444.48,1343.66Zm5.12-3.85v-3.09a2.6,2.6,0,0,0-2.11-1.15c-1.42,0-2.27,1.13-2.27,2.7s.85,2.69,2.27,2.69A2.62,2.62,0,0,0,1449.6,1339.81Z"/><path class="cls-31" d="M1457.31,1341.84v-4.63c0-1.24-.63-1.64-1.59-1.64a2.73,2.73,0,0,0-2.09,1.1v5.17h-1.1v-7.07h1.1v1a3.53,3.53,0,0,1,2.52-1.2,2,2,0,0,1,2.26,2.29v5Z"/><path class="cls-31" d="M1459.83,1338.3a3.54,3.54,0,0,1,3.48-3.71c2.14,0,3.4,1.67,3.4,3.79v.28H1461a2.5,2.5,0,0,0,2.55,2.45,3.07,3.07,0,0,0,2.18-.89l.53.71a3.8,3.8,0,0,1-2.81,1.09A3.5,3.5,0,0,1,1459.83,1338.3Zm3.47-2.8a2.36,2.36,0,0,0-2.32,2.36h4.65A2.3,2.3,0,0,0,1463.3,1335.5Z"/><path class="cls-31" d="M1473.24,1341.84v-1a3,3,0,0,1-2.38,1.23c-1.85,0-3.15-1.41-3.15-3.71s1.29-3.72,3.15-3.72a2.94,2.94,0,0,1,2.38,1.25v-3.77h1.1v9.77Zm0-1.92v-3.2a2.63,2.63,0,0,0-2.12-1.15c-1.42,0-2.27,1.17-2.27,2.74s.85,2.73,2.27,2.73A2.61,2.61,0,0,0,1473.24,1339.92Z"/><path class="cls-31" d="M1479.59,1341.84v-9.77h1.09v3.77a2.94,2.94,0,0,1,2.39-1.25c1.85,0,3.15,1.47,3.15,3.72s-1.3,3.71-3.15,3.71a3,3,0,0,1-2.39-1.23v1Zm3.2-.8c1.44,0,2.29-1.16,2.29-2.73s-.85-2.74-2.29-2.74a2.63,2.63,0,0,0-2.11,1.15v3.2A2.6,2.6,0,0,0,1482.79,1341Z"/><path class="cls-31" d="M1487.42,1343.61a1.57,1.57,0,0,0,.6.12,1,1,0,0,0,1.06-.75l.47-1.06-3-7.15h1.18l2.36,5.8,2.35-5.8h1.2l-3.55,8.51a2.09,2.09,0,0,1-2.08,1.43,3.44,3.44,0,0,1-.8-.1Z"/></g></g></svg>