<svg xmlns="http://www.w3.org/2000/svg" xmlns:xlink="http://www.w3.org/1999/xlink" viewBox="0 0 752.45 506.76"><defs><style>.cls-1{fill:url(#radial-gradient);}.cls-10,.cls-11,.cls-12,.cls-13,.cls-14,.cls-15,.cls-16,.cls-17,.cls-18,.cls-19,.cls-2,.cls-23,.cls-24,.cls-25,.cls-26,.cls-27,.cls-28,.cls-29,.cls-3,.cls-30,.cls-4,.cls-5,.cls-6,.cls-7,.cls-8,.cls-9{fill:none;stroke-width:0.5px;}.cls-10,.cls-11,.cls-12,.cls-2,.cls-3,.cls-4,.cls-5,.cls-6,.cls-7,.cls-8,.cls-9{stroke-linecap:round;stroke-linejoin:round;}.cls-2{stroke:url(#linear-gradient);}.cls-3{stroke:url(#linear-gradient-2);}.cls-4{stroke:url(#linear-gradient-3);}.cls-5{stroke:url(#linear-gradient-4);}.cls-6{stroke:url(#linear-gradient-5);}.cls-7{stroke:url(#linear-gradient-6);}.cls-8{stroke:url(#linear-gradient-7);}.cls-9{stroke:url(#linear-gradient-8);}.cls-10{stroke:url(#linear-gradient-9);}.cls-11{stroke:url(#linear-gradient-10);}.cls-12{stroke:url(#linear-gradient-11);}.cls-13,.cls-14,.cls-15,.cls-16,.cls-17,.cls-18,.cls-19,.cls-23,.cls-24,.cls-25,.cls-26,.cls-27,.cls-28,.cls-29,.cls-30{stroke-miterlimit:10;}.cls-13{stroke:url(#linear-gradient-12);}.cls-14{stroke:url(#linear-gradient-13);}.cls-15{stroke:url(#linear-gradient-14);}.cls-16{stroke:url(#linear-gradient-15);}.cls-17{stroke:url(#linear-gradient-16);}.cls-18{stroke:url(#linear-gradient-17);}.cls-19{stroke:url(#linear-gradient-18);}.cls-20{opacity:0.8;}.cls-21{fill:#fff;}.cls-22{opacity:0.5;}.cls-23{stroke:#29efbb;}.cls-24{stroke:url(#linear-gradient-19);}.cls-25{stroke:url(#linear-gradient-20);}.cls-26{stroke:url(#linear-gradient-21);}.cls-27{stroke:url(#linear-gradient-22);}.cls-28{stroke:url(#linear-gradient-23);}.cls-29{stroke:url(#linear-gradient-24);}.cls-30{stroke:url(#linear-gradient-25);}</style><radialGradient id="radial-gradient" cx="-28.79" cy="-775.99" r="704.28" gradientTransform="translate(98.41 -540.49) rotate(180) scale(1 1.5)" gradientUnits="userSpaceOnUse"><stop offset="0" stop-color="#29efbb"/><stop offset="0.21" stop-color="#2bb7b1"/><stop offset="0.49" stop-color="#2e74a6"/><stop offset="0.72" stop-color="#2f439d"/><stop offset="0.9" stop-color="#312498"/><stop offset="1" stop-color="#311996"/></radialGradient><linearGradient id="linear-gradient" x1="674.45" y1="455.5" x2="701.19" y2="455.5" gradientUnits="userSpaceOnUse"><stop offset="0" stop-color="#29efbb"/><stop offset="0.16" stop-color="#4ef1c7"/><stop offset="0.57" stop-color="#a9f6e3"/><stop offset="0.86" stop-color="#e3faf5"/><stop offset="1" stop-color="#f9fbfc"/></linearGradient><linearGradient id="linear-gradient-2" x1="544.2" y1="396.5" x2="748.95" y2="396.5" xlink:href="#linear-gradient"/><linearGradient id="linear-gradient-3" x1="543.45" y1="396.5" x2="701.19" y2="396.5" xlink:href="#linear-gradient"/><linearGradient id="linear-gradient-4" x1="700.69" y1="226" x2="748.95" y2="226" xlink:href="#linear-gradient"/><linearGradient id="linear-gradient-5" x1="583.45" y1="176.5" x2="748.95" y2="176.5" xlink:href="#linear-gradient"/><linearGradient id="linear-gradient-6" x1="536.24" y1="285" x2="748.95" y2="285" xlink:href="#linear-gradient"/><linearGradient id="linear-gradient-7" x1="475.09" y1="373.5" x2="544.7" y2="373.5" xlink:href="#linear-gradient"/><linearGradient id="linear-gradient-8" x1="559.35" y1="126.75" x2="725.07" y2="126.75" xlink:href="#linear-gradient"/><linearGradient id="linear-gradient-9" x1="359.45" y1="245.29" x2="748.95" y2="245.29" xlink:href="#linear-gradient"/><linearGradient id="linear-gradient-10" x1="233.29" y1="430" x2="413.95" y2="430" xlink:href="#linear-gradient"/><linearGradient id="linear-gradient-11" x1="248.45" y1="477.75" x2="293.95" y2="477.75" xlink:href="#linear-gradient"/><linearGradient id="linear-gradient-12" x1="441.89" y1="270.48" x2="475.63" y2="270.48" xlink:href="#linear-gradient"/><linearGradient id="linear-gradient-13" x1="265.18" y1="367.76" x2="305.84" y2="367.76" xlink:href="#linear-gradient"/><linearGradient id="linear-gradient-14" x1="318.41" y1="343.18" x2="353.07" y2="343.18" xlink:href="#linear-gradient"/><linearGradient id="linear-gradient-15" x1="359.21" y1="258.06" x2="385.03" y2="258.06" xlink:href="#linear-gradient"/><linearGradient id="linear-gradient-16" x1="434.61" y1="185.55" x2="568.87" y2="185.55" xlink:href="#linear-gradient"/><linearGradient id="linear-gradient-17" x1="617.04" y1="85.98" x2="666.51" y2="85.98" xlink:href="#linear-gradient"/><linearGradient id="linear-gradient-18" x1="441.74" y1="55.94" x2="509.22" y2="55.94" xlink:href="#linear-gradient"/><linearGradient id="linear-gradient-19" x1="147.37" y1="454.28" x2="248.87" y2="454.28" xlink:href="#linear-gradient"/><linearGradient id="linear-gradient-20" x1="95.72" y1="454.39" x2="249.11" y2="454.39" xlink:href="#linear-gradient"/><linearGradient id="linear-gradient-21" x1="0" y1="466.19" x2="96.75" y2="466.19" xlink:href="#linear-gradient"/><linearGradient id="linear-gradient-22" x1="96.11" y1="480.5" x2="190.3" y2="480.5" xlink:href="#linear-gradient"/><linearGradient id="linear-gradient-23" x1="72.8" y1="385.43" x2="109.2" y2="385.43" xlink:href="#linear-gradient"/><linearGradient id="linear-gradient-24" x1="151.51" y1="347.88" x2="202.31" y2="347.88" xlink:href="#linear-gradient"/><linearGradient id="linear-gradient-25" x1="23.29" y1="401.09" x2="35.19" y2="401.09" xlink:href="#linear-gradient"/></defs><g id="Layer_2" data-name="Layer 2"><g id="artboard_2" data-name="artboard 2"><rect class="cls-1" x="125.2" y="-125" width="500" height="750" transform="translate(125.2 625.2) rotate(-90)"/><line class="cls-2" x1="700.94" y1="411" x2="674.7" y2="500"/><polyline class="cls-3" points="700.94 411 748.7 363 700.94 293 653.7 371 596.7 389 544.45 385 634.7 500 653.7 371 653.7 500 700.94 411 653.7 371 748.7 398 700.94 411 748.7 500"/><polygon class="cls-4" points="700.94 293 596.7 389 634.7 500 543.7 455.5 544.45 385 700.94 293"/><polygon class="cls-5" points="700.94 293 748.7 229 724.82 159 700.94 293"/><polyline class="cls-6" points="748.7 229 583.7 181 724.82 159 748.7 124"/><polyline class="cls-7" points="700.94 293 583.7 181 622.32 274 536.49 283 596.7 389 622.32 274 700.94 293 748.7 339"/><polyline class="cls-8" points="536.49 283 475.34 331 544.45 385 482.78 464 543.7 455.5"/><polyline class="cls-9" points="724.82 159 692.32 72.5 660.82 141.5 559.6 134 583.7 181"/><polyline class="cls-10" points="748.7 14 692.32 72.5 748.7 81 724.82 159 660.82 141.5 583.7 181 536.49 283 544.45 385 413.7 396.5 482.78 464 386.7 476.58 413.7 396.5 475.34 331 359.7 360 386.7 476.58"/><polyline class="cls-11" points="413.7 396.5 359.7 360 293.7 455.5 386.7 476.58 305.91 437.83 233.54 461 293.7 455.5 346.7 500 386.7 476.58 410.7 500 413.7 396.5"/><line class="cls-12" x1="293.7" y1="455.5" x2="248.7" y2="500"/><polygon class="cls-13" points="442.23 271 470.94 303 475.34 238 442.23 271"/><polyline class="cls-14" points="271.2 298 298.7 354 265.7 437 305.7 411"/><polygon class="cls-15" points="318.7 313 322.7 373.5 352.7 348 318.7 313"/><polygon class="cls-16" points="359.7 245.29 377.7 270.5 384.7 245.29 359.7 245.29"/><polyline class="cls-17" points="434.72 166 484.97 142 523.58 229 568.7 185.5"/><polygon class="cls-18" points="653.7 117 617.7 55 666.2 81 653.7 117"/><polygon class="cls-19" points="476.44 26 442.23 86 508.8 72.5 476.44 26"/><g class="cls-20"><path class="cls-21" d="M549.66,278.43a1.5,1.5,0,0,0,0-3,1.5,1.5,0,0,0,0,3Z"/><path class="cls-21" d="M577.07,376.94a1.5,1.5,0,0,0,0-3,1.5,1.5,0,0,0,0,3Z"/><path class="cls-21" d="M680,296.94a1.5,1.5,0,0,0,0-3,1.5,1.5,0,0,0,0,3Z"/><path class="cls-21" d="M686,253.24a1.5,1.5,0,0,0,0-3,1.5,1.5,0,0,0,0,3Z"/><path class="cls-21" d="M697.07,259.17a1.5,1.5,0,0,0,0-3,1.5,1.5,0,0,0,0,3Z"/><path class="cls-21" d="M534.85,452.5a1.5,1.5,0,0,0,0-3,1.5,1.5,0,0,0,0,3Z"/><path class="cls-21" d="M525.22,452.5a1.5,1.5,0,0,0,0-3,1.5,1.5,0,0,0,0,3Z"/><path class="cls-21" d="M293.37,468.8a1.5,1.5,0,0,0,0-3,1.5,1.5,0,0,0,0,3Z"/><path class="cls-21" d="M302.26,477.69a1.5,1.5,0,0,0,0-3,1.5,1.5,0,0,0,0,3Z"/><path class="cls-21" d="M734.11,492.5a1.5,1.5,0,0,0,0-3,1.5,1.5,0,0,0,0,3Z"/><path class="cls-21" d="M723,482.87a1.5,1.5,0,0,0,0-3,1.5,1.5,0,0,0,0,3Z"/><path class="cls-21" d="M687.44,410.28a1.5,1.5,0,0,0,0-3,1.5,1.5,0,0,0,0,3Z"/><path class="cls-21" d="M702.26,425.83a1.5,1.5,0,0,0,0-3,1.5,1.5,0,0,0,0,3Z"/><path class="cls-21" d="M682.26,418.43a1.5,1.5,0,0,0,0-3,1.5,1.5,0,0,0,0,3Z"/><path class="cls-21" d="M465.22,324.35a1.5,1.5,0,0,0,0-3,1.5,1.5,0,0,0,0,3Z"/><path class="cls-21" d="M471.89,323.61a1.5,1.5,0,0,0,0-3,1.5,1.5,0,0,0,0,3Z"/><path class="cls-21" d="M352.63,349.54a1.5,1.5,0,0,0,0-3,1.5,1.5,0,0,0,0,3Z"/><path class="cls-21" d="M435.59,167.31a1.5,1.5,0,0,0,0-3,1.5,1.5,0,0,0,0,3Z"/><path class="cls-21" d="M654.11,119.17a1.5,1.5,0,0,0,0-3,1.5,1.5,0,0,0,0,3Z"/><path class="cls-21" d="M509.66,74a1.5,1.5,0,0,0,0-3,1.5,1.5,0,0,0,0,3Z"/><path class="cls-21" d="M734.11,218.43a1.5,1.5,0,0,0,0-3,1.5,1.5,0,0,0,0,3Z"/><path class="cls-21" d="M727.44,213.24a1.5,1.5,0,0,0,0-3,1.5,1.5,0,0,0,0,3Z"/><path class="cls-21" d="M478.7,418.5a1.5,1.5,0,0,0,0-3,1.5,1.5,0,0,0,0,3Z"/><path class="cls-21" d="M486.7,422.5a1.5,1.5,0,0,0,0-3,1.5,1.5,0,0,0,0,3Z"/><path class="cls-21" d="M571.7,284.5a1.5,1.5,0,0,0,0-3,1.5,1.5,0,0,0,0,3Z"/><path class="cls-21" d="M586.7,305.5a1.5,1.5,0,0,0,0-3,1.5,1.5,0,0,0,0,3Z"/><path class="cls-21" d="M621.7,275.5a1.5,1.5,0,0,0,0-3,1.5,1.5,0,0,0,0,3Z"/><path class="cls-21" d="M354.7,334.5a1.5,1.5,0,0,0,0-3,1.5,1.5,0,0,0,0,3Z"/><path class="cls-21" d="M298.7,356.5a1.5,1.5,0,0,0,0-3,1.5,1.5,0,0,0,0,3Z"/><path class="cls-21" d="M335.7,411.5a1.5,1.5,0,0,0,0-3,1.5,1.5,0,0,0,0,3Z"/><path class="cls-21" d="M351.7,412.5a1.5,1.5,0,0,0,0-3,1.5,1.5,0,0,0,0,3Z"/><path class="cls-21" d="M333.7,431.5a1.5,1.5,0,0,0,0-3,1.5,1.5,0,0,0,0,3Z"/><path class="cls-21" d="M359.7,361.5a1.5,1.5,0,0,0,0-3,1.5,1.5,0,0,0,0,3Z"/><path class="cls-21" d="M559.7,135.5a1.5,1.5,0,0,0,0-3,1.5,1.5,0,0,0,0,3Z"/></g><g class="cls-20"><path class="cls-21" d="M538.66,276.05a1.5,1.5,0,0,0,0-3,1.5,1.5,0,0,0,0,3Z"/><path class="cls-21" d="M566.07,177.54a1.5,1.5,0,0,0,0-3,1.5,1.5,0,0,0,0,3Z"/><path class="cls-21" d="M669,257.54a1.5,1.5,0,0,0,0-3,1.5,1.5,0,0,0,0,3Z"/><path class="cls-21" d="M675,301.24a1.5,1.5,0,0,0,0-3,1.5,1.5,0,0,0,0,3Z"/><path class="cls-21" d="M686.07,295.31a1.5,1.5,0,0,0,0-3,1.5,1.5,0,0,0,0,3Z"/><path class="cls-21" d="M523.85,102a1.5,1.5,0,0,0,0-3,1.5,1.5,0,0,0,0,3Z"/><path class="cls-21" d="M514.22,102a1.5,1.5,0,0,0,0-3,1.5,1.5,0,0,0,0,3Z"/><path class="cls-21" d="M282.37,85.68a1.5,1.5,0,0,0,0-3,1.5,1.5,0,0,0,0,3Z"/><path class="cls-21" d="M291.26,76.8a1.5,1.5,0,0,0,0-3,1.5,1.5,0,0,0,0,3Z"/><path class="cls-21" d="M723.11,62a1.5,1.5,0,0,0,0-3,1.5,1.5,0,0,0,0,3Z"/><path class="cls-21" d="M712,71.61a1.5,1.5,0,0,0,0-3,1.5,1.5,0,0,0,0,3Z"/><path class="cls-21" d="M676.44,144.2a1.5,1.5,0,0,0,0-3,1.5,1.5,0,0,0,0,3Z"/><path class="cls-21" d="M691.26,128.65a1.5,1.5,0,0,0,0-3,1.5,1.5,0,0,0,0,3Z"/><path class="cls-21" d="M671.26,136.05a1.5,1.5,0,0,0,0-3,1.5,1.5,0,0,0,0,3Z"/><path class="cls-21" d="M454.22,230.13a1.5,1.5,0,0,0,0-3,1.5,1.5,0,0,0,0,3Z"/><path class="cls-21" d="M460.88,230.87a1.5,1.5,0,0,0,0-3,1.5,1.5,0,0,0,0,3Z"/><path class="cls-21" d="M341.63,204.94a1.5,1.5,0,0,0,0-3,1.5,1.5,0,0,0,0,3Z"/><path class="cls-21" d="M424.59,387.17a1.5,1.5,0,0,0,0-3,1.5,1.5,0,0,0,0,3Z"/><path class="cls-21" d="M636.11,435.31a1.5,1.5,0,0,0,0-3,1.5,1.5,0,0,0,0,3Z"/><path class="cls-21" d="M498.66,480.5a1.5,1.5,0,0,0,0-3,1.5,1.5,0,0,0,0,3Z"/><path class="cls-21" d="M723.11,336.05a1.5,1.5,0,0,0,0-3,1.5,1.5,0,0,0,0,3Z"/><path class="cls-21" d="M716.44,341.24a1.5,1.5,0,0,0,0-3,1.5,1.5,0,0,0,0,3Z"/><path class="cls-21" d="M467.7,136a1.5,1.5,0,0,0,0-3,1.5,1.5,0,0,0,0,3Z"/><path class="cls-21" d="M475.7,132a1.5,1.5,0,0,0,0-3,1.5,1.5,0,0,0,0,3Z"/><path class="cls-21" d="M560.7,270a1.5,1.5,0,0,0,0-3,1.5,1.5,0,0,0,0,3Z"/><path class="cls-21" d="M575.7,249a1.5,1.5,0,0,0,0-3,1.5,1.5,0,0,0,0,3Z"/><path class="cls-21" d="M610.7,279a1.5,1.5,0,0,0,0-3,1.5,1.5,0,0,0,0,3Z"/><path class="cls-21" d="M343.7,220a1.5,1.5,0,0,0,0-3,1.5,1.5,0,0,0,0,3Z"/><path class="cls-21" d="M287.7,198a1.5,1.5,0,0,0,0-3,1.5,1.5,0,0,0,0,3Z"/><path class="cls-21" d="M324.7,143a1.5,1.5,0,0,0,0-3,1.5,1.5,0,0,0,0,3Z"/><path class="cls-21" d="M340.7,142a1.5,1.5,0,0,0,0-3,1.5,1.5,0,0,0,0,3Z"/><path class="cls-21" d="M322.7,123a1.5,1.5,0,0,0,0-3,1.5,1.5,0,0,0,0,3Z"/><path class="cls-21" d="M348.7,193a1.5,1.5,0,0,0,0-3,1.5,1.5,0,0,0,0,3Z"/><path class="cls-21" d="M183.38,268.36a1.5,1.5,0,0,0,0-3,1.5,1.5,0,0,0,0,3Z"/><path class="cls-21" d="M192.14,277.38a1.5,1.5,0,0,0,0-3,1.5,1.5,0,0,0,0,3Z"/><path class="cls-21" d="M63.27,325.87a1.5,1.5,0,0,0,0-3,1.5,1.5,0,0,0,0,3Z"/><path class="cls-21" d="M130.38,452.94a1.5,1.5,0,0,0,0-3,1.5,1.5,0,0,0,0,3Z"/><path class="cls-21" d="M48.2,327.72a1.5,1.5,0,0,0,0-3,1.5,1.5,0,0,0,0,3Z"/><path class="cls-21" d="M71,272.05a1.5,1.5,0,0,0,0-3,1.5,1.5,0,0,0,0,3Z"/><path class="cls-21" d="M125.47,309.85a1.5,1.5,0,0,0,0-3,1.5,1.5,0,0,0,0,3Z"/><path class="cls-21" d="M126.24,325.86a1.5,1.5,0,0,0,0-3,1.5,1.5,0,0,0,0,3Z"/><path class="cls-21" d="M145.5,308.14a1.5,1.5,0,0,0,0-3,1.5,1.5,0,0,0,0,3Z"/><path class="cls-21" d="M75.13,333.12a1.5,1.5,0,0,0,0-3,1.5,1.5,0,0,0,0,3Z"/><path class="cls-21" d="M238.34,394.5a1.5,1.5,0,0,0,0-3,1.5,1.5,0,0,0,0,3Z"/><path class="cls-21" d="M226.49,385a1.5,1.5,0,0,0,0-3,1.5,1.5,0,0,0,0,3Z"/><path class="cls-21" d="M293.25,427.83a1.5,1.5,0,0,0,0-3,1.5,1.5,0,0,0,0,3Z"/><path class="cls-21" d="M282.33,439.56a1.5,1.5,0,0,0,0-3,1.5,1.5,0,0,0,0,3Z"/><path class="cls-21" d="M308.46,441a1.5,1.5,0,0,0,0-3,1.5,1.5,0,0,0,0,3Z"/><path class="cls-21" d="M241.44,408.05a1.5,1.5,0,0,0,0-3,1.5,1.5,0,0,0,0,3Z"/><path class="cls-21" d="M548.7,419a1.5,1.5,0,0,0,0-3,1.5,1.5,0,0,0,0,3Z"/></g><g class="cls-22"><path class="cls-21" d="M690.4,236.69a.5.5,0,0,0,0-1,.5.5,0,0,0,0,1Z"/><path class="cls-21" d="M692.63,247.06a.5.5,0,0,0,0-1,.5.5,0,0,0,0,1Z"/><path class="cls-21" d="M695.59,241.87a.5.5,0,0,0,0-1,.5.5,0,0,0,0,1Z"/><path class="cls-21" d="M549.66,268.54a.5.5,0,0,0,0-1,.5.5,0,0,0,0,1Z"/><path class="cls-21" d="M557.07,267.8a.5.5,0,0,0,0-1,.5.5,0,0,0,0,1Z"/><path class="cls-21" d="M478.55,312.24a.5.5,0,0,0,0-1,.5.5,0,0,0,0,1Z"/><path class="cls-21" d="M491.14,334.46a.5.5,0,0,0,0-1,.5.5,0,0,0,0,1Z"/><path class="cls-21" d="M494.85,327.8a.5.5,0,0,0,0-1,.5.5,0,0,0,0,1Z"/><path class="cls-21" d="M501.51,331.5a.5.5,0,0,0,0-1,.5.5,0,0,0,0,1Z"/><path class="cls-21" d="M291.89,477.43a.5.5,0,0,0,0-1,.5.5,0,0,0,0,1Z"/><path class="cls-21" d="M278.55,478.17a.5.5,0,0,0,0-1,.5.5,0,0,0,0,1Z"/><path class="cls-21" d="M481.51,433a.5.5,0,0,0,0-1,.5.5,0,0,0,0,1Z"/><path class="cls-21" d="M469.66,415.94a.5.5,0,0,0,0-1,.5.5,0,0,0,0,1Z"/><path class="cls-21" d="M498.55,414.46a.5.5,0,0,0,0-1,.5.5,0,0,0,0,1Z"/><path class="cls-21" d="M491.89,375.94a.5.5,0,0,0,0-1,.5.5,0,0,0,0,1Z"/><path class="cls-21" d="M464.48,371.5a.5.5,0,0,0,0-1,.5.5,0,0,0,0,1Z"/><path class="cls-21" d="M481.51,364.09a.5.5,0,0,0,0-1,.5.5,0,0,0,0,1Z"/><path class="cls-21" d="M395.59,366.31a.5.5,0,0,0,0-1,.5.5,0,0,0,0,1Z"/><path class="cls-21" d="M399.29,375.2a.5.5,0,0,0,0-1,.5.5,0,0,0,0,1Z"/><path class="cls-21" d="M408.18,361.13a.5.5,0,0,0,0-1,.5.5,0,0,0,0,1Z"/><path class="cls-21" d="M329.66,335.94a.5.5,0,0,0,0-1,.5.5,0,0,0,0,1Z"/><path class="cls-21" d="M339.29,344.09a.5.5,0,0,0,0-1,.5.5,0,0,0,0,1Z"/><path class="cls-21" d="M343,327.8a.5.5,0,0,0,0-1,.5.5,0,0,0,0,1Z"/><path class="cls-21" d="M589.66,152.24a.5.5,0,0,0,0-1,.5.5,0,0,0,0,1Z"/><path class="cls-21" d="M594.11,292.24a.5.5,0,0,0,0-1,.5.5,0,0,0,0,1Z"/><path class="cls-21" d="M687.44,359.65a.5.5,0,0,0,0-1,.5.5,0,0,0,0,1Z"/><path class="cls-21" d="M693.37,344.83a.5.5,0,0,0,0-1,.5.5,0,0,0,0,1Z"/><path class="cls-21" d="M709.66,352.24a.5.5,0,0,0,0-1,.5.5,0,0,0,0,1Z"/><path class="cls-21" d="M696.33,353.72a.5.5,0,0,0,0-1,.5.5,0,0,0,0,1Z"/><path class="cls-21" d="M740,292.24a.5.5,0,0,0,0-1,.5.5,0,0,0,0,1Z"/><path class="cls-21" d="M729.66,293.72a.5.5,0,0,0,0-1,.5.5,0,0,0,0,1Z"/><path class="cls-21" d="M646.7,219.65a.5.5,0,0,0,0-1,.5.5,0,0,0,0,1Z"/><path class="cls-21" d="M657.07,220.39a.5.5,0,0,0,0-1,.5.5,0,0,0,0,1Z"/><path class="cls-21" d="M635.59,207.06a.5.5,0,0,0,0-1,.5.5,0,0,0,0,1Z"/><path class="cls-21" d="M697.81,175.94a.5.5,0,0,0,0-1,.5.5,0,0,0,0,1Z"/><path class="cls-21" d="M704.48,175.2a.5.5,0,0,0,0-1,.5.5,0,0,0,0,1Z"/><path class="cls-21" d="M706.7,167.8a.5.5,0,0,0,0-1,.5.5,0,0,0,0,1Z"/><path class="cls-21" d="M711.14,187.06a.5.5,0,0,0,0-1,.5.5,0,0,0,0,1Z"/><path class="cls-21" d="M720.77,113.72a.5.5,0,0,0,0-1,.5.5,0,0,0,0,1Z"/><path class="cls-21" d="M708.92,87.8a.5.5,0,0,0,0-1,.5.5,0,0,0,0,1Z"/><path class="cls-21" d="M556.7,345.5a.5.5,0,0,0,0-1,.5.5,0,0,0,0,1Z"/><path class="cls-21" d="M567.7,345.5a.5.5,0,0,0,0-1,.5.5,0,0,0,0,1Z"/><path class="cls-21" d="M640.7,270.5a.5.5,0,0,0,0-1,.5.5,0,0,0,0,1Z"/><path class="cls-21" d="M655.7,272.5a.5.5,0,0,0,0-1,.5.5,0,0,0,0,1Z"/><path class="cls-21" d="M632.7,256.5a.5.5,0,0,0,0-1,.5.5,0,0,0,0,1Z"/><path class="cls-21" d="M697.7,123.5a.5.5,0,0,0,0-1,.5.5,0,0,0,0,1Z"/><path class="cls-21" d="M598.7,418.5a.5.5,0,0,0,0-1,.5.5,0,0,0,0,1Z"/><path class="cls-21" d="M618.7,429.5a.5.5,0,0,0,0-1,.5.5,0,0,0,0,1Z"/><path class="cls-21" d="M616.7,402.5a.5.5,0,0,0,0-1,.5.5,0,0,0,0,1Z"/><path class="cls-21" d="M612.7,418.5a.5.5,0,0,0,0-1,.5.5,0,0,0,0,1Z"/><path class="cls-21" d="M572.7,463.5a.5.5,0,0,0,0-1,.5.5,0,0,0,0,1Z"/><path class="cls-21" d="M591.7,487.5a.5.5,0,0,0,0-1,.5.5,0,0,0,0,1Z"/><path class="cls-21" d="M663.7,434.5a.5.5,0,0,0,0-1,.5.5,0,0,0,0,1Z"/><path class="cls-21" d="M448.7,199.5a.5.5,0,0,0,0-1,.5.5,0,0,0,0,1Z"/><path class="cls-21" d="M471.7,201.5a.5.5,0,0,0,0-1,.5.5,0,0,0,0,1Z"/><path class="cls-21" d="M397.7,143.5a.5.5,0,0,0,0-1,.5.5,0,0,0,0,1Z"/><path class="cls-21" d="M387.7,70.5a.5.5,0,0,0,0-1,.5.5,0,0,0,0,1Z"/><path class="cls-21" d="M410.7,102.5a.5.5,0,0,0,0-1,.5.5,0,0,0,0,1Z"/><path class="cls-21" d="M386.7,60.5a.5.5,0,0,0,0-1,.5.5,0,0,0,0,1Z"/><path class="cls-21" d="M394.7,59.5a.5.5,0,0,0,0-1,.5.5,0,0,0,0,1Z"/><path class="cls-21" d="M332.7,91.5a.5.5,0,0,0,0-1,.5.5,0,0,0,0,1Z"/><path class="cls-21" d="M364.7,131.5a.5.5,0,0,0,0-1,.5.5,0,0,0,0,1Z"/><path class="cls-21" d="M306.7,118.5a.5.5,0,0,0,0-1,.5.5,0,0,0,0,1Z"/><path class="cls-21" d="M306.7,235.5a.5.5,0,0,0,0-1,.5.5,0,0,0,0,1Z"/><path class="cls-21" d="M331.7,289.5a.5.5,0,0,0,0-1,.5.5,0,0,0,0,1Z"/><path class="cls-21" d="M590.7,254.5a.5.5,0,0,0,0-1,.5.5,0,0,0,0,1Z"/><path class="cls-21" d="M603.7,261.5a.5.5,0,0,0,0-1,.5.5,0,0,0,0,1Z"/><path class="cls-21" d="M593.7,269.5a.5.5,0,0,0,0-1,.5.5,0,0,0,0,1Z"/><path class="cls-21" d="M536.7,432.5a.5.5,0,0,0,0-1,.5.5,0,0,0,0,1Z"/><path class="cls-21" d="M571.7,444.5a.5.5,0,0,0,0-1,.5.5,0,0,0,0,1Z"/><path class="cls-21" d="M588.7,461.5a.5.5,0,0,0,0-1,.5.5,0,0,0,0,1Z"/><path class="cls-21" d="M436.7,445.5a.5.5,0,0,0,0-1,.5.5,0,0,0,0,1Z"/></g><path class="cls-23" d="M414.09,500a3.5,3.5,0,1,1-3.5-3.5A3.5,3.5,0,0,1,414.09,500Z"/><path class="cls-21" d="M412.45,500a1.86,1.86,0,1,1-1.86-1.85A1.85,1.85,0,0,1,412.45,500Z"/><path class="cls-23" d="M478.26,331.08a2.92,2.92,0,1,1-2.92-2.92A2.92,2.92,0,0,1,478.26,331.08Z"/><path class="cls-21" d="M476.88,331.08a1.55,1.55,0,1,1-1.54-1.54A1.54,1.54,0,0,1,476.88,331.08Z"/><path class="cls-23" d="M600.2,389a3.5,3.5,0,1,1-3.5-3.5A3.5,3.5,0,0,1,600.2,389Z"/><path class="cls-21" d="M598.55,389a1.85,1.85,0,1,1-1.85-1.85A1.85,1.85,0,0,1,598.55,389Z"/><path class="cls-23" d="M417.2,396.5a3.5,3.5,0,1,1-3.5-3.5A3.5,3.5,0,0,1,417.2,396.5Z"/><circle class="cls-21" cx="413.7" cy="396.5" r="1.85"/><path class="cls-23" d="M479,238a3.5,3.5,0,1,1-3.5-3.5A3.5,3.5,0,0,1,479,238Z"/><path class="cls-21" d="M477.37,238a1.86,1.86,0,1,1-1.86-1.85A1.85,1.85,0,0,1,477.37,238Z"/><path class="cls-23" d="M752.2,229a3.5,3.5,0,1,1-3.5-3.5A3.5,3.5,0,0,1,752.2,229Z"/><circle class="cls-21" cx="748.7" cy="229" r="1.85"/><path class="cls-23" d="M540,283a3.5,3.5,0,1,1-3.5-3.5A3.5,3.5,0,0,1,540,283Z"/><path class="cls-21" d="M538.35,283a1.86,1.86,0,1,1-1.86-1.85A1.85,1.85,0,0,1,538.35,283Z"/><path class="cls-23" d="M391.26,476.58a4.54,4.54,0,1,1-4.54-4.54A4.54,4.54,0,0,1,391.26,476.58Z"/><path class="cls-21" d="M389.13,476.58a2.41,2.41,0,1,1-2.41-2.4A2.41,2.41,0,0,1,389.13,476.58Z"/><path class="cls-23" d="M298.24,455.5A4.54,4.54,0,1,1,293.7,451,4.54,4.54,0,0,1,298.24,455.5Z"/><path class="cls-21" d="M296.11,455.5a2.41,2.41,0,1,1-2.41-2.41A2.41,2.41,0,0,1,296.11,455.5Z"/><path class="cls-23" d="M588.24,181a4.54,4.54,0,1,1-4.54-4.54A4.54,4.54,0,0,1,588.24,181Z"/><path class="cls-21" d="M586.11,181a2.41,2.41,0,1,1-2.41-2.41A2.41,2.41,0,0,1,586.11,181Z"/><path class="cls-23" d="M705.48,411a4.54,4.54,0,1,1-4.54-4.54A4.54,4.54,0,0,1,705.48,411Z"/><path class="cls-21" d="M703.35,411a2.41,2.41,0,1,1-2.41-2.41A2.41,2.41,0,0,1,703.35,411Z"/><path class="cls-23" d="M707.45,293a6.51,6.51,0,1,1-6.51-6.51A6.5,6.5,0,0,1,707.45,293Z"/><path class="cls-21" d="M704.39,293a3.45,3.45,0,1,1-3.45-3.45A3.46,3.46,0,0,1,704.39,293Z"/><path class="cls-23" d="M551,385.5a6.51,6.51,0,1,1-6.51-6.51A6.51,6.51,0,0,1,551,385.5Z"/><path class="cls-21" d="M547.89,385.5a3.45,3.45,0,1,1-3.44-3.45A3.45,3.45,0,0,1,547.89,385.5Z"/><path class="cls-23" d="M731.33,159a6.51,6.51,0,1,1-6.51-6.51A6.5,6.5,0,0,1,731.33,159Z"/><path class="cls-21" d="M728.27,159a3.45,3.45,0,1,1-3.45-3.45A3.46,3.46,0,0,1,728.27,159Z"/><path class="cls-23" d="M642,500a6.51,6.51,0,1,1-6.51-6.51A6.5,6.5,0,0,1,642,500Z"/><path class="cls-21" d="M638.89,500a3.45,3.45,0,1,1-3.45-3.45A3.46,3.46,0,0,1,638.89,500Z"/><polyline class="cls-24" points="233.54 461 147.54 408.6 248.7 500"/><polyline class="cls-25" points="147.54 408.6 96.21 461 248.7 500 233.54 461"/><polyline class="cls-26" points="0.2 500 50.87 432.48 96.21 461 0.2 500"/><line class="cls-27" x1="190.21" y1="500" x2="96.21" y2="461"/><polygon class="cls-28" points="73.54 366.03 99.54 404.97 108.87 383.97 73.54 366.03"/><polygon class="cls-29" points="172.54 320.26 151.87 371.96 201.87 375.81 172.54 320.26"/><polygon class="cls-30" points="23.54 385.67 34.87 406.46 23.54 416.93 23.54 385.67"/></g></g></svg>