<svg xmlns="http://www.w3.org/2000/svg" xmlns:xlink="http://www.w3.org/1999/xlink" viewBox="0 0 3055.6 2000.25"><defs><style>.cls-1{fill:url(#radial-gradient);}.cls-10,.cls-11,.cls-12,.cls-13,.cls-14,.cls-15,.cls-16,.cls-17,.cls-18,.cls-19,.cls-2,.cls-23,.cls-24,.cls-25,.cls-26,.cls-27,.cls-28,.cls-29,.cls-3,.cls-30,.cls-4,.cls-5,.cls-6,.cls-7,.cls-8,.cls-9{fill:none;stroke-width:0.5px;}.cls-10,.cls-11,.cls-12,.cls-2,.cls-3,.cls-4,.cls-5,.cls-6,.cls-7,.cls-8,.cls-9{stroke-linecap:round;stroke-linejoin:round;}.cls-2{stroke:url(#linear-gradient);}.cls-3{stroke:url(#linear-gradient-2);}.cls-4{stroke:url(#linear-gradient-3);}.cls-5{stroke:url(#linear-gradient-4);}.cls-6{stroke:url(#linear-gradient-5);}.cls-7{stroke:url(#linear-gradient-6);}.cls-8{stroke:url(#linear-gradient-7);}.cls-9{stroke:url(#linear-gradient-8);}.cls-10{stroke:url(#linear-gradient-9);}.cls-11{stroke:url(#linear-gradient-10);}.cls-12{stroke:url(#linear-gradient-11);}.cls-13,.cls-14,.cls-15,.cls-16,.cls-17,.cls-18,.cls-19,.cls-23,.cls-24,.cls-25,.cls-26,.cls-27,.cls-28,.cls-29,.cls-30{stroke-miterlimit:10;}.cls-13{stroke:url(#linear-gradient-12);}.cls-14{stroke:url(#linear-gradient-13);}.cls-15{stroke:url(#linear-gradient-14);}.cls-16{stroke:url(#linear-gradient-15);}.cls-17{stroke:url(#linear-gradient-16);}.cls-18{stroke:url(#linear-gradient-17);}.cls-19{stroke:url(#linear-gradient-18);}.cls-20{opacity:0.8;}.cls-21{fill:#fff;}.cls-22{opacity:0.5;}.cls-23{stroke:#29efbb;}.cls-24{stroke:url(#linear-gradient-19);}.cls-25{stroke:url(#linear-gradient-20);}.cls-26{stroke:url(#linear-gradient-21);}.cls-27{stroke:url(#linear-gradient-22);}.cls-28{stroke:url(#linear-gradient-23);}.cls-29{stroke:url(#linear-gradient-24);}.cls-30{stroke:url(#linear-gradient-25);}</style><radialGradient id="radial-gradient" cx="1726.99" cy="-704.82" r="2550.32" gradientTransform="translate(2443.43 1332.17) rotate(180) scale(1.1 1.69)" gradientUnits="userSpaceOnUse"><stop offset="0" stop-color="#29efbb"/><stop offset="0.21" stop-color="#2bb7b1"/><stop offset="0.49" stop-color="#2e74a6"/><stop offset="0.72" stop-color="#2f439d"/><stop offset="0.9" stop-color="#312498"/><stop offset="1" stop-color="#311996"/></radialGradient><linearGradient id="linear-gradient" x1="2740.24" y1="1798.11" x2="2847.35" y2="1798.11" gradientUnits="userSpaceOnUse"><stop offset="0" stop-color="#29efbb"/><stop offset="0.16" stop-color="#4ef1c7"/><stop offset="0.57" stop-color="#a9f6e3"/><stop offset="0.86" stop-color="#e3faf5"/><stop offset="1" stop-color="#f9fbfc"/></linearGradient><linearGradient id="linear-gradient-2" x1="2211.05" y1="1564.59" x2="3041.38" y2="1564.59" xlink:href="#linear-gradient"/><linearGradient id="linear-gradient-3" x1="2208.04" y1="1564.59" x2="2847.35" y2="1564.59" xlink:href="#linear-gradient"/><linearGradient id="linear-gradient-4" x1="2846.85" y1="889.77" x2="3041.38" y2="889.77" xlink:href="#linear-gradient"/><linearGradient id="linear-gradient-5" x1="2370.53" y1="693.85" x2="3041.38" y2="693.85" xlink:href="#linear-gradient"/><linearGradient id="linear-gradient-6" x1="2178.74" y1="1123.29" x2="3041.38" y2="1123.29" xlink:href="#linear-gradient"/><linearGradient id="linear-gradient-7" x1="1930.28" y1="1473.56" x2="2211.55" y2="1473.56" xlink:href="#linear-gradient"/><linearGradient id="linear-gradient-8" x1="2272.62" y1="496.95" x2="2944.36" y2="496.95" xlink:href="#linear-gradient"/><linearGradient id="linear-gradient-9" x1="1460.49" y1="966.12" x2="3041.38" y2="966.12" xlink:href="#linear-gradient"/><linearGradient id="linear-gradient-10" x1="947.94" y1="1697.18" x2="1680.38" y2="1697.18" xlink:href="#linear-gradient"/><linearGradient id="linear-gradient-11" x1="1009.53" y1="1886.17" x2="1192.85" y2="1886.17" xlink:href="#linear-gradient"/><linearGradient id="linear-gradient-12" x1="1795.69" y1="1065.88" x2="1930.83" y2="1065.88" xlink:href="#linear-gradient"/><linearGradient id="linear-gradient-13" x1="1078.32" y1="1450.07" x2="1241.49" y2="1450.07" xlink:href="#linear-gradient"/><linearGradient id="linear-gradient-14" x1="1293.87" y1="1353.76" x2="1432.67" y2="1353.76" xlink:href="#linear-gradient"/><linearGradient id="linear-gradient-15" x1="1460.25" y1="1016.16" x2="1562.64" y2="1016.16" xlink:href="#linear-gradient"/><linearGradient id="linear-gradient-16" x1="1765.41" y1="729.52" x2="2310.02" y2="729.52" xlink:href="#linear-gradient"/><linearGradient id="linear-gradient-17" x1="2508.25" y1="335.64" x2="2706.27" y2="335.64" xlink:href="#linear-gradient"/><linearGradient id="linear-gradient-18" x1="1795.55" y1="216.87" x2="2066.9" y2="216.87" xlink:href="#linear-gradient"/><linearGradient id="linear-gradient-19" x1="598.63" y1="1793.33" x2="1009.95" y2="1793.33" xlink:href="#linear-gradient"/><linearGradient id="linear-gradient-20" x1="389.75" y1="1793.44" x2="1010.19" y2="1793.44" xlink:href="#linear-gradient"/><linearGradient id="linear-gradient-21" x1="0" y1="1840.57" x2="390.8" y2="1840.57" xlink:href="#linear-gradient"/><linearGradient id="linear-gradient-22" x1="390.15" y1="1897.05" x2="772.23" y2="1897.05" xlink:href="#linear-gradient"/><linearGradient id="linear-gradient-23" x1="297.41" y1="1520.98" x2="442.03" y2="1520.98" xlink:href="#linear-gradient"/><linearGradient id="linear-gradient-24" x1="616.04" y1="1372.63" x2="819.97" y2="1372.63" xlink:href="#linear-gradient"/><linearGradient id="linear-gradient-25" x1="94.77" y1="1583.37" x2="141.38" y2="1583.37" xlink:href="#linear-gradient"/></defs><g id="Layer_2" data-name="Layer 2"><g id="artboard_2" data-name="artboard 2"><rect class="cls-1" x="527.77" y="-527.58" width="2000" height="3055.15" transform="translate(527.77 2527.77) rotate(-90)"/><line class="cls-2" x1="2847.1" y1="1621.98" x2="2740.49" y2="1974.23"/><polyline class="cls-3" points="2847.1 1621.98 3041.13 1432 2847.1 1154.95 2655.17 1463.66 2423.6 1534.91 2211.3 1519.08 2577.98 1974.23 2655.17 1463.66 2655.17 1974.23 2847.1 1621.98 2655.17 1463.66 3041.13 1570.53 2847.1 1621.98 3041.13 1974.23"/><polygon class="cls-4" points="2847.1 1154.95 2423.6 1534.91 2577.98 1974.23 2208.29 1798.11 2211.3 1519.08 2847.1 1154.95"/><polygon class="cls-5" points="2847.1 1154.95 3041.13 901.64 2944.11 624.59 2847.1 1154.95"/><polyline class="cls-6" points="3041.13 901.64 2370.78 711.66 2944.11 624.59 3041.13 486.06"/><polyline class="cls-7" points="2847.1 1154.95 2370.78 711.66 2527.7 1079.75 2178.99 1115.37 2423.6 1534.91 2527.7 1079.75 2847.1 1154.95 3041.13 1337.01"/><polyline class="cls-8" points="2178.99 1115.37 1930.53 1305.35 2211.3 1519.08 1960.76 1831.75 2208.29 1798.11"/><polyline class="cls-9" points="2944.11 624.59 2812.09 282.23 2684.11 555.33 2272.87 525.64 2370.78 711.66"/><polyline class="cls-10" points="3041.13 50.7 2812.09 282.23 3041.13 315.88 2944.11 624.59 2684.11 555.33 2370.78 711.66 2178.99 1115.37 2211.3 1519.08 1680.13 1564.59 1960.76 1831.75 1570.43 1881.55 1680.13 1564.59 1930.53 1305.35 1460.74 1420.13 1570.43 1881.55"/><polyline class="cls-11" points="1680.13 1564.59 1460.74 1420.13 1192.6 1798.11 1570.43 1881.55 1242.2 1728.19 948.19 1819.88 1192.6 1798.11 1407.92 1974.23 1570.43 1881.55 1667.94 1974.23 1680.13 1564.59"/><line class="cls-12" x1="1192.6" y1="1798.11" x2="1009.78" y2="1974.23"/><polygon class="cls-13" points="1796.04 1067.88 1912.68 1194.53 1930.53 937.26 1796.04 1067.88"/><polyline class="cls-14" points="1101.19 1174.74 1212.91 1396.38 1078.85 1724.89 1241.35 1621.98"/><polygon class="cls-15" points="1294.17 1234.11 1310.42 1473.56 1432.3 1372.63 1294.17 1234.11"/><polygon class="cls-16" points="1460.74 966.12 1533.87 1065.9 1562.31 966.12 1460.74 966.12"/><polyline class="cls-17" points="1765.52 652.3 1969.69 557.31 2126.55 901.64 2309.84 729.48"/><polygon class="cls-18" points="2655.17 458.36 2508.92 212.97 2705.96 315.88 2655.17 458.36"/><polygon class="cls-19" points="1935 98.19 1796.04 335.67 2066.47 282.23 1935 98.19"/><g class="cls-20"><path class="cls-21" d="M2232.5,1092.83a1.5,1.5,0,0,0,0-3,1.5,1.5,0,0,0,0,3Z"/><path class="cls-21" d="M2343.85,1482.76a1.5,1.5,0,0,0,0-3,1.5,1.5,0,0,0,0,3Z"/><path class="cls-21" d="M2762.16,1166.12a1.5,1.5,0,0,0,0-3,1.5,1.5,0,0,0,0,3Z"/><path class="cls-21" d="M2786.23,993.15a1.5,1.5,0,0,0,0-3,1.5,1.5,0,0,0,0,3Z"/><path class="cls-21" d="M2831.37,1016.6a1.5,1.5,0,0,0,0-3,1.5,1.5,0,0,0,0,3Z"/><path class="cls-21" d="M2172.31,1781.8a1.5,1.5,0,0,0,0-3,1.5,1.5,0,0,0,0,3Z"/><path class="cls-21" d="M2133.19,1781.8a1.5,1.5,0,0,0,0-3,1.5,1.5,0,0,0,0,3Z"/><path class="cls-21" d="M1191.25,1846.3a1.5,1.5,0,0,0,0-3,1.5,1.5,0,0,0,0,3Z"/><path class="cls-21" d="M1227.36,1881.48a1.5,1.5,0,0,0,0-3,1.5,1.5,0,0,0,0,3Z"/><path class="cls-21" d="M2981.84,1940.11a1.5,1.5,0,0,0,0-3,1.5,1.5,0,0,0,0,3Z"/><path class="cls-21" d="M2936.7,1902a1.5,1.5,0,0,0,0-3,1.5,1.5,0,0,0,0,3Z"/><path class="cls-21" d="M2792.25,1614.69a1.5,1.5,0,0,0,0-3,1.5,1.5,0,0,0,0,3Z"/><path class="cls-21" d="M2852.44,1676.25a1.5,1.5,0,0,0,0-3,1.5,1.5,0,0,0,0,3Z"/><path class="cls-21" d="M2771.19,1646.94a1.5,1.5,0,0,0,0-3,1.5,1.5,0,0,0,0,3Z"/><path class="cls-21" d="M1889.43,1274.6a1.5,1.5,0,0,0,0-3,1.5,1.5,0,0,0,0,3Z"/><path class="cls-21" d="M1916.51,1271.67a1.5,1.5,0,0,0,0-3,1.5,1.5,0,0,0,0,3Z"/><path class="cls-21" d="M1432,1374.28a1.5,1.5,0,0,0,0-3,1.5,1.5,0,0,0,0,3Z"/><path class="cls-21" d="M1769.05,653.06a1.5,1.5,0,0,0,0-3,1.5,1.5,0,0,0,0,3Z"/><path class="cls-21" d="M2656.83,462.5a1.5,1.5,0,0,0,0-3,1.5,1.5,0,0,0,0,3Z"/><path class="cls-21" d="M2070,283.66a1.5,1.5,0,0,0,0-3,1.5,1.5,0,0,0,0,3Z"/><path class="cls-21" d="M2981.84,855.36a1.5,1.5,0,0,0,0-3,1.5,1.5,0,0,0,0,3Z"/><path class="cls-21" d="M2954.76,834.83a1.5,1.5,0,0,0,0-3,1.5,1.5,0,0,0,0,3Z"/><path class="cls-21" d="M1944.2,1647.23a1.5,1.5,0,0,0,0-3,1.5,1.5,0,0,0,0,3Z"/><path class="cls-21" d="M1976.7,1663.06a1.5,1.5,0,0,0,0-3,1.5,1.5,0,0,0,0,3Z"/><path class="cls-21" d="M2322,1116.87a1.5,1.5,0,0,0,0-3,1.5,1.5,0,0,0,0,3Z"/><path class="cls-21" d="M2383,1200a1.5,1.5,0,0,0,0-3,1.5,1.5,0,0,0,0,3Z"/><path class="cls-21" d="M2525.17,1081.25a1.5,1.5,0,0,0,0-3,1.5,1.5,0,0,0,0,3Z"/><path class="cls-21" d="M1440.43,1314.77a1.5,1.5,0,0,0,0-3,1.5,1.5,0,0,0,0,3Z"/><path class="cls-21" d="M1212.91,1401.84a1.5,1.5,0,0,0,0-3,1.5,1.5,0,0,0,0,3Z"/><path class="cls-21" d="M1363.23,1619.52a1.5,1.5,0,0,0,0-3,1.5,1.5,0,0,0,0,3Z"/><path class="cls-21" d="M1428.24,1623.48a1.5,1.5,0,0,0,0-3,1.5,1.5,0,0,0,0,3Z"/><path class="cls-21" d="M1355.11,1698.68a1.5,1.5,0,0,0,0-3,1.5,1.5,0,0,0,0,3Z"/><path class="cls-21" d="M1460.74,1421.63a1.5,1.5,0,0,0,0-3,1.5,1.5,0,0,0,0,3Z"/><path class="cls-21" d="M2273.28,527.14a1.5,1.5,0,0,0,0-3,1.5,1.5,0,0,0,0,3Z"/></g><g class="cls-20"><path class="cls-21" d="M2187.81,1083.45a1.5,1.5,0,0,0,0-3,1.5,1.5,0,0,0,0,3Z"/><path class="cls-21" d="M2299.16,693.52a1.5,1.5,0,0,0,0-3,1.5,1.5,0,0,0,0,3Z"/><path class="cls-21" d="M2717.47,1010.15a1.5,1.5,0,0,0,0-3,1.5,1.5,0,0,0,0,3Z"/><path class="cls-21" d="M2741.54,1183.13a1.5,1.5,0,0,0,0-3,1.5,1.5,0,0,0,0,3Z"/><path class="cls-21" d="M2786.68,1159.67a1.5,1.5,0,0,0,0-3,1.5,1.5,0,0,0,0,3Z"/><path class="cls-21" d="M2127.62,394.48a1.5,1.5,0,0,0,0-3,1.5,1.5,0,0,0,0,3Z"/><path class="cls-21" d="M2088.5,394.48a1.5,1.5,0,0,0,0-3,1.5,1.5,0,0,0,0,3Z"/><path class="cls-21" d="M1146.55,330a1.5,1.5,0,0,0,0-3,1.5,1.5,0,0,0,0,3Z"/><path class="cls-21" d="M1182.67,294.8a1.5,1.5,0,0,0,0-3,1.5,1.5,0,0,0,0,3Z"/><path class="cls-21" d="M2937.15,236.16a1.5,1.5,0,0,0,0-3,1.5,1.5,0,0,0,0,3Z"/><path class="cls-21" d="M2892,274.28a1.5,1.5,0,0,0,0-3,1.5,1.5,0,0,0,0,3Z"/><path class="cls-21" d="M2747.56,561.59a1.5,1.5,0,0,0,0-3,1.5,1.5,0,0,0,0,3Z"/><path class="cls-21" d="M2807.75,500a1.5,1.5,0,0,0,0-3,1.5,1.5,0,0,0,0,3Z"/><path class="cls-21" d="M2726.49,529.34a1.5,1.5,0,0,0,0-3,1.5,1.5,0,0,0,0,3Z"/><path class="cls-21" d="M1844.74,901.68a1.5,1.5,0,0,0,0-3,1.5,1.5,0,0,0,0,3Z"/><path class="cls-21" d="M1871.82,904.61a1.5,1.5,0,0,0,0-3,1.5,1.5,0,0,0,0,3Z"/><path class="cls-21" d="M1387.31,802a1.5,1.5,0,0,0,0-3,1.5,1.5,0,0,0,0,3Z"/><path class="cls-21" d="M1724.36,1523.21a1.5,1.5,0,0,0,0-3,1.5,1.5,0,0,0,0,3Z"/><path class="cls-21" d="M2583.7,1713.78a1.5,1.5,0,0,0,0-3,1.5,1.5,0,0,0,0,3Z"/><path class="cls-21" d="M2025.3,1892.61a1.5,1.5,0,0,0,0-3,1.5,1.5,0,0,0,0,3Z"/><path class="cls-21" d="M2937.15,1320.92a1.5,1.5,0,0,0,0-3,1.5,1.5,0,0,0,0,3Z"/><path class="cls-21" d="M2910.07,1341.44a1.5,1.5,0,0,0,0-3,1.5,1.5,0,0,0,0,3Z"/><path class="cls-21" d="M1899.51,529.05a1.5,1.5,0,0,0,0-3,1.5,1.5,0,0,0,0,3Z"/><path class="cls-21" d="M1932,513.21a1.5,1.5,0,0,0,0-3,1.5,1.5,0,0,0,0,3Z"/><path class="cls-21" d="M2277.34,1059.4a1.5,1.5,0,0,0,0-3,1.5,1.5,0,0,0,0,3Z"/><path class="cls-21" d="M2338.28,976.29a1.5,1.5,0,0,0,0-3,1.5,1.5,0,0,0,0,3Z"/><path class="cls-21" d="M2480.47,1095a1.5,1.5,0,0,0,0-3,1.5,1.5,0,0,0,0,3Z"/><path class="cls-21" d="M1395.73,861.51a1.5,1.5,0,0,0,0-3,1.5,1.5,0,0,0,0,3Z"/><path class="cls-21" d="M1168.22,774.44a1.5,1.5,0,0,0,0-3,1.5,1.5,0,0,0,0,3Z"/><path class="cls-21" d="M1318.54,556.75a1.5,1.5,0,0,0,0-3,1.5,1.5,0,0,0,0,3Z"/><path class="cls-21" d="M1383.55,552.79a1.5,1.5,0,0,0,0-3,1.5,1.5,0,0,0,0,3Z"/><path class="cls-21" d="M1310.42,477.59a1.5,1.5,0,0,0,0-3,1.5,1.5,0,0,0,0,3Z"/><path class="cls-21" d="M1416.05,754.65a1.5,1.5,0,0,0,0-3,1.5,1.5,0,0,0,0,3Z"/><path class="cls-21" d="M744.41,1053a1.5,1.5,0,0,0,0-3,1.5,1.5,0,0,0,0,3Z"/><path class="cls-21" d="M780,1088.68a1.5,1.5,0,0,0,0-3,1.5,1.5,0,0,0,0,3Z"/><path class="cls-21" d="M256.43,1280.6a1.5,1.5,0,0,0,0-3,1.5,1.5,0,0,0,0,3Z"/><path class="cls-21" d="M529.08,1783.53a1.5,1.5,0,0,0,0-3,1.5,1.5,0,0,0,0,3Z"/><path class="cls-21" d="M195.22,1287.93a1.5,1.5,0,0,0,0-3,1.5,1.5,0,0,0,0,3Z"/><path class="cls-21" d="M287.92,1067.59a1.5,1.5,0,0,0,0-3,1.5,1.5,0,0,0,0,3Z"/><path class="cls-21" d="M509.15,1217.2a1.5,1.5,0,0,0,0-3,1.5,1.5,0,0,0,0,3Z"/><path class="cls-21" d="M512.26,1280.58a1.5,1.5,0,0,0,0-3,1.5,1.5,0,0,0,0,3Z"/><path class="cls-21" d="M590.51,1210.45a1.5,1.5,0,0,0,0-3,1.5,1.5,0,0,0,0,3Z"/><path class="cls-21" d="M304.6,1309.28a1.5,1.5,0,0,0,0-3,1.5,1.5,0,0,0,0,3Z"/><path class="cls-21" d="M967.7,1552.23a1.5,1.5,0,0,0,0-3,1.5,1.5,0,0,0,0,3Z"/><path class="cls-21" d="M919.56,1514.68a1.5,1.5,0,0,0,0-3,1.5,1.5,0,0,0,0,3Z"/><path class="cls-21" d="M1190.79,1684.14a1.5,1.5,0,0,0,0-3,1.5,1.5,0,0,0,0,3Z"/><path class="cls-21" d="M1146.4,1730.57a1.5,1.5,0,0,0,0-3,1.5,1.5,0,0,0,0,3Z"/><path class="cls-21" d="M1252.58,1736.14a1.5,1.5,0,0,0,0-3,1.5,1.5,0,0,0,0,3Z"/><path class="cls-21" d="M980.28,1605.85a1.5,1.5,0,0,0,0-3,1.5,1.5,0,0,0,0,3Z"/><path class="cls-21" d="M2228.59,1649.13a1.5,1.5,0,0,0,0-3,1.5,1.5,0,0,0,0,3Z"/></g><g class="cls-22"><path class="cls-21" d="M2804.29,930.58a.5.5,0,0,0,0-1,.5.5,0,0,0,0,1Z"/><path class="cls-21" d="M2813.32,971.63a.5.5,0,0,0,0-1,.5.5,0,0,0,0,1Z"/><path class="cls-21" d="M2825.36,951.1a.5.5,0,0,0,0-1,.5.5,0,0,0,0,1Z"/><path class="cls-21" d="M2232.5,1056.65a.5.5,0,0,0,0-1,.5.5,0,0,0,0,1Z"/><path class="cls-21" d="M2262.6,1053.72a.5.5,0,0,0,0-1,.5.5,0,0,0,0,1Z"/><path class="cls-21" d="M1943.6,1229.62a.5.5,0,0,0,0-1,.5.5,0,0,0,0,1Z"/><path class="cls-21" d="M1994.76,1317.58a.5.5,0,0,0,0-1,.5.5,0,0,0,0,1Z"/><path class="cls-21" d="M2009.81,1291.19a.5.5,0,0,0,0-1,.5.5,0,0,0,0,1Z"/><path class="cls-21" d="M2036.89,1305.85a.5.5,0,0,0,0-1,.5.5,0,0,0,0,1Z"/><path class="cls-21" d="M1185.23,1883.41a.5.5,0,0,0,0-1,.5.5,0,0,0,0,1Z"/><path class="cls-21" d="M1131.06,1886.34a.5.5,0,0,0,0-1,.5.5,0,0,0,0,1Z"/><path class="cls-21" d="M1955.64,1707.5a.5.5,0,0,0,0-1,.5.5,0,0,0,0,1Z"/><path class="cls-21" d="M1907.49,1640.07a.5.5,0,0,0,0-1,.5.5,0,0,0,0,1Z"/><path class="cls-21" d="M2024.85,1634.21a.5.5,0,0,0,0-1,.5.5,0,0,0,0,1Z"/><path class="cls-21" d="M1997.77,1481.76a.5.5,0,0,0,0-1,.5.5,0,0,0,0,1Z"/><path class="cls-21" d="M1886.42,1464.17a.5.5,0,0,0,0-1,.5.5,0,0,0,0,1Z"/><path class="cls-21" d="M1955.64,1434.85a.5.5,0,0,0,0-1,.5.5,0,0,0,0,1Z"/><path class="cls-21" d="M1606.55,1443.64a.5.5,0,0,0,0-1,.5.5,0,0,0,0,1Z"/><path class="cls-21" d="M1621.59,1478.82a.5.5,0,0,0,0-1,.5.5,0,0,0,0,1Z"/><path class="cls-21" d="M1657.71,1423.12a.5.5,0,0,0,0-1,.5.5,0,0,0,0,1Z"/><path class="cls-21" d="M1338.71,1323.44a.5.5,0,0,0,0-1,.5.5,0,0,0,0,1Z"/><path class="cls-21" d="M1377.83,1355.69a.5.5,0,0,0,0-1,.5.5,0,0,0,0,1Z"/><path class="cls-21" d="M1392.88,1291.19a.5.5,0,0,0,0-1,.5.5,0,0,0,0,1Z"/><path class="cls-21" d="M2395,596.36a.5.5,0,0,0,0-1,.5.5,0,0,0,0,1Z"/><path class="cls-21" d="M2413.07,1150.47a.5.5,0,0,0,0-1,.5.5,0,0,0,0,1Z"/><path class="cls-21" d="M2792.25,1417.26a.5.5,0,0,0,0-1,.5.5,0,0,0,0,1Z"/><path class="cls-21" d="M2816.33,1358.62a.5.5,0,0,0,0-1,.5.5,0,0,0,0,1Z"/><path class="cls-21" d="M2882.53,1387.94a.5.5,0,0,0,0-1,.5.5,0,0,0,0,1Z"/><path class="cls-21" d="M2828.36,1393.8a.5.5,0,0,0,0-1,.5.5,0,0,0,0,1Z"/><path class="cls-21" d="M3005.92,1150.47a.5.5,0,0,0,0-1,.5.5,0,0,0,0,1Z"/><path class="cls-21" d="M2963.79,1156.33a.5.5,0,0,0,0-1,.5.5,0,0,0,0,1Z"/><path class="cls-21" d="M2626.73,863.15a.5.5,0,0,0,0-1,.5.5,0,0,0,0,1Z"/><path class="cls-21" d="M2668.87,866.08a.5.5,0,0,0,0-1,.5.5,0,0,0,0,1Z"/><path class="cls-21" d="M2581.59,813.31a.5.5,0,0,0,0-1,.5.5,0,0,0,0,1Z"/><path class="cls-21" d="M2834.38,690.18a.5.5,0,0,0,0-1,.5.5,0,0,0,0,1Z"/><path class="cls-21" d="M2861.47,687.24a.5.5,0,0,0,0-1,.5.5,0,0,0,0,1Z"/><path class="cls-21" d="M2870.5,657.93a.5.5,0,0,0,0-1,.5.5,0,0,0,0,1Z"/><path class="cls-21" d="M2888.55,734.15a.5.5,0,0,0,0-1,.5.5,0,0,0,0,1Z"/><path class="cls-21" d="M2927.68,443.91a.5.5,0,0,0,0-1,.5.5,0,0,0,0,1Z"/><path class="cls-21" d="M2879.52,341.3a.5.5,0,0,0,0-1,.5.5,0,0,0,0,1Z"/><path class="cls-21" d="M2261.09,1361.26a.5.5,0,0,0,0-1,.5.5,0,0,0,0,1Z"/><path class="cls-21" d="M2305.78,1361.26a.5.5,0,0,0,0-1,.5.5,0,0,0,0,1Z"/><path class="cls-21" d="M2602.36,1064.42a.5.5,0,0,0,0-1,.5.5,0,0,0,0,1Z"/><path class="cls-21" d="M2663.3,1072.33a.5.5,0,0,0,0-1,.5.5,0,0,0,0,1Z"/><path class="cls-21" d="M2569.86,1009a.5.5,0,0,0,0-1,.5.5,0,0,0,0,1Z"/><path class="cls-21" d="M2833.93,482.61a.5.5,0,0,0,0-1,.5.5,0,0,0,0,1Z"/><path class="cls-21" d="M2431.73,1650.19a.5.5,0,0,0,0-1,.5.5,0,0,0,0,1Z"/><path class="cls-21" d="M2513,1693.72a.5.5,0,0,0,0-1,.5.5,0,0,0,0,1Z"/><path class="cls-21" d="M2504.85,1586.86a.5.5,0,0,0,0-1,.5.5,0,0,0,0,1Z"/><path class="cls-21" d="M2488.6,1650.19a.5.5,0,0,0,0-1,.5.5,0,0,0,0,1Z"/><path class="cls-21" d="M2326.09,1828.29a.5.5,0,0,0,0-1,.5.5,0,0,0,0,1Z"/><path class="cls-21" d="M2403.29,1923.28a.5.5,0,0,0,0-1,.5.5,0,0,0,0,1Z"/><path class="cls-21" d="M2695.8,1713.51a.5.5,0,0,0,0-1,.5.5,0,0,0,0,1Z"/><path class="cls-21" d="M1822.32,783.41a.5.5,0,0,0,0-1,.5.5,0,0,0,0,1Z"/><path class="cls-21" d="M1915.76,791.32a.5.5,0,0,0,0-1,.5.5,0,0,0,0,1Z"/><path class="cls-21" d="M1615.12,561.76a.5.5,0,0,0,0-1,.5.5,0,0,0,0,1Z"/><path class="cls-21" d="M1574.5,272.84a.5.5,0,0,0,0-1,.5.5,0,0,0,0,1Z"/><path class="cls-21" d="M1667.94,399.49a.5.5,0,0,0,0-1,.5.5,0,0,0,0,1Z"/><path class="cls-21" d="M1570.43,233.26a.5.5,0,0,0,0-1,.5.5,0,0,0,0,1Z"/><path class="cls-21" d="M1602.93,229.3a.5.5,0,0,0,0-1,.5.5,0,0,0,0,1Z"/><path class="cls-21" d="M1351.05,356a.5.5,0,0,0,0-1,.5.5,0,0,0,0,1Z"/><path class="cls-21" d="M1481.05,514.27a.5.5,0,0,0,0-1,.5.5,0,0,0,0,1Z"/><path class="cls-21" d="M1245.42,462.82a.5.5,0,0,0,0-1,.5.5,0,0,0,0,1Z"/><path class="cls-21" d="M1245.42,925.89a.5.5,0,0,0,0-1,.5.5,0,0,0,0,1Z"/><path class="cls-21" d="M1347,1139.62a.5.5,0,0,0,0-1,.5.5,0,0,0,0,1Z"/><path class="cls-21" d="M2399.22,1001.09a.5.5,0,0,0,0-1,.5.5,0,0,0,0,1Z"/><path class="cls-21" d="M2452,1028.8a.5.5,0,0,0,0-1,.5.5,0,0,0,0,1Z"/><path class="cls-21" d="M2411.41,1060.46a.5.5,0,0,0,0-1,.5.5,0,0,0,0,1Z"/><path class="cls-21" d="M2179.84,1705.6a.5.5,0,0,0,0-1,.5.5,0,0,0,0,1Z"/><path class="cls-21" d="M2322,1753.09a.5.5,0,0,0,0-1,.5.5,0,0,0,0,1Z"/><path class="cls-21" d="M2391.1,1820.38a.5.5,0,0,0,0-1,.5.5,0,0,0,0,1Z"/><path class="cls-21" d="M1773.57,1757.05a.5.5,0,0,0,0-1,.5.5,0,0,0,0,1Z"/></g><path class="cls-23" d="M1681.73,1974.23a14.22,14.22,0,1,1-14.22-13.85A14,14,0,0,1,1681.73,1974.23Z"/><path class="cls-21" d="M1675,1974.23a7.54,7.54,0,1,1-7.53-7.34A7.43,7.43,0,0,1,1675,1974.23Z"/><path class="cls-23" d="M1942.4,1305.68a11.87,11.87,0,1,1-11.87-11.56A11.72,11.72,0,0,1,1942.4,1305.68Z"/><path class="cls-21" d="M1936.82,1305.68a6.29,6.29,0,1,1-6.29-6.12A6.2,6.2,0,0,1,1936.82,1305.68Z"/><path class="cls-23" d="M2437.82,1534.91a14.22,14.22,0,1,1-14.22-13.86A14,14,0,0,1,2437.82,1534.91Z"/><path class="cls-21" d="M2431.13,1534.91a7.53,7.53,0,1,1-7.53-7.34A7.44,7.44,0,0,1,2431.13,1534.91Z"/><path class="cls-23" d="M1694.34,1564.59a14.22,14.22,0,1,1-14.21-13.85A14,14,0,0,1,1694.34,1564.59Z"/><ellipse class="cls-21" cx="1680.13" cy="1564.59" rx="7.53" ry="7.34"/><path class="cls-23" d="M1945.48,937.27a14.22,14.22,0,1,1-14.22-13.86A14,14,0,0,1,1945.48,937.27Z"/><path class="cls-21" d="M1938.79,937.27a7.54,7.54,0,1,1-7.53-7.34A7.43,7.43,0,0,1,1938.79,937.27Z"/><path class="cls-23" d="M3055.35,901.64a14.22,14.22,0,1,1-14.22-13.85A14,14,0,0,1,3055.35,901.64Z"/><ellipse class="cls-21" cx="3041.13" cy="901.64" rx="7.53" ry="7.34"/><path class="cls-23" d="M2193.21,1115.37a14.22,14.22,0,1,1-14.22-13.85A14,14,0,0,1,2193.21,1115.37Z"/><path class="cls-21" d="M2186.52,1115.37A7.53,7.53,0,1,1,2179,1108,7.44,7.44,0,0,1,2186.52,1115.37Z"/><path class="cls-23" d="M1589,1881.55a18.45,18.45,0,1,1-18.44-18A18.22,18.22,0,0,1,1589,1881.55Z"/><path class="cls-21" d="M1580.29,1881.55a9.77,9.77,0,1,1-9.77-9.52A9.65,9.65,0,0,1,1580.29,1881.55Z"/><path class="cls-23" d="M1211.05,1798.11a18.45,18.45,0,1,1-18.45-18A18.22,18.22,0,0,1,1211.05,1798.11Z"/><path class="cls-21" d="M1202.37,1798.11a9.77,9.77,0,1,1-9.77-9.52A9.64,9.64,0,0,1,1202.37,1798.11Z"/><path class="cls-23" d="M2389.23,711.67a18.45,18.45,0,1,1-18.45-18A18.22,18.22,0,0,1,2389.23,711.67Z"/><path class="cls-21" d="M2380.56,711.67a9.78,9.78,0,1,1-9.78-9.53A9.66,9.66,0,0,1,2380.56,711.67Z"/><path class="cls-23" d="M2865.54,1622a18.45,18.45,0,1,1-18.44-18A18.21,18.21,0,0,1,2865.54,1622Z"/><path class="cls-21" d="M2856.87,1622a9.78,9.78,0,1,1-9.77-9.52A9.65,9.65,0,0,1,2856.87,1622Z"/><path class="cls-23" d="M2873.54,1155c0,14.23-11.84,25.77-26.44,25.77s-26.45-11.54-26.45-25.77,11.84-25.77,26.45-25.77S2873.54,1140.72,2873.54,1155Z"/><path class="cls-21" d="M2861.11,1155a14,14,0,1,1-14-13.65A13.84,13.84,0,0,1,2861.11,1155Z"/><path class="cls-23" d="M2237.75,1521.05c0,14.23-11.84,25.77-26.45,25.77s-26.44-11.54-26.44-25.77,11.84-25.76,26.44-25.76S2237.75,1506.82,2237.75,1521.05Z"/><path class="cls-21" d="M2225.32,1521.05a14,14,0,1,1-14-13.65A13.85,13.85,0,0,1,2225.32,1521.05Z"/><path class="cls-23" d="M2970.56,624.59c0,14.23-11.84,25.77-26.45,25.77s-26.44-11.54-26.44-25.77,11.84-25.76,26.44-25.76S2970.56,610.36,2970.56,624.59Z"/><path class="cls-21" d="M2958.12,624.59a14,14,0,1,1-14-13.65A13.83,13.83,0,0,1,2958.12,624.59Z"/><path class="cls-23" d="M2607.44,1974.23c0,14.23-11.84,25.77-26.45,25.77s-26.45-11.54-26.45-25.77,11.84-25.76,26.45-25.76S2607.44,1960,2607.44,1974.23Z"/><path class="cls-21" d="M2595,1974.23a14,14,0,1,1-14-13.65A13.83,13.83,0,0,1,2595,1974.23Z"/><polyline class="cls-24" points="948.19 1819.88 598.8 1612.46 1009.78 1974.23"/><polyline class="cls-25" points="598.8 1612.46 390.24 1819.88 1009.78 1974.23 948.19 1819.88"/><polyline class="cls-26" points="0.2 1974.23 206.07 1707 390.24 1819.88 0.2 1974.23"/><line class="cls-27" x1="772.14" y1="1974.23" x2="390.24" y2="1819.88"/><polygon class="cls-28" points="298.16 1443.98 403.79 1598.13 441.7 1515.02 298.16 1443.98"/><polygon class="cls-29" points="700.36 1262.84 616.4 1467.48 819.54 1482.72 700.36 1262.84"/><polygon class="cls-30" points="95.02 1521.71 141.06 1604.01 95.02 1645.43 95.02 1521.71"/></g></g></svg>