<svg xmlns="http://www.w3.org/2000/svg" xmlns:xlink="http://www.w3.org/1999/xlink" viewBox="0 0 284.36 255.32"><defs><style>.cls-1{isolation:isolate;}.cls-10,.cls-100,.cls-101,.cls-102,.cls-103,.cls-104,.cls-105,.cls-106,.cls-107,.cls-108,.cls-109,.cls-11,.cls-110,.cls-111,.cls-112,.cls-113,.cls-114,.cls-115,.cls-116,.cls-117,.cls-118,.cls-119,.cls-12,.cls-120,.cls-121,.cls-122,.cls-123,.cls-124,.cls-125,.cls-126,.cls-127,.cls-128,.cls-129,.cls-13,.cls-130,.cls-131,.cls-132,.cls-133,.cls-134,.cls-135,.cls-136,.cls-137,.cls-138,.cls-139,.cls-14,.cls-140,.cls-141,.cls-142,.cls-143,.cls-144,.cls-145,.cls-146,.cls-147,.cls-148,.cls-149,.cls-15,.cls-150,.cls-151,.cls-152,.cls-153,.cls-154,.cls-155,.cls-156,.cls-157,.cls-158,.cls-159,.cls-16,.cls-160,.cls-161,.cls-162,.cls-163,.cls-164,.cls-165,.cls-166,.cls-167,.cls-168,.cls-169,.cls-17,.cls-170,.cls-171,.cls-18,.cls-19,.cls-2,.cls-20,.cls-21,.cls-22,.cls-228,.cls-23,.cls-24,.cls-25,.cls-26,.cls-27,.cls-28,.cls-29,.cls-3,.cls-30,.cls-31,.cls-32,.cls-33,.cls-34,.cls-35,.cls-36,.cls-37,.cls-38,.cls-39,.cls-4,.cls-40,.cls-41,.cls-42,.cls-43,.cls-44,.cls-45,.cls-46,.cls-47,.cls-48,.cls-49,.cls-5,.cls-50,.cls-51,.cls-52,.cls-53,.cls-54,.cls-55,.cls-56,.cls-57,.cls-58,.cls-59,.cls-6,.cls-60,.cls-61,.cls-62,.cls-63,.cls-64,.cls-65,.cls-66,.cls-67,.cls-68,.cls-69,.cls-7,.cls-70,.cls-71,.cls-72,.cls-73,.cls-74,.cls-75,.cls-76,.cls-77,.cls-78,.cls-79,.cls-8,.cls-80,.cls-81,.cls-82,.cls-83,.cls-84,.cls-85,.cls-86,.cls-87,.cls-88,.cls-89,.cls-9,.cls-90,.cls-91,.cls-92,.cls-93,.cls-94,.cls-95,.cls-96,.cls-97,.cls-98,.cls-99{mix-blend-mode:color-dodge;}.cls-2{fill:url(#radial-gradient);}.cls-3{fill:url(#radial-gradient-2);}.cls-4{fill:url(#radial-gradient-3);}.cls-5{fill:url(#radial-gradient-4);}.cls-6{fill:url(#radial-gradient-5);}.cls-7{fill:url(#radial-gradient-6);}.cls-8{fill:url(#radial-gradient-7);}.cls-9{fill:url(#radial-gradient-8);}.cls-10{fill:url(#radial-gradient-9);}.cls-11{fill:url(#radial-gradient-10);}.cls-12{fill:url(#radial-gradient-11);}.cls-13{fill:url(#radial-gradient-12);}.cls-14{fill:url(#radial-gradient-13);}.cls-15{fill:url(#radial-gradient-14);}.cls-16{fill:url(#radial-gradient-15);}.cls-17{fill:url(#radial-gradient-16);}.cls-18{fill:url(#radial-gradient-17);}.cls-19{fill:url(#radial-gradient-18);}.cls-20{fill:url(#radial-gradient-19);}.cls-21{fill:url(#radial-gradient-20);}.cls-22{fill:url(#radial-gradient-21);}.cls-23{fill:url(#radial-gradient-22);}.cls-24{fill:url(#radial-gradient-23);}.cls-25{fill:url(#radial-gradient-24);}.cls-26{fill:url(#radial-gradient-25);}.cls-27{fill:url(#radial-gradient-26);}.cls-28{fill:url(#radial-gradient-27);}.cls-29{fill:url(#radial-gradient-28);}.cls-30{fill:url(#radial-gradient-29);}.cls-31{fill:url(#radial-gradient-30);}.cls-32{fill:url(#radial-gradient-31);}.cls-33{fill:url(#radial-gradient-32);}.cls-34{fill:url(#radial-gradient-33);}.cls-35{fill:url(#radial-gradient-34);}.cls-36{fill:url(#radial-gradient-35);}.cls-37{fill:url(#radial-gradient-36);}.cls-38{fill:url(#radial-gradient-37);}.cls-39{fill:url(#radial-gradient-38);}.cls-40{fill:url(#radial-gradient-39);}.cls-41{fill:url(#radial-gradient-40);}.cls-42{fill:url(#radial-gradient-41);}.cls-43{fill:url(#radial-gradient-42);}.cls-44{fill:url(#radial-gradient-43);}.cls-45{fill:url(#radial-gradient-44);}.cls-46{fill:url(#radial-gradient-45);}.cls-47{fill:url(#radial-gradient-46);}.cls-48{fill:url(#radial-gradient-47);}.cls-49{fill:url(#radial-gradient-48);}.cls-50{fill:url(#radial-gradient-49);}.cls-51{fill:url(#radial-gradient-50);}.cls-52{fill:url(#radial-gradient-51);}.cls-53{fill:url(#radial-gradient-52);}.cls-54{fill:url(#radial-gradient-53);}.cls-55{fill:url(#radial-gradient-54);}.cls-56{fill:url(#radial-gradient-55);}.cls-57{fill:url(#radial-gradient-56);}.cls-58{fill:url(#radial-gradient-57);}.cls-59{fill:url(#radial-gradient-58);}.cls-60{fill:url(#radial-gradient-59);}.cls-61{fill:url(#radial-gradient-60);}.cls-62{fill:url(#radial-gradient-61);}.cls-63{fill:url(#radial-gradient-62);}.cls-64{fill:url(#radial-gradient-63);}.cls-65{fill:url(#radial-gradient-64);}.cls-66{fill:url(#radial-gradient-65);}.cls-67{fill:url(#radial-gradient-66);}.cls-68{fill:url(#radial-gradient-67);}.cls-69{fill:url(#radial-gradient-68);}.cls-70{fill:url(#radial-gradient-69);}.cls-71{fill:url(#radial-gradient-70);}.cls-72{fill:url(#radial-gradient-71);}.cls-73{fill:url(#radial-gradient-72);}.cls-74{fill:url(#radial-gradient-73);}.cls-75{fill:url(#radial-gradient-74);}.cls-76{fill:url(#radial-gradient-75);}.cls-77{fill:url(#radial-gradient-76);}.cls-78{fill:url(#radial-gradient-77);}.cls-79{fill:url(#radial-gradient-78);}.cls-80{fill:url(#radial-gradient-79);}.cls-81{fill:url(#radial-gradient-80);}.cls-82{fill:url(#radial-gradient-81);}.cls-83{fill:url(#radial-gradient-82);}.cls-84{fill:url(#radial-gradient-83);}.cls-85{fill:url(#radial-gradient-84);}.cls-86{fill:url(#radial-gradient-85);}.cls-87{fill:url(#radial-gradient-86);}.cls-88{fill:url(#radial-gradient-87);}.cls-89{fill:url(#radial-gradient-88);}.cls-90{fill:url(#radial-gradient-89);}.cls-91{fill:url(#radial-gradient-90);}.cls-92{fill:url(#radial-gradient-91);}.cls-93{fill:url(#radial-gradient-92);}.cls-94{fill:url(#radial-gradient-93);}.cls-95{fill:url(#radial-gradient-94);}.cls-96{fill:url(#radial-gradient-95);}.cls-97{fill:url(#radial-gradient-96);}.cls-98{fill:url(#radial-gradient-97);}.cls-99{fill:url(#radial-gradient-98);}.cls-100{fill:url(#radial-gradient-99);}.cls-101{fill:url(#radial-gradient-100);}.cls-102{fill:url(#radial-gradient-101);}.cls-103{fill:url(#radial-gradient-102);}.cls-104{fill:url(#radial-gradient-103);}.cls-105{fill:url(#radial-gradient-104);}.cls-106{fill:url(#radial-gradient-105);}.cls-107{fill:url(#radial-gradient-106);}.cls-108{fill:url(#radial-gradient-107);}.cls-109{fill:url(#radial-gradient-108);}.cls-110{fill:url(#radial-gradient-109);}.cls-111{fill:url(#radial-gradient-110);}.cls-112{fill:url(#radial-gradient-111);}.cls-113{fill:url(#radial-gradient-112);}.cls-114{fill:url(#radial-gradient-113);}.cls-115{fill:url(#radial-gradient-114);}.cls-116{fill:url(#radial-gradient-115);}.cls-117{fill:url(#radial-gradient-116);}.cls-118{fill:url(#radial-gradient-117);}.cls-119{fill:url(#radial-gradient-118);}.cls-120{fill:url(#radial-gradient-119);}.cls-121{fill:url(#radial-gradient-120);}.cls-122{fill:url(#radial-gradient-121);}.cls-123{fill:url(#radial-gradient-122);}.cls-124{fill:url(#radial-gradient-123);}.cls-125{fill:url(#radial-gradient-124);}.cls-126{fill:url(#radial-gradient-125);}.cls-127{fill:url(#radial-gradient-126);}.cls-128{fill:url(#radial-gradient-127);}.cls-129{fill:url(#radial-gradient-128);}.cls-130{fill:url(#radial-gradient-129);}.cls-131{fill:url(#radial-gradient-130);}.cls-132{fill:url(#radial-gradient-131);}.cls-133{fill:url(#radial-gradient-132);}.cls-134{fill:url(#radial-gradient-133);}.cls-135{fill:url(#radial-gradient-134);}.cls-136{fill:url(#radial-gradient-135);}.cls-137{fill:url(#radial-gradient-136);}.cls-138{fill:url(#radial-gradient-137);}.cls-139{fill:url(#radial-gradient-138);}.cls-140{fill:url(#radial-gradient-139);}.cls-141{fill:url(#radial-gradient-140);}.cls-142{fill:url(#radial-gradient-141);}.cls-143{fill:url(#radial-gradient-142);}.cls-144{fill:url(#radial-gradient-143);}.cls-145{fill:url(#radial-gradient-144);}.cls-146{fill:url(#radial-gradient-145);}.cls-147{fill:url(#radial-gradient-146);}.cls-148{fill:url(#radial-gradient-147);}.cls-149{fill:url(#radial-gradient-148);}.cls-150{fill:url(#radial-gradient-149);}.cls-151{fill:url(#radial-gradient-150);}.cls-152{fill:url(#radial-gradient-151);}.cls-153{fill:url(#radial-gradient-152);}.cls-154{fill:url(#radial-gradient-153);}.cls-155{fill:url(#radial-gradient-154);}.cls-156{fill:url(#radial-gradient-155);}.cls-157{fill:url(#radial-gradient-156);}.cls-158{fill:url(#radial-gradient-157);}.cls-159{fill:url(#radial-gradient-158);}.cls-160{fill:url(#radial-gradient-159);}.cls-161{fill:url(#radial-gradient-160);}.cls-162{fill:url(#radial-gradient-161);}.cls-163{fill:url(#radial-gradient-162);}.cls-164{fill:url(#radial-gradient-163);}.cls-165{fill:url(#radial-gradient-164);}.cls-166{fill:url(#radial-gradient-165);}.cls-167{fill:url(#radial-gradient-166);}.cls-168{fill:url(#radial-gradient-167);}.cls-169{fill:url(#radial-gradient-168);}.cls-170{fill:url(#radial-gradient-169);}.cls-171{fill:url(#radial-gradient-170);}.cls-172{mix-blend-mode:screen;}.cls-173{mix-blend-mode:multiply;fill:url(#radial-gradient-171);}.cls-174{fill:url(#radial-gradient-172);}.cls-175{fill:url(#radial-gradient-173);}.cls-176{fill:url(#radial-gradient-174);}.cls-177{fill:url(#radial-gradient-175);}.cls-178{fill:url(#radial-gradient-176);}.cls-179{fill:url(#radial-gradient-177);}.cls-180{fill:url(#radial-gradient-178);}.cls-181{fill:url(#radial-gradient-179);}.cls-182{fill:url(#radial-gradient-180);}.cls-183{fill:url(#radial-gradient-181);}.cls-184{fill:url(#radial-gradient-182);}.cls-185{fill:url(#radial-gradient-183);}.cls-186{fill:url(#radial-gradient-184);}.cls-187{fill:url(#radial-gradient-185);}.cls-188{fill:url(#radial-gradient-186);}.cls-189{fill:url(#radial-gradient-187);}.cls-190{fill:url(#radial-gradient-188);}.cls-191{fill:url(#radial-gradient-189);}.cls-192{fill:url(#radial-gradient-190);}.cls-193{fill:url(#radial-gradient-191);}.cls-194{fill:url(#radial-gradient-192);}.cls-195{fill:url(#radial-gradient-193);}.cls-196{fill:url(#radial-gradient-194);}.cls-197{fill:url(#radial-gradient-195);}.cls-198{fill:url(#radial-gradient-196);}.cls-199{fill:url(#radial-gradient-197);}.cls-200{fill:url(#radial-gradient-198);}.cls-201{fill:url(#radial-gradient-199);}.cls-202{fill:url(#radial-gradient-200);}.cls-203{fill:url(#radial-gradient-201);}.cls-204{fill:url(#radial-gradient-202);}.cls-205{fill:url(#radial-gradient-203);}.cls-206{fill:url(#radial-gradient-204);}.cls-207{fill:url(#radial-gradient-205);}.cls-208{fill:url(#radial-gradient-206);}.cls-209{fill:url(#radial-gradient-207);}.cls-210{fill:url(#radial-gradient-208);}.cls-211{fill:url(#radial-gradient-209);}.cls-212{fill:url(#radial-gradient-210);}.cls-213{fill:url(#radial-gradient-211);}.cls-214{fill:url(#radial-gradient-212);}.cls-215{fill:url(#radial-gradient-213);}.cls-216{fill:url(#radial-gradient-214);}.cls-217{fill:url(#radial-gradient-215);}.cls-218{fill:url(#radial-gradient-216);}.cls-219{fill:url(#radial-gradient-217);}.cls-220{fill:url(#radial-gradient-218);}.cls-221{fill:url(#radial-gradient-219);}.cls-222{fill:url(#radial-gradient-220);}.cls-223{fill:url(#radial-gradient-221);}.cls-224{fill:url(#radial-gradient-222);}.cls-225{fill:url(#radial-gradient-223);}.cls-226{fill:url(#radial-gradient-224);}.cls-227{fill:url(#radial-gradient-225);}.cls-229{opacity:0.6;}.cls-230{fill:#42585c;}</style><radialGradient id="radial-gradient" cx="55.56" cy="210.78" r="2.15" gradientUnits="userSpaceOnUse"><stop offset="0.45" stop-color="#a1def3"/><stop offset="0.52" stop-color="#004061"/><stop offset="1"/></radialGradient><radialGradient id="radial-gradient-2" cx="39.68" cy="56.26" r="1.8" xlink:href="#radial-gradient"/><radialGradient id="radial-gradient-3" cx="56.72" cy="210.32" r="0.65" xlink:href="#radial-gradient"/><radialGradient id="radial-gradient-4" cx="41.43" cy="196.82" r="0.57" xlink:href="#radial-gradient"/><radialGradient id="radial-gradient-5" cx="23.71" cy="110.51" r="1.35" xlink:href="#radial-gradient"/><radialGradient id="radial-gradient-6" cx="36.02" cy="178.51" r="1.35" xlink:href="#radial-gradient"/><radialGradient id="radial-gradient-7" cx="32.87" cy="94.97" r="1.15" xlink:href="#radial-gradient"/><radialGradient id="radial-gradient-8" cx="39.99" cy="82.08" r="1.66" xlink:href="#radial-gradient"/><radialGradient id="radial-gradient-9" cx="80.75" cy="227.32" r="0.98" xlink:href="#radial-gradient"/><radialGradient id="radial-gradient-10" cx="93.24" cy="233.32" r="2.51" xlink:href="#radial-gradient"/><radialGradient id="radial-gradient-11" cx="98.72" cy="228.61" r="2.34" xlink:href="#radial-gradient"/><radialGradient id="radial-gradient-12" cx="134.61" cy="13.99" r="1.54" xlink:href="#radial-gradient"/><radialGradient id="radial-gradient-13" cx="155.82" cy="186.94" r="1.19" xlink:href="#radial-gradient"/><radialGradient id="radial-gradient-14" cx="112.15" cy="214.09" r="1.6" xlink:href="#radial-gradient"/><radialGradient id="radial-gradient-15" cx="92.52" cy="62.51" r="0.94" xlink:href="#radial-gradient"/><radialGradient id="radial-gradient-16" cx="103.92" cy="122.26" r="1.42" xlink:href="#radial-gradient"/><radialGradient id="radial-gradient-17" cx="95.69" cy="221.98" r="0.92" xlink:href="#radial-gradient"/><radialGradient id="radial-gradient-18" cx="99.83" cy="244.65" r="1.83" xlink:href="#radial-gradient"/><radialGradient id="radial-gradient-19" cx="68.13" cy="221.78" r="2.75" xlink:href="#radial-gradient"/><radialGradient id="radial-gradient-20" cx="49.57" cy="204.1" r="2.22" xlink:href="#radial-gradient"/><radialGradient id="radial-gradient-21" cx="25.26" cy="149.82" r="1.54" xlink:href="#radial-gradient"/><radialGradient id="radial-gradient-22" cx="24.17" cy="131.72" r="2.61" xlink:href="#radial-gradient"/><radialGradient id="radial-gradient-23" cx="39.51" cy="71.34" r="1.73" xlink:href="#radial-gradient"/><radialGradient id="radial-gradient-24" cx="29.79" cy="84.06" r="1.56" xlink:href="#radial-gradient"/><radialGradient id="radial-gradient-25" cx="26.92" cy="116.82" r="2.57" xlink:href="#radial-gradient"/><radialGradient id="radial-gradient-26" cx="49.96" cy="38.11" r="1.08" xlink:href="#radial-gradient"/><radialGradient id="radial-gradient-27" cx="35.98" cy="55.46" r="1.89" xlink:href="#radial-gradient"/><radialGradient id="radial-gradient-28" cx="17.08" cy="134.98" r="1.47" xlink:href="#radial-gradient"/><radialGradient id="radial-gradient-29" cx="14.27" cy="143.09" r="1.09" xlink:href="#radial-gradient"/><radialGradient id="radial-gradient-30" cx="15.28" cy="89.14" r="1.66" xlink:href="#radial-gradient"/><radialGradient id="radial-gradient-31" cx="13.69" cy="133.46" r="1.97" xlink:href="#radial-gradient"/><radialGradient id="radial-gradient-32" cx="11.71" cy="119.84" r="0.89" xlink:href="#radial-gradient"/><radialGradient id="radial-gradient-33" cx="32.17" cy="201.27" r="1.06" xlink:href="#radial-gradient"/><radialGradient id="radial-gradient-34" cx="10.66" cy="141.13" r="1.7" xlink:href="#radial-gradient"/><radialGradient id="radial-gradient-35" cx="31.34" cy="202.83" r="1.2" xlink:href="#radial-gradient"/><radialGradient id="radial-gradient-36" cx="18.51" cy="147.71" r="1.24" xlink:href="#radial-gradient"/><radialGradient id="radial-gradient-37" cx="39.9" cy="201.23" r="1.25" xlink:href="#radial-gradient"/><radialGradient id="radial-gradient-38" cx="61.57" cy="236.79" r="1.59" xlink:href="#radial-gradient"/><radialGradient id="radial-gradient-39" cx="78.91" cy="244.32" r="1.15" xlink:href="#radial-gradient"/><radialGradient id="radial-gradient-40" cx="88.64" cy="240.36" r="1.81" xlink:href="#radial-gradient"/><radialGradient id="radial-gradient-41" cx="31.61" cy="125.32" r="2.72" xlink:href="#radial-gradient"/><radialGradient id="radial-gradient-42" cx="47.41" cy="89.37" r="2.32" xlink:href="#radial-gradient"/><radialGradient id="radial-gradient-43" cx="62.62" cy="71.25" r="1.74" xlink:href="#radial-gradient"/><radialGradient id="radial-gradient-44" cx="117.49" cy="244.33" r="1.07" xlink:href="#radial-gradient"/><radialGradient id="radial-gradient-45" cx="124.36" cy="225.55" r="0.95" xlink:href="#radial-gradient"/><radialGradient id="radial-gradient-46" cx="141.84" cy="177.2" r="1.82" xlink:href="#radial-gradient"/><radialGradient id="radial-gradient-47" cx="147.49" cy="234.22" r="2.15" xlink:href="#radial-gradient"/><radialGradient id="radial-gradient-48" cx="156.59" cy="240.71" r="1.29" xlink:href="#radial-gradient"/><radialGradient id="radial-gradient-49" cx="195.32" cy="38.81" r="1.15" xlink:href="#radial-gradient"/><radialGradient id="radial-gradient-50" cx="190.12" cy="218.25" r="1.52" xlink:href="#radial-gradient"/><radialGradient id="radial-gradient-51" cx="197.77" cy="220.29" r="2.78" xlink:href="#radial-gradient"/><radialGradient id="radial-gradient-52" cx="204" cy="33.23" r="0.97" xlink:href="#radial-gradient"/><radialGradient id="radial-gradient-53" cx="236.28" cy="142.78" r="1.57" xlink:href="#radial-gradient"/><radialGradient id="radial-gradient-54" cx="241.4" cy="100.05" r="1.76" xlink:href="#radial-gradient"/><radialGradient id="radial-gradient-55" cx="245.98" cy="135.49" r="0.99" xlink:href="#radial-gradient"/><radialGradient id="radial-gradient-56" cx="244.2" cy="162.38" r="2.37" xlink:href="#radial-gradient"/><radialGradient id="radial-gradient-57" cx="248.12" cy="87.04" r="1.33" xlink:href="#radial-gradient"/><radialGradient id="radial-gradient-58" cx="238.56" cy="200.1" r="2.12" xlink:href="#radial-gradient"/><radialGradient id="radial-gradient-59" cx="256.37" cy="163.39" r="1.97" xlink:href="#radial-gradient"/><radialGradient id="radial-gradient-60" cx="262.18" cy="161.38" r="2.51" xlink:href="#radial-gradient"/><radialGradient id="radial-gradient-61" cx="269.45" cy="144.91" r="3.08" xlink:href="#radial-gradient"/><radialGradient id="radial-gradient-62" cx="273.09" cy="141.17" r="2.74" xlink:href="#radial-gradient"/><radialGradient id="radial-gradient-63" cx="261.88" cy="70.36" r="1.71" xlink:href="#radial-gradient"/><radialGradient id="radial-gradient-64" cx="263.3" cy="113.64" r="0.9" xlink:href="#radial-gradient"/><radialGradient id="radial-gradient-65" cx="249.82" cy="200.55" r="1.76" xlink:href="#radial-gradient"/><radialGradient id="radial-gradient-66" cx="258.58" cy="125.08" r="1.53" xlink:href="#radial-gradient"/><radialGradient id="radial-gradient-67" cx="247.72" cy="183.29" r="0.93" xlink:href="#radial-gradient"/><radialGradient id="radial-gradient-68" cx="252.98" cy="154.5" r="2.56" xlink:href="#radial-gradient"/><radialGradient id="radial-gradient-69" cx="243.33" cy="177.57" r="1.23" xlink:href="#radial-gradient"/><radialGradient id="radial-gradient-70" cx="250.63" cy="99.21" r="1.32" xlink:href="#radial-gradient"/><radialGradient id="radial-gradient-71" cx="232.47" cy="62.58" r="0.78" xlink:href="#radial-gradient"/><radialGradient id="radial-gradient-72" cx="244.13" cy="143.14" r="1.51" xlink:href="#radial-gradient"/><radialGradient id="radial-gradient-73" cx="239.26" cy="109.46" r="0.86" xlink:href="#radial-gradient"/><radialGradient id="radial-gradient-74" cx="219.3" cy="196.89" r="2.15" xlink:href="#radial-gradient"/><radialGradient id="radial-gradient-75" cx="226.93" cy="113.33" r="1.7" xlink:href="#radial-gradient"/><radialGradient id="radial-gradient-76" cx="218.51" cy="184.95" r="1.24" xlink:href="#radial-gradient"/><radialGradient id="radial-gradient-77" cx="188.79" cy="29.3" r="1.03" xlink:href="#radial-gradient"/><radialGradient id="radial-gradient-78" cx="180.74" cy="230.58" r="0.69" xlink:href="#radial-gradient"/><radialGradient id="radial-gradient-79" cx="186.72" cy="40.65" r="1.21" xlink:href="#radial-gradient"/><radialGradient id="radial-gradient-80" cx="165.26" cy="20.19" r="1.88" xlink:href="#radial-gradient"/><radialGradient id="radial-gradient-81" cx="148.94" cy="8.51" r="0.73" xlink:href="#radial-gradient"/><radialGradient id="radial-gradient-82" cx="122.68" cy="2.73" r="2.73" xlink:href="#radial-gradient"/><radialGradient id="radial-gradient-83" cx="99.17" cy="220.97" r="1.12" xlink:href="#radial-gradient"/><radialGradient id="radial-gradient-84" cx="66.36" cy="129.12" r="2.35" xlink:href="#radial-gradient"/><radialGradient id="radial-gradient-85" cx="81.2" cy="209.44" r="1.57" xlink:href="#radial-gradient"/><radialGradient id="radial-gradient-86" cx="50.46" cy="87.3" r="2.07" xlink:href="#radial-gradient"/><radialGradient id="radial-gradient-87" cx="39.16" cy="80.25" r="0.75" xlink:href="#radial-gradient"/><radialGradient id="radial-gradient-88" cx="46.02" cy="45.29" r="2.05" xlink:href="#radial-gradient"/><radialGradient id="radial-gradient-89" cx="63.61" cy="21.49" r="3.09" xlink:href="#radial-gradient"/><radialGradient id="radial-gradient-90" cx="38.17" cy="193.99" r="1.9" xlink:href="#radial-gradient"/><radialGradient id="radial-gradient-91" cx="61.76" cy="26.82" r="1.03" xlink:href="#radial-gradient"/><radialGradient id="radial-gradient-92" cx="37.24" cy="184.06" r="1.8" xlink:href="#radial-gradient"/><radialGradient id="radial-gradient-93" cx="35.06" cy="99.5" r="1.39" xlink:href="#radial-gradient"/><radialGradient id="radial-gradient-94" cx="62.56" cy="218.02" r="1.08" xlink:href="#radial-gradient"/><radialGradient id="radial-gradient-95" cx="51.45" cy="213.68" r="1.61" xlink:href="#radial-gradient"/><radialGradient id="radial-gradient-96" cx="63.97" cy="226.44" r="2.57" xlink:href="#radial-gradient"/><radialGradient id="radial-gradient-97" cx="69.01" cy="232.22" r="1.59" xlink:href="#radial-gradient"/><radialGradient id="radial-gradient-98" cx="39.79" cy="190.33" r="2.28" xlink:href="#radial-gradient"/><radialGradient id="radial-gradient-99" cx="36.57" cy="66.32" r="1.43" xlink:href="#radial-gradient"/><radialGradient id="radial-gradient-100" cx="88.71" cy="240.52" r="1.98" xlink:href="#radial-gradient"/><radialGradient id="radial-gradient-101" cx="81.99" cy="215.54" r="0.76" xlink:href="#radial-gradient"/><radialGradient id="radial-gradient-102" cx="104.11" cy="240.76" r="0.77" xlink:href="#radial-gradient"/><radialGradient id="radial-gradient-103" cx="93.86" cy="65.13" r="0.76" xlink:href="#radial-gradient"/><radialGradient id="radial-gradient-104" cx="134.82" cy="247.67" r="1.46" xlink:href="#radial-gradient"/><radialGradient id="radial-gradient-105" cx="168.63" cy="59.19" r="0.8" xlink:href="#radial-gradient"/><radialGradient id="radial-gradient-106" cx="162.74" cy="28.11" r="2.66" xlink:href="#radial-gradient"/><radialGradient id="radial-gradient-107" cx="162.52" cy="245.38" r="1.01" xlink:href="#radial-gradient"/><radialGradient id="radial-gradient-108" cx="172.28" cy="21.01" r="1.67" xlink:href="#radial-gradient"/><radialGradient id="radial-gradient-109" cx="197.75" cy="47.36" r="0.75" xlink:href="#radial-gradient"/><radialGradient id="radial-gradient-110" cx="229.92" cy="131.54" r="2" xlink:href="#radial-gradient"/><radialGradient id="radial-gradient-111" cx="216.08" cy="197.85" r="1.74" xlink:href="#radial-gradient"/><radialGradient id="radial-gradient-112" cx="208.02" cy="35.18" r="2.92" xlink:href="#radial-gradient"/><radialGradient id="radial-gradient-113" cx="202.45" cy="228.09" r="0.73" xlink:href="#radial-gradient"/><radialGradient id="radial-gradient-114" cx="227.72" cy="198.69" r="1.43" xlink:href="#radial-gradient"/><radialGradient id="radial-gradient-115" cx="246.89" cy="150.09" r="2.26" xlink:href="#radial-gradient"/><radialGradient id="radial-gradient-116" cx="234.5" cy="57.25" r="1.95" xlink:href="#radial-gradient"/><radialGradient id="radial-gradient-117" cx="251.69" cy="139.01" r="1.55" xlink:href="#radial-gradient"/><radialGradient id="radial-gradient-118" cx="242.2" cy="186.64" r="1.96" xlink:href="#radial-gradient"/><radialGradient id="radial-gradient-119" cx="250.78" cy="77.07" r="1.48" xlink:href="#radial-gradient"/><radialGradient id="radial-gradient-120" cx="254.3" cy="179.24" r="2.75" xlink:href="#radial-gradient"/><radialGradient id="radial-gradient-121" cx="263.82" cy="105.44" r="1.64" xlink:href="#radial-gradient"/><radialGradient id="radial-gradient-122" cx="268.26" cy="119.22" r="1.15" xlink:href="#radial-gradient"/><radialGradient id="radial-gradient-123" cx="265.81" cy="65.62" r="1.5" xlink:href="#radial-gradient"/><radialGradient id="radial-gradient-124" cx="265.82" cy="93.58" r="1.73" xlink:href="#radial-gradient"/><radialGradient id="radial-gradient-125" cx="263.72" cy="132.21" r="1.55" xlink:href="#radial-gradient"/><radialGradient id="radial-gradient-126" cx="259.62" cy="127.75" r="1.29" xlink:href="#radial-gradient"/><radialGradient id="radial-gradient-127" cx="253.72" cy="97.95" r="1.95" xlink:href="#radial-gradient"/><radialGradient id="radial-gradient-128" cx="255.58" cy="123.24" r="2.46" xlink:href="#radial-gradient"/><radialGradient id="radial-gradient-129" cx="236.03" cy="191.2" r="0.71" xlink:href="#radial-gradient"/><radialGradient id="radial-gradient-130" cx="231.1" cy="51.75" r="0.62" xlink:href="#radial-gradient"/><radialGradient id="radial-gradient-131" cx="238.16" cy="186.19" r="1.75" xlink:href="#radial-gradient"/><radialGradient id="radial-gradient-132" cx="247.57" cy="130.1" r="0.91" xlink:href="#radial-gradient"/><radialGradient id="radial-gradient-133" cx="239.98" cy="76.22" r="1.33" xlink:href="#radial-gradient"/><radialGradient id="radial-gradient-134" cx="245.2" cy="123.99" r="0.68" xlink:href="#radial-gradient"/><radialGradient id="radial-gradient-135" cx="239.55" cy="92.99" r="2.34" xlink:href="#radial-gradient"/><radialGradient id="radial-gradient-136" cx="207.06" cy="214.78" r="1.28" xlink:href="#radial-gradient"/><radialGradient id="radial-gradient-137" cx="208.43" cy="212" r="1.44" xlink:href="#radial-gradient"/><radialGradient id="radial-gradient-138" cx="203.75" cy="216.23" r="1.73" xlink:href="#radial-gradient"/><radialGradient id="radial-gradient-139" cx="168.25" cy="13.55" r="0.8" xlink:href="#radial-gradient"/><radialGradient id="radial-gradient-140" cx="177.18" cy="233.81" r="1.54" xlink:href="#radial-gradient"/><radialGradient id="radial-gradient-141" cx="168.5" cy="238.26" r="1.39" xlink:href="#radial-gradient"/><radialGradient id="radial-gradient-142" cx="158.83" cy="241.98" r="0.75" xlink:href="#radial-gradient"/><radialGradient id="radial-gradient-143" cx="159.43" cy="243.98" r="0.84" xlink:href="#radial-gradient"/><radialGradient id="radial-gradient-144" cx="181.02" cy="70.94" r="1.04" xlink:href="#radial-gradient"/><radialGradient id="radial-gradient-145" cx="171.59" cy="71.52" r="2.74" xlink:href="#radial-gradient"/><radialGradient id="radial-gradient-146" cx="142.18" cy="193.11" r="2.22" xlink:href="#radial-gradient"/><radialGradient id="radial-gradient-147" cx="125.23" cy="237.52" r="1.38" xlink:href="#radial-gradient"/><radialGradient id="radial-gradient-148" cx="128.36" cy="38.13" r="2.51" xlink:href="#radial-gradient"/><radialGradient id="radial-gradient-149" cx="98.7" cy="80.67" r="0.56" xlink:href="#radial-gradient"/><radialGradient id="radial-gradient-150" cx="108.76" cy="20.69" r="1.33" xlink:href="#radial-gradient"/><radialGradient id="radial-gradient-151" cx="83.69" cy="209.31" r="1.28" xlink:href="#radial-gradient"/><radialGradient id="radial-gradient-152" cx="57.3" cy="148.9" r="1.84" xlink:href="#radial-gradient"/><radialGradient id="radial-gradient-153" cx="59.53" cy="46.09" r="1.15" xlink:href="#radial-gradient"/><radialGradient id="radial-gradient-154" cx="36.28" cy="163.56" r="0.82" xlink:href="#radial-gradient"/><radialGradient id="radial-gradient-155" cx="61.83" cy="51.29" r="0.73" xlink:href="#radial-gradient"/><radialGradient id="radial-gradient-156" cx="84.59" cy="231.7" r="2.06" xlink:href="#radial-gradient"/><radialGradient id="radial-gradient-157" cx="58.64" cy="82.39" r="1.21" xlink:href="#radial-gradient"/><radialGradient id="radial-gradient-158" cx="102.78" cy="25.07" r="1.54" xlink:href="#radial-gradient"/><radialGradient id="radial-gradient-159" cx="110.9" cy="225.87" r="2.59" xlink:href="#radial-gradient"/><radialGradient id="radial-gradient-160" cx="128.98" cy="242.84" r="1" xlink:href="#radial-gradient"/><radialGradient id="radial-gradient-161" cx="137.67" cy="194.87" r="1.68" xlink:href="#radial-gradient"/><radialGradient id="radial-gradient-162" cx="167.6" cy="33.49" r="1.94" xlink:href="#radial-gradient"/><radialGradient id="radial-gradient-163" cx="138.82" cy="215.32" r="1.49" xlink:href="#radial-gradient"/><radialGradient id="radial-gradient-164" cx="103.97" cy="173.61" r="1.72" xlink:href="#radial-gradient"/><radialGradient id="radial-gradient-165" cx="82.06" cy="56.06" r="2.21" xlink:href="#radial-gradient"/><radialGradient id="radial-gradient-166" cx="97.19" cy="18.97" r="1.72" xlink:href="#radial-gradient"/><radialGradient id="radial-gradient-167" cx="69.89" cy="207.36" r="1.07" xlink:href="#radial-gradient"/><radialGradient id="radial-gradient-168" cx="34.19" cy="138.26" r="1.33" xlink:href="#radial-gradient"/><radialGradient id="radial-gradient-169" cx="76.74" cy="28.38" r="1.09" xlink:href="#radial-gradient"/><radialGradient id="radial-gradient-170" cx="57.14" cy="191.77" r="1.54" xlink:href="#radial-gradient"/><radialGradient id="radial-gradient-171" cx="137.97" cy="126.27" r="118.32" gradientUnits="userSpaceOnUse"><stop offset="0" stop-color="#347e74"/><stop offset="0.17" stop-color="#2b7370"/><stop offset="0.46" stop-color="#145764"/><stop offset="0.52" stop-color="#0f5161"/><stop offset="0.87" stop-color="#0f1461"/><stop offset="1" stop-color="#0f2461"/></radialGradient><radialGradient id="radial-gradient-172" cx="137.98" cy="123.37" r="114.38" xlink:href="#radial-gradient-171"/><radialGradient id="radial-gradient-173" cx="137.9" cy="123.7" r="114.65" xlink:href="#radial-gradient-171"/><radialGradient id="radial-gradient-174" cx="137.9" cy="123.47" r="114.43" xlink:href="#radial-gradient-171"/><radialGradient id="radial-gradient-175" cx="137.9" cy="123.49" r="114.45" xlink:href="#radial-gradient-171"/><radialGradient id="radial-gradient-176" cx="137.88" cy="123.43" r="114.39" xlink:href="#radial-gradient-171"/><radialGradient id="radial-gradient-177" cx="137.89" cy="123.44" r="114.4" xlink:href="#radial-gradient-171"/><radialGradient id="radial-gradient-178" cx="137.92" cy="123.45" r="114.42" xlink:href="#radial-gradient-171"/><radialGradient id="radial-gradient-179" cx="137.9" cy="123.48" r="114.44" xlink:href="#radial-gradient-171"/><radialGradient id="radial-gradient-180" cx="137.9" cy="123.46" r="114.42" xlink:href="#radial-gradient-171"/><radialGradient id="radial-gradient-181" cx="137.97" cy="123.45" r="114.46" xlink:href="#radial-gradient-171"/><radialGradient id="radial-gradient-182" cx="137.9" cy="123.45" r="114.41" xlink:href="#radial-gradient-171"/><radialGradient id="radial-gradient-183" cx="137.91" cy="123.45" r="114.42" xlink:href="#radial-gradient-171"/><radialGradient id="radial-gradient-184" cx="137.9" cy="123.44" r="114.41" xlink:href="#radial-gradient-171"/><radialGradient id="radial-gradient-185" cx="137.89" cy="123.45" r="114.41" xlink:href="#radial-gradient-171"/><radialGradient id="radial-gradient-186" cx="137.9" cy="123.45" r="114.41" xlink:href="#radial-gradient-171"/><radialGradient id="radial-gradient-187" cx="137.91" cy="123.1" r="114.11" xlink:href="#radial-gradient-171"/><radialGradient id="radial-gradient-188" cx="137.9" cy="123.42" r="114.37" xlink:href="#radial-gradient-171"/><radialGradient id="radial-gradient-189" cx="137.89" cy="123.5" r="114.46" xlink:href="#radial-gradient-171"/><radialGradient id="radial-gradient-190" cx="137.93" cy="123.36" r="114.34" xlink:href="#radial-gradient-171"/><radialGradient id="radial-gradient-191" cx="137.86" cy="123.47" r="114.41" xlink:href="#radial-gradient-171"/><radialGradient id="radial-gradient-192" cx="137.9" cy="123.46" r="114.42" xlink:href="#radial-gradient-171"/><radialGradient id="radial-gradient-193" cx="137.91" cy="123.46" r="114.43" xlink:href="#radial-gradient-171"/><radialGradient id="radial-gradient-194" cx="137.9" cy="123.38" r="114.35" xlink:href="#radial-gradient-171"/><radialGradient id="radial-gradient-195" cx="137.91" cy="123.45" r="114.41" xlink:href="#radial-gradient-171"/><radialGradient id="radial-gradient-196" cx="137.89" cy="123.47" r="114.43" xlink:href="#radial-gradient-171"/><radialGradient id="radial-gradient-197" cx="137.9" cy="123.55" r="114.36" xlink:href="#radial-gradient-171"/><radialGradient id="radial-gradient-198" cx="137.9" cy="123.45" r="114.41" xlink:href="#radial-gradient-171"/><radialGradient id="radial-gradient-199" cx="137.92" cy="123.45" r="114.4" xlink:href="#radial-gradient-171"/><radialGradient id="radial-gradient-200" cx="137.92" cy="123.45" r="114.39" xlink:href="#radial-gradient-171"/><radialGradient id="radial-gradient-201" cx="137.89" cy="123.45" r="114.42" xlink:href="#radial-gradient-171"/><radialGradient id="radial-gradient-202" cx="137.91" cy="123.42" r="114.39" xlink:href="#radial-gradient-171"/><radialGradient id="radial-gradient-203" cx="137.88" cy="123.46" r="114.44" xlink:href="#radial-gradient-171"/><radialGradient id="radial-gradient-204" cx="137.94" cy="123.46" r="114.38" xlink:href="#radial-gradient-171"/><radialGradient id="radial-gradient-205" cx="137.92" cy="123.46" r="114.4" xlink:href="#radial-gradient-171"/><radialGradient id="radial-gradient-206" cx="137.97" cy="123.46" r="114.34" xlink:href="#radial-gradient-171"/><radialGradient id="radial-gradient-207" cx="137.85" cy="123.44" r="114.46" xlink:href="#radial-gradient-171"/><radialGradient id="radial-gradient-208" cx="137.9" cy="123.44" r="114.41" xlink:href="#radial-gradient-171"/><radialGradient id="radial-gradient-209" cx="137.9" cy="123.45" r="114.42" xlink:href="#radial-gradient-171"/><radialGradient id="radial-gradient-210" cx="137.9" cy="123.45" r="114.41" xlink:href="#radial-gradient-171"/><radialGradient id="radial-gradient-211" cx="137.85" cy="123.52" r="114.46" xlink:href="#radial-gradient-171"/><radialGradient id="radial-gradient-212" cx="137.9" cy="123.46" r="114.42" xlink:href="#radial-gradient-171"/><radialGradient id="radial-gradient-213" cx="137.86" cy="123.45" r="114.38" xlink:href="#radial-gradient-171"/><radialGradient id="radial-gradient-214" cx="137.94" cy="123.45" r="114.5" xlink:href="#radial-gradient-171"/><radialGradient id="radial-gradient-215" cx="137.89" cy="123.49" r="114.46" xlink:href="#radial-gradient-171"/><radialGradient id="radial-gradient-216" cx="137.9" cy="123.45" r="114.42" xlink:href="#radial-gradient-171"/><radialGradient id="radial-gradient-217" cx="137.91" cy="123.45" r="114.41" xlink:href="#radial-gradient-171"/><radialGradient id="radial-gradient-218" cx="137.94" cy="123.44" r="114.44" xlink:href="#radial-gradient-171"/><radialGradient id="radial-gradient-219" cx="137.9" cy="123.46" r="114.42" xlink:href="#radial-gradient-171"/><radialGradient id="radial-gradient-220" cx="137.9" cy="123.45" r="114.42" xlink:href="#radial-gradient-171"/><radialGradient id="radial-gradient-221" cx="137.89" cy="123.45" r="114.39" xlink:href="#radial-gradient-171"/><radialGradient id="radial-gradient-222" cx="137.9" cy="123.45" r="114.42" xlink:href="#radial-gradient-171"/><radialGradient id="radial-gradient-223" cx="137.9" cy="123.45" r="114.41" xlink:href="#radial-gradient-171"/><radialGradient id="radial-gradient-224" cx="137.9" cy="123.45" r="114.41" xlink:href="#radial-gradient-171"/><radialGradient id="radial-gradient-225" cx="137.9" cy="123.45" r="114.41" xlink:href="#radial-gradient-171"/></defs><g class="cls-1"><g id="Layer_2" data-name="Layer 2"><g id="Layer_1-2" data-name="Layer 1"><path class="cls-2" d="M57.71,210.78a2.16,2.16,0,1,1-2.15-2.15A2.15,2.15,0,0,1,57.71,210.78Z"/><path class="cls-3" d="M41.48,56.26a1.8,1.8,0,1,1-1.8-1.79A1.8,1.8,0,0,1,41.48,56.26Z"/><path class="cls-4" d="M57.37,210.32a.65.65,0,1,1-.65-.65A.65.65,0,0,1,57.37,210.32Z"/><circle class="cls-5" cx="41.43" cy="196.82" r="0.57"/><circle class="cls-6" cx="23.71" cy="110.51" r="1.35"/><path class="cls-7" d="M37.37,178.51A1.35,1.35,0,1,1,36,177.16,1.34,1.34,0,0,1,37.37,178.51Z"/><circle class="cls-8" cx="32.87" cy="94.97" r="1.15"/><path class="cls-9" d="M41.65,82.08A1.66,1.66,0,1,1,40,80.42,1.66,1.66,0,0,1,41.65,82.08Z"/><path class="cls-10" d="M81.72,227.32a1,1,0,1,1-1-1A1,1,0,0,1,81.72,227.32Z"/><circle class="cls-11" cx="93.24" cy="233.32" r="2.51"/><path class="cls-12" d="M101.06,228.61a2.34,2.34,0,1,1-2.34-2.34A2.34,2.34,0,0,1,101.06,228.61Z"/><circle class="cls-13" cx="134.61" cy="13.99" r="1.54"/><path class="cls-14" d="M157,186.94a1.2,1.2,0,1,1-1.19-1.2A1.19,1.19,0,0,1,157,186.94Z"/><path class="cls-15" d="M113.75,214.09a1.6,1.6,0,1,1-1.6-1.6A1.6,1.6,0,0,1,113.75,214.09Z"/><path class="cls-16" d="M93.46,62.51a.94.94,0,1,1-1.87,0,.94.94,0,0,1,1.87,0Z"/><path class="cls-17" d="M105.34,122.26a1.42,1.42,0,1,1-1.42-1.42A1.42,1.42,0,0,1,105.34,122.26Z"/><path class="cls-18" d="M96.61,222a.92.92,0,1,1-.92-.91A.92.92,0,0,1,96.61,222Z"/><path class="cls-19" d="M101.66,244.65a1.83,1.83,0,1,1-1.83-1.83A1.83,1.83,0,0,1,101.66,244.65Z"/><path class="cls-20" d="M70.88,221.78A2.76,2.76,0,1,1,68.13,219,2.75,2.75,0,0,1,70.88,221.78Z"/><path class="cls-21" d="M51.79,204.1a2.22,2.22,0,1,1-2.22-2.22A2.22,2.22,0,0,1,51.79,204.1Z"/><path class="cls-22" d="M26.8,149.82a1.54,1.54,0,1,1-1.54-1.53A1.54,1.54,0,0,1,26.8,149.82Z"/><circle class="cls-23" cx="24.17" cy="131.72" r="2.61"/><path class="cls-24" d="M41.24,71.34a1.73,1.73,0,1,1-1.73-1.73A1.74,1.74,0,0,1,41.24,71.34Z"/><path class="cls-25" d="M31.35,84.06a1.56,1.56,0,1,1-1.56-1.57A1.56,1.56,0,0,1,31.35,84.06Z"/><path class="cls-26" d="M29.5,116.82a2.58,2.58,0,1,1-2.58-2.57A2.58,2.58,0,0,1,29.5,116.82Z"/><path class="cls-27" d="M51,38.11A1.08,1.08,0,1,1,50,37,1.08,1.08,0,0,1,51,38.11Z"/><path class="cls-28" d="M37.87,55.46A1.9,1.9,0,1,1,36,53.56,1.89,1.89,0,0,1,37.87,55.46Z"/><path class="cls-29" d="M18.55,135a1.47,1.47,0,1,1-1.47-1.47A1.47,1.47,0,0,1,18.55,135Z"/><path class="cls-30" d="M15.37,143.09a1.1,1.1,0,1,1-1.1-1.1A1.09,1.09,0,0,1,15.37,143.09Z"/><path class="cls-31" d="M16.94,89.14a1.66,1.66,0,1,1-1.66-1.66A1.66,1.66,0,0,1,16.94,89.14Z"/><circle class="cls-32" cx="13.69" cy="133.46" r="1.97"/><circle class="cls-33" cx="11.71" cy="119.84" r="0.89"/><path class="cls-34" d="M33.22,201.27a1.06,1.06,0,1,1-1-1.06A1.05,1.05,0,0,1,33.22,201.27Z"/><path class="cls-35" d="M12.37,141.13a1.71,1.71,0,1,1-1.71-1.7A1.71,1.71,0,0,1,12.37,141.13Z"/><path class="cls-36" d="M32.54,202.83a1.21,1.21,0,1,1-1.2-1.2A1.21,1.21,0,0,1,32.54,202.83Z"/><path class="cls-37" d="M19.74,147.71a1.24,1.24,0,1,1-1.23-1.23A1.24,1.24,0,0,1,19.74,147.71Z"/><path class="cls-38" d="M41.15,201.23A1.26,1.26,0,1,1,39.9,200,1.25,1.25,0,0,1,41.15,201.23Z"/><path class="cls-39" d="M63.16,236.79a1.59,1.59,0,1,1-1.59-1.58A1.59,1.59,0,0,1,63.16,236.79Z"/><circle class="cls-40" cx="78.91" cy="244.32" r="1.15"/><path class="cls-41" d="M90.45,240.36a1.81,1.81,0,1,1-1.81-1.81A1.81,1.81,0,0,1,90.45,240.36Z"/><path class="cls-42" d="M34.34,125.32a2.73,2.73,0,1,1-2.73-2.72A2.73,2.73,0,0,1,34.34,125.32Z"/><path class="cls-43" d="M49.73,89.37a2.32,2.32,0,1,1-2.32-2.32A2.32,2.32,0,0,1,49.73,89.37Z"/><path class="cls-44" d="M64.35,71.25a1.74,1.74,0,1,1-1.73-1.73A1.73,1.73,0,0,1,64.35,71.25Z"/><path class="cls-45" d="M118.56,244.33a1.07,1.07,0,1,1-1.07-1.07A1.07,1.07,0,0,1,118.56,244.33Z"/><circle class="cls-46" cx="124.36" cy="225.55" r="0.95"/><path class="cls-47" d="M143.65,177.2a1.82,1.82,0,1,1-1.81-1.82A1.81,1.81,0,0,1,143.65,177.2Z"/><circle class="cls-48" cx="147.49" cy="234.22" r="2.15"/><path class="cls-49" d="M157.88,240.71a1.29,1.29,0,1,1-1.29-1.29A1.28,1.28,0,0,1,157.88,240.71Z"/><path class="cls-50" d="M196.47,38.81a1.16,1.16,0,1,1-1.15-1.15A1.16,1.16,0,0,1,196.47,38.81Z"/><path class="cls-51" d="M191.64,218.25a1.52,1.52,0,1,1-1.52-1.52A1.52,1.52,0,0,1,191.64,218.25Z"/><circle class="cls-52" cx="197.77" cy="220.29" r="2.78"/><circle class="cls-53" cx="204" cy="33.23" r="0.97"/><path class="cls-54" d="M237.85,142.78a1.57,1.57,0,1,1-1.57-1.57A1.57,1.57,0,0,1,237.85,142.78Z"/><path class="cls-55" d="M243.16,100.05a1.76,1.76,0,1,1-1.76-1.76A1.76,1.76,0,0,1,243.16,100.05Z"/><circle class="cls-56" cx="245.98" cy="135.49" r="0.99"/><path class="cls-57" d="M246.57,162.38A2.37,2.37,0,1,1,244.2,160,2.37,2.37,0,0,1,246.57,162.38Z"/><path class="cls-58" d="M249.45,87a1.33,1.33,0,1,1-1.33-1.33A1.34,1.34,0,0,1,249.45,87Z"/><circle class="cls-59" cx="238.56" cy="200.1" r="2.12"/><path class="cls-60" d="M258.34,163.39a2,2,0,1,1-2-2A2,2,0,0,1,258.34,163.39Z"/><path class="cls-61" d="M264.69,161.38a2.51,2.51,0,1,1-2.51-2.51A2.51,2.51,0,0,1,264.69,161.38Z"/><path class="cls-62" d="M272.53,144.91a3.08,3.08,0,1,1-3.08-3.08A3.08,3.08,0,0,1,272.53,144.91Z"/><path class="cls-63" d="M275.82,141.17a2.74,2.74,0,1,1-2.73-2.74A2.73,2.73,0,0,1,275.82,141.17Z"/><path class="cls-64" d="M263.59,70.36a1.71,1.71,0,1,1-1.71-1.71A1.71,1.71,0,0,1,263.59,70.36Z"/><path class="cls-65" d="M264.19,113.64a.9.9,0,1,1-.89-.89A.89.89,0,0,1,264.19,113.64Z"/><path class="cls-66" d="M251.58,200.55a1.76,1.76,0,1,1-1.76-1.76A1.76,1.76,0,0,1,251.58,200.55Z"/><path class="cls-67" d="M260.11,125.08a1.53,1.53,0,1,1-1.53-1.53A1.53,1.53,0,0,1,260.11,125.08Z"/><path class="cls-68" d="M248.66,183.29a.94.94,0,1,1-.94-.93A.94.94,0,0,1,248.66,183.29Z"/><path class="cls-69" d="M255.54,154.5a2.56,2.56,0,1,1-2.56-2.56A2.56,2.56,0,0,1,255.54,154.5Z"/><path class="cls-70" d="M244.56,177.57a1.24,1.24,0,1,1-1.23-1.23A1.24,1.24,0,0,1,244.56,177.57Z"/><circle class="cls-71" cx="250.63" cy="99.21" r="1.32"/><circle class="cls-72" cx="232.47" cy="62.58" r="0.78"/><path class="cls-73" d="M245.63,143.14a1.51,1.51,0,1,1-1.5-1.51A1.5,1.5,0,0,1,245.63,143.14Z"/><path class="cls-74" d="M240.11,109.46a.86.86,0,1,1-.85-.86A.85.85,0,0,1,240.11,109.46Z"/><path class="cls-75" d="M221.45,196.89a2.15,2.15,0,1,1-2.15-2.15A2.16,2.16,0,0,1,221.45,196.89Z"/><path class="cls-76" d="M228.63,113.33a1.7,1.7,0,1,1-1.7-1.7A1.7,1.7,0,0,1,228.63,113.33Z"/><path class="cls-77" d="M219.75,185a1.24,1.24,0,1,1-1.24-1.25A1.25,1.25,0,0,1,219.75,185Z"/><path class="cls-78" d="M189.82,29.3a1,1,0,1,1-1-1A1,1,0,0,1,189.82,29.3Z"/><path class="cls-79" d="M181.43,230.58a.69.69,0,1,1-.69-.69A.69.69,0,0,1,181.43,230.58Z"/><path class="cls-80" d="M187.93,40.65a1.21,1.21,0,1,1-1.21-1.2A1.21,1.21,0,0,1,187.93,40.65Z"/><circle class="cls-81" cx="165.26" cy="20.19" r="1.88"/><path class="cls-82" d="M149.67,8.51a.74.74,0,1,1-.73-.73A.73.73,0,0,1,149.67,8.51Z"/><path class="cls-83" d="M125.41,2.73A2.73,2.73,0,1,1,122.68,0,2.72,2.72,0,0,1,125.41,2.73Z"/><path class="cls-84" d="M100.29,221a1.13,1.13,0,1,1-1.12-1.12A1.13,1.13,0,0,1,100.29,221Z"/><circle class="cls-85" cx="66.36" cy="129.12" r="2.35"/><path class="cls-86" d="M82.76,209.44a1.57,1.57,0,1,1-1.56-1.57A1.56,1.56,0,0,1,82.76,209.44Z"/><path class="cls-87" d="M52.53,87.3a2.07,2.07,0,1,1-2.07-2.07A2.07,2.07,0,0,1,52.53,87.3Z"/><path class="cls-88" d="M39.91,80.25a.75.75,0,0,1-.75.75.76.76,0,1,1,.75-.75Z"/><path class="cls-89" d="M48.08,45.29A2.06,2.06,0,1,1,46,43.23,2.05,2.05,0,0,1,48.08,45.29Z"/><path class="cls-90" d="M66.71,21.49a3.1,3.1,0,1,1-3.1-3.09A3.1,3.1,0,0,1,66.71,21.49Z"/><path class="cls-91" d="M40.07,194a1.9,1.9,0,1,1-1.9-1.9A1.91,1.91,0,0,1,40.07,194Z"/><path class="cls-92" d="M62.8,26.82a1,1,0,1,1-1-1A1,1,0,0,1,62.8,26.82Z"/><path class="cls-93" d="M39,184.06a1.8,1.8,0,1,1-1.8-1.8A1.8,1.8,0,0,1,39,184.06Z"/><circle class="cls-94" cx="35.06" cy="99.5" r="1.39"/><circle class="cls-95" cx="62.56" cy="218.02" r="1.08"/><path class="cls-96" d="M53.06,213.68a1.61,1.61,0,1,1-1.61-1.61A1.61,1.61,0,0,1,53.06,213.68Z"/><path class="cls-97" d="M66.54,226.44A2.57,2.57,0,1,1,64,223.87,2.57,2.57,0,0,1,66.54,226.44Z"/><path class="cls-98" d="M70.6,232.22A1.59,1.59,0,1,1,69,230.63,1.59,1.59,0,0,1,70.6,232.22Z"/><circle class="cls-99" cx="39.79" cy="190.33" r="2.28"/><path class="cls-100" d="M38,66.32a1.44,1.44,0,1,1-1.44-1.43A1.43,1.43,0,0,1,38,66.32Z"/><path class="cls-101" d="M90.69,240.52a2,2,0,1,1-2-2A2,2,0,0,1,90.69,240.52Z"/><path class="cls-102" d="M82.75,215.54a.76.76,0,0,1-.76.77.77.77,0,1,1,0-1.53A.76.76,0,0,1,82.75,215.54Z"/><path class="cls-103" d="M104.88,240.76a.77.77,0,1,1-.77-.77A.76.76,0,0,1,104.88,240.76Z"/><circle class="cls-104" cx="93.86" cy="65.13" r="0.76"/><path class="cls-105" d="M136.28,247.67a1.46,1.46,0,1,1-1.46-1.46A1.45,1.45,0,0,1,136.28,247.67Z"/><path class="cls-106" d="M169.44,59.19a.81.81,0,1,1-.81-.81A.8.8,0,0,1,169.44,59.19Z"/><path class="cls-107" d="M165.4,28.11a2.67,2.67,0,1,1-2.66-2.66A2.67,2.67,0,0,1,165.4,28.11Z"/><path class="cls-108" d="M163.53,245.38a1,1,0,0,1-2,0,1,1,0,1,1,2,0Z"/><circle class="cls-109" cx="172.28" cy="21.01" r="1.67"/><path class="cls-110" d="M198.5,47.36a.76.76,0,1,1-.75-.75A.76.76,0,0,1,198.5,47.36Z"/><path class="cls-111" d="M231.92,131.54a2,2,0,1,1-2-2A2,2,0,0,1,231.92,131.54Z"/><path class="cls-112" d="M217.82,197.85a1.75,1.75,0,1,1-1.74-1.75A1.74,1.74,0,0,1,217.82,197.85Z"/><path class="cls-113" d="M210.94,35.18A2.92,2.92,0,1,1,208,32.25,2.92,2.92,0,0,1,210.94,35.18Z"/><path class="cls-114" d="M203.18,228.09a.73.73,0,0,1-1.46,0,.73.73,0,1,1,1.46,0Z"/><circle class="cls-115" cx="227.72" cy="198.69" r="1.43"/><path class="cls-116" d="M249.15,150.09a2.27,2.27,0,1,1-2.26-2.27A2.26,2.26,0,0,1,249.15,150.09Z"/><circle class="cls-117" cx="234.5" cy="57.25" r="1.95"/><path class="cls-118" d="M253.23,139a1.55,1.55,0,1,1-1.54-1.54A1.54,1.54,0,0,1,253.23,139Z"/><path class="cls-119" d="M244.16,186.64a2,2,0,1,1-2-2A2,2,0,0,1,244.16,186.64Z"/><path class="cls-120" d="M252.26,77.07a1.48,1.48,0,1,1-1.48-1.48A1.48,1.48,0,0,1,252.26,77.07Z"/><path class="cls-121" d="M257.06,179.24a2.76,2.76,0,1,1-2.76-2.75A2.76,2.76,0,0,1,257.06,179.24Z"/><path class="cls-122" d="M265.46,105.44a1.64,1.64,0,1,1-1.64-1.64A1.63,1.63,0,0,1,265.46,105.44Z"/><circle class="cls-123" cx="268.26" cy="119.22" r="1.15"/><path class="cls-124" d="M267.31,65.62a1.5,1.5,0,1,1-1.5-1.5A1.5,1.5,0,0,1,267.31,65.62Z"/><circle class="cls-125" cx="265.82" cy="93.58" r="1.73"/><circle class="cls-126" cx="263.72" cy="132.21" r="1.55"/><path class="cls-127" d="M260.91,127.75a1.29,1.29,0,1,1-1.29-1.29A1.29,1.29,0,0,1,260.91,127.75Z"/><path class="cls-128" d="M255.67,98a1.95,1.95,0,1,1-1.95-2A1.95,1.95,0,0,1,255.67,98Z"/><circle class="cls-129" cx="255.58" cy="123.24" r="2.46"/><path class="cls-130" d="M236.75,191.2a.72.72,0,1,1-.72-.71A.71.71,0,0,1,236.75,191.2Z"/><path class="cls-131" d="M231.71,51.75a.61.61,0,0,1-.61.62.62.62,0,0,1-.62-.62.61.61,0,0,1,.62-.61A.61.61,0,0,1,231.71,51.75Z"/><path class="cls-132" d="M239.92,186.19a1.76,1.76,0,1,1-1.76-1.76A1.75,1.75,0,0,1,239.92,186.19Z"/><path class="cls-133" d="M248.47,130.1a.91.91,0,1,1-.9-.9A.9.9,0,0,1,248.47,130.1Z"/><path class="cls-134" d="M241.31,76.22A1.34,1.34,0,1,1,240,74.88,1.34,1.34,0,0,1,241.31,76.22Z"/><path class="cls-135" d="M245.88,124a.68.68,0,1,1-.68-.67A.67.67,0,0,1,245.88,124Z"/><path class="cls-136" d="M241.9,93a2.35,2.35,0,1,1-2.35-2.35A2.35,2.35,0,0,1,241.9,93Z"/><path class="cls-137" d="M208.34,214.78a1.29,1.29,0,1,1-1.28-1.28A1.28,1.28,0,0,1,208.34,214.78Z"/><circle class="cls-138" cx="208.43" cy="212" r="1.44"/><path class="cls-139" d="M205.48,216.23a1.73,1.73,0,1,1-1.73-1.73A1.72,1.72,0,0,1,205.48,216.23Z"/><path class="cls-140" d="M169,13.55a.8.8,0,1,1-.79-.8A.79.79,0,0,1,169,13.55Z"/><path class="cls-141" d="M178.72,233.81a1.55,1.55,0,1,1-1.54-1.54A1.54,1.54,0,0,1,178.72,233.81Z"/><path class="cls-142" d="M169.89,238.26a1.39,1.39,0,1,1-1.39-1.39A1.39,1.39,0,0,1,169.89,238.26Z"/><path class="cls-143" d="M159.57,242a.75.75,0,1,1-.74-.75A.75.75,0,0,1,159.57,242Z"/><circle class="cls-144" cx="159.43" cy="243.98" r="0.84"/><path class="cls-145" d="M182.06,70.94a1,1,0,1,1-1-1A1,1,0,0,1,182.06,70.94Z"/><path class="cls-146" d="M174.33,71.52a2.74,2.74,0,1,1-2.74-2.74A2.74,2.74,0,0,1,174.33,71.52Z"/><path class="cls-147" d="M144.39,193.11a2.22,2.22,0,1,1-2.21-2.21A2.21,2.21,0,0,1,144.39,193.11Z"/><circle class="cls-148" cx="125.23" cy="237.52" r="1.38"/><path class="cls-149" d="M130.87,38.13a2.51,2.51,0,1,1-2.51-2.51A2.51,2.51,0,0,1,130.87,38.13Z"/><path class="cls-150" d="M99.26,80.67a.56.56,0,0,1-.56.56.57.57,0,0,1-.57-.56.58.58,0,0,1,.57-.57A.57.57,0,0,1,99.26,80.67Z"/><path class="cls-151" d="M110.09,20.69a1.34,1.34,0,1,1-1.33-1.34A1.33,1.33,0,0,1,110.09,20.69Z"/><circle class="cls-152" cx="83.69" cy="209.31" r="1.28"/><circle class="cls-153" cx="57.3" cy="148.9" r="1.84"/><path class="cls-154" d="M60.68,46.09a1.15,1.15,0,1,1-1.15-1.15A1.16,1.16,0,0,1,60.68,46.09Z"/><circle class="cls-155" cx="36.28" cy="163.56" r="0.82"/><path class="cls-156" d="M62.56,51.29a.73.73,0,1,1-.73-.73A.73.73,0,0,1,62.56,51.29Z"/><path class="cls-157" d="M86.65,231.7a2.06,2.06,0,1,1-2.06-2.06A2.06,2.06,0,0,1,86.65,231.7Z"/><path class="cls-158" d="M59.86,82.39a1.22,1.22,0,1,1-1.22-1.21A1.22,1.22,0,0,1,59.86,82.39Z"/><circle class="cls-159" cx="102.78" cy="25.07" r="1.54"/><path class="cls-160" d="M113.49,225.87a2.59,2.59,0,1,1-2.59-2.59A2.59,2.59,0,0,1,113.49,225.87Z"/><path class="cls-161" d="M130,242.84a1,1,0,1,1-1-1A1,1,0,0,1,130,242.84Z"/><circle class="cls-162" cx="137.67" cy="194.87" r="1.68"/><path class="cls-163" d="M169.54,33.49a1.94,1.94,0,1,1-1.94-1.94A1.94,1.94,0,0,1,169.54,33.49Z"/><path class="cls-164" d="M140.31,215.32a1.49,1.49,0,1,1-1.49-1.49A1.5,1.5,0,0,1,140.31,215.32Z"/><circle class="cls-165" cx="103.97" cy="173.61" r="1.72"/><path class="cls-166" d="M84.27,56.06a2.21,2.21,0,1,1-2.21-2.21A2.2,2.2,0,0,1,84.27,56.06Z"/><path class="cls-167" d="M98.91,19a1.72,1.72,0,1,1-1.72-1.72A1.72,1.72,0,0,1,98.91,19Z"/><circle class="cls-168" cx="69.89" cy="207.36" r="1.07"/><circle class="cls-169" cx="34.19" cy="138.26" r="1.33"/><path class="cls-170" d="M77.83,28.38a1.09,1.09,0,1,1-1.09-1.09A1.09,1.09,0,0,1,77.83,28.38Z"/><circle class="cls-171" cx="57.14" cy="191.77" r="1.54"/><g class="cls-172"><path class="cls-173" d="M253.59,128.22A115.62,115.62,0,1,1,138,12.6,115.62,115.62,0,0,1,253.59,128.22Z"/><g class="cls-172"><path class="cls-174" d="M87.5,25.45a.43.43,0,0,0-.17,0,6.33,6.33,0,0,0-.68.33l-.72.59s-.08.07-.06.09.32.13,1.27-.53C87.66,25.6,87.6,25.47,87.5,25.45Z"/><path class="cls-175" d="M86,24.85s0,0-.08,0a5.6,5.6,0,0,0-.58.27c-.07,0-.13.12-.11.14a.74.74,0,0,0,.33-.11A2.61,2.61,0,0,0,86,24.85Z"/><path class="cls-176" d="M88.75,23.6a2.47,2.47,0,0,0,.55-.17s.27-.12.67-.33c0,0,.46-.24.53-.29s0,0-.11,0a27.62,27.62,0,0,0-3.23,1.43l.86-.34A4.33,4.33,0,0,1,88.75,23.6Z"/><path class="cls-177" d="M87,24.62h0s0-.05.67-.32c.21-.09.51-.21.67-.3l.08-.05-.13,0a12.72,12.72,0,0,0-3.51,1.76,15.79,15.79,0,0,0,2.22-1S87,24.66,87,24.62Z"/><path class="cls-178" d="M88.82,24.45l.11-.08.17-.18.34-.29c.07-.06.07-.07.07-.08s0,0-.06,0a4.42,4.42,0,0,0-1.06.65h0c.06,0,.06,0-.1.26A5.06,5.06,0,0,0,88.82,24.45Z"/><path class="cls-179" d="M84.22,27.83s-.07,0-.11,0a2.11,2.11,0,0,0-.31.12,5.73,5.73,0,0,0-1,.64h0a5.52,5.52,0,0,0,1.25-.57C84.2,28,84.31,27.84,84.22,27.83Z"/><path class="cls-180" d="M85.05,29.72s-.09-.06-.33,0l-.14,0L83.39,30a7.63,7.63,0,0,0-2.3,1.16s0,0,0,0,.27,0,.4.06.13.22.09.28a10.32,10.32,0,0,1-1.41,1c-.12.06-.13.06-.2.05-.08-.3.3-.4.31-.67a3.15,3.15,0,0,0-1.29.82.14.14,0,0,0,0,.11c.06.22.18.43.23.66a.9.9,0,0,1,.07.27c0,.18-.11.33-.08.51a.25.25,0,0,0,0,.09c.3.31,3-1.26,3.69-2,.16-.16.63-1.09.32-1.08a6.33,6.33,0,0,0-1,.25c.63-.42,1.33-.7,2-1.12A10.78,10.78,0,0,0,85.05,29.72Z"/><path class="cls-181" d="M77.39,29.61c1.16-.52,2.15-1.34,3.28-1.9a8.15,8.15,0,0,0-1.2.78l3.89-2.21a1,1,0,0,0,.31-.26.39.39,0,0,0-.15,0A74.53,74.53,0,0,0,76,30.34c.58-.07.95-.55,1.45-.79Z"/><path class="cls-182" d="M77.41,37.82h-.06a1.28,1.28,0,0,0-.26.16,17.17,17.17,0,0,1-1.43,1.26c-.92.56-1.19.73-1.24.87h0a1,1,0,0,0,.36,0c.35-.07.39-.07.45,0s.1.28.26.33a2.26,2.26,0,0,0,.55-.05,4.53,4.53,0,0,0,2.24-.95c.18-.21-.26-1-.26-1A1.3,1.3,0,0,0,77.41,37.82Z"/><path class="cls-183" d="M79.62,31.15a.82.82,0,0,0-.27.05,3.34,3.34,0,0,0-1.49.82l0,0c.08,0,.17-.05.25,0s0,.07-.06.24-.18.38,0,.33a7.41,7.41,0,0,0,1.23-.91C79.69,31.33,79.79,31.17,79.62,31.15Z"/><path class="cls-184" d="M117.27,15.85a6.26,6.26,0,0,1-2.84,1.3,39.39,39.39,0,0,0-4.22,1.41c-1.11,1.49,1.67,2,1.71,2,6.91-.51,7-.43,7.48,0,0,0,3.25,3.6,2.21,5.54-.43.79-.43.82-.4.93.07.41.57.44.72.8.22.53,0,1.15.3,1.68.91-.22,1.64-1.17,2.72-.68a1.59,1.59,0,0,1,1,2.33c-.76.9-2.15.86-2.83,1.87a4.39,4.39,0,0,0-.46,3c.13.43,5.53,9.57,8.11,10.44-1.29-19-2.25-27.65-3.56-31.75,1.18,3.61,2.13,10.7,3.56,31.75,6.47,1.24,6.61,1.09,7,.62.69-.76,1.85-6.67,1.86-6.73.17-.87-.29-1.79.21-2.64.26-.43.29-.44,1.91-.93,5.09-1.55,5.09-1.55,5.23-2.51s.21-1.55,1.13-2c2.22-1.13,4.78-1.29,7-2.43a21.22,21.22,0,0,0,2.74-1.37s.43-.31-.08-1c-.76-1-1.91-1.55-2.64-2.55a11,11,0,0,1-.77-2.15c-.38-.81-.21-1,.25-1.49.63-.64.19-.9-1.11-1.66-4.23-2.5-4.26-2.56-4.62-3.12l.07-.17.22-.08c-1.24-1.21-3.75-.26-4.35-2.55l-.42-.21a3.58,3.58,0,0,1,.09-.35l.17,0c-.56-.07-2.16-.17-2.17-.18a14,14,0,0,0-2.69.22c-.93.17-1.71-.44-2.6-.47-1.25,0-4-.05-5.1,0-2,.12-2,.12-2.26.28h0a17.49,17.49,0,0,0-3.25.32h0s0,0-.06,0h.09a7.22,7.22,0,0,1,1.67.19c-.11,0-.11,0-1.54,0a10.06,10.06,0,0,0-1.51.06,32.09,32.09,0,0,0-8.89,2.25C116.53,15.85,116.53,15.85,117.27,15.85Z"/><path class="cls-185" d="M97.76,37.64c.26-.7.14-1-.35-.94,0,0-1.48.4-1.75,1-.16.38.46,1.36.7,1.51C97,39.65,97.75,37.67,97.76,37.64Z"/><path class="cls-186" d="M108.23,16.81c-.32.14-.66.25-1,.38,1.06-.25,4.47-1.19,5-1.35a55.92,55.92,0,0,1-6,1.77,1.49,1.49,0,0,0-.76.34A2.08,2.08,0,0,1,105,19c-1-.3-3.67,1.23-3.77,1.32.24.1.51.06.73.2l0,.11a5.8,5.8,0,0,0,1.6-.48c-1.95,1.07-2.18.81-2.32.65-1.48,0-1.57.59-1.6.86-.85.56-1.94.62-2.68,1.35l.07.1a7.28,7.28,0,0,0,1.94-.28c1.14-.22,2.15-1,3.4-.75-.1.22-.1.22-.36.41.83.17,3.49-1.12,3.25-1.78l-.3-.07a10.07,10.07,0,0,1,2.36-1.49c2.37-.57,3.2-1.46,3.22-1.66l-.12-.05a14.42,14.42,0,0,0,3.89-1.28,1.37,1.37,0,0,0-.56,0l5.23-1.62c-1.28.18-1.36.19-1.84.22,1.23-.33,2.5-.51,3.73-.83-1.19,0-3.18.25-3.2.26s-4.82.82-5.85,1.22a.47.47,0,0,0,.19.15,1.76,1.76,0,0,1-.87,0c-.35,0-4.46,1-4.88,1.47C106.4,17.26,106.45,17.28,108.23,16.81Z"/><path class="cls-187" d="M89,25.09c-.1.13-.16.28-.26.41a4,4,0,0,1-.68.58l.17-.42a.59.59,0,0,0,.06-.2,1.3,1.3,0,0,0-.89.47h.14v0a10.12,10.12,0,0,1-1.7.8c.08,0,.17-.06.26,0-.08.14-.08.14-.07.17s.1,0,1.68-.49c-.5.27-1.83,1-1.93,1.34a0,0,0,0,0,0,0s1.8-.66,2-.78a9.35,9.35,0,0,0,1.16-1s0,.06,0,.15l0,0c.47-.44.47-.44,1.69-1.45.26-.22.28-.24.32-.31a.23.23,0,0,0-.18,0s-1.59.47-1.75.56S89,25.07,89,25.09Z"/><path class="cls-188" d="M106.34,37.76c.74-.06,2.37,2,2.38,2,.39.5.8,1,1.16,1,1-.2,2.54-4.08,2.55-4.12a1.18,1.18,0,0,0,.07-.41l-7.44-1.69a9.71,9.71,0,0,1,2.19-1.11c.79-.35,1.18-.52,1.15-.73-.06-.53-2.67-3-3.94-3.21a5.52,5.52,0,0,1-1.71-.19c-.58-.28-.5-1.22-1.3-1.28A11.84,11.84,0,0,0,98,29c-1.16.44-1.17.43-1.35.42a5.86,5.86,0,0,1-.23-2.07,7.3,7.3,0,0,0-2.38.15c-2.24.52-8.91,6.12-7.66,7s5.53,0,6.11-.31c-.09-.36-.14-.59,1.72-.8,1.59-.17,1.82-.56,2-.81a12.77,12.77,0,0,1,1.41,1.09c.55.59.78,1.38,1.29,2,.64.77,2.11.69,2.13,2.1,0,0-.32,3.19-4.72,4.51-1.32.39-2.75.31-4,1a1.15,1.15,0,0,0-.41,1.36c.24.22,1,.32,3.33-.47,1.77-.6,1.77-.6,4.91.79-.25.27-.25.27-1.52.74.7.61,6.07,1.73,7.17,1.12,0-.16,0-.16-.32-.3a24.9,24.9,0,0,1-2.54-2.29,6.25,6.25,0,0,1,3.52,1.15c.2.14.35.25.45.22.6-.19,1.6-2.45,1.12-3-1-1.08-3-.94-3.58-2.63C104,38.51,106.32,37.76,106.34,37.76Z"/><path class="cls-189" d="M82,27.16c.06.05.48-.15.82-.36a1.45,1.45,0,0,0,.21-.15H83A5.09,5.09,0,0,0,82,27.16Z"/><path class="cls-190" d="M123.2,31.35l1.13-.23s.3-.13.37-.34a.3.3,0,0,0,0-.3c-.1-.17-.31-.23-.43-.38a.37.37,0,0,1-.08-.23s0,0,0-.05a.92.92,0,0,0-.54-.05c-.51.11-2,1-1.17,1.44A1.13,1.13,0,0,0,123.2,31.35Z"/><path class="cls-191" d="M100.91,27.42l0,0a5.14,5.14,0,0,0-2.87-.47c-1,.18-.71.87-.47,1.06C98.38,28.63,100.89,27.44,100.91,27.42Z"/><path class="cls-192" d="M92.93,22.1a6,6,0,0,0-1,.43l.14,0a3,3,0,0,1,1-.12c0,.18-.3.17-.34.36s.92-.26,1-.3a4.85,4.85,0,0,0,1.31-1.2c-.13,0-.24.07-.37.07.12-.22.4-.21.54-.39,0,0,0,0-.09,0a16.6,16.6,0,0,0-2.23.94c.2.06.37-.09.57-.07C93.51,21.86,93.4,21.92,92.93,22.1Z"/><path class="cls-193" d="M88.62,26.84c-.22.16-.29.21,0,.41s1,0,1.62-.5c.35-.31,1.07-1,.74-1.08l-.14,0A16.37,16.37,0,0,0,88.62,26.84Z"/><path class="cls-194" d="M98.38,21.5a0,0,0,0,0,0,0h-.08l-.07,0c-.46.14-.91.32-1.36.46s-1.08.27-1.61.43a4.46,4.46,0,0,0-.69.25,15.34,15.34,0,0,0,2.52-.45,3.23,3.23,0,0,0,1.16-.59Z"/><path class="cls-195" d="M94.55,22.31h0c.17,0,1.75-.68,2.21-.89.2-.1.24-.14.24-.22s-.15-.05-.15-.15,0-.09,0-.14a0,0,0,0,1,0,0,.11.11,0,0,0-.07,0c-.08,0-.11,0-.21,0a1,1,0,0,0-.24.13c-.35.25-.58.64-1,.79S94.65,22.06,94.55,22.31Z"/><path class="cls-196" d="M98.23,19.93a6.35,6.35,0,0,0,1.14-.6.25.25,0,0,0-.12,0s-1.13.36-1.45.52-.25.31-.25.31S97.89,20.09,98.23,19.93Z"/><path class="cls-197" d="M100.64,19.41c.48-.15.63-.19.79-.12,0,0,0,0,0,.06a4.94,4.94,0,0,1-.77.29,10,10,0,0,0-1.71.61c-.29.18-.32.52-.19.58s0,0,.86-.23c.33-.09.68,0,1-.13.8-.29,1.48-.81,2.25-1.16.48-.21,1-.27,1.48-.51a.26.26,0,0,0,.1-.07s0,0-.37-.1a.06.06,0,0,1,0,0,1.79,1.79,0,0,1,.24-.12c.66-.31.66-.34.68-.4s-.15,0-.22-.05c.11-.15.36-.19.3-.43.15-.17.37-.23.5-.41h-.14a38.07,38.07,0,0,0-4,1.48,1.15,1.15,0,0,0,.45-.07,3.51,3.51,0,0,1-1.07.38,2.63,2.63,0,0,0-1.34.71A6.36,6.36,0,0,0,100.64,19.41Z"/><path class="cls-198" d="M91.42,26.88c.07,0,8.17-.83,10.32-3,.58-.58-.85-.66-.87-.66a32,32,0,0,0-5.14,1.54c-.67.27-1.2-.35-1.06-.52a1.12,1.12,0,0,1,.43-.18c1.31-.37.66-.78.52-.79-.35,0-.64.19-1,.23s-.75-.1-1.14-.06a5.28,5.28,0,0,0-.74.13,2.51,2.51,0,0,0-.83.9,1.11,1.11,0,0,0,.5-.11c.36-.13.86-.3,1-.23s-.44.95-.48,1c-.39.37-1,.51-1.31.92C90.91,26.89,91.19,26.89,91.42,26.88Z"/><path class="cls-199" d="M253.59,127c-.18-3.22-.33-7.53-.67-10.74l-.39-2.68c-.77-2.56-.84-3-2.36-12l.07.12c-3.71-12.29-3.71-12.29-3.77-12.89l.05.06a71.15,71.15,0,0,0-3.68-9l-4-7.75a15.73,15.73,0,0,0-4.22-3.92,14.6,14.6,0,0,1,4.22,3.92c-1.52-2.5-3.48-5.87-5.1-8.29-7-9.5-7.09-9.68-11.4-14.32l-4.6-4.66h0c-.17-.16-.34-.32-.52-.47a25.31,25.31,0,0,0,2.19,2.35,10.7,10.7,0,0,1-1-.69,11.2,11.2,0,0,0,2.27,2.29l-.18.12c-3.21-2.62-6-5.77-9.19-8.35,1.62,1,2.9,2.5,4.66,3.31-.41-.75-5.34-5-8.59-7a16.51,16.51,0,0,1-2.83-1.87,3.83,3.83,0,0,1,.43.17A6.69,6.69,0,0,0,204,34l-.16.13a10.4,10.4,0,0,1-2.16-1.29,3.57,3.57,0,0,0,.46.16c-.27-.62-3.12-1.92-3.33-2a2.66,2.66,0,0,0,.61.88c-1-.35-1.49-1.39-2.47-1.74.18.45.67.66.86,1.1-.36.78-.36.78-.3,1.26a40.64,40.64,0,0,0,2.41,4.79c1.71,2.63,1.64,3.54,1.63,3.64-.33,2.44-.33,2.44-1.68,3.4-.49.36-.48.53-.21,1.17,0,.09,3.62,8.49,6.93,6.95,1.07-.49.54-2.25.28-3.1.27.2,6.21,6.1,7.31,8,.53.88,1,1.72,1.94,1.72a6.74,6.74,0,0,0-.3-3.73c-1.32-2.45-1-2.73-.35-3.34,0-.59,0-.81-1.77-1.95-1.19-.79-1.19-.79-2.81-3.4-.61-1,.41-2.25-.5-3.19a25.48,25.48,0,0,1-2.45-2.62,2.92,2.92,0,0,1-.14-.31l.12-.18c.88.29,3.84,2.25,4.06,2.86l-.25,0c2.3,5.12,2.3,5.12,4.46,7.14,1.9,1.76,4.78,1.49,6.68,3.24a5,5,0,0,1-.91-.34l-.18.11a5.35,5.35,0,0,0,.41.64,23.72,23.72,0,0,0-3.32-.94c1.26,1.72,3.06,3,4,5-1.23-.05-1.32-1.85-2.65-1.75l-.13.21s1.5,2.77,1.66,3S223,61,222.9,61.58c-.76-.07-.76-.07-.91,0-.1.23-.14.49-.24.73l.13.17h0c-3.5-.24-3.5-.24-3.52.1l-.48.29a8.71,8.71,0,0,0-2.61-.87l1.69.29a3.52,3.52,0,0,0-2.41-.71c-.46,0-.57,0-1.87-1.47-.95-1.09-2.08-2.68-2-4,0-.56-.83-2.94-1.46-3-.08,0-1.89,0-1.58.87a40.66,40.66,0,0,0,4.11,6.34c.67.78.7.88.72.93s-.11.11-.6.2-.82.14-1.17.2c-.11.14-.24.33-.35.48-1.85-.06-1.85-.06-2.35.44a18,18,0,0,0,.89,3.17l-.3.52a4.51,4.51,0,0,0-2.41.29,9.34,9.34,0,0,0,.67,1.72,5.65,5.65,0,0,1-1.31.63,3.54,3.54,0,0,1-.27,1.25,3.94,3.94,0,0,1-2.84-.87,11.32,11.32,0,0,0,.71,1.09c-.06.18-.13.41-.19.58a7.35,7.35,0,0,1-1.22.43c-.87-.56-.87-.56-2.26-.59l-.24.54,1.16,1-.48.34c8.35,2.32,7,10.7,7,10.78-3.89-.28-7.64-1.44-11.5-1.84a6.51,6.51,0,0,0,.74,1c0,.1.43,10.46,1.76,10.86-.36,3.19-.36,3.19-.42,3.49,2.7-.21,3.26-.26,4.42,0,.45,1.83.45,1.83.47,1.87l6.33-2.1c1.75-.22,2.19-2.43,1.24-3.93,1-4.16,1.06-4.18,3.67-5.2,0-3.36,0-3.36.32-3.59,1.21-1,2.15.6,3.28.6,1-1.82,1.88-3,3.49-1.62.08.07,8.91,10.21,9.78,13.06.66,2.14.36,2.19-3.37,2.7a18.8,18.8,0,0,0,3,3.2c.32-1-.31-2-.12-3l.55.08c.47-.7.66-1.53,1.09-2.24a7,7,0,0,1-.54-2.64l.57-.14c.22.31.52.72.76,1-.19-.91-.19-.91-3.18-4.5,0-.17.1-.4.14-.58-1.41-.62-2.52-1.11-6.27-8.77a2,2,0,0,1,.86-.71l8.49,10s0,0,2.56,7.32l2.69,6.17a9.67,9.67,0,0,0,.08-1.2,21.15,21.15,0,0,0-.85-4.23c-.92-4.58-.92-4.58-.47-4.92a4.42,4.42,0,0,1,2.9,2.53,7,7,0,0,0,.49-1.08l.6,0C241,90.8,238,87.2,238.52,83a1.66,1.66,0,0,1,1.08,0l-.24.51a4.26,4.26,0,0,0,1.35,1.15,3.09,3.09,0,0,1,0,1.87A20.86,20.86,0,0,1,242,88.69c2-1.16-1-3.22-.39-4.91.89-.19,1,.1,1.3.79l-.29.54c.31.5.31.5.77,2.3l-.33.48c1.45,3.57,4.73,6.35,4.59,10.6-.14.09-.35.2-.5.28-1.73-1.16-1.64-5-4.45-4.26a1.9,1.9,0,0,1-.43,1c-.33-.11-.78-.24-1.13-.32a2.25,2.25,0,0,0,.54,1c-.64.55-1.51.22-2.21.57a6.87,6.87,0,0,0-.07,1.28l.53.16c.28,2.13.8,6.1,3.43,8.31l.41-.41c0-.17,0-.4,0-.58.85.72,1.13,1.92,2.13,2.52a5,5,0,0,0,.26-1.15,3.24,3.24,0,0,0,1,.64c.43,8.08.5,9.32-.38,11.5-1.16-.1-1.35-.35-1.72-1.49a1.64,1.64,0,0,0-1,.42c-3.86-.28-3.51-5.9-7.54-6-.75,1.34-.16,2.89-.67,4.26l-.55.23c-.84-.61-9.69-8.67-10.32-9.72-.2-.33.06-.92.27-1.24.48-.77.48-.77.11-5.54a17.16,17.16,0,0,0-1.74-1c-.77.6-.77.6-4-.15a6.2,6.2,0,0,0-.79,1c-4.2-1.64-7.6,3-11.78,1.52-.46,0-.54,0-.63,0-1.18.24-1.58.32-2.87-1.22l-.24-.16a5.93,5.93,0,0,0-.53.47c-.78,1-.19,2.33-.95,3.3-1,1.2-2.76,1.18-3.64,2.49-.27.38-.14,1.08-.17,1.55-.26,5.07-.26,5.07-1.63,5.73a15.21,15.21,0,0,0-3.6,2.66c-.76,1.22-6.37,11-6.37,11-.23,2.6,1.49,4.79,1.54,7.33,0,2.13-3,3.14-2.05,5.61,1.44,3.7,3.44,7.13,5.15,10.71.72,1.5,6.11,6.64,7.13,6.55,5.07-.48,10-2.39,15.16-1.83a1.11,1.11,0,0,1,.49.26c.94.79.27,2.2,1.19,3s2.06.39,3.07.71c.67,2,.67,2-.16,4,8.73,1.62,14.24,3.08,18.22,5-3.92-1.91-9.58-3.42-18.22-5-2.31,5.41-2.31,5.41-1.95,6.95.56,2.44,1.32,5.78-1.8,13.11-1.44,3.37-4.19,5.85-6.08,8.91-1.76,2.85-2,6.31-3.59,9.2-6.34,11.29-6.53,11.48-7.54,12.53a7.26,7.26,0,0,0-1.79,2.73c3.25,1,7.07-1.6,8.32-2.45l5-3.54,6.37-5.08c1.43-1.5,2.29-3.45,3.82-4.87,1.76-1.63,4.11-2.42,5.85-4.07,4.14-4,8-11.85,8.39-12.83,1.61-3.92,7.1-9.92,8.73-11.64,2.55-2.84,6-10.29,6.84-13.21-.65-.22-.65-.22-1.79,0-.26-.36-.26-.36.28-5a38.52,38.52,0,0,0-.23-5.15c-.09-4.46.78-8.9.39-13.37l-1.19-14.08c.28.44.28.44.58,2.48a2.32,2.32,0,0,0,.64-1.13c2.88,10.62-.18,21.27.16,31.91,1.17-.55,1.17-.55,1.69-.43,3.08-6.65,3.08-6.65,3.23-7.5l-.1.63c.07-.35.16-.82.21-1.17l.06-.39.34-2.46h0c.14-1.12.31-2.53.57-6.35,0,.2,0,.39,0,.58C253.39,134.29,253.61,130.15,253.59,127Zm-.72,12.32c-.22-.48-.22-.48-.06-4.48-.11,1.27-.11,1.27-.18,1.82-.31-8.65-.18-9.44,0-10.54.5.76.71,7.16.63,10.85A11,11,0,0,1,252.87,139.3Z"/><path class="cls-200" d="M250.36,101.46c0,.15.09.34.12.48l.58,2.59a.5.5,0,0,0,0-.13c.21,1.53.51,3,.81,4.56a74.73,74.73,0,0,0-2.52-11.55c-.23-.73-.46-1.42-.66-2.06,1.35,4.63,1.4,4.82,2,7.26C250.54,102.23,250.45,101.85,250.36,101.46Z"/><path class="cls-201" d="M248.3,94.15c0,.15.11.3.17.44-.17-.56-.4-1.1-.52-1.67.06.18.13.36.19.55l-1.38-4.07,0,.06a3,3,0,0,0-.26-.61c.54,1.6,1.2,3.64,2.13,6.5C248.54,95,248.42,94.58,248.3,94.15Z"/><path class="cls-202" d="M252.63,113.92c-.17-1.66-.48-3.31-.8-5,.2,1.27.42,2.78.7,4.6C252.56,113.68,252.6,113.8,252.63,113.92Z"/><path class="cls-203" d="M186.73,59.6a1,1,0,0,1,0,.1,11.7,11.7,0,0,0-.75,2.48c-.11.66-.07,1,.14,1.23.37.45,2.09.26,3.35-.55.32-.2.61-.43.94-.6s.92-.06,1.23-.48c.17-.24.1-.8-.21-1.66a4.15,4.15,0,0,0-.54-1,.93.93,0,0,1-.13-1.16,1.49,1.49,0,0,0,.13-1,1.72,1.72,0,0,0-.73-.93,3.54,3.54,0,0,0-.47-.26c-.39-.19-.83-.29-1.23-.47A1.26,1.26,0,0,1,188,55a.07.07,0,0,0-.08,0c-.11,0-2.71.68-1.07,1.59a.72.72,0,0,0,.39.11,1.16,1.16,0,0,1-.24.14,4.81,4.81,0,0,0-1.58,1,1.08,1.08,0,0,0-.29,1,1,1,0,0,0,.58.62A5.27,5.27,0,0,0,186.73,59.6Z"/><path class="cls-204" d="M78.63,29h0c-.25.13-2.32,1.34-2.43,1.47C76.31,30.5,76.42,30.5,78.63,29Z"/><path class="cls-205" d="M241.62,108.61l.06,0s0,0,0,0l-1-1.28a.94.94,0,0,0-.42-.27,8.08,8.08,0,0,1-1-.19,2.88,2.88,0,0,0-.6-.21c-.26,0-.33.23-.18.5C238.82,107.66,241,108.81,241.62,108.61Z"/><path class="cls-206" d="M220.66,93.09c.21.22.64.11.72.5s-.06.72,0,1.08a.46.46,0,0,0,.37.36c.24.06,1.44-.33,1.47-1.3a2.28,2.28,0,0,0,0-.36c0-.4-.21-.78-.27-1.18s0-.87-.09-1.3c-.1-.69-.34-.77-.59-.79a2.35,2.35,0,0,0-1.66,1A2.81,2.81,0,0,0,220.66,93.09Z"/><path class="cls-207" d="M214.66,92.89a6.94,6.94,0,0,0,.49-.57c0-.2-.3-.36-.9-.43s-1.69.08-1.28.55a2.66,2.66,0,0,0,1.43.6A.35.35,0,0,0,214.66,92.89Z"/><path class="cls-208" d="M220.66,87.44a.35.35,0,0,0-.16.38.87.87,0,0,0,.17.33s.94,1.11,1,1.14c.22-.1,0-1.76-.16-2.62a5.58,5.58,0,0,0-.49-1.44h0a.21.21,0,0,0-.07.13s0,.06,0,.08a7.31,7.31,0,0,0,.07,1.24A.89.89,0,0,1,220.66,87.44Z"/><path class="cls-209" d="M245.49,111.58a2.24,2.24,0,0,0,.6,0,7.92,7.92,0,0,0,.2-1.34v-.08c0-.13,0-.14-.06-.15s-.3.1-.46.1a.68.68,0,0,1-.34-.11c-.14-.09-.24-.24-.39-.31s-.19,0-.21.05a2,2,0,0,0,.38,1.59A.76.76,0,0,0,245.49,111.58Z"/><path class="cls-210" d="M67,37.74l0,0a.35.35,0,0,0,.14-.06c.66-.45,1.24-1,1.89-1.48,1.19-.83,2.48-1.52,3.65-2.38.27-.2.27-.2.62-.85l0-.07a4.47,4.47,0,0,0-1.08.57c.31-.26.31-.26.35-.47l0,0-.15,0c-1.46.61-1.46.61-7.93,5.92a4.67,4.67,0,0,0-1.47,1.8l.06,0C64.55,40.09,65.63,38.76,67,37.74Z"/><path class="cls-211" d="M76,31.61a4.62,4.62,0,0,0,1.18-.55c2-1.13,3-1.57,3-1.57a16.69,16.69,0,0,0,1.93-.74c.49-.26,2.34-1.54,2.36-1.56.36-.25.38-.29.42-.36a1.18,1.18,0,0,0-.56.15c-.57.32-1.06.77-1.62,1.09.7-.69,1.52-1.25,2.2-2h-.08a11.76,11.76,0,0,0-2.41,1.52c0,.23-.36.83-2.13,1.24l0,0c0-.06.09-.1.13-.15l0-.05c.24-.26,1.06-.42.72-.79,0,0-4.78,2.29-4.82,2.95a22.36,22.36,0,0,0,2.29-1.24c-.23.37-.65.5-1,.76,0,0,.07,0,.62-.3a6,6,0,0,1,1-.44,28.73,28.73,0,0,1-3.16,1.66C75.84,31.39,75.83,31.59,76,31.61Z"/><path class="cls-212" d="M62.86,43.33c.34.08.6-.22.93-.2l.05.06c-.15.4-.54.64-.74,1a19,19,0,0,0,5.37-2.86,4.28,4.28,0,0,1,1.14-.78l.07,0a1.56,1.56,0,0,0-.17.35,6.62,6.62,0,0,0,1.37.4C72,41,72,41,73.12,39.73l0-.06c-.11,0-.11,0-1.17.54A2.72,2.72,0,0,1,74,39c.27,0,.32,0,.42-.08s.58-.52.49-1c-.6-.33-.85-1-.53-1.38A31.27,31.27,0,0,0,77,33a2.17,2.17,0,0,0-.36-.12l0-.12,0,0c-1.14,1-1.91,2.3-3.23,3-.13-.54.43-.72.59-1.11l-.1-.07a10.4,10.4,0,0,1-1.51.71c.16-.25.42-.4.56-.67l-.06-.06c-.74.23-1.29.8-2,1.07.44-.6,1.16-.87,1.66-1.41-.44,0-6.26,3.8-6.12,4.5l.23.12c-.12.19-.12.2-.81.61-1.16.7-1.21.84-1.2,1a.31.31,0,0,0,.21,0c.64-.12,1.17-.55,1.81-.7.45-.1.91.1,1.36,0a7.48,7.48,0,0,1-2.35,1.1C62.61,41.85,62.31,43.2,62.86,43.33Z"/><path class="cls-213" d="M89.45,48.84c.09-.26-.16-.25-.37-.21a2.68,2.68,0,0,0-1.11.43.92.92,0,0,0-.1,1C88.2,50.39,89.31,49.2,89.45,48.84Z"/><path class="cls-214" d="M88,46.71a.44.44,0,0,0,.21-.17A.66.66,0,0,0,88,45.9c-.19-.18-.44-.28-.62-.48a12.61,12.61,0,0,0-.85-1.08l-.2-.13C86,44,85.51,44,85.14,43.8s-.23-.47-.47-.61h-.1A11.75,11.75,0,0,0,83.05,45c-.14.21-.33.49-.46.71l-1.24,2c.73.06.73.06.79.43s.08.47.15.46a3.1,3.1,0,0,0,.69-.52,5.4,5.4,0,0,1,2.69-1.43C86.43,46.57,87.19,47,88,46.71Z"/><path class="cls-215" d="M85.93,48.08a7.57,7.57,0,0,0-2.17.77c-.32.24-.37.93-.19,1.06.34.25,2.39-1,2.76-1.53C86.45,48.19,86.48,48,85.93,48.08Z"/><path class="cls-216" d="M81.74,139.69c-.62.25-.26,1.23.12,1.36s1.87.4,1.84-.27A2,2,0,0,0,81.74,139.69Z"/><path class="cls-217" d="M194.22,59.17c-.12,0-.1.08-.07.2l.78.06A2.46,2.46,0,0,0,194.22,59.17Z"/><path class="cls-218" d="M118.67,67.42c.74-1,1.07-1.61,1-1.92a.34.34,0,0,0-.14,0,8,8,0,0,0-2.32,2.08c-1,1.25-1.71,2.71-2.7,4-.53.67-1.27,1.15-1.76,1.85-.2.27,0,.34,0,.38s.13.07,3.14.32a22.38,22.38,0,0,1,4.32.65,2.93,2.93,0,0,0,.51.13c.49,0,1-.46,1.47,0a1.64,1.64,0,0,1,.28,1c0,.33.17.36.26.35.48-.06,1.08-1,1.14-1.77a7,7,0,0,0-1.83-4.27c-.5-.53-.5-.53-2.27-.15-.54.12-.66,0-.78-.44-.23-.85-.44-1-.77-1.17-.17-.09-.17-.15-.09-.32A5,5,0,0,1,118.67,67.42Z"/><path class="cls-219" d="M188.93,51.76c.09.61-.38,1.19-.13,1.81.18.07.58,0,1.41-.6.31-.24.58-.44.78-.32.86.47-.13,1.4.16,2.07a2.67,2.67,0,0,0,2.18,1.78c1.39.36,1.57.41,1.82.59,0,.22-.08.44,0,.66.37.66,1,1.11,1.36,1.81.18.72-.7.3-1.34,0-.28-.13-.28-.13-1.06-.19.32.9,1.34,1.34,1.54,2.32.11.53-.38.81-1.08,1.15-.19.09-.48.23-.37.44s.36.47,2,.42c.71,0,2.2-.06,2.24.43s-.3.44-.81.42a1,1,0,0,0-.84.31c-.37.33-.42.84-.74,1.2s-.93.71-1.33,1.14c0,0,0,.1,0,.14.22.06.22.06,3.44-.35,1.63-.2,3.28-.07,4.91-.31h.06l2.79-1a.14.14,0,0,0,0-.09c-.58-.58-1.32-.07-1.95-.29-.3-.85.48-1.62.16-2.46-.57-1.5-1.16-1.47-1.64-1.45-1.08.06-1.82-1.46-1.82-1.47a.21.21,0,0,1,0-.07c.07,0,.07,0,.91.17.39.13.91.32.88.12v0a1.91,1.91,0,0,0-.45-.45c-1.32-1-3-1.53-4.17-2.72a11.12,11.12,0,0,0-1.69-1.74,6.08,6.08,0,0,0-2.89-1h0c.71-.63,1.64-3.77-.27-3.84a5.06,5.06,0,0,0-1,.07c-1.21.16-1.43.18-1.44-.13,0-.63,1.07-1.82.18-1.87,0,0-2.38,0-2.73.88a.54.54,0,0,0,0,.28C188.29,50.42,188.81,51,188.93,51.76Z"/><path class="cls-220" d="M32.94,82.59c.3-.71.47-1.46.75-2.18.17-.43.37-.85.53-1.28,0,0,0-.11.05-.16s.13-.41-.06-.36a.24.24,0,0,0-.1,0c-.64.51-1.36,3.83-1.23,4A.33.33,0,0,0,32.94,82.59Z"/><path class="cls-221" d="M173.49,36s0-.1,0-.13a2.16,2.16,0,0,0-1-.87l-.25-.09a16.66,16.66,0,0,1-2.09-.29c-.47-.19-.82-.66-1.4-.63s-1.27.43-1.93.58-1.31.11-1.93.32c-.4.14-.11.64-.43.82s-.68-.17-1,0l-.17.11c-.13.56.38,1.21-.24,1.7a8.56,8.56,0,0,1-1.86-1.7c-.54-1-2.82-1.66-3.46-1.15.18.52.81.41,1.09.78-.18.75-1.07.63-1.43,1.17a2.87,2.87,0,0,0,1.33,0c.71-.13,2.95.64,1.7,1.67.54.66,1.25.1,1.85.27s.63.41.64,1c.14.12.27.18,1.53,0a10.6,10.6,0,0,1,1.36-.09c.6,0,1.16.31,1.76.35h.25a9,9,0,0,0,2.17-.41c1.51-.37,3.8-2,3.69-2.52-.07-.32-.35-.53-.44-.83C173.3,36,173.3,36,173.49,36Z"/><path class="cls-222" d="M83.78,137c.66.86,4.78,1.16,4.85.68,0-.26-5.24-6.35-5.3-6.39a6.33,6.33,0,0,0-5.23-.89,7.75,7.75,0,0,0-2.9,1.75,3.64,3.64,0,0,0,2.59-.6c1.52-.87,2.55-.38,2.64-.11-.08.15-.29.37-.78.09l-.05,0c.06.74,1.29,1.05,2.1,1.25,1.49.38,1.59.7,1.9,1.64a3.07,3.07,0,0,0,.57,1.16,1.54,1.54,0,0,1,.38.63C84.59,136.75,84,136.73,83.78,137Z"/><path class="cls-223" d="M90.35,142.06c.42.24.09,1,.69,1.09,1,.1.94-1.32,1.84-1.41a2,2,0,0,1,.51,0,40.57,40.57,0,0,0,4.41.36c.13,0,.22-.05.23-.18,0-.47-.36-.86-.24-1.35.38-1.5-7.3-2.16-7.78-2.09a.36.36,0,0,0-.19.1c0,.12,0,.12.11.22a2.14,2.14,0,0,1,.7,2.32,3.65,3.65,0,0,1-1.6-.11c-1.55-.25-1.7-.21-1.79-.18s0,.07.06.09C88.24,141.53,89.39,141.51,90.35,142.06Z"/><path class="cls-224" d="M105.82,70.71c-.66.24.84,1,1.15,1.12,2,.93,2.68-.07,2.68-.09C109.89,71.21,106.54,70.59,105.82,70.71Z"/><path class="cls-225" d="M229.9,194.23c-2.18,2.8-2.23,2.82-3.66,3.33-1.16.41-1.53.95-3.29,3.5a7.55,7.55,0,0,1-2.06,2.21,37.48,37.48,0,0,0-6.3,7c1,0,1,0,4.59-3.46,3-2.84,5.56-6,8.39-9,0,.08,0,.08-.26.5a2.06,2.06,0,0,0,.38-.43,28,28,0,0,0,3-4.58l-.08,0C230.43,193.54,230.43,193.54,229.9,194.23Z"/><path class="cls-226" d="M156.36,173.66c-.15-.81.93-1.92-.09-2.44-.73-.37-1.45.18-2.17,0-2.34-.51-3.88-2.55-6.12-3.24-3.35-1-6.8-1.62-10.19-2.47-2-.72-2.15-3-3.36-4.31-2.07-1.35-3.61-3.53-5.78-4.77-2.82-1.61-6.3-1.06-9.11-2.76-2.21-1.34-3.7-3.62-6.08-4.77a4.68,4.68,0,0,0-1.22-.38c-11.5-1.73-20.59-3.09-21.61,6-3.42-2.42-12.19,1.42-11.38-4.25a9.73,9.73,0,0,0-1-6c-2.66-1.35-5.37.05-8.06-.13.89-2.94.89-2.94.24-4.31A15.78,15.78,0,0,0,72,134.72c-.51-.44-5-4.06-5.94,6.06-1.54-.1-2.54,2.07-4.3,1.05-4.15-2.37-5.56-5.39-6-7-.59-2,1.06-3.5,1-5.35,0-1.19-1.62-1.76-1.2-3.12.54-1.75,3.78-5,4.54-5.64,1.35-1,6.61.14,6.65.16l.47-.39c-.4-.44-1-.59-1.45-1,0-.17.08-.4.12-.58,1-.61,9.4-1.33,9.44-1.31,3.58,1.91,1.4,6.94,4.83,8.93,4-4.28-2.45-8.07-1.74-12.38.75-4.46,5.2-5.49,7.69-8.34h-.06l-.37-.41.07-.54.52-.15c0-.2,0-.45.06-.65l-.51-.19.82-8.16c.07,1.2.07,4.88.06,4.89.39-.25.39-.25.73-5.63a7,7,0,0,1,1,1.69c.73-1.26.49-2.91,1.62-4a56.94,56.94,0,0,1,5.19-2.62c.45-4.22.45-4.22,2.81-6.43.4,0,.4,0,7.26-4l-.23.48a3.69,3.69,0,0,0,1.23.25v.6c-4,2.81-4,2.81-4,3.64,2.69,0,11-4.77,9.49-8.5-1.14.77-1.19,2.17-1.87,3.2l-2.2-.63a2,2,0,0,0,1-.77,0,0,0,0,0,0,0,0,0,0,0,0,0,0,.62.62,0,0,0-.23,0,3.07,3.07,0,0,1-1.88-.17.89.89,0,0,1-.57-1c0-.17,0-.18,0-.2l0,0a2,2,0,0,0-.08,1.55c-1-.49-1.21-1-1.61-2.26a2.4,2.4,0,0,1-1.45-.94c1.45-.4,2.5-.68,2.81-2.14-.74-.74-.74-.74-11.09,5.74,7.12-7.41,7.12-7.41,14.44-9.63,1.66,1.14,9.14-2.57,10.28-4.64-.37-.91-.37-.91.17-2.24l-.33-.51-1.8-.38h-.52a7.45,7.45,0,0,0-3.43,1.43c-.06-.15-.15-.35-.22-.5.6-.85.88-1,3.1-1.82-4.3.37-8.49.73-13.09,1.19,4.23-.44,7.91-.78,13.12-1.2.11-.06.28-.13.34-.24s-1.62-1.75-3.8-1.18c-.49.13-.49.13-.74,0-.15-.42.19-.88-.12-1.29s-1.22-.4-1.63-1c-.17-.24,0-.44.27-.89.48-.67.48-.67-.56-2.54-2.64-4.7-2.64-4.7-3.93-2.24-.2.38.31.78,0,1.16s-1.06,0-1.43.53c-.82,1.12-.82,1.12-1,1.19-1.43.44-2.43-.73-3.67-1a5.32,5.32,0,0,1,1-3.56c-.73-.25-1.5.11-2.23-.16-.17-.06-.28-.18-.51-.56-.07-.13-.25-.44-2-1a1.47,1.47,0,0,0-.8-.09c-1.64.44-3.41.08-5,.75.29,1.52-1.59,2.9-.32,4.5-.24.74-1.21,1-1.27,1.87s1,1.61,1,2.59c0,0,.07,4-2.2,4.5-.49.12-1.62.48-1.38,1.31a2.93,2.93,0,0,1-.63.54c-.6,2.29.91,5.14-1.7,6.94-.81-1.24-2.26-1.6-3.39-2.41a3.77,3.77,0,0,0,0-3.27l.65-.53c0-.09,0-.29,0-.38a3.66,3.66,0,0,0-.66,0c-1.07-1-2.37-.1-3.52-.41s-1.77-1.51-2.89-1.9a3.76,3.76,0,0,0-.66-.17c-1-.18-1.75.58-2.64.83-.31-.25-.31-.25-.71-2.59-.13-.82-.13-.82-2.06-1-.44-2.49,5.64-7,8.24-8.93-.3-.79-1.17-.44-1.67-.84,5-.89,5-.89,7.92-4-1.95.35-2.36.42-3.94-.49,1.87-.67,4.3.51,5.72-1.69a1.17,1.17,0,0,0-.55-.19s.94-1.14,1.92-.52c3.28-1.18,3.28-1.18,4.14-1.94a2.6,2.6,0,0,0,.53-.62c.36-.6-.23-1.23.09-1.83s1-.5,1.37-.9a5.34,5.34,0,0,0,.4-.92s-2.78-2.85-3.71,1.14c-1.7,1-2.92,5-5,3.11.18-1.22,2.66-2,1.5-3.23-1.31.5-1.84,1.82-2.81,2.68-.24-.66,1.1-2.41,1.12-2.42A5.76,5.76,0,0,0,82,37c2-3.27,2-3.27,2-3.67l-.31-.23c1.16-1.79,1.16-1.79,6.58-5a2.16,2.16,0,0,0-1,.06c-4.34,1-10.21,9.16-10.25,9.24s.1.21.15.3c.46,0,.91-.1,1.38-.13a2.86,2.86,0,0,0,.07.28,4.74,4.74,0,0,0-1.56,1V39h0l.27.06c-.92,1.59-2.94,2.13-3.7,3.88-.7-.73-.7-.73.62-2.15-.76-.19-.76-.19-3.23,1.76-.14.1-1,.63-4,.48-.2-.29-.16-.67-.37-1-2.47.63-3.2,2.06-4.67,4.92-.27-.72.36-1.32.28-2-1.33.21-2.42,1.3-3.87,1.09.61-.6,1.59-.82,1.82-1.8L62,44.18c-.32.18-.38.21-1.32.11a2.66,2.66,0,0,0-.41-.47c-.67.14-1.05.72-1.58,1.07.1-.18.25-.41.37-.58a7.06,7.06,0,0,0-1,.84,6.41,6.41,0,0,1,1.24-1.8c-1.61,1.48-1.61,1.48-4.54,4h0c.92-.88,1.93-1.69,2.87-2.56A47.74,47.74,0,0,0,53,49a4.52,4.52,0,0,1,.34-.51l-5.41,6.08c-7,9.13-7.15,9.3-10.25,14.45l0,0a1.94,1.94,0,0,1,.15-.24C35.74,74,35.74,74,35.48,75.37c-.13.42-.31,1-.45,1.38.1.16.22.37.32.52A36.58,36.58,0,0,0,34,82.92a4.44,4.44,0,0,0,.28,2.4,2.38,2.38,0,0,0-.52-.09c-.12,0-.18,0-.22-.08s-.06-.05-.13-.3-.16-.56-.27-.59h0a5.39,5.39,0,0,0,0,2.23c.25.83.83.72.84.71a.68.68,0,0,0,.39-.42,1.72,1.72,0,0,0,.1-.51c0-.13,0-.27,0-.4s0,0,0,0A6.5,6.5,0,0,1,35,88.31c-.29-.16-.67-.36-1-.5-3.5,4.35-4.72,26.2-2.39,30.28.3,0,.3,0,5.37,10.44-.36,0-.84,0-1.2,0,.61,1.29,5.08,7.06,5.12,7.11.41-.59.83-1.21-1.22-4.13-.94-1.33-2-2.83-3.79-10.09,2.25,1.64,2.48,2.71,2.78,4.06a9.29,9.29,0,0,0,.88,2.74c.92,1.46,2,2.77,3,4.19,1.27,1.84,3.42,2.87,4.47,4.9.86,1.62.45,3.81,2.2,5a4.79,4.79,0,0,0,.89.41c.5.19,1.13.54,1.64.68,1.81.46,3.66.75,5.47,1.19s3.83-.62,5.65.42c4.17,2.37,4.17,2.37,5.63,2.53l.73.09c6.55.91,9.26,9,16.43,8.76,3.19-5.32,5.16,1.06,5.86,4,.22,1,.22,1-1.57,4.89,0,.06-1.76,7.16-1,8.48.12.22.28.52.42.72,2.35,3.49,12,13,12.08,13.1,2.36,2,5.55,2.5,8,4.29,1.89,1.36,3.31,4,4,7.52,0,.16,3.73,16.75,10.17,25.82,8.16,11.49,16.06,10.22,16.14,10.2-7.61-3.92-7.61-3.92-6.89-7.14-1.06-1.13-1.06-1.13-3.06-6.63.31-.1.31-.1,1.75,0,0-.15,0-.15-1.75-2.55,1.34-1.19,1.34-1.19,1.24-2.14l.33-.21c2.37.73,3.15-1.23,2.54-2.12l-.69-1c5.37-.15,7.66-13.14,7.67-13.27a7.08,7.08,0,0,1,3.64-3c1.9-.8,1.93-3,3.28-4.26a1.81,1.81,0,0,1,1.6-.5c.79.1.85.11,1-.64.22-1.62.07-3.26.15-4.9,0-.91-.49-1.85.11-2.74s1-1.41.47-2.09a1.71,1.71,0,0,1-.23-.47c4.5-1.63,6.09-6.5,6.1-6.55a.54.54,0,0,0,0-.18C156.9,174.59,156.46,174.2,156.36,173.66ZM43.66,72.09c1.59-.52,3.27-1,5-1.49Q46.07,71.3,43.66,72.09Zm51,92.71c2-.26,4.1-.51,6.27-.75Zm45.54,28.46c-.08-.79-.35-3.38-.76-7.95.25,2.67.5,5.32.78,8.12A.88.88,0,0,0,140.17,193.26ZM138,168.39l0,.43Z"/><path class="cls-227" d="M100.51,142.64c-.62.42.18,1.22.93,1.34a5.66,5.66,0,0,0,2.32-.32c0-.09-.08-.3-1.36-.7S100.79,142.57,100.51,142.64Z"/></g></g><g class="cls-228"><g class="cls-229"><line class="cls-230" x1="200.16" y1="253.8" x2="261.8" y2="159.27"/><polygon class="cls-230" points="262.13 159.43 200.5 253.97 199.83 253.64 261.47 159.1 262.13 159.43"/></g><g class="cls-229"><line class="cls-230" x1="200.16" y1="253.8" x2="261.8" y2="159.27"/><polygon class="cls-230" points="262.13 159.43 200.5 253.97 199.83 253.64 261.47 159.1 262.13 159.43"/></g><g class="cls-229"><line class="cls-230" x1="1.66" y1="93.51" x2="125.58" y2="48"/><polygon class="cls-230" points="125.47 47.66 125.69 48.33 1.77 93.84 1.54 93.18 125.47 47.66"/></g><g class="cls-229"><line class="cls-230" x1="1.66" y1="93.51" x2="46.65" y2="216.48"/><polygon class="cls-230" points="2.03 93.37 47.02 216.34 46.28 216.63 1.28 93.66 2.03 93.37"/></g><g class="cls-229"><line class="cls-230" x1="172.29" y1="172.25" x2="200.16" y2="253.8"/><polygon class="cls-230" points="172.67 172.11 200.54 253.67 199.79 253.94 171.92 172.38 172.67 172.11"/></g><g class="cls-229"><line class="cls-230" x1="172.29" y1="172.25" x2="125.58" y2="48"/><polygon class="cls-230" points="125.95 47.85 172.66 172.1 171.92 172.39 125.21 48.14 125.95 47.85"/></g><g class="cls-229"><line class="cls-230" x1="172.29" y1="172.25" x2="261.8" y2="159.27"/><polygon class="cls-230" points="261.78 158.91 261.82 159.62 172.31 172.6 172.27 171.89 261.78 158.91"/></g><g class="cls-229"><line class="cls-230" x1="172.29" y1="172.25" x2="261.8" y2="159.27"/><polygon class="cls-230" points="261.78 158.91 261.82 159.62 172.31 172.6 172.27 171.89 261.78 158.91"/></g><g class="cls-229"><line class="cls-230" x1="172.29" y1="172.25" x2="46.65" y2="216.48"/><polygon class="cls-230" points="172.19 171.91 172.41 172.58 46.76 216.82 46.54 216.15 172.19 171.91"/></g><g class="cls-229"><line class="cls-230" x1="68.23" y1="73.31" x2="1.66" y2="93.51"/><polygon class="cls-230" points="68.14 72.97 68.32 73.65 1.75 93.85 1.57 93.17 68.14 72.97"/></g><g class="cls-229"><line class="cls-230" x1="68.23" y1="73.31" x2="125.58" y2="48"/><rect class="cls-230" x="65.56" y="60.3" width="62.69" height="0.7" transform="translate(-16.31 44.75) rotate(-24.05)"/></g><g class="cls-229"><line class="cls-230" x1="68.23" y1="73.31" x2="46.65" y2="216.48"/><polygon class="cls-230" points="68.62 73.33 47.03 216.5 46.26 216.47 67.84 73.3 68.62 73.33"/></g><g class="cls-229"><line class="cls-230" x1="129.15" y1="190.27" x2="68.23" y2="73.31"/><polygon class="cls-230" points="129.5 190.1 128.79 190.45 67.87 73.49 68.58 73.13 129.5 190.1"/></g><g class="cls-229"><line class="cls-230" x1="129.15" y1="190.27" x2="172.29" y2="172.25"/><polygon class="cls-230" points="172.16 171.92 172.43 172.57 129.28 190.59 129.02 189.95 172.16 171.92"/></g><g class="cls-229"><line class="cls-230" x1="129.15" y1="190.27" x2="200.16" y2="253.8"/><polygon class="cls-230" points="200.45 253.54 199.88 254.07 128.86 190.54 129.44 190 200.45 253.54"/></g><g class="cls-229"><line class="cls-230" x1="129.15" y1="190.27" x2="125.58" y2="48"/><polygon class="cls-230" points="125.97 47.95 129.54 190.23 128.76 190.31 125.19 48.04 125.97 47.95"/></g><g class="cls-229"><line class="cls-230" x1="129.15" y1="190.27" x2="261.8" y2="159.27"/><polygon class="cls-230" points="261.74 158.92 261.86 159.61 129.21 190.62 129.09 189.93 261.74 158.92"/></g><g class="cls-229"><line class="cls-230" x1="129.15" y1="190.27" x2="261.8" y2="159.27"/><polygon class="cls-230" points="261.74 158.92 261.86 159.61 129.21 190.62 129.09 189.93 261.74 158.92"/></g><g class="cls-229"><line class="cls-230" x1="129.15" y1="190.27" x2="46.65" y2="216.48"/><polygon class="cls-230" points="129.06 189.94 129.24 190.61 46.74 216.82 46.55 216.15 129.06 189.94"/></g><g class="cls-229"><line class="cls-230" x1="85.69" y1="152.32" x2="129.15" y2="190.27"/><polygon class="cls-230" points="129.43 190.01 128.87 190.54 85.4 152.59 85.97 152.06 129.43 190.01"/></g><g class="cls-229"><line class="cls-230" x1="85.69" y1="152.32" x2="68.23" y2="73.31"/><polygon class="cls-230" points="68.61 73.21 86.07 152.22 85.3 152.43 67.84 73.41 68.61 73.21"/></g><g class="cls-229"><line class="cls-230" x1="85.69" y1="152.32" x2="172.29" y2="172.25"/><polygon class="cls-230" points="172.42 171.9 172.17 172.59 85.56 152.67 85.82 151.98 172.42 171.9"/></g><g class="cls-229"><line class="cls-230" x1="85.69" y1="152.32" x2="1.66" y2="93.51"/><polygon class="cls-230" points="85.94 152.03 85.43 152.62 1.4 93.81 1.91 93.22 85.94 152.03"/></g><g class="cls-229"><line class="cls-230" x1="85.69" y1="152.32" x2="125.58" y2="48"/><polygon class="cls-230" points="125.95 48.08 86.05 152.41 85.32 152.24 125.21 47.91 125.95 48.08"/></g><g class="cls-229"><line class="cls-230" x1="85.69" y1="152.32" x2="46.65" y2="216.48"/><polygon class="cls-230" points="86.02 152.47 46.98 216.64 46.31 216.34 85.35 152.17 86.02 152.47"/></g><g class="cls-229"><line class="cls-230" x1="224.54" y1="119.6" x2="85.69" y2="152.32"/><polygon class="cls-230" points="224.48 119.25 224.61 119.94 85.75 152.67 85.62 151.98 224.48 119.25"/></g><g class="cls-229"><line class="cls-230" x1="224.54" y1="119.6" x2="129.15" y2="190.27"/><polygon class="cls-230" points="224.77 119.87 129.38 190.54 128.92 190 224.31 119.33 224.77 119.87"/></g><g class="cls-229"><line class="cls-230" x1="224.54" y1="119.6" x2="172.29" y2="172.25"/><polygon class="cls-230" points="224.82 119.83 172.57 172.47 172.02 172.02 224.26 119.37 224.82 119.83"/></g><g class="cls-229"><line class="cls-230" x1="224.54" y1="119.6" x2="200.16" y2="253.8"/><polygon class="cls-230" points="224.93 119.62 200.55 253.83 199.78 253.78 224.16 119.57 224.93 119.62"/></g><g class="cls-229"><line class="cls-230" x1="224.54" y1="119.6" x2="125.58" y2="48"/><polygon class="cls-230" points="224.8 119.31 224.28 119.89 125.32 48.28 125.84 47.71 224.8 119.31"/></g><g class="cls-229"><line class="cls-230" x1="224.54" y1="119.6" x2="261.8" y2="159.27"/><polygon class="cls-230" points="262.11 159.01 261.49 159.51 224.24 119.85 224.85 119.35 262.11 159.01"/></g><g class="cls-229"><line class="cls-230" x1="224.54" y1="119.6" x2="261.8" y2="159.27"/><polygon class="cls-230" points="262.11 159.01 261.49 159.51 224.24 119.85 224.85 119.35 262.11 159.01"/></g><g class="cls-229"><line class="cls-230" x1="174.58" y1="9.03" x2="224.54" y2="119.6"/><polygon class="cls-230" points="224.91 119.43 224.18 119.76 174.21 9.19 174.94 8.86 224.91 119.43"/></g><g class="cls-229"><line class="cls-230" x1="174.58" y1="9.03" x2="68.23" y2="73.31"/><polygon class="cls-230" points="174.76 9.32 68.42 73.61 68.04 73.02 174.38 8.73 174.76 9.32"/></g><g class="cls-229"><line class="cls-230" x1="174.58" y1="9.03" x2="125.58" y2="48"/><polygon class="cls-230" points="174.82 9.29 125.82 48.26 125.34 47.73 174.34 8.76 174.82 9.29"/></g><g class="cls-229"><line class="cls-230" x1="93.68" y1="246.73" x2="85.69" y2="152.32"/><polygon class="cls-230" points="86.08 152.26 94.07 246.68 93.29 246.79 85.3 152.39 86.08 152.26"/></g><g class="cls-229"><line class="cls-230" x1="93.68" y1="246.73" x2="129.15" y2="190.27"/><polygon class="cls-230" points="129.48 190.43 94.01 246.89 93.34 246.58 128.81 190.12 129.48 190.43"/></g><g class="cls-229"><line class="cls-230" x1="93.68" y1="246.73" x2="172.29" y2="172.25"/><polygon class="cls-230" points="172.56 172.48 93.94 246.97 93.41 246.5 172.02 172.01 172.56 172.48"/></g><g class="cls-229"><line class="cls-230" x1="93.68" y1="246.73" x2="200.16" y2="253.8"/><polygon class="cls-230" points="200.23 253.45 200.1 254.17 93.61 247.09 93.74 246.38 200.23 253.45"/></g><g class="cls-229"><line class="cls-230" x1="93.68" y1="246.73" x2="46.65" y2="216.48"/><polygon class="cls-230" points="93.92 246.44 93.43 247.03 46.4 216.78 46.89 216.19 93.92 246.44"/></g><g class="cls-229"><line class="cls-230" x1="280.39" y1="90.87" x2="174.58" y2="9.03"/><polygon class="cls-230" points="280.65 90.58 280.12 91.15 174.3 9.31 174.84 8.74 280.65 90.58"/></g><g class="cls-229"><line class="cls-230" x1="280.39" y1="90.87" x2="224.54" y2="119.6"/><polygon class="cls-230" points="280.55 91.18 224.71 119.91 224.38 119.29 280.22 90.56 280.55 91.18"/></g><g class="cls-229"><line class="cls-230" x1="280.39" y1="90.87" x2="172.29" y2="172.25"/><polygon class="cls-230" points="280.62 91.14 172.53 172.52 172.06 171.98 280.16 90.6 280.62 91.14"/></g><g class="cls-229"><line class="cls-230" x1="280.39" y1="90.87" x2="261.8" y2="159.27"/><polygon class="cls-230" points="280.76 90.92 262.18 159.32 261.42 159.21 280.01 90.81 280.76 90.92"/></g><g class="cls-229"><line class="cls-230" x1="280.39" y1="90.87" x2="261.8" y2="159.27"/><polygon class="cls-230" points="280.76 90.92 262.18 159.32 261.42 159.21 280.01 90.81 280.76 90.92"/></g><g class="cls-229"><line class="cls-230" x1="280.39" y1="90.87" x2="174.58" y2="9.03"/><polygon class="cls-230" points="280.65 90.58 280.12 91.15 174.3 9.31 174.84 8.74 280.65 90.58"/></g><g class="cls-229"><line class="cls-230" x1="280.39" y1="90.87" x2="224.54" y2="119.6"/><polygon class="cls-230" points="280.55 91.18 224.71 119.91 224.38 119.29 280.22 90.56 280.55 91.18"/></g><g class="cls-229"><line class="cls-230" x1="280.39" y1="90.87" x2="172.29" y2="172.25"/><polygon class="cls-230" points="280.62 91.14 172.53 172.52 172.06 171.98 280.16 90.6 280.62 91.14"/></g><g class="cls-229"><line class="cls-230" x1="280.39" y1="90.87" x2="261.8" y2="159.27"/><polygon class="cls-230" points="280.76 90.92 262.18 159.32 261.42 159.21 280.01 90.81 280.76 90.92"/></g><g class="cls-229"><line class="cls-230" x1="280.39" y1="90.87" x2="261.8" y2="159.27"/><polygon class="cls-230" points="280.76 90.92 262.18 159.32 261.42 159.21 280.01 90.81 280.76 90.92"/></g><g class="cls-229"><line class="cls-230" x1="282.71" y1="90.86" x2="280.39" y2="90.87"/><polygon class="cls-230" points="282.74 90.5 282.67 91.22 280.35 91.22 280.42 90.51 282.74 90.5"/></g><g class="cls-229"><line class="cls-230" x1="282.71" y1="90.86" x2="280.39" y2="90.87"/><polygon class="cls-230" points="282.74 90.5 282.67 91.22 280.35 91.22 280.42 90.51 282.74 90.5"/></g><g class="cls-229"><line class="cls-230" x1="282.71" y1="90.86" x2="174.58" y2="9.03"/><polygon class="cls-230" points="282.97 90.58 282.44 91.15 174.31 9.31 174.84 8.74 282.97 90.58"/></g><g class="cls-229"><line class="cls-230" x1="282.71" y1="90.86" x2="224.54" y2="119.6"/><polygon class="cls-230" points="282.87 91.18 224.7 119.91 224.38 119.28 282.55 90.55 282.87 91.18"/></g><g class="cls-229"><line class="cls-230" x1="282.71" y1="90.86" x2="172.29" y2="172.25"/><polygon class="cls-230" points="282.94 91.14 172.52 172.52 172.07 171.97 282.48 90.59 282.94 91.14"/></g><g class="cls-229"><line class="cls-230" x1="282.71" y1="90.86" x2="261.8" y2="159.27"/><polygon class="cls-230" points="283.08 90.93 262.18 159.33 261.43 159.2 282.33 90.8 283.08 90.93"/></g><g class="cls-229"><line class="cls-230" x1="282.71" y1="90.86" x2="261.8" y2="159.27"/><polygon class="cls-230" points="283.08 90.93 262.18 159.33 261.43 159.2 282.33 90.8 283.08 90.93"/></g><g class="cls-229"><line class="cls-230" x1="57.16" y1="27.18" x2="174.58" y2="9.03"/><polygon class="cls-230" points="174.55 8.67 174.6 9.38 57.19 27.54 57.13 26.83 174.55 8.67"/></g><g class="cls-229"><line class="cls-230" x1="57.16" y1="27.18" x2="85.69" y2="152.32"/><polygon class="cls-230" points="57.55 27.08 86.07 152.22 85.3 152.43 56.78 27.29 57.55 27.08"/></g><g class="cls-229"><line class="cls-230" x1="57.16" y1="27.18" x2="68.23" y2="73.31"/><polygon class="cls-230" points="57.54 27.08 68.61 73.2 67.85 73.42 56.78 27.29 57.54 27.08"/></g><g class="cls-229"><line class="cls-230" x1="57.16" y1="27.18" x2="1.66" y2="93.51"/><polygon class="cls-230" points="57.46 27.39 1.96 93.72 1.36 93.31 56.86 26.98 57.46 27.39"/></g><g class="cls-229"><line class="cls-230" x1="57.16" y1="27.18" x2="125.58" y2="48"/><polygon class="cls-230" points="125.73 47.66 125.43 48.34 57.01 27.53 57.32 26.84 125.73 47.66"/></g><path class="cls-230" d="M261.2,157.91a1.49,1.49,0,1,1-.94,2A1.6,1.6,0,0,1,261.2,157.91Z"/><path class="cls-230" d="M199.57,252.45a1.49,1.49,0,1,1-.95,2A1.59,1.59,0,0,1,199.57,252.45Z"/><path class="cls-230" d="M261.2,157.91a1.49,1.49,0,1,1-.94,2A1.6,1.6,0,0,1,261.2,157.91Z"/><path class="cls-230" d="M199.57,252.45a1.49,1.49,0,1,1-.95,2A1.59,1.59,0,0,1,199.57,252.45Z"/><path class="cls-230" d="M125,46.64a1.49,1.49,0,1,1-.94,2A1.59,1.59,0,0,1,125,46.64Z"/><path class="cls-230" d="M1.06,92.16a1.6,1.6,0,0,1,2.14.67,1.6,1.6,0,0,1-1,2,1.59,1.59,0,0,1-2.14-.68A1.58,1.58,0,0,1,1.06,92.16Z"/><path class="cls-230" d="M46,215.13a1.49,1.49,0,1,1-.94,2A1.6,1.6,0,0,1,46,215.13Z"/><path class="cls-230" d="M1.06,92.16a1.6,1.6,0,0,1,2.14.67,1.6,1.6,0,0,1-1,2,1.59,1.59,0,0,1-2.14-.68A1.58,1.58,0,0,1,1.06,92.16Z"/><path class="cls-230" d="M199.57,252.45a1.49,1.49,0,1,1-.95,2A1.59,1.59,0,0,1,199.57,252.45Z"/><path class="cls-230" d="M171.7,170.89a1.57,1.57,0,0,1,2.13.68,1.7,1.7,0,0,1-3.08,1.36A1.6,1.6,0,0,1,171.7,170.89Z"/><path class="cls-230" d="M125,46.64a1.49,1.49,0,1,1-.94,2A1.59,1.59,0,0,1,125,46.64Z"/><path class="cls-230" d="M171.7,170.89a1.57,1.57,0,0,1,2.13.68,1.7,1.7,0,0,1-3.08,1.36A1.6,1.6,0,0,1,171.7,170.89Z"/><path class="cls-230" d="M261.2,157.91a1.49,1.49,0,1,1-.94,2A1.6,1.6,0,0,1,261.2,157.91Z"/><path class="cls-230" d="M171.7,170.89a1.57,1.57,0,0,1,2.13.68,1.7,1.7,0,0,1-3.08,1.36A1.6,1.6,0,0,1,171.7,170.89Z"/><path class="cls-230" d="M261.2,157.91a1.49,1.49,0,1,1-.94,2A1.6,1.6,0,0,1,261.2,157.91Z"/><path class="cls-230" d="M171.7,170.89a1.57,1.57,0,0,1,2.13.68,1.7,1.7,0,0,1-3.08,1.36A1.6,1.6,0,0,1,171.7,170.89Z"/><path class="cls-230" d="M46,215.13a1.49,1.49,0,1,1-.94,2A1.6,1.6,0,0,1,46,215.13Z"/><path class="cls-230" d="M171.7,170.89a1.57,1.57,0,0,1,2.13.68,1.7,1.7,0,0,1-3.08,1.36A1.6,1.6,0,0,1,171.7,170.89Z"/><path class="cls-230" d="M1.06,92.16a1.6,1.6,0,0,1,2.14.67,1.6,1.6,0,0,1-1,2,1.59,1.59,0,0,1-2.14-.68A1.58,1.58,0,0,1,1.06,92.16Z"/><path class="cls-230" d="M67.63,72a1.49,1.49,0,1,1-.94,2A1.59,1.59,0,0,1,67.63,72Z"/><path class="cls-230" d="M125,46.64a1.49,1.49,0,1,1-.94,2A1.59,1.59,0,0,1,125,46.64Z"/><path class="cls-230" d="M67.63,72a1.49,1.49,0,1,1-.94,2A1.59,1.59,0,0,1,67.63,72Z"/><path class="cls-230" d="M46,215.13a1.49,1.49,0,1,1-.94,2A1.6,1.6,0,0,1,46,215.13Z"/><path class="cls-230" d="M67.63,72a1.49,1.49,0,1,1-.94,2A1.59,1.59,0,0,1,67.63,72Z"/><path class="cls-230" d="M67.63,72a1.49,1.49,0,1,1-.94,2A1.59,1.59,0,0,1,67.63,72Z"/><path class="cls-230" d="M128.55,188.91a1.5,1.5,0,1,1-.94,2A1.6,1.6,0,0,1,128.55,188.91Z"/><path class="cls-230" d="M171.7,170.89a1.57,1.57,0,0,1,2.13.68,1.7,1.7,0,0,1-3.08,1.36A1.6,1.6,0,0,1,171.7,170.89Z"/><path class="cls-230" d="M128.55,188.91a1.5,1.5,0,1,1-.94,2A1.6,1.6,0,0,1,128.55,188.91Z"/><path class="cls-230" d="M199.57,252.45a1.49,1.49,0,1,1-.95,2A1.59,1.59,0,0,1,199.57,252.45Z"/><path class="cls-230" d="M128.55,188.91a1.5,1.5,0,1,1-.94,2A1.6,1.6,0,0,1,128.55,188.91Z"/><path class="cls-230" d="M125,46.64a1.49,1.49,0,1,1-.94,2A1.59,1.59,0,0,1,125,46.64Z"/><path class="cls-230" d="M128.55,188.91a1.5,1.5,0,1,1-.94,2A1.6,1.6,0,0,1,128.55,188.91Z"/><path class="cls-230" d="M261.2,157.91a1.49,1.49,0,1,1-.94,2A1.6,1.6,0,0,1,261.2,157.91Z"/><path class="cls-230" d="M128.55,188.91a1.5,1.5,0,1,1-.94,2A1.6,1.6,0,0,1,128.55,188.91Z"/><path class="cls-230" d="M261.2,157.91a1.49,1.49,0,1,1-.94,2A1.6,1.6,0,0,1,261.2,157.91Z"/><path class="cls-230" d="M128.55,188.91a1.5,1.5,0,1,1-.94,2A1.6,1.6,0,0,1,128.55,188.91Z"/><path class="cls-230" d="M46,215.13a1.49,1.49,0,1,1-.94,2A1.6,1.6,0,0,1,46,215.13Z"/><path class="cls-230" d="M128.55,188.91a1.5,1.5,0,1,1-.94,2A1.6,1.6,0,0,1,128.55,188.91Z"/><path class="cls-230" d="M128.55,188.91a1.5,1.5,0,1,1-.94,2A1.6,1.6,0,0,1,128.55,188.91Z"/><path class="cls-230" d="M85.09,151a1.49,1.49,0,1,1-1,2A1.59,1.59,0,0,1,85.09,151Z"/><path class="cls-230" d="M67.63,72a1.49,1.49,0,1,1-.94,2A1.59,1.59,0,0,1,67.63,72Z"/><path class="cls-230" d="M85.09,151a1.49,1.49,0,1,1-1,2A1.59,1.59,0,0,1,85.09,151Z"/><path class="cls-230" d="M171.7,170.89a1.57,1.57,0,0,1,2.13.68,1.7,1.7,0,0,1-3.08,1.36A1.6,1.6,0,0,1,171.7,170.89Z"/><path class="cls-230" d="M85.09,151a1.49,1.49,0,1,1-1,2A1.59,1.59,0,0,1,85.09,151Z"/><path class="cls-230" d="M1.06,92.16a1.6,1.6,0,0,1,2.14.67,1.6,1.6,0,0,1-1,2,1.59,1.59,0,0,1-2.14-.68A1.58,1.58,0,0,1,1.06,92.16Z"/><path class="cls-230" d="M85.09,151a1.49,1.49,0,1,1-1,2A1.59,1.59,0,0,1,85.09,151Z"/><path class="cls-230" d="M125,46.64a1.49,1.49,0,1,1-.94,2A1.59,1.59,0,0,1,125,46.64Z"/><path class="cls-230" d="M85.09,151a1.49,1.49,0,1,1-1,2A1.59,1.59,0,0,1,85.09,151Z"/><path class="cls-230" d="M46,215.13a1.49,1.49,0,1,1-.94,2A1.6,1.6,0,0,1,46,215.13Z"/><path class="cls-230" d="M85.09,151a1.49,1.49,0,1,1-1,2A1.59,1.59,0,0,1,85.09,151Z"/><path class="cls-230" d="M85.09,151a1.49,1.49,0,1,1-1,2A1.59,1.59,0,0,1,85.09,151Z"/><path class="cls-230" d="M223.94,118.24a1.5,1.5,0,1,1-.94,2A1.61,1.61,0,0,1,223.94,118.24Z"/><path class="cls-230" d="M128.55,188.91a1.5,1.5,0,1,1-.94,2A1.6,1.6,0,0,1,128.55,188.91Z"/><path class="cls-230" d="M223.94,118.24a1.5,1.5,0,1,1-.94,2A1.61,1.61,0,0,1,223.94,118.24Z"/><path class="cls-230" d="M171.7,170.89a1.57,1.57,0,0,1,2.13.68,1.7,1.7,0,0,1-3.08,1.36A1.6,1.6,0,0,1,171.7,170.89Z"/><path class="cls-230" d="M223.94,118.24a1.5,1.5,0,1,1-.94,2A1.61,1.61,0,0,1,223.94,118.24Z"/><path class="cls-230" d="M199.57,252.45a1.49,1.49,0,1,1-.95,2A1.59,1.59,0,0,1,199.57,252.45Z"/><path class="cls-230" d="M223.94,118.24a1.5,1.5,0,1,1-.94,2A1.61,1.61,0,0,1,223.94,118.24Z"/><path class="cls-230" d="M125,46.64a1.49,1.49,0,1,1-.94,2A1.59,1.59,0,0,1,125,46.64Z"/><path class="cls-230" d="M223.94,118.24a1.5,1.5,0,1,1-.94,2A1.61,1.61,0,0,1,223.94,118.24Z"/><path class="cls-230" d="M261.2,157.91a1.49,1.49,0,1,1-.94,2A1.6,1.6,0,0,1,261.2,157.91Z"/><path class="cls-230" d="M223.94,118.24a1.5,1.5,0,1,1-.94,2A1.61,1.61,0,0,1,223.94,118.24Z"/><path class="cls-230" d="M261.2,157.91a1.49,1.49,0,1,1-.94,2A1.6,1.6,0,0,1,261.2,157.91Z"/><path class="cls-230" d="M223.94,118.24a1.5,1.5,0,1,1-.94,2A1.61,1.61,0,0,1,223.94,118.24Z"/><path class="cls-230" d="M223.94,118.24a1.5,1.5,0,1,1-.94,2A1.61,1.61,0,0,1,223.94,118.24Z"/><path class="cls-230" d="M174,7.67a1.6,1.6,0,0,1,2.14.67A1.7,1.7,0,0,1,173,9.7,1.58,1.58,0,0,1,174,7.67Z"/><path class="cls-230" d="M67.63,72a1.49,1.49,0,1,1-.94,2A1.59,1.59,0,0,1,67.63,72Z"/><path class="cls-230" d="M174,7.67a1.6,1.6,0,0,1,2.14.67A1.7,1.7,0,0,1,173,9.7,1.58,1.58,0,0,1,174,7.67Z"/><path class="cls-230" d="M125,46.64a1.49,1.49,0,1,1-.94,2A1.59,1.59,0,0,1,125,46.64Z"/><path class="cls-230" d="M174,7.67a1.6,1.6,0,0,1,2.14.67A1.7,1.7,0,0,1,173,9.7,1.58,1.58,0,0,1,174,7.67Z"/><path class="cls-230" d="M85.09,151a1.49,1.49,0,1,1-1,2A1.59,1.59,0,0,1,85.09,151Z"/><path class="cls-230" d="M93.08,245.38a1.49,1.49,0,1,1-.94,2A1.59,1.59,0,0,1,93.08,245.38Z"/><path class="cls-230" d="M128.55,188.91a1.5,1.5,0,1,1-.94,2A1.6,1.6,0,0,1,128.55,188.91Z"/><path class="cls-230" d="M93.08,245.38a1.49,1.49,0,1,1-.94,2A1.59,1.59,0,0,1,93.08,245.38Z"/><path class="cls-230" d="M171.7,170.89a1.57,1.57,0,0,1,2.13.68,1.7,1.7,0,0,1-3.08,1.36A1.6,1.6,0,0,1,171.7,170.89Z"/><path class="cls-230" d="M93.08,245.38a1.49,1.49,0,1,1-.94,2A1.59,1.59,0,0,1,93.08,245.38Z"/><path class="cls-230" d="M199.57,252.45a1.49,1.49,0,1,1-.95,2A1.59,1.59,0,0,1,199.57,252.45Z"/><path class="cls-230" d="M93.08,245.38a1.49,1.49,0,1,1-.94,2A1.59,1.59,0,0,1,93.08,245.38Z"/><path class="cls-230" d="M46,215.13a1.49,1.49,0,1,1-.94,2A1.6,1.6,0,0,1,46,215.13Z"/><path class="cls-230" d="M93.08,245.38a1.49,1.49,0,1,1-.94,2A1.59,1.59,0,0,1,93.08,245.38Z"/><path class="cls-230" d="M174,7.67a1.6,1.6,0,0,1,2.14.67A1.7,1.7,0,0,1,173,9.7,1.58,1.58,0,0,1,174,7.67Z"/><path class="cls-230" d="M279.79,89.51a1.6,1.6,0,0,1,2.14.68,1.7,1.7,0,0,1-3.09,1.36A1.6,1.6,0,0,1,279.79,89.51Z"/><path class="cls-230" d="M223.94,118.24a1.5,1.5,0,1,1-.94,2A1.61,1.61,0,0,1,223.94,118.24Z"/><path class="cls-230" d="M279.79,89.51a1.6,1.6,0,0,1,2.14.68,1.7,1.7,0,0,1-3.09,1.36A1.6,1.6,0,0,1,279.79,89.51Z"/><path class="cls-230" d="M171.7,170.89a1.57,1.57,0,0,1,2.13.68,1.7,1.7,0,0,1-3.08,1.36A1.6,1.6,0,0,1,171.7,170.89Z"/><path class="cls-230" d="M279.79,89.51a1.6,1.6,0,0,1,2.14.68,1.7,1.7,0,0,1-3.09,1.36A1.6,1.6,0,0,1,279.79,89.51Z"/><path class="cls-230" d="M261.2,157.91a1.49,1.49,0,1,1-.94,2A1.6,1.6,0,0,1,261.2,157.91Z"/><path class="cls-230" d="M279.79,89.51a1.6,1.6,0,0,1,2.14.68,1.7,1.7,0,0,1-3.09,1.36A1.6,1.6,0,0,1,279.79,89.51Z"/><path class="cls-230" d="M261.2,157.91a1.49,1.49,0,1,1-.94,2A1.6,1.6,0,0,1,261.2,157.91Z"/><path class="cls-230" d="M279.79,89.51a1.6,1.6,0,0,1,2.14.68,1.7,1.7,0,0,1-3.09,1.36A1.6,1.6,0,0,1,279.79,89.51Z"/><path class="cls-230" d="M174,7.67a1.6,1.6,0,0,1,2.14.67A1.7,1.7,0,0,1,173,9.7,1.58,1.58,0,0,1,174,7.67Z"/><path class="cls-230" d="M279.79,89.51a1.6,1.6,0,0,1,2.14.68,1.7,1.7,0,0,1-3.09,1.36A1.6,1.6,0,0,1,279.79,89.51Z"/><path class="cls-230" d="M223.94,118.24a1.5,1.5,0,1,1-.94,2A1.61,1.61,0,0,1,223.94,118.24Z"/><path class="cls-230" d="M279.79,89.51a1.6,1.6,0,0,1,2.14.68,1.7,1.7,0,0,1-3.09,1.36A1.6,1.6,0,0,1,279.79,89.51Z"/><path class="cls-230" d="M171.7,170.89a1.57,1.57,0,0,1,2.13.68,1.7,1.7,0,0,1-3.08,1.36A1.6,1.6,0,0,1,171.7,170.89Z"/><path class="cls-230" d="M279.79,89.51a1.6,1.6,0,0,1,2.14.68,1.7,1.7,0,0,1-3.09,1.36A1.6,1.6,0,0,1,279.79,89.51Z"/><path class="cls-230" d="M261.2,157.91a1.49,1.49,0,1,1-.94,2A1.6,1.6,0,0,1,261.2,157.91Z"/><path class="cls-230" d="M279.79,89.51a1.6,1.6,0,0,1,2.14.68,1.7,1.7,0,0,1-3.09,1.36A1.6,1.6,0,0,1,279.79,89.51Z"/><path class="cls-230" d="M261.2,157.91a1.49,1.49,0,1,1-.94,2A1.6,1.6,0,0,1,261.2,157.91Z"/><path class="cls-230" d="M279.79,89.51a1.6,1.6,0,0,1,2.14.68,1.7,1.7,0,0,1-3.09,1.36A1.6,1.6,0,0,1,279.79,89.51Z"/><path class="cls-230" d="M279.79,89.51a1.6,1.6,0,0,1,2.14.68,1.7,1.7,0,0,1-3.09,1.36A1.6,1.6,0,0,1,279.79,89.51Z"/><path class="cls-230" d="M282.11,89.51a1.49,1.49,0,1,1,1.2,2.71,1.5,1.5,0,1,1-1.2-2.71Z"/><path class="cls-230" d="M279.79,89.51a1.6,1.6,0,0,1,2.14.68,1.7,1.7,0,0,1-3.09,1.36A1.6,1.6,0,0,1,279.79,89.51Z"/><path class="cls-230" d="M282.11,89.51a1.49,1.49,0,1,1,1.2,2.71,1.5,1.5,0,1,1-1.2-2.71Z"/><path class="cls-230" d="M174,7.67a1.6,1.6,0,0,1,2.14.67A1.7,1.7,0,0,1,173,9.7,1.58,1.58,0,0,1,174,7.67Z"/><path class="cls-230" d="M282.11,89.51a1.49,1.49,0,1,1,1.2,2.71,1.5,1.5,0,1,1-1.2-2.71Z"/><path class="cls-230" d="M223.94,118.24a1.5,1.5,0,1,1-.94,2A1.61,1.61,0,0,1,223.94,118.24Z"/><path class="cls-230" d="M282.11,89.51a1.49,1.49,0,1,1,1.2,2.71,1.5,1.5,0,1,1-1.2-2.71Z"/><path class="cls-230" d="M171.7,170.89a1.57,1.57,0,0,1,2.13.68,1.7,1.7,0,0,1-3.08,1.36A1.6,1.6,0,0,1,171.7,170.89Z"/><path class="cls-230" d="M282.11,89.51a1.49,1.49,0,1,1,1.2,2.71,1.5,1.5,0,1,1-1.2-2.71Z"/><path class="cls-230" d="M261.2,157.91a1.49,1.49,0,1,1-.94,2A1.6,1.6,0,0,1,261.2,157.91Z"/><path class="cls-230" d="M282.11,89.51a1.49,1.49,0,1,1,1.2,2.71,1.5,1.5,0,1,1-1.2-2.71Z"/><path class="cls-230" d="M261.2,157.91a1.49,1.49,0,1,1-.94,2A1.6,1.6,0,0,1,261.2,157.91Z"/><path class="cls-230" d="M282.11,89.51a1.49,1.49,0,1,1,1.2,2.71,1.5,1.5,0,1,1-1.2-2.71Z"/><path class="cls-230" d="M174,7.67a1.6,1.6,0,0,1,2.14.67A1.7,1.7,0,0,1,173,9.7,1.58,1.58,0,0,1,174,7.67Z"/><path class="cls-230" d="M56.56,25.83a1.49,1.49,0,1,1-.94,2A1.6,1.6,0,0,1,56.56,25.83Z"/><path class="cls-230" d="M85.09,151a1.49,1.49,0,1,1-1,2A1.59,1.59,0,0,1,85.09,151Z"/><path class="cls-230" d="M56.56,25.83a1.49,1.49,0,1,1-.94,2A1.6,1.6,0,0,1,56.56,25.83Z"/><path class="cls-230" d="M67.63,72a1.49,1.49,0,1,1-.94,2A1.59,1.59,0,0,1,67.63,72Z"/><path class="cls-230" d="M56.56,25.83a1.49,1.49,0,1,1-.94,2A1.6,1.6,0,0,1,56.56,25.83Z"/><path class="cls-230" d="M1.06,92.16a1.6,1.6,0,0,1,2.14.67,1.6,1.6,0,0,1-1,2,1.59,1.59,0,0,1-2.14-.68A1.58,1.58,0,0,1,1.06,92.16Z"/><path class="cls-230" d="M56.56,25.83a1.49,1.49,0,1,1-.94,2A1.6,1.6,0,0,1,56.56,25.83Z"/><path class="cls-230" d="M125,46.64a1.49,1.49,0,1,1-.94,2A1.59,1.59,0,0,1,125,46.64Z"/><path class="cls-230" d="M56.56,25.83a1.49,1.49,0,1,1-.94,2A1.6,1.6,0,0,1,56.56,25.83Z"/></g></g></g></g></svg>