<svg xmlns="http://www.w3.org/2000/svg" xmlns:xlink="http://www.w3.org/1999/xlink" viewBox="0 0 720.79 628.3"><defs><style>.cls-1{fill:url(#radial-gradient);}.cls-2{fill:url(#radial-gradient-2);}.cls-3{fill:url(#radial-gradient-3);}.cls-4{fill:url(#radial-gradient-4);}.cls-5{fill:url(#radial-gradient-5);}.cls-6{fill:url(#radial-gradient-6);}.cls-7{fill:url(#radial-gradient-7);}.cls-8{fill:url(#radial-gradient-8);}.cls-9{fill:url(#radial-gradient-9);}.cls-10{fill:url(#radial-gradient-10);}.cls-11{fill:url(#radial-gradient-11);}.cls-12{fill:url(#radial-gradient-12);}.cls-13{fill:url(#radial-gradient-13);}.cls-14{fill:url(#radial-gradient-14);}.cls-15{fill:url(#radial-gradient-15);}.cls-16{fill:url(#radial-gradient-16);}.cls-17{fill:url(#radial-gradient-17);}.cls-18{fill:url(#radial-gradient-18);}.cls-19{fill:url(#radial-gradient-19);}.cls-20{fill:url(#radial-gradient-20);}.cls-21{fill:url(#radial-gradient-21);}.cls-22{fill:url(#radial-gradient-22);}.cls-23{fill:url(#radial-gradient-23);}.cls-24{fill:url(#radial-gradient-24);}.cls-25{fill:url(#radial-gradient-25);}.cls-26{fill:url(#radial-gradient-26);}.cls-27{fill:url(#radial-gradient-27);}.cls-28{fill:url(#radial-gradient-28);}.cls-29{fill:url(#radial-gradient-29);}.cls-30{fill:url(#radial-gradient-30);}.cls-31{fill:url(#radial-gradient-31);}.cls-32{fill:url(#radial-gradient-32);}.cls-33{fill:url(#radial-gradient-33);}.cls-34{fill:url(#radial-gradient-34);}.cls-35{fill:url(#radial-gradient-35);}.cls-36{fill:url(#radial-gradient-36);}.cls-37{fill:url(#radial-gradient-37);}.cls-38{fill:url(#radial-gradient-38);}.cls-39{fill:url(#radial-gradient-39);}.cls-40{fill:url(#radial-gradient-40);}.cls-41{fill:url(#radial-gradient-41);}.cls-42{fill:url(#radial-gradient-42);}.cls-43{fill:url(#radial-gradient-43);}.cls-44{fill:url(#radial-gradient-44);}.cls-45{fill:url(#radial-gradient-45);}.cls-46{fill:url(#radial-gradient-46);}.cls-47{fill:url(#radial-gradient-47);}.cls-48{fill:url(#radial-gradient-48);}.cls-49{fill:url(#radial-gradient-49);}.cls-50{fill:url(#radial-gradient-50);}.cls-51{fill:url(#radial-gradient-51);}.cls-52{fill:url(#radial-gradient-52);}.cls-53{fill:url(#radial-gradient-53);}.cls-54{fill:url(#radial-gradient-54);}.cls-55{fill:url(#radial-gradient-55);}.cls-56{fill:url(#radial-gradient-56);}.cls-57{fill:url(#radial-gradient-57);}.cls-58{fill:url(#radial-gradient-58);}.cls-59{fill:url(#radial-gradient-59);}.cls-60{fill:url(#radial-gradient-60);}.cls-61{fill:url(#radial-gradient-61);}.cls-62{fill:url(#radial-gradient-62);}.cls-63{fill:url(#radial-gradient-63);}.cls-64{fill:url(#radial-gradient-64);}.cls-65{fill:url(#radial-gradient-65);}.cls-66{fill:url(#radial-gradient-66);}.cls-67{fill:url(#radial-gradient-67);}.cls-68{fill:url(#radial-gradient-68);}.cls-69{fill:url(#radial-gradient-69);}.cls-70{fill:url(#radial-gradient-70);}.cls-71{fill:url(#radial-gradient-71);}.cls-72{fill:url(#radial-gradient-72);}.cls-73{fill:url(#radial-gradient-73);}.cls-74{fill:url(#radial-gradient-74);}.cls-75{fill:url(#radial-gradient-75);}.cls-76{fill:url(#radial-gradient-76);}.cls-77{fill:url(#radial-gradient-77);}.cls-78{fill:url(#radial-gradient-78);}.cls-79{fill:url(#radial-gradient-79);}.cls-80{fill:url(#radial-gradient-80);}.cls-81{fill:url(#radial-gradient-81);}.cls-82{fill:url(#radial-gradient-82);}.cls-83{fill:url(#radial-gradient-83);}.cls-84{fill:url(#radial-gradient-84);}.cls-85{fill:url(#radial-gradient-85);}.cls-86{fill:url(#radial-gradient-86);}.cls-87{fill:url(#radial-gradient-87);}.cls-88{fill:url(#radial-gradient-88);}.cls-89{fill:url(#radial-gradient-89);}.cls-90{fill:url(#radial-gradient-90);}.cls-91{fill:url(#radial-gradient-91);}.cls-92{fill:url(#radial-gradient-92);}.cls-93{fill:url(#radial-gradient-93);}.cls-94{fill:url(#radial-gradient-94);}.cls-95{fill:url(#radial-gradient-95);}.cls-96{fill:url(#radial-gradient-96);}.cls-97{fill:url(#radial-gradient-97);}.cls-98{fill:url(#radial-gradient-98);}.cls-99{fill:url(#radial-gradient-99);}.cls-100{fill:url(#radial-gradient-100);}.cls-101{fill:url(#radial-gradient-101);}.cls-102{fill:url(#radial-gradient-102);}.cls-103{fill:url(#radial-gradient-103);}.cls-104{fill:url(#radial-gradient-104);}.cls-105{fill:url(#radial-gradient-105);}.cls-106{fill:url(#radial-gradient-106);}.cls-107{fill:url(#radial-gradient-107);}.cls-108{fill:url(#radial-gradient-108);}.cls-109{fill:url(#radial-gradient-109);}.cls-110{fill:url(#radial-gradient-110);}.cls-111{fill:url(#radial-gradient-111);}.cls-112{fill:url(#radial-gradient-112);}.cls-113{fill:url(#radial-gradient-113);}.cls-114{fill:url(#radial-gradient-114);}.cls-115{fill:url(#radial-gradient-115);}.cls-116{fill:url(#radial-gradient-116);}.cls-117{fill:url(#radial-gradient-117);}.cls-118{fill:url(#radial-gradient-118);}.cls-119{fill:url(#radial-gradient-119);}.cls-120{fill:url(#radial-gradient-120);}.cls-121{fill:url(#radial-gradient-121);}.cls-122{fill:url(#radial-gradient-122);}.cls-123{fill:url(#radial-gradient-123);}.cls-124{fill:url(#radial-gradient-124);}.cls-125{fill:url(#radial-gradient-125);}.cls-126{fill:url(#radial-gradient-126);}.cls-127{fill:url(#radial-gradient-127);}.cls-128{fill:url(#radial-gradient-128);}.cls-129{fill:url(#radial-gradient-129);}.cls-130{fill:url(#radial-gradient-130);}.cls-131{fill:url(#radial-gradient-131);}.cls-132{fill:url(#radial-gradient-132);}.cls-133{fill:url(#radial-gradient-133);}.cls-134{fill:url(#radial-gradient-134);}.cls-135{fill:url(#radial-gradient-135);}.cls-136{fill:url(#radial-gradient-136);}.cls-137{fill:url(#radial-gradient-137);}.cls-138{fill:url(#radial-gradient-138);}.cls-139{fill:url(#radial-gradient-139);}.cls-140{fill:url(#radial-gradient-140);}.cls-141{fill:url(#radial-gradient-141);}.cls-142{fill:url(#radial-gradient-142);}.cls-143{fill:url(#radial-gradient-143);}.cls-144{fill:url(#radial-gradient-144);}.cls-145{fill:url(#radial-gradient-145);}.cls-146{fill:url(#radial-gradient-146);}.cls-147{fill:url(#radial-gradient-147);}.cls-148{fill:url(#radial-gradient-148);}.cls-149{fill:url(#radial-gradient-149);}.cls-150{fill:url(#radial-gradient-150);}.cls-151{fill:url(#radial-gradient-151);}.cls-152{fill:url(#radial-gradient-152);}.cls-153{fill:url(#radial-gradient-153);}.cls-154{fill:url(#radial-gradient-154);}.cls-155{fill:url(#radial-gradient-155);}.cls-156{fill:url(#radial-gradient-156);}.cls-157{fill:url(#radial-gradient-157);}.cls-158{fill:url(#radial-gradient-158);}.cls-159{fill:url(#radial-gradient-159);}.cls-160{fill:url(#radial-gradient-160);}.cls-161{fill:url(#radial-gradient-161);}.cls-162{fill:url(#radial-gradient-162);}.cls-163{fill:url(#radial-gradient-163);}.cls-164{fill:url(#radial-gradient-164);}.cls-165{fill:url(#radial-gradient-165);}.cls-166{fill:url(#radial-gradient-166);}.cls-167{fill:url(#radial-gradient-167);}.cls-168{fill:url(#radial-gradient-168);}.cls-169{opacity:0.6;}.cls-170{fill:none;}.cls-171{fill:#42585c;}</style><radialGradient id="radial-gradient" cx="140.88" cy="-112.68" r="5.45" gradientTransform="matrix(1, 0, 0, -1, 0, 402.6)" gradientUnits="userSpaceOnUse"><stop offset="0.45" stop-color="#a1def3"/><stop offset="0.52" stop-color="#004061"/><stop offset="1"/></radialGradient><radialGradient id="radial-gradient-2" cx="100.63" cy="278.99" r="4.56" xlink:href="#radial-gradient"/><radialGradient id="radial-gradient-3" cx="143.82" cy="-111.51" r="1.65" xlink:href="#radial-gradient"/><radialGradient id="radial-gradient-4" cx="105.06" cy="-77.29" r="1.44" xlink:href="#radial-gradient"/><radialGradient id="radial-gradient-5" cx="60.15" cy="141.48" r="3.42" xlink:href="#radial-gradient"/><radialGradient id="radial-gradient-6" cx="91.35" cy="-30.88" r="3.42" xlink:href="#radial-gradient"/><radialGradient id="radial-gradient-7" cx="83.37" cy="180.87" r="2.91" xlink:href="#radial-gradient"/><radialGradient id="radial-gradient-8" cx="101.41" cy="213.54" r="4.21" xlink:href="#radial-gradient"/><radialGradient id="radial-gradient-9" cx="204.73" cy="-154.6" r="2.48" xlink:href="#radial-gradient"/><radialGradient id="radial-gradient-10" cx="236.39" cy="-169.81" r="6.36" xlink:href="#radial-gradient"/><radialGradient id="radial-gradient-11" cx="250.28" cy="-157.87" r="5.93" xlink:href="#radial-gradient"/><radialGradient id="radial-gradient-12" cx="341.25" cy="386.13" r="3.9" xlink:href="#radial-gradient"/><radialGradient id="radial-gradient-13" cx="395.01" cy="-52.25" r="3.02" xlink:href="#radial-gradient"/><radialGradient id="radial-gradient-14" cx="284.32" cy="-121.07" r="4.06" xlink:href="#radial-gradient"/><radialGradient id="radial-gradient-15" cx="234.56" cy="263.15" r="2.38" xlink:href="#radial-gradient"/><radialGradient id="radial-gradient-16" cx="263.46" cy="111.7" r="3.6" xlink:href="#radial-gradient"/><radialGradient id="radial-gradient-17" cx="242.6" cy="-141.07" r="2.33" xlink:href="#radial-gradient"/><radialGradient id="radial-gradient-18" cx="253.09" cy="-198.53" r="4.64" xlink:href="#radial-gradient"/><radialGradient id="radial-gradient-19" cx="172.74" cy="-140.56" r="6.97" xlink:href="#radial-gradient"/><radialGradient id="radial-gradient-20" cx="125.7" cy="-95.75" r="5.63" xlink:href="#radial-gradient"/><radialGradient id="radial-gradient-21" cx="64.08" cy="41.84" r="3.9" xlink:href="#radial-gradient"/><radialGradient id="radial-gradient-22" cx="61.31" cy="87.72" r="6.62" xlink:href="#radial-gradient"/><radialGradient id="radial-gradient-23" cx="100.2" cy="240.77" r="4.39" xlink:href="#radial-gradient"/><radialGradient id="radial-gradient-24" cx="75.56" cy="208.52" r="3.95" xlink:href="#radial-gradient"/><radialGradient id="radial-gradient-25" cx="68.28" cy="125.49" r="6.51" xlink:href="#radial-gradient"/><radialGradient id="radial-gradient-26" cx="126.68" cy="325" r="2.74" xlink:href="#radial-gradient"/><radialGradient id="radial-gradient-27" cx="91.25" cy="281.02" r="4.79" xlink:href="#radial-gradient"/><radialGradient id="radial-gradient-28" cx="43.34" cy="79.45" r="3.73" xlink:href="#radial-gradient"/><radialGradient id="radial-gradient-29" cx="36.22" cy="58.9" r="2.76" xlink:href="#radial-gradient"/><radialGradient id="radial-gradient-30" cx="38.78" cy="195.65" r="4.21" xlink:href="#radial-gradient"/><radialGradient id="radial-gradient-31" cx="34.75" cy="83.31" r="4.99" xlink:href="#radial-gradient"/><radialGradient id="radial-gradient-32" cx="29.73" cy="117.83" r="2.26" xlink:href="#radial-gradient"/><radialGradient id="radial-gradient-33" cx="81.59" cy="-88.57" r="2.68" xlink:href="#radial-gradient"/><radialGradient id="radial-gradient-34" cx="27.07" cy="63.87" r="4.31" xlink:href="#radial-gradient"/><radialGradient id="radial-gradient-35" cx="79.49" cy="-92.53" r="3.04" xlink:href="#radial-gradient"/><radialGradient id="radial-gradient-36" cx="46.97" cy="47.19" r="3.14" xlink:href="#radial-gradient"/><radialGradient id="radial-gradient-37" cx="101.18" cy="-88.47" r="3.17" xlink:href="#radial-gradient"/><radialGradient id="radial-gradient-38" cx="156.11" cy="-178.61" r="4.03" xlink:href="#radial-gradient"/><radialGradient id="radial-gradient-39" cx="200.07" cy="-197.7" r="2.91" xlink:href="#radial-gradient"/><radialGradient id="radial-gradient-40" cx="224.73" cy="-187.66" r="4.59" xlink:href="#radial-gradient"/><radialGradient id="radial-gradient-41" cx="80.17" cy="103.94" r="6.89" xlink:href="#radial-gradient"/><radialGradient id="radial-gradient-42" cx="120.22" cy="195.06" r="5.88" xlink:href="#radial-gradient"/><radialGradient id="radial-gradient-43" cx="158.77" cy="240.99" r="4.41" xlink:href="#radial-gradient"/><radialGradient id="radial-gradient-44" cx="297.86" cy="-197.72" r="2.71" xlink:href="#radial-gradient"/><radialGradient id="radial-gradient-45" cx="315.27" cy="-150.12" r="2.41" xlink:href="#radial-gradient"/><radialGradient id="radial-gradient-46" cx="359.58" cy="-27.56" r="4.61" xlink:href="#radial-gradient"/><radialGradient id="radial-gradient-47" cx="373.9" cy="-172.09" r="5.45" xlink:href="#radial-gradient"/><radialGradient id="radial-gradient-48" cx="396.97" cy="-188.55" r="3.27" xlink:href="#radial-gradient"/><radialGradient id="radial-gradient-49" cx="495.14" cy="323.22" r="2.92" xlink:href="#radial-gradient"/><radialGradient id="radial-gradient-50" cx="481.96" cy="-131.61" r="3.85" xlink:href="#radial-gradient"/><radialGradient id="radial-gradient-51" cx="501.35" cy="-136.79" r="7.05" xlink:href="#radial-gradient"/><radialGradient id="radial-gradient-52" cx="517.14" cy="337.37" r="2.46" xlink:href="#radial-gradient"/><radialGradient id="radial-gradient-53" cx="598.96" cy="59.68" r="3.98" xlink:href="#radial-gradient"/><radialGradient id="radial-gradient-54" cx="611.94" cy="167.99" r="4.46" xlink:href="#radial-gradient"/><radialGradient id="radial-gradient-55" cx="623.55" cy="78.16" r="2.51" xlink:href="#radial-gradient"/><radialGradient id="radial-gradient-56" cx="619.03" cy="10" r="6.01" xlink:href="#radial-gradient"/><radialGradient id="radial-gradient-57" cx="628.97" cy="200.97" r="3.37" xlink:href="#radial-gradient"/><radialGradient id="radial-gradient-58" cx="604.74" cy="-85.61" r="5.37" xlink:href="#radial-gradient"/><radialGradient id="radial-gradient-59" cx="649.88" cy="7.44" r="4.99" xlink:href="#radial-gradient"/><radialGradient id="radial-gradient-60" cx="664.61" cy="12.54" r="6.36" xlink:href="#radial-gradient"/><radialGradient id="radial-gradient-61" cx="683.04" cy="54.28" r="7.81" xlink:href="#radial-gradient"/><radialGradient id="radial-gradient-62" cx="692.26" cy="63.76" r="6.95" xlink:href="#radial-gradient"/><radialGradient id="radial-gradient-63" cx="663.85" cy="243.25" r="4.33" xlink:href="#radial-gradient"/><radialGradient id="radial-gradient-64" cx="667.45" cy="133.55" r="2.28" xlink:href="#radial-gradient"/><radialGradient id="radial-gradient-65" cx="633.28" cy="-86.75" r="4.46" xlink:href="#radial-gradient"/><radialGradient id="radial-gradient-66" cx="655.48" cy="104.55" r="3.88" xlink:href="#radial-gradient"/><radialGradient id="radial-gradient-67" cx="627.96" cy="-43" r="2.36" xlink:href="#radial-gradient"/><radialGradient id="radial-gradient-68" cx="641.29" cy="29.98" r="6.49" xlink:href="#radial-gradient"/><radialGradient id="radial-gradient-69" cx="616.83" cy="-28.5" r="3.12" xlink:href="#radial-gradient"/><radialGradient id="radial-gradient-70" cx="635.33" cy="170.12" r="3.35" xlink:href="#radial-gradient"/><radialGradient id="radial-gradient-71" cx="589.3" cy="262.97" r="1.98" xlink:href="#radial-gradient"/><radialGradient id="radial-gradient-72" cx="618.86" cy="58.77" r="3.83" xlink:href="#radial-gradient"/><radialGradient id="radial-gradient-73" cx="606.51" cy="144.14" r="2.18" xlink:href="#radial-gradient"/><radialGradient id="radial-gradient-74" cx="555.92" cy="-77.47" r="5.45" xlink:href="#radial-gradient"/><radialGradient id="radial-gradient-75" cx="575.26" cy="134.33" r="4.31" xlink:href="#radial-gradient"/><radialGradient id="radial-gradient-76" cx="553.92" cy="-47.21" r="3.14" xlink:href="#radial-gradient"/><radialGradient id="radial-gradient-77" cx="478.58" cy="347.33" r="2.61" xlink:href="#radial-gradient"/><radialGradient id="radial-gradient-78" cx="458.18" cy="-162.87" r="1.75" xlink:href="#radial-gradient"/><radialGradient id="radial-gradient-79" cx="473.34" cy="318.56" r="3.07" xlink:href="#radial-gradient"/><radialGradient id="radial-gradient-80" cx="418.94" cy="370.42" r="4.77" xlink:href="#radial-gradient"/><radialGradient id="radial-gradient-81" cx="251.42" cy="-138.51" r="2.84" xlink:href="#radial-gradient"/><radialGradient id="radial-gradient-82" cx="168.25" cy="94.31" r="5.96" xlink:href="#radial-gradient"/><radialGradient id="radial-gradient-83" cx="205.87" cy="-109.28" r="3.98" xlink:href="#radial-gradient"/><radialGradient id="radial-gradient-84" cx="127.95" cy="200.31" r="5.25" xlink:href="#radial-gradient"/><radialGradient id="radial-gradient-85" cx="99.31" cy="218.18" r="1.9" xlink:href="#radial-gradient"/><radialGradient id="radial-gradient-86" cx="116.7" cy="306.8" r="5.2" xlink:href="#radial-gradient"/><radialGradient id="radial-gradient-87" cx="161.28" cy="367.12" r="7.83" xlink:href="#radial-gradient"/><radialGradient id="radial-gradient-88" cx="96.8" cy="-70.12" r="4.82" xlink:href="#radial-gradient"/><radialGradient id="radial-gradient-89" cx="156.59" cy="353.61" r="2.61" xlink:href="#radial-gradient"/><radialGradient id="radial-gradient-90" cx="94.44" cy="-44.95" r="4.56" xlink:href="#radial-gradient"/><radialGradient id="radial-gradient-91" cx="88.92" cy="169.39" r="3.52" xlink:href="#radial-gradient"/><radialGradient id="radial-gradient-92" cx="158.62" cy="-131.03" r="2.74" xlink:href="#radial-gradient"/><radialGradient id="radial-gradient-93" cx="130.46" cy="-120.03" r="4.08" xlink:href="#radial-gradient"/><radialGradient id="radial-gradient-94" cx="162.2" cy="-152.37" r="6.51" xlink:href="#radial-gradient"/><radialGradient id="radial-gradient-95" cx="174.97" cy="-167.03" r="4.03" xlink:href="#radial-gradient"/><radialGradient id="radial-gradient-96" cx="100.91" cy="-60.84" r="5.78" xlink:href="#radial-gradient"/><radialGradient id="radial-gradient-97" cx="92.74" cy="253.49" r="3.62" xlink:href="#radial-gradient"/><radialGradient id="radial-gradient-98" cx="224.91" cy="-188.06" r="5.02" xlink:href="#radial-gradient"/><radialGradient id="radial-gradient-99" cx="207.87" cy="-124.75" r="1.93" xlink:href="#radial-gradient"/><radialGradient id="radial-gradient-100" cx="263.94" cy="-188.67" r="1.95" xlink:href="#radial-gradient"/><radialGradient id="radial-gradient-101" cx="237.96" cy="256.51" r="1.93" xlink:href="#radial-gradient"/><radialGradient id="radial-gradient-102" cx="341.78" cy="-206.19" r="3.7" xlink:href="#radial-gradient"/><radialGradient id="radial-gradient-103" cx="427.48" cy="271.56" r="2.03" xlink:href="#radial-gradient"/><radialGradient id="radial-gradient-104" cx="412.55" cy="350.34" r="6.74" xlink:href="#radial-gradient"/><radialGradient id="radial-gradient-105" cx="412" cy="-200.38" r="2.56" xlink:href="#radial-gradient"/><radialGradient id="radial-gradient-106" cx="436.74" cy="368.34" r="4.23" xlink:href="#radial-gradient"/><radialGradient id="radial-gradient-107" cx="501.3" cy="301.55" r="1.9" xlink:href="#radial-gradient"/><radialGradient id="radial-gradient-108" cx="582.84" cy="88.17" r="5.07" xlink:href="#radial-gradient"/><radialGradient id="radial-gradient-109" cx="547.76" cy="-79.91" r="4.41" xlink:href="#radial-gradient"/><radialGradient id="radial-gradient-110" cx="527.33" cy="332.42" r="7.4" xlink:href="#radial-gradient"/><radialGradient id="radial-gradient-111" cx="513.21" cy="-156.56" r="1.85" xlink:href="#radial-gradient"/><radialGradient id="radial-gradient-112" cx="577.26" cy="-82.03" r="3.62" xlink:href="#radial-gradient"/><radialGradient id="radial-gradient-113" cx="625.85" cy="41.15" r="5.73" xlink:href="#radial-gradient"/><radialGradient id="radial-gradient-114" cx="594.45" cy="276.48" r="4.94" xlink:href="#radial-gradient"/><radialGradient id="radial-gradient-115" cx="638.02" cy="69.24" r="3.93" xlink:href="#radial-gradient"/><radialGradient id="radial-gradient-116" cx="613.97" cy="-51.49" r="4.97" xlink:href="#radial-gradient"/><radialGradient id="radial-gradient-117" cx="635.71" cy="226.24" r="3.75" xlink:href="#radial-gradient"/><radialGradient id="radial-gradient-118" cx="644.64" cy="-32.73" r="6.97" xlink:href="#radial-gradient"/><radialGradient id="radial-gradient-119" cx="668.77" cy="154.33" r="4.16" xlink:href="#radial-gradient"/><radialGradient id="radial-gradient-120" cx="680.02" cy="119.4" r="2.91" xlink:href="#radial-gradient"/><radialGradient id="radial-gradient-121" cx="673.81" cy="255.26" r="3.8" xlink:href="#radial-gradient"/><radialGradient id="radial-gradient-122" cx="673.84" cy="184.39" r="4.39" xlink:href="#radial-gradient"/><radialGradient id="radial-gradient-123" cx="668.51" cy="86.48" r="3.93" xlink:href="#radial-gradient"/><radialGradient id="radial-gradient-124" cx="658.12" cy="97.78" r="3.27" xlink:href="#radial-gradient"/><radialGradient id="radial-gradient-125" cx="643.17" cy="173.32" r="4.94" xlink:href="#radial-gradient"/><radialGradient id="radial-gradient-126" cx="647.88" cy="109.21" r="6.24" xlink:href="#radial-gradient"/><radialGradient id="radial-gradient-127" cx="598.33" cy="-63.05" r="1.8" xlink:href="#radial-gradient"/><radialGradient id="radial-gradient-128" cx="585.83" cy="290.42" r="1.57" xlink:href="#radial-gradient"/><radialGradient id="radial-gradient-129" cx="603.72" cy="-50.35" r="4.44" xlink:href="#radial-gradient"/><radialGradient id="radial-gradient-130" cx="627.58" cy="91.82" r="2.31" xlink:href="#radial-gradient"/><radialGradient id="radial-gradient-131" cx="608.34" cy="228.4" r="3.37" xlink:href="#radial-gradient"/><radialGradient id="radial-gradient-132" cx="621.57" cy="107.31" r="1.72" xlink:href="#radial-gradient"/><radialGradient id="radial-gradient-133" cx="607.25" cy="185.89" r="5.93" xlink:href="#radial-gradient"/><radialGradient id="radial-gradient-134" cx="524.89" cy="-122.82" r="3.24" xlink:href="#radial-gradient"/><radialGradient id="radial-gradient-135" cx="528.37" cy="-115.77" r="3.65" xlink:href="#radial-gradient"/><radialGradient id="radial-gradient-136" cx="516.5" cy="-126.49" r="4.39" xlink:href="#radial-gradient"/><radialGradient id="radial-gradient-137" cx="426.52" cy="387.25" r="2.03" xlink:href="#radial-gradient"/><radialGradient id="radial-gradient-138" cx="449.16" cy="-171.06" r="3.9" xlink:href="#radial-gradient"/><radialGradient id="radial-gradient-139" cx="427.15" cy="-182.34" r="3.52" xlink:href="#radial-gradient"/><radialGradient id="radial-gradient-140" cx="402.64" cy="-191.76" r="1.9" xlink:href="#radial-gradient"/><radialGradient id="radial-gradient-141" cx="404.16" cy="-196.83" r="2.13" xlink:href="#radial-gradient"/><radialGradient id="radial-gradient-142" cx="458.89" cy="241.78" r="2.64" xlink:href="#radial-gradient"/><radialGradient id="radial-gradient-143" cx="434.99" cy="240.31" r="6.95" xlink:href="#radial-gradient"/><radialGradient id="radial-gradient-144" cx="360.44" cy="-67.89" r="5.63" xlink:href="#radial-gradient"/><radialGradient id="radial-gradient-145" cx="317.48" cy="-180.46" r="3.5" xlink:href="#radial-gradient"/><radialGradient id="radial-gradient-146" cx="325.41" cy="324.95" r="6.36" xlink:href="#radial-gradient"/><radialGradient id="radial-gradient-147" cx="250.23" cy="217.12" r="1.42" xlink:href="#radial-gradient"/><radialGradient id="radial-gradient-148" cx="275.73" cy="369.15" r="3.37" xlink:href="#radial-gradient"/><radialGradient id="radial-gradient-149" cx="212.18" cy="-108.95" r="3.24" xlink:href="#radial-gradient"/><radialGradient id="radial-gradient-150" cx="145.29" cy="44.17" r="4.66" xlink:href="#radial-gradient"/><radialGradient id="radial-gradient-151" cx="150.94" cy="304.77" r="2.91" xlink:href="#radial-gradient"/><radialGradient id="radial-gradient-152" cx="92.01" cy="7.01" r="2.08" xlink:href="#radial-gradient"/><radialGradient id="radial-gradient-153" cx="156.77" cy="291.59" r="1.85" xlink:href="#radial-gradient"/><radialGradient id="radial-gradient-154" cx="214.46" cy="-165.71" r="5.22" xlink:href="#radial-gradient"/><radialGradient id="radial-gradient-155" cx="148.69" cy="212.76" r="3.07" xlink:href="#radial-gradient"/><radialGradient id="radial-gradient-156" cx="260.57" cy="358.05" r="3.9" xlink:href="#radial-gradient"/><radialGradient id="radial-gradient-157" cx="281.15" cy="-150.93" r="6.57" xlink:href="#radial-gradient"/><radialGradient id="radial-gradient-158" cx="326.98" cy="-193.94" r="2.53" xlink:href="#radial-gradient"/><radialGradient id="radial-gradient-159" cx="349.01" cy="-72.35" r="4.26" xlink:href="#radial-gradient"/><radialGradient id="radial-gradient-160" cx="424.87" cy="336.71" r="4.92" xlink:href="#radial-gradient"/><radialGradient id="radial-gradient-161" cx="351.92" cy="-124.19" r="3.78" xlink:href="#radial-gradient"/><radialGradient id="radial-gradient-162" cx="263.59" cy="-18.46" r="4.36" xlink:href="#radial-gradient"/><radialGradient id="radial-gradient-163" cx="208.05" cy="279.5" r="5.6" xlink:href="#radial-gradient"/><radialGradient id="radial-gradient-164" cx="246.4" cy="373.51" r="4.36" xlink:href="#radial-gradient"/><radialGradient id="radial-gradient-165" cx="177.2" cy="-104.01" r="2.71" xlink:href="#radial-gradient"/><radialGradient id="radial-gradient-166" cx="86.71" cy="71.14" r="3.37" xlink:href="#radial-gradient"/><radialGradient id="radial-gradient-167" cx="194.56" cy="349.66" r="2.76" xlink:href="#radial-gradient"/><radialGradient id="radial-gradient-168" cx="144.88" cy="-64.49" r="3.9" xlink:href="#radial-gradient"/></defs><g id="Layer_2" data-name="Layer 2"><g id="Layer_1-2" data-name="Layer 1"><path class="cls-1" d="M146.33,515.28a5.48,5.48,0,1,1-5.5-5.45h0A5.45,5.45,0,0,1,146.33,515.28Z"/><path class="cls-2" d="M105.19,123.61a4.57,4.57,0,1,1-4.59-4.54h0A4.56,4.56,0,0,1,105.19,123.61Z"/><path class="cls-3" d="M145.47,514.11a1.65,1.65,0,1,1-1.65-1.64h0A1.64,1.64,0,0,1,145.47,514.11Z"/><circle class="cls-4" cx="105.06" cy="479.89" r="1.44"/><circle class="cls-5" cx="60.15" cy="261.12" r="3.42"/><path class="cls-6" d="M94.77,433.48a3.37,3.37,0,1,1,0-.1Z"/><circle class="cls-7" cx="83.37" cy="221.73" r="2.91"/><path class="cls-8" d="M105.62,189.06a4.21,4.21,0,1,1-4.21-4.21h0A4.2,4.2,0,0,1,105.62,189.06Z"/><path class="cls-9" d="M207.19,557.2a2.54,2.54,0,1,1-2.54-2.53A2.54,2.54,0,0,1,207.19,557.2Z"/><circle class="cls-10" cx="236.39" cy="572.41" r="6.36"/><path class="cls-11" d="M256.21,560.47a5.93,5.93,0,1,1-5.93-5.93h0A5.94,5.94,0,0,1,256.21,560.47Z"/><circle class="cls-12" cx="341.25" cy="16.47" r="3.9"/><path class="cls-13" d="M398,454.85a3,3,0,1,1-3-3h0a3,3,0,0,1,3,3Z"/><path class="cls-14" d="M288.38,523.67a4.06,4.06,0,1,1-4.06-4.06,4.06,4.06,0,0,1,4.06,4.06Z"/><path class="cls-15" d="M237,139.45a2.38,2.38,0,1,1-4.74.49,2,2,0,0,1,0-.49,2.38,2.38,0,0,1,4.74,0Z"/><path class="cls-16" d="M267.06,290.9a3.6,3.6,0,1,1-3.6-3.6h0A3.6,3.6,0,0,1,267.06,290.9Z"/><path class="cls-17" d="M244.93,543.72a2.33,2.33,0,1,1-2.36-2.31h0A2.33,2.33,0,0,1,244.93,543.72Z"/><path class="cls-18" d="M257.73,601.13a4.64,4.64,0,1,1-4.64-4.64,4.64,4.64,0,0,1,4.64,4.64Z"/><path class="cls-19" d="M179.71,543.16a7,7,0,1,1,0-.07Z"/><path class="cls-20" d="M131.32,498.35a5.63,5.63,0,1,1-5.62-5.63,5.63,5.63,0,0,1,5.62,5.63Z"/><path class="cls-21" d="M68,360.76a3.91,3.91,0,1,1-3.93-3.88h0A3.91,3.91,0,0,1,68,360.76Z"/><circle class="cls-22" cx="61.31" cy="314.88" r="6.62"/><path class="cls-23" d="M104.58,161.83a4.39,4.39,0,1,1-4.38-4.38A4.38,4.38,0,0,1,104.58,161.83Z"/><path class="cls-24" d="M79.51,194.08a4,4,0,1,1-4-4,3.94,3.94,0,0,1,4,4Z"/><path class="cls-25" d="M74.82,277.11a6.54,6.54,0,1,1-6.56-6.51h0A6.53,6.53,0,0,1,74.82,277.11Z"/><path class="cls-26" d="M129.32,77.6a2.74,2.74,0,1,1-2.65-2.82h.12A2.73,2.73,0,0,1,129.32,77.6Z"/><path class="cls-27" d="M96,121.58a4.82,4.82,0,1,1-4.82-4.81h.08A4.79,4.79,0,0,1,96,121.58Z"/><path class="cls-28" d="M47.07,323.2a3.73,3.73,0,1,1-3.73-3.73,3.73,3.73,0,0,1,3.73,3.73Z"/><path class="cls-29" d="M39,343.7a2.77,2.77,0,1,1,0-.05Z"/><path class="cls-30" d="M43,207a4.21,4.21,0,1,1-4.21-4.21A4.21,4.21,0,0,1,43,207Z"/><circle class="cls-31" cx="34.75" cy="319.29" r="4.99"/><circle class="cls-32" cx="29.73" cy="284.77" r="2.26"/><path class="cls-33" d="M84.25,491.17a2.69,2.69,0,1,1-2.68-2.69h.15A2.65,2.65,0,0,1,84.25,491.17Z"/><path class="cls-34" d="M31.4,338.73a4.34,4.34,0,1,1-4.36-4.3h0A4.33,4.33,0,0,1,31.4,338.73Z"/><path class="cls-35" d="M82.53,495.13a3.07,3.07,0,1,1-3.09-3h0A3.06,3.06,0,0,1,82.53,495.13Z"/><path class="cls-36" d="M50.08,355.41a3.14,3.14,0,1,1-3.16-3.11h0A3.13,3.13,0,0,1,50.08,355.41Z"/><path class="cls-37" d="M104.35,491.07a3.19,3.19,0,1,1-3.27-3.11h.1A3.16,3.16,0,0,1,104.35,491.07Z"/><path class="cls-38" d="M160.14,581.21a4,4,0,1,1-4-4h0A4,4,0,0,1,160.14,581.21Z"/><circle class="cls-39" cx="200.07" cy="600.3" r="2.91"/><path class="cls-40" d="M229.32,590.26a4.59,4.59,0,1,1-4.59-4.59h0A4.59,4.59,0,0,1,229.32,590.26Z"/><path class="cls-41" d="M87.09,298.66a6.92,6.92,0,1,1-6.94-6.89h0A6.92,6.92,0,0,1,87.09,298.66Z"/><path class="cls-42" d="M126.1,207.54a5.88,5.88,0,1,1-5.88-5.89h0A5.89,5.89,0,0,1,126.1,207.54Z"/><path class="cls-43" d="M163.16,161.61a4.41,4.41,0,1,1-4.44-4.39h.05a4.38,4.38,0,0,1,4.39,4.39Z"/><path class="cls-44" d="M300.57,600.32a2.72,2.72,0,1,1-2.71-2.71,2.71,2.71,0,0,1,2.71,2.71Z"/><circle class="cls-45" cx="315.27" cy="552.72" r="2.41"/><path class="cls-46" d="M364.17,430.16a4.62,4.62,0,1,1-4.62-4.61h0a4.59,4.59,0,0,1,4.59,4.59Z"/><circle class="cls-47" cx="373.9" cy="574.69" r="5.45"/><path class="cls-48" d="M400.23,591.15a3.27,3.27,0,1,1-3.27-3.27h0a3.22,3.22,0,0,1,3.26,3.21Z"/><path class="cls-49" d="M498.05,79.38a2.94,2.94,0,1,1-3-2.92h.05A2.94,2.94,0,0,1,498.05,79.38Z"/><path class="cls-50" d="M485.81,534.21a3.86,3.86,0,1,1-3.85-3.85,3.86,3.86,0,0,1,3.85,3.85Z"/><circle class="cls-51" cx="501.35" cy="539.39" r="7.05"/><circle class="cls-52" cx="517.14" cy="65.23" r="2.46"/><path class="cls-53" d="M602.94,342.92a4,4,0,1,1-4-4,4,4,0,0,1,4,4Z"/><path class="cls-54" d="M616.4,234.61a4.46,4.46,0,1,1-4.46-4.46h0A4.46,4.46,0,0,1,616.4,234.61Z"/><circle class="cls-55" cx="623.55" cy="324.44" r="2.51"/><path class="cls-56" d="M625,392.6a6,6,0,1,1-6-6,6,6,0,0,1,6,6Z"/><path class="cls-57" d="M632.34,201.53a3.37,3.37,0,1,1-3.37-3.37A3.37,3.37,0,0,1,632.34,201.53Z"/><circle class="cls-58" cx="604.74" cy="488.21" r="5.37"/><path class="cls-59" d="M654.88,395.16a5.07,5.07,0,1,1-5.07-5.07A5.07,5.07,0,0,1,654.88,395.16Z"/><path class="cls-60" d="M671,390.06a6.36,6.36,0,1,1-6.36-6.36,6.37,6.37,0,0,1,6.36,6.36Z"/><path class="cls-61" d="M690.84,348.32a7.81,7.81,0,1,1-7.8-7.81h0A7.8,7.8,0,0,1,690.84,348.32Z"/><path class="cls-62" d="M699.18,338.84a6.95,6.95,0,1,1-6.94-6.95h0a6.92,6.92,0,0,1,6.92,6.92Z"/><path class="cls-63" d="M668.18,159.35a4.34,4.34,0,1,1-4.33-4.33h0A4.33,4.33,0,0,1,668.18,159.35Z"/><path class="cls-64" d="M669.7,269.05a2.28,2.28,0,1,1-2.3-2.25h.05a2.25,2.25,0,0,1,2.25,2.25Z"/><path class="cls-65" d="M637.74,489.35a4.46,4.46,0,1,1-4.46-4.46h0A4.46,4.46,0,0,1,637.74,489.35Z"/><path class="cls-66" d="M659.36,298.05a3.88,3.88,0,1,1-3.88-3.88h0A3.88,3.88,0,0,1,659.36,298.05Z"/><path class="cls-67" d="M630.34,445.6a2.39,2.39,0,1,1-2.41-2.36h0A2.38,2.38,0,0,1,630.34,445.6Z"/><path class="cls-68" d="M647.78,372.62a6.49,6.49,0,1,1-6.49-6.48h0A6.49,6.49,0,0,1,647.78,372.62Z"/><path class="cls-69" d="M620,431.1a3.15,3.15,0,1,1-3.17-3.12h.05A3.15,3.15,0,0,1,620,431.1Z"/><circle class="cls-70" cx="635.33" cy="232.48" r="3.35"/><circle class="cls-71" cx="589.3" cy="139.63" r="1.98"/><path class="cls-72" d="M622.66,343.83a3.83,3.83,0,1,1-3.83-3.83h0a3.8,3.8,0,0,1,3.8,3.8Z"/><path class="cls-73" d="M608.67,258.46a2.18,2.18,0,1,1-2.18-2.18h0a2.16,2.16,0,0,1,2.16,2.15Z"/><path class="cls-74" d="M561.37,480.07a5.45,5.45,0,1,1-5.45-5.45h0A5.48,5.48,0,0,1,561.37,480.07Z"/><path class="cls-75" d="M579.57,268.27a4.31,4.31,0,1,1-4.31-4.31h0A4.31,4.31,0,0,1,579.57,268.27Z"/><path class="cls-76" d="M557.06,449.93a3.15,3.15,0,1,1-3.14-3.16A3.13,3.13,0,0,1,557.06,449.93Z"/><path class="cls-77" d="M481.19,55.27a2.53,2.53,0,1,1-2.53-2.53A2.54,2.54,0,0,1,481.19,55.27Z"/><path class="cls-78" d="M459.93,565.47a1.75,1.75,0,1,1-1.75-1.75,1.75,1.75,0,0,1,1.75,1.75Z"/><path class="cls-79" d="M476.4,84a3.07,3.07,0,1,1-3.09-3h0A3.06,3.06,0,0,1,476.4,84Z"/><circle class="cls-80" cx="418.94" cy="32.18" r="4.77"/><path class="cls-81" d="M254.26,541.19a2.87,2.87,0,1,1-2.89-2.84h0A2.86,2.86,0,0,1,254.26,541.19Z"/><circle class="cls-82" cx="168.25" cy="308.29" r="5.96"/><path class="cls-83" d="M209.82,511.88a4,4,0,1,1-4-4h0a4,4,0,0,1,3.95,4Z"/><path class="cls-84" d="M133.2,202.29A5.25,5.25,0,1,1,128,197h0A5.25,5.25,0,0,1,133.2,202.29Z"/><path class="cls-85" d="M101.21,184.42a1.9,1.9,0,0,1-1.9,1.9,1.93,1.93,0,1,1,1.9-1.95Z"/><path class="cls-86" d="M121.92,95.8a5.17,5.17,0,1,1,0-.1Z"/><path class="cls-87" d="M169.14,35.48a7.86,7.86,0,1,1-7.88-7.84h0A7.86,7.86,0,0,1,169.14,35.48Z"/><path class="cls-88" d="M101.62,472.75a4.82,4.82,0,1,1-4.82-4.82h0A4.85,4.85,0,0,1,101.62,472.75Z"/><path class="cls-89" d="M159.23,49a2.54,2.54,0,1,1-2.53-2.54A2.53,2.53,0,0,1,159.23,49Z"/><path class="cls-90" d="M98.9,447.55A4.56,4.56,0,1,1,94.34,443a4.56,4.56,0,0,1,4.56,4.56Z"/><circle class="cls-91" cx="88.92" cy="233.21" r="3.52"/><circle class="cls-92" cx="158.62" cy="533.63" r="2.74"/><path class="cls-93" d="M134.54,522.63a4.08,4.08,0,1,1-4.08-4.08,4.08,4.08,0,0,1,4.08,4.08Z"/><path class="cls-94" d="M168.71,555a6.52,6.52,0,1,1-6.51-6.51h.07A6.52,6.52,0,0,1,168.71,555Z"/><path class="cls-95" d="M179,569.63a4,4,0,1,1-4.05-4,4,4,0,0,1,4.05,4Z"/><circle class="cls-96" cx="100.91" cy="463.44" r="5.78"/><path class="cls-97" d="M96.37,149.11a3.65,3.65,0,1,1-3.68-3.63h0a3.63,3.63,0,0,1,3.65,3.6Z"/><path class="cls-98" d="M229.92,590.66a5.07,5.07,0,1,1-5.06-5.07A5.07,5.07,0,0,1,229.92,590.66Z"/><path class="cls-99" d="M209.8,527.35a1.94,1.94,0,0,1-1.9,1.95h0a2,2,0,0,1-.44-3.88,1.62,1.62,0,0,1,.44,0A1.92,1.92,0,0,1,209.8,527.35Z"/><path class="cls-100" d="M265.89,591.27a1.95,1.95,0,1,1-1.95-1.95,1.95,1.95,0,0,1,1.95,1.95Z"/><circle class="cls-101" cx="237.96" cy="146.09" r="1.93"/><path class="cls-102" d="M345.48,608.79a3.7,3.7,0,1,1-3.7-3.7,3.7,3.7,0,0,1,3.7,3.7Z"/><path class="cls-103" d="M429.54,131a2.06,2.06,0,1,1-2.06-2.06h0a2,2,0,0,1,2.06,2Z"/><path class="cls-104" d="M419.3,52.26a6.77,6.77,0,1,1-6.8-6.75h.05A6.79,6.79,0,0,1,419.3,52.26Z"/><path class="cls-105" d="M414.56,603a2.54,2.54,0,1,1-2.54-2.53A2.54,2.54,0,0,1,414.56,603Z"/><circle class="cls-106" cx="436.74" cy="34.26" r="4.23"/><path class="cls-107" d="M503.2,101.05a1.93,1.93,0,1,1-1.95-1.9h.05A1.93,1.93,0,0,1,503.2,101.05Z"/><path class="cls-108" d="M587.91,314.43a5.07,5.07,0,1,1-5.07-5.07A5.07,5.07,0,0,1,587.91,314.43Z"/><path class="cls-109" d="M552.17,482.51a4.44,4.44,0,1,1-4.44-4.44h0a4.41,4.41,0,0,1,4.41,4.41Z"/><path class="cls-110" d="M534.73,70.18a7.39,7.39,0,1,1,0-.08Z"/><path class="cls-111" d="M515.06,559.16a1.85,1.85,0,1,1-1.85-1.85A1.85,1.85,0,0,1,515.06,559.16Z"/><circle class="cls-112" cx="577.26" cy="484.63" r="3.62"/><path class="cls-113" d="M631.58,361.45a5.76,5.76,0,1,1-5.75-5.76h0a5.73,5.73,0,0,1,5.73,5.73Z"/><circle class="cls-114" cx="594.45" cy="126.12" r="4.94"/><path class="cls-115" d="M641.92,333.34a3.93,3.93,0,1,1-3.95-3.91h0A3.9,3.9,0,0,1,641.92,333.34Z"/><path class="cls-116" d="M618.93,454.09a5.07,5.07,0,1,1-5.07-5.07A5.07,5.07,0,0,1,618.93,454.09Z"/><path class="cls-117" d="M639.46,176.36a3.75,3.75,0,1,1-3.75-3.75h0A3.74,3.74,0,0,1,639.46,176.36Z"/><path class="cls-118" d="M651.63,435.33a7,7,0,1,1-7-7h0A7,7,0,0,1,651.63,435.33Z"/><path class="cls-119" d="M672.92,248.27a4.14,4.14,0,1,1,0-.05Z"/><circle class="cls-120" cx="680.02" cy="283.2" r="2.91"/><path class="cls-121" d="M677.61,147.34a3.8,3.8,0,1,1-3.8-3.81A3.8,3.8,0,0,1,677.61,147.34Z"/><circle class="cls-122" cx="673.84" cy="218.21" r="4.39"/><circle class="cls-123" cx="668.51" cy="316.12" r="3.93"/><path class="cls-124" d="M661.39,304.82a3.27,3.27,0,1,1-3.27-3.27,3.26,3.26,0,0,1,3.27,3.27Z"/><path class="cls-125" d="M648.11,229.41a5,5,0,1,1,0-.13Z"/><circle class="cls-126" cx="647.88" cy="293.39" r="6.24"/><path class="cls-127" d="M600.15,465.65a1.83,1.83,0,1,1-1.85-1.8h0a1.8,1.8,0,0,1,1.82,1.77Z"/><path class="cls-128" d="M587.38,112.18a1.55,1.55,0,0,1-1.52,1.57h0a1.57,1.57,0,0,1-1.57-1.57,1.54,1.54,0,0,1,1.54-1.55h0a1.55,1.55,0,0,1,1.55,1.55Z"/><path class="cls-129" d="M608.19,453a4.47,4.47,0,1,1-4.47-4.46h0a4.45,4.45,0,0,1,4.47,4.41Z"/><path class="cls-130" d="M629.86,310.78a2.31,2.31,0,1,1-2.33-2.29h.05A2.29,2.29,0,0,1,629.86,310.78Z"/><path class="cls-131" d="M611.71,174.2a3.4,3.4,0,1,1-3.4-3.39h.08A3.4,3.4,0,0,1,611.71,174.2Z"/><path class="cls-132" d="M623.29,295.31a1.72,1.72,0,1,1-1.75-1.69h0a1.68,1.68,0,0,1,1.72,1.67Z"/><path class="cls-133" d="M613.2,216.74a6,6,0,1,1-6-6,5.95,5.95,0,0,1,6,6Z"/><path class="cls-134" d="M528.14,525.42a3.27,3.27,0,1,1-3.3-3.25h0A3.25,3.25,0,0,1,528.14,525.42Z"/><circle class="cls-135" cx="528.37" cy="518.37" r="3.65"/><path class="cls-136" d="M520.89,529.09a4.39,4.39,0,1,1-4.39-4.38h0a4.36,4.36,0,0,1,4.39,4.33Z"/><path class="cls-137" d="M428.42,15.35a2,2,0,1,1-2-2h0a2,2,0,0,1,2,2Z"/><path class="cls-138" d="M453.06,573.66a3.93,3.93,0,1,1-3.95-3.91h.05A3.91,3.91,0,0,1,453.06,573.66Z"/><path class="cls-139" d="M430.68,584.94a3.53,3.53,0,1,1-3.53-3.53h0A3.53,3.53,0,0,1,430.68,584.94Z"/><path class="cls-140" d="M404.52,594.42a1.9,1.9,0,1,1-1.9-1.91h0A1.91,1.91,0,0,1,404.52,594.42Z"/><circle class="cls-141" cx="404.16" cy="599.43" r="2.13"/><path class="cls-142" d="M461.53,160.82a2.54,2.54,0,1,1-2.54-2.53A2.54,2.54,0,0,1,461.53,160.82Z"/><path class="cls-143" d="M441.93,162.29a6.95,6.95,0,1,1-6.94-6.95,6.95,6.95,0,0,1,6.94,6.95Z"/><path class="cls-144" d="M366,470.49a5.63,5.63,0,1,1-5.65-5.6h.05a5.6,5.6,0,0,1,5.6,5.6Z"/><circle class="cls-145" cx="317.48" cy="583.06" r="3.5"/><path class="cls-146" d="M331.77,77.65a6.36,6.36,0,1,1-6.36-6.36h0A6.36,6.36,0,0,1,331.77,77.65Z"/><path class="cls-147" d="M251.65,185.48a1.42,1.42,0,0,1-1.42,1.42,1.45,1.45,0,0,1-1.45-1.42,1.48,1.48,0,0,1,1.45-1.44A1.44,1.44,0,0,1,251.65,185.48Z"/><path class="cls-148" d="M279.1,33.45a3.4,3.4,0,1,1-3.4-3.4h0a3.37,3.37,0,0,1,3.37,3.37Z"/><circle class="cls-149" cx="212.18" cy="511.55" r="3.24"/><circle class="cls-150" cx="145.29" cy="358.43" r="4.66"/><path class="cls-151" d="M153.86,97.83a2.92,2.92,0,1,1-2.92-2.91A2.92,2.92,0,0,1,153.86,97.83Z"/><circle class="cls-152" cx="92.01" cy="395.59" r="2.08"/><path class="cls-153" d="M158.62,111a1.85,1.85,0,1,1-1.85-1.85h0A1.85,1.85,0,0,1,158.62,111Z"/><path class="cls-154" d="M219.68,568.31a5.22,5.22,0,1,1-5.22-5.22h0A5.21,5.21,0,0,1,219.68,568.31Z"/><path class="cls-155" d="M151.78,189.84a3.1,3.1,0,1,1-3.12-3.06h0A3.09,3.09,0,0,1,151.78,189.84Z"/><circle class="cls-156" cx="260.57" cy="44.55" r="3.9"/><path class="cls-157" d="M287.72,553.53a6.57,6.57,0,1,1-6.57-6.57h0A6.57,6.57,0,0,1,287.72,553.53Z"/><path class="cls-158" d="M329.57,596.54A2.54,2.54,0,1,1,327,594,2.54,2.54,0,0,1,329.57,596.54Z"/><circle class="cls-159" cx="349.01" cy="474.95" r="4.26"/><path class="cls-160" d="M429.79,65.89A4.92,4.92,0,1,1,424.87,61a4.92,4.92,0,0,1,4.92,4.91Z"/><path class="cls-161" d="M355.7,526.79a3.78,3.78,0,1,1-3.78-3.78A3.77,3.77,0,0,1,355.7,526.79Z"/><circle class="cls-162" cx="263.59" cy="421.06" r="4.36"/><path class="cls-163" d="M213.65,123.1a5.6,5.6,0,1,1-5.6-5.6h0a5.57,5.57,0,0,1,5.6,5.55Z"/><path class="cls-164" d="M250.76,29.16a4.36,4.36,0,1,1-4.36-4.35,4.36,4.36,0,0,1,4.36,4.35Z"/><circle class="cls-165" cx="177.2" cy="506.61" r="2.71"/><circle class="cls-166" cx="86.71" cy="331.46" r="3.37"/><path class="cls-167" d="M197.33,52.94a2.77,2.77,0,1,1-2.77-2.76h0A2.77,2.77,0,0,1,197.33,52.94Z"/><circle class="cls-168" cx="144.88" cy="467.09" r="3.9"/><g class="cls-169"><line class="cls-170" x1="507.4" y1="624.33" x2="663.65" y2="384.71"/><polygon class="cls-171" points="664.48 385.12 508.27 624.76 506.57 623.92 662.81 384.28 664.48 385.12"/></g><g class="cls-169"><line class="cls-170" x1="507.4" y1="624.33" x2="663.65" y2="384.71"/><polygon class="cls-171" points="664.48 385.12 508.27 624.76 506.57 623.92 662.81 384.28 664.48 385.12"/></g><g class="cls-169"><line class="cls-170" x1="4.26" y1="218.03" x2="318.36" y2="102.67"/><polygon class="cls-171" points="318.08 101.81 318.64 103.51 4.53 218.87 3.95 217.19 318.08 101.81"/></g><g class="cls-169"><line class="cls-170" x1="4.26" y1="218.03" x2="118.29" y2="529.73"/><polygon class="cls-171" points="5.19 217.68 119.23 529.37 117.36 530.11 3.29 218.41 5.19 217.68"/></g><g class="cls-169"><line class="cls-170" x1="436.76" y1="417.62" x2="507.4" y2="624.33"/><polygon class="cls-171" points="437.72 417.26 508.37 624 506.47 624.68 435.82 417.94 437.72 417.26"/></g><g class="cls-169"><line class="cls-170" x1="436.76" y1="417.62" x2="318.36" y2="102.67"/><polygon class="cls-171" points="319.3 102.29 437.7 417.24 435.82 417.97 317.42 103.03 319.3 102.29"/></g><g class="cls-169"><line class="cls-170" x1="436.76" y1="417.62" x2="663.65" y2="384.71"/><polygon class="cls-171" points="663.6 383.8 663.7 385.6 436.81 418.5 436.71 416.7 663.6 383.8"/></g><g class="cls-169"><line class="cls-170" x1="436.76" y1="417.62" x2="663.65" y2="384.71"/><polygon class="cls-171" points="663.6 383.8 663.7 385.6 436.81 418.5 436.71 416.7 663.6 383.8"/></g><g class="cls-169"><line class="cls-170" x1="436.76" y1="417.62" x2="118.29" y2="529.73"/><polygon class="cls-171" points="436.51 416.75 437.06 418.45 118.57 530.59 118.02 528.89 436.51 416.75"/></g><g class="cls-169"><line class="cls-170" x1="172.99" y1="166.83" x2="4.26" y2="218.03"/><polygon class="cls-171" points="172.77 165.97 173.22 167.69 4.48 218.89 4.03 217.17 172.77 165.97"/></g><g class="cls-169"><line class="cls-170" x1="172.99" y1="166.83" x2="318.36" y2="102.67"/><rect class="cls-171" x="166.21" y="133.83" width="158.9" height="1.77" transform="translate(-33.58 111.81) rotate(-24.05)"/></g><g class="cls-169"><line class="cls-170" x1="172.99" y1="166.83" x2="118.29" y2="529.73"/><polygon class="cls-171" points="173.98 166.88 119.26 529.78 117.31 529.7 172.01 166.8 173.98 166.88"/></g><g class="cls-169"><line class="cls-170" x1="327.41" y1="463.29" x2="172.99" y2="166.83"/><polygon class="cls-171" points="328.3 462.86 326.5 463.75 172.08 167.28 173.88 166.37 328.3 462.86"/></g><g class="cls-169"><line class="cls-170" x1="327.41" y1="463.29" x2="436.76" y2="417.62"/><polygon class="cls-171" points="436.43 416.78 437.12 418.43 327.74 464.1 327.08 462.48 436.43 416.78"/></g><g class="cls-169"><line class="cls-170" x1="327.41" y1="463.29" x2="507.4" y2="624.33"/><polygon class="cls-171" points="508.14 623.67 506.69 625.01 326.68 463.98 328.15 462.61 508.14 623.67"/></g><g class="cls-169"><line class="cls-170" x1="327.41" y1="463.29" x2="318.36" y2="102.67"/><polygon class="cls-171" points="319.35 102.55 328.4 463.19 326.42 463.39 317.37 102.77 319.35 102.55"/></g><g class="cls-169"><line class="cls-170" x1="327.41" y1="463.29" x2="663.65" y2="384.71"/><polygon class="cls-171" points="663.49 383.83 663.8 385.58 327.56 464.18 327.26 462.43 663.49 383.83"/></g><g class="cls-169"><line class="cls-170" x1="327.41" y1="463.29" x2="663.65" y2="384.71"/><polygon class="cls-171" points="663.49 383.83 663.8 385.58 327.56 464.18 327.26 462.43 663.49 383.83"/></g><g class="cls-169"><line class="cls-170" x1="327.41" y1="463.29" x2="118.29" y2="529.73"/><polygon class="cls-171" points="327.18 462.46 327.64 464.15 118.52 530.59 118.04 528.89 327.18 462.46"/></g><g class="cls-169"><line class="cls-170" x1="217.25" y1="367.1" x2="327.41" y2="463.29"/><polygon class="cls-171" points="328.12 462.63 326.7 463.98 216.52 367.78 217.96 366.44 328.12 462.63"/></g><g class="cls-169"><line class="cls-170" x1="217.25" y1="367.1" x2="172.99" y2="166.83"/><polygon class="cls-171" points="173.96 166.57 218.21 366.85 216.26 367.38 172.01 167.08 173.96 166.57"/></g><g class="cls-169"><line class="cls-170" x1="217.25" y1="367.1" x2="436.76" y2="417.62"/><polygon class="cls-171" points="437.09 416.73 436.46 418.48 216.92 367.99 217.58 366.24 437.09 416.73"/></g><g class="cls-169"><line class="cls-170" x1="217.25" y1="367.1" x2="4.26" y2="218.03"/><polygon class="cls-171" points="217.88 366.36 216.59 367.86 3.6 218.79 4.89 217.29 217.88 366.36"/></g><g class="cls-169"><line class="cls-170" x1="217.25" y1="367.1" x2="318.36" y2="102.67"/><polygon class="cls-171" points="319.3 102.88 218.16 367.33 216.31 366.9 317.42 102.44 319.3 102.88"/></g><g class="cls-169"><line class="cls-170" x1="217.25" y1="367.1" x2="118.29" y2="529.73"/><polygon class="cls-171" points="218.09 367.48 119.13 530.13 117.43 529.37 216.39 366.72 218.09 367.48"/></g><g class="cls-169"><line class="cls-170" x1="569.2" y1="284.16" x2="217.25" y2="367.1"/><polygon class="cls-171" points="569.05 283.27 569.38 285.02 217.4 367.99 217.07 366.24 569.05 283.27"/></g><g class="cls-169"><line class="cls-170" x1="569.2" y1="284.16" x2="327.41" y2="463.29"/><polygon class="cls-171" points="569.78 284.85 327.99 463.98 326.83 462.61 568.62 283.48 569.78 284.85"/></g><g class="cls-169"><line class="cls-170" x1="569.2" y1="284.16" x2="436.76" y2="417.62"/><polygon class="cls-171" points="569.91 284.74 437.47 418.17 436.08 417.03 568.49 283.58 569.91 284.74"/></g><g class="cls-169"><line class="cls-170" x1="569.2" y1="284.16" x2="507.4" y2="624.33"/><polygon class="cls-171" points="570.19 284.21 508.39 624.4 506.44 624.27 568.24 284.08 570.19 284.21"/></g><g class="cls-169"><line class="cls-170" x1="569.2" y1="284.16" x2="318.36" y2="102.67"/><polygon class="cls-171" points="569.86 283.43 568.54 284.9 317.7 103.38 319.02 101.94 569.86 283.43"/></g><g class="cls-169"><line class="cls-170" x1="569.2" y1="284.16" x2="663.65" y2="384.71"/><polygon class="cls-171" points="664.43 384.06 662.86 385.32 568.44 284.8 569.99 283.53 664.43 384.06"/></g><g class="cls-169"><line class="cls-170" x1="569.2" y1="284.16" x2="663.65" y2="384.71"/><polygon class="cls-171" points="664.43 384.06 662.86 385.32 568.44 284.8 569.99 283.53 664.43 384.06"/></g><g class="cls-169"><line class="cls-170" x1="442.57" y1="3.89" x2="569.2" y2="284.16"/><polygon class="cls-171" points="570.14 283.73 568.29 284.57 441.63 4.3 443.48 3.46 570.14 283.73"/></g><g class="cls-169"><line class="cls-170" x1="442.57" y1="3.89" x2="172.99" y2="166.83"/><polygon class="cls-171" points="443.02 4.63 173.48 167.59 172.51 166.09 442.06 3.13 443.02 4.63"/></g><g class="cls-169"><line class="cls-170" x1="442.57" y1="3.89" x2="318.36" y2="102.67"/><polygon class="cls-171" points="443.17 4.55 318.97 103.33 317.75 101.99 441.96 3.21 443.17 4.55"/></g><g class="cls-169"><line class="cls-170" x1="237.5" y1="606.4" x2="217.25" y2="367.1"/><polygon class="cls-171" points="218.24 366.95 238.49 606.28 236.51 606.56 216.26 367.28 218.24 366.95"/></g><g class="cls-169"><line class="cls-170" x1="237.5" y1="606.4" x2="327.41" y2="463.29"/><polygon class="cls-171" points="328.25 463.7 238.34 606.81 236.64 606.02 326.55 462.91 328.25 463.7"/></g><g class="cls-169"><line class="cls-170" x1="237.5" y1="606.4" x2="436.76" y2="417.62"/><polygon class="cls-171" points="437.44 418.2 238.16 607.01 236.82 605.82 436.08 417.01 437.44 418.2"/></g><g class="cls-169"><line class="cls-170" x1="237.5" y1="606.4" x2="507.4" y2="624.33"/><polygon class="cls-171" points="507.58 623.44 507.25 625.26 237.33 607.32 237.66 605.52 507.58 623.44"/></g><g class="cls-169"><line class="cls-170" x1="237.5" y1="606.4" x2="118.29" y2="529.73"/><polygon class="cls-171" points="238.11 605.67 236.87 607.16 117.66 530.49 118.9 528.99 238.11 605.67"/></g><g class="cls-169"><line class="cls-170" x1="710.77" y1="211.34" x2="442.57" y2="3.89"/><polygon class="cls-171" points="711.43 210.6 710.08 212.05 441.86 4.6 443.22 3.16 711.43 210.6"/></g><g class="cls-169"><line class="cls-170" x1="710.77" y1="211.34" x2="569.2" y2="284.16"/><polygon class="cls-171" points="711.17 212.12 569.63 284.95 568.8 283.38 710.34 210.55 711.17 212.12"/></g><g class="cls-169"><line class="cls-170" x1="710.77" y1="211.34" x2="436.76" y2="417.62"/><polygon class="cls-171" points="711.35 212.02 437.37 418.3 436.18 416.93 710.18 210.65 711.35 212.02"/></g><g class="cls-169"><line class="cls-170" x1="710.77" y1="211.34" x2="663.65" y2="384.71"/><polygon class="cls-171" points="711.71 211.46 664.61 384.84 662.68 384.56 709.8 211.19 711.71 211.46"/></g><g class="cls-169"><line class="cls-170" x1="710.77" y1="211.34" x2="663.65" y2="384.71"/><polygon class="cls-171" points="711.71 211.46 664.61 384.84 662.68 384.56 709.8 211.19 711.71 211.46"/></g><g class="cls-169"><line class="cls-170" x1="710.77" y1="211.34" x2="442.57" y2="3.89"/><polygon class="cls-171" points="711.43 210.6 710.08 212.05 441.86 4.6 443.22 3.16 711.43 210.6"/></g><g class="cls-169"><line class="cls-170" x1="710.77" y1="211.34" x2="569.2" y2="284.16"/><polygon class="cls-171" points="711.17 212.12 569.63 284.95 568.8 283.38 710.34 210.55 711.17 212.12"/></g><g class="cls-169"><line class="cls-170" x1="710.77" y1="211.34" x2="436.76" y2="417.62"/><polygon class="cls-171" points="711.35 212.02 437.37 418.3 436.18 416.93 710.18 210.65 711.35 212.02"/></g><g class="cls-169"><line class="cls-170" x1="710.77" y1="211.34" x2="663.65" y2="384.71"/><polygon class="cls-171" points="711.71 211.46 664.61 384.84 662.68 384.56 709.8 211.19 711.71 211.46"/></g><g class="cls-169"><line class="cls-170" x1="710.77" y1="211.34" x2="663.65" y2="384.71"/><polygon class="cls-171" points="711.71 211.46 664.61 384.84 662.68 384.56 709.8 211.19 711.71 211.46"/></g><g class="cls-169"><line class="cls-170" x1="716.65" y1="211.31" x2="710.77" y2="211.34"/><polygon class="cls-171" points="716.72 210.4 716.55 212.22 710.67 212.22 710.84 210.43 716.72 210.4"/></g><g class="cls-169"><line class="cls-170" x1="716.65" y1="211.31" x2="710.77" y2="211.34"/><polygon class="cls-171" points="716.72 210.4 716.55 212.22 710.67 212.22 710.84 210.43 716.72 210.4"/></g><g class="cls-169"><line class="cls-170" x1="716.65" y1="211.31" x2="442.57" y2="3.89"/><polygon class="cls-171" points="717.31 210.6 715.96 212.05 441.88 4.6 443.22 3.16 717.31 210.6"/></g><g class="cls-169"><line class="cls-170" x1="716.65" y1="211.31" x2="569.2" y2="284.16"/><polygon class="cls-171" points="717.05 212.12 569.61 284.95 568.8 283.35 716.24 210.53 717.05 212.12"/></g><g class="cls-169"><line class="cls-170" x1="716.65" y1="211.31" x2="436.76" y2="417.62"/><polygon class="cls-171" points="717.23 212.02 437.34 418.3 436.2 416.91 716.07 210.63 717.23 212.02"/></g><g class="cls-169"><line class="cls-170" x1="716.65" y1="211.31" x2="663.65" y2="384.71"/><polygon class="cls-171" points="717.59 211.49 664.61 384.87 662.71 384.54 715.68 211.16 717.59 211.49"/></g><g class="cls-169"><line class="cls-170" x1="716.65" y1="211.31" x2="663.65" y2="384.71"/><polygon class="cls-171" points="717.59 211.49 664.61 384.87 662.71 384.54 715.68 211.16 717.59 211.49"/></g><g class="cls-169"><line class="cls-170" x1="144.93" y1="49.9" x2="442.57" y2="3.89"/><polygon class="cls-171" points="442.49 2.98 442.62 4.78 145.01 50.81 144.86 49.01 442.49 2.98"/></g><g class="cls-169"><line class="cls-170" x1="144.93" y1="49.9" x2="217.25" y2="367.1"/><polygon class="cls-171" points="145.92 49.65 218.21 366.85 216.26 367.38 143.97 50.18 145.92 49.65"/></g><g class="cls-169"><line class="cls-170" x1="144.93" y1="49.9" x2="172.99" y2="166.83"/><polygon class="cls-171" points="145.9 49.65 173.96 166.55 172.03 167.11 143.97 50.18 145.9 49.65"/></g><g class="cls-169"><line class="cls-170" x1="144.93" y1="49.9" x2="4.26" y2="218.03"/><polygon class="cls-171" points="145.69 50.43 5.02 218.56 3.5 217.52 144.17 49.39 145.69 50.43"/></g><g class="cls-169"><line class="cls-170" x1="144.93" y1="49.9" x2="318.36" y2="102.67"/><polygon class="cls-171" points="318.74 101.81 317.98 103.53 144.55 50.79 145.34 49.04 318.74 101.81"/></g><path class="cls-171" d="M662.13,381.27a3.77,3.77,0,1,1-2.39,5.07A4.06,4.06,0,0,1,662.13,381.27Z"/><path class="cls-171" d="M505.91,620.9A3.78,3.78,0,1,1,503.5,626,4,4,0,0,1,505.91,620.9Z"/><path class="cls-171" d="M662.13,381.27a3.77,3.77,0,1,1-2.39,5.07A4.06,4.06,0,0,1,662.13,381.27Z"/><path class="cls-171" d="M505.91,620.9A3.78,3.78,0,1,1,503.5,626,4,4,0,0,1,505.91,620.9Z"/><path class="cls-171" d="M316.89,99.23a3.78,3.78,0,1,1-2.38,5.07A4,4,0,0,1,316.89,99.23Z"/><path class="cls-171" d="M2.73,214.61a4.06,4.06,0,0,1,5.43,1.7,4.06,4.06,0,0,1-2.54,5.07A4,4,0,0,1,.2,219.65,4,4,0,0,1,2.73,214.61Z"/><path class="cls-171" d="M116.65,526.31a3.77,3.77,0,1,1-2.39,5.07A4.07,4.07,0,0,1,116.65,526.31Z"/><path class="cls-171" d="M2.73,214.61a4.06,4.06,0,0,1,5.43,1.7,4.06,4.06,0,0,1-2.54,5.07A4,4,0,0,1,.2,219.65,4,4,0,0,1,2.73,214.61Z"/><path class="cls-171" d="M505.91,620.9A3.78,3.78,0,1,1,503.5,626,4,4,0,0,1,505.91,620.9Z"/><path class="cls-171" d="M435.27,414.17a4,4,0,0,1,5.37,1.67l0,.05a4.31,4.31,0,0,1-7.8,3.45A4.05,4.05,0,0,1,435.27,414.17Z"/><path class="cls-171" d="M316.89,99.23a3.78,3.78,0,1,1-2.38,5.07A4,4,0,0,1,316.89,99.23Z"/><path class="cls-171" d="M435.27,414.17a4,4,0,0,1,5.37,1.67l0,.05a4.31,4.31,0,0,1-7.8,3.45A4.05,4.05,0,0,1,435.27,414.17Z"/><path class="cls-171" d="M662.13,381.27a3.77,3.77,0,1,1-2.39,5.07A4.06,4.06,0,0,1,662.13,381.27Z"/><path class="cls-171" d="M435.27,414.17a4,4,0,0,1,5.37,1.67l0,.05a4.31,4.31,0,0,1-7.8,3.45A4.05,4.05,0,0,1,435.27,414.17Z"/><path class="cls-171" d="M662.13,381.27a3.77,3.77,0,1,1-2.39,5.07A4.06,4.06,0,0,1,662.13,381.27Z"/><path class="cls-171" d="M435.27,414.17a4,4,0,0,1,5.37,1.67l0,.05a4.31,4.31,0,0,1-7.8,3.45A4.05,4.05,0,0,1,435.27,414.17Z"/><path class="cls-171" d="M116.65,526.31a3.77,3.77,0,1,1-2.39,5.07A4.07,4.07,0,0,1,116.65,526.31Z"/><path class="cls-171" d="M435.27,414.17a4,4,0,0,1,5.37,1.67l0,.05a4.31,4.31,0,0,1-7.8,3.45A4.05,4.05,0,0,1,435.27,414.17Z"/><path class="cls-171" d="M2.73,214.61a4.06,4.06,0,0,1,5.43,1.7,4.06,4.06,0,0,1-2.54,5.07A4,4,0,0,1,.2,219.65,4,4,0,0,1,2.73,214.61Z"/><path class="cls-171" d="M171.47,163.51a3.78,3.78,0,1,1-2.38,5.07A4,4,0,0,1,171.47,163.51Z"/><path class="cls-171" d="M316.89,99.23a3.78,3.78,0,1,1-2.38,5.07A4,4,0,0,1,316.89,99.23Z"/><path class="cls-171" d="M171.47,163.51a3.78,3.78,0,1,1-2.38,5.07A4,4,0,0,1,171.47,163.51Z"/><path class="cls-171" d="M116.65,526.31a3.77,3.77,0,1,1-2.39,5.07A4.07,4.07,0,0,1,116.65,526.31Z"/><path class="cls-171" d="M171.47,163.51a3.78,3.78,0,1,1-2.38,5.07A4,4,0,0,1,171.47,163.51Z"/><path class="cls-171" d="M171.47,163.51a3.78,3.78,0,1,1-2.38,5.07A4,4,0,0,1,171.47,163.51Z"/><path class="cls-171" d="M325.89,459.84a3.8,3.8,0,1,1-2.38,5.07A4.06,4.06,0,0,1,325.89,459.84Z"/><path class="cls-171" d="M435.27,414.17a4,4,0,0,1,5.37,1.67l0,.05a4.31,4.31,0,0,1-7.8,3.45A4.05,4.05,0,0,1,435.27,414.17Z"/><path class="cls-171" d="M325.89,459.84a3.8,3.8,0,1,1-2.38,5.07A4.06,4.06,0,0,1,325.89,459.84Z"/><path class="cls-171" d="M505.91,620.9A3.78,3.78,0,1,1,503.5,626,4,4,0,0,1,505.91,620.9Z"/><path class="cls-171" d="M325.89,459.84a3.8,3.8,0,1,1-2.38,5.07A4.06,4.06,0,0,1,325.89,459.84Z"/><path class="cls-171" d="M316.89,99.23a3.78,3.78,0,1,1-2.38,5.07A4,4,0,0,1,316.89,99.23Z"/><path class="cls-171" d="M325.89,459.84a3.8,3.8,0,1,1-2.38,5.07A4.06,4.06,0,0,1,325.89,459.84Z"/><path class="cls-171" d="M662.13,381.27a3.77,3.77,0,1,1-2.39,5.07A4.06,4.06,0,0,1,662.13,381.27Z"/><path class="cls-171" d="M325.89,459.84a3.8,3.8,0,1,1-2.38,5.07A4.06,4.06,0,0,1,325.89,459.84Z"/><path class="cls-171" d="M662.13,381.27a3.77,3.77,0,1,1-2.39,5.07A4.06,4.06,0,0,1,662.13,381.27Z"/><path class="cls-171" d="M325.89,459.84a3.8,3.8,0,1,1-2.38,5.07A4.06,4.06,0,0,1,325.89,459.84Z"/><path class="cls-171" d="M116.65,526.31a3.77,3.77,0,1,1-2.39,5.07A4.07,4.07,0,0,1,116.65,526.31Z"/><path class="cls-171" d="M325.89,459.84a3.8,3.8,0,1,1-2.38,5.07A4.06,4.06,0,0,1,325.89,459.84Z"/><path class="cls-171" d="M325.89,459.84a3.8,3.8,0,1,1-2.38,5.07A4.06,4.06,0,0,1,325.89,459.84Z"/><path class="cls-171" d="M215.73,363.75a3.78,3.78,0,1,1-2.53,5.07A4,4,0,0,1,215.73,363.75Z"/><path class="cls-171" d="M171.47,163.51a3.78,3.78,0,1,1-2.38,5.07A4,4,0,0,1,171.47,163.51Z"/><path class="cls-171" d="M215.73,363.75a3.78,3.78,0,1,1-2.53,5.07A4,4,0,0,1,215.73,363.75Z"/><path class="cls-171" d="M435.27,414.17a4,4,0,0,1,5.37,1.67l0,.05a4.31,4.31,0,0,1-7.8,3.45A4.05,4.05,0,0,1,435.27,414.17Z"/><path class="cls-171" d="M215.73,363.75a3.78,3.78,0,1,1-2.53,5.07A4,4,0,0,1,215.73,363.75Z"/><path class="cls-171" d="M2.73,214.61a4.06,4.06,0,0,1,5.43,1.7,4.06,4.06,0,0,1-2.54,5.07A4,4,0,0,1,.2,219.65,4,4,0,0,1,2.73,214.61Z"/><path class="cls-171" d="M215.73,363.75a3.78,3.78,0,1,1-2.53,5.07A4,4,0,0,1,215.73,363.75Z"/><path class="cls-171" d="M316.89,99.23a3.78,3.78,0,1,1-2.38,5.07A4,4,0,0,1,316.89,99.23Z"/><path class="cls-171" d="M215.73,363.75a3.78,3.78,0,1,1-2.53,5.07A4,4,0,0,1,215.73,363.75Z"/><path class="cls-171" d="M116.65,526.31a3.77,3.77,0,1,1-2.39,5.07A4.07,4.07,0,0,1,116.65,526.31Z"/><path class="cls-171" d="M215.73,363.75a3.78,3.78,0,1,1-2.53,5.07A4,4,0,0,1,215.73,363.75Z"/><path class="cls-171" d="M215.73,363.75a3.78,3.78,0,1,1-2.53,5.07A4,4,0,0,1,215.73,363.75Z"/><path class="cls-171" d="M567.68,280.71a3.8,3.8,0,1,1-2.38,5.07A4.08,4.08,0,0,1,567.68,280.71Z"/><path class="cls-171" d="M325.89,459.84a3.8,3.8,0,1,1-2.38,5.07A4.06,4.06,0,0,1,325.89,459.84Z"/><path class="cls-171" d="M567.68,280.71a3.8,3.8,0,1,1-2.38,5.07A4.08,4.08,0,0,1,567.68,280.71Z"/><path class="cls-171" d="M435.27,414.17a4,4,0,0,1,5.37,1.67l0,.05a4.31,4.31,0,0,1-7.8,3.45A4.05,4.05,0,0,1,435.27,414.17Z"/><path class="cls-171" d="M567.68,280.71a3.8,3.8,0,1,1-2.38,5.07A4.08,4.08,0,0,1,567.68,280.71Z"/><path class="cls-171" d="M505.91,620.9A3.78,3.78,0,1,1,503.5,626,4,4,0,0,1,505.91,620.9Z"/><path class="cls-171" d="M567.68,280.71a3.8,3.8,0,1,1-2.38,5.07A4.08,4.08,0,0,1,567.68,280.71Z"/><path class="cls-171" d="M316.89,99.23a3.78,3.78,0,1,1-2.38,5.07A4,4,0,0,1,316.89,99.23Z"/><path class="cls-171" d="M567.68,280.71a3.8,3.8,0,1,1-2.38,5.07A4.08,4.08,0,0,1,567.68,280.71Z"/><path class="cls-171" d="M662.13,381.27a3.77,3.77,0,1,1-2.39,5.07A4.06,4.06,0,0,1,662.13,381.27Z"/><path class="cls-171" d="M567.68,280.71a3.8,3.8,0,1,1-2.38,5.07A4.08,4.08,0,0,1,567.68,280.71Z"/><path class="cls-171" d="M662.13,381.27a3.77,3.77,0,1,1-2.39,5.07A4.06,4.06,0,0,1,662.13,381.27Z"/><path class="cls-171" d="M567.68,280.71a3.8,3.8,0,1,1-2.38,5.07A4.08,4.08,0,0,1,567.68,280.71Z"/><path class="cls-171" d="M567.68,280.71a3.8,3.8,0,1,1-2.38,5.07A4.08,4.08,0,0,1,567.68,280.71Z"/><path class="cls-171" d="M441.1.45a4,4,0,0,1,5.42,1.69,4.34,4.34,0,1,1-8,3.45h0A4,4,0,0,1,441,.48Z"/><path class="cls-171" d="M171.47,163.51a3.78,3.78,0,1,1-2.38,5.07A4,4,0,0,1,171.47,163.51Z"/><path class="cls-171" d="M441.1.45a4,4,0,0,1,5.42,1.69,4.34,4.34,0,1,1-8,3.45h0A4,4,0,0,1,441,.48Z"/><path class="cls-171" d="M316.89,99.23a3.78,3.78,0,1,1-2.38,5.07A4,4,0,0,1,316.89,99.23Z"/><path class="cls-171" d="M441.1.45a4,4,0,0,1,5.42,1.69,4.34,4.34,0,1,1-8,3.45h0A4,4,0,0,1,441,.48Z"/><path class="cls-171" d="M215.73,363.75a3.78,3.78,0,1,1-2.53,5.07A4,4,0,0,1,215.73,363.75Z"/><path class="cls-171" d="M236,603a3.78,3.78,0,1,1-2.38,5.07A4,4,0,0,1,236,603Z"/><path class="cls-171" d="M325.89,459.84a3.8,3.8,0,1,1-2.38,5.07A4.06,4.06,0,0,1,325.89,459.84Z"/><path class="cls-171" d="M236,603a3.78,3.78,0,1,1-2.38,5.07A4,4,0,0,1,236,603Z"/><path class="cls-171" d="M435.27,414.17a4,4,0,0,1,5.37,1.67l0,.05a4.31,4.31,0,0,1-7.8,3.45A4.05,4.05,0,0,1,435.27,414.17Z"/><path class="cls-171" d="M236,603a3.78,3.78,0,1,1-2.38,5.07A4,4,0,0,1,236,603Z"/><path class="cls-171" d="M505.91,620.9A3.78,3.78,0,1,1,503.5,626,4,4,0,0,1,505.91,620.9Z"/><path class="cls-171" d="M236,603a3.78,3.78,0,1,1-2.38,5.07A4,4,0,0,1,236,603Z"/><path class="cls-171" d="M116.65,526.31a3.77,3.77,0,1,1-2.39,5.07A4.07,4.07,0,0,1,116.65,526.31Z"/><path class="cls-171" d="M236,603a3.78,3.78,0,1,1-2.38,5.07A4,4,0,0,1,236,603Z"/><path class="cls-171" d="M441.1.45a4,4,0,0,1,5.42,1.69,4.34,4.34,0,1,1-8,3.45h0A4,4,0,0,1,441,.48Z"/><path class="cls-171" d="M709.25,207.89a4.05,4.05,0,0,1,5.42,1.72,4.31,4.31,0,0,1-7.83,3.45A4.05,4.05,0,0,1,709.25,207.89Z"/><path class="cls-171" d="M567.68,280.71a3.8,3.8,0,1,1-2.38,5.07A4.08,4.08,0,0,1,567.68,280.71Z"/><path class="cls-171" d="M709.25,207.89a4.05,4.05,0,0,1,5.42,1.72,4.31,4.31,0,0,1-7.83,3.45A4.05,4.05,0,0,1,709.25,207.89Z"/><path class="cls-171" d="M435.27,414.17a4,4,0,0,1,5.37,1.67l0,.05a4.31,4.31,0,0,1-7.8,3.45A4.05,4.05,0,0,1,435.27,414.17Z"/><path class="cls-171" d="M709.25,207.89a4.05,4.05,0,0,1,5.42,1.72,4.31,4.31,0,0,1-7.83,3.45A4.05,4.05,0,0,1,709.25,207.89Z"/><path class="cls-171" d="M662.13,381.27a3.77,3.77,0,1,1-2.39,5.07A4.06,4.06,0,0,1,662.13,381.27Z"/><path class="cls-171" d="M709.25,207.89a4.05,4.05,0,0,1,5.42,1.72,4.31,4.31,0,0,1-7.83,3.45A4.05,4.05,0,0,1,709.25,207.89Z"/><path class="cls-171" d="M662.13,381.27a3.77,3.77,0,1,1-2.39,5.07A4.06,4.06,0,0,1,662.13,381.27Z"/><path class="cls-171" d="M709.25,207.89a4.05,4.05,0,0,1,5.42,1.72,4.31,4.31,0,0,1-7.83,3.45A4.05,4.05,0,0,1,709.25,207.89Z"/><path class="cls-171" d="M441.1.45a4,4,0,0,1,5.42,1.69,4.34,4.34,0,1,1-8,3.45h0A4,4,0,0,1,441,.48Z"/><path class="cls-171" d="M709.25,207.89a4.05,4.05,0,0,1,5.42,1.72,4.31,4.31,0,0,1-7.83,3.45A4.05,4.05,0,0,1,709.25,207.89Z"/><path class="cls-171" d="M567.68,280.71a3.8,3.8,0,1,1-2.38,5.07A4.08,4.08,0,0,1,567.68,280.71Z"/><path class="cls-171" d="M709.25,207.89a4.05,4.05,0,0,1,5.42,1.72,4.31,4.31,0,0,1-7.83,3.45A4.05,4.05,0,0,1,709.25,207.89Z"/><path class="cls-171" d="M435.27,414.17a4,4,0,0,1,5.37,1.67l0,.05a4.31,4.31,0,0,1-7.8,3.45A4.05,4.05,0,0,1,435.27,414.17Z"/><path class="cls-171" d="M709.25,207.89a4.05,4.05,0,0,1,5.42,1.72,4.31,4.31,0,0,1-7.83,3.45A4.05,4.05,0,0,1,709.25,207.89Z"/><path class="cls-171" d="M662.13,381.27a3.77,3.77,0,1,1-2.39,5.07A4.06,4.06,0,0,1,662.13,381.27Z"/><path class="cls-171" d="M709.25,207.89a4.05,4.05,0,0,1,5.42,1.72,4.31,4.31,0,0,1-7.83,3.45A4.05,4.05,0,0,1,709.25,207.89Z"/><path class="cls-171" d="M662.13,381.27a3.77,3.77,0,1,1-2.39,5.07A4.06,4.06,0,0,1,662.13,381.27Z"/><path class="cls-171" d="M709.25,207.89a4.05,4.05,0,0,1,5.42,1.72,4.31,4.31,0,0,1-7.83,3.45A4.05,4.05,0,0,1,709.25,207.89Z"/><path class="cls-171" d="M709.25,207.89a4.05,4.05,0,0,1,5.42,1.72,4.31,4.31,0,0,1-7.83,3.45A4.05,4.05,0,0,1,709.25,207.89Z"/><path class="cls-171" d="M715.13,207.89a3.78,3.78,0,0,1,3.76,6.55,3.86,3.86,0,0,1-.72.32,3.8,3.8,0,1,1-4.12-6.39A3.61,3.61,0,0,1,715.13,207.89Z"/><path class="cls-171" d="M709.25,207.89a4.05,4.05,0,0,1,5.42,1.72,4.31,4.31,0,0,1-7.83,3.45A4.05,4.05,0,0,1,709.25,207.89Z"/><path class="cls-171" d="M715.13,207.89a3.78,3.78,0,0,1,3.76,6.55,3.86,3.86,0,0,1-.72.32,3.8,3.8,0,1,1-4.12-6.39A3.61,3.61,0,0,1,715.13,207.89Z"/><path class="cls-171" d="M441.1.45a4,4,0,0,1,5.42,1.69,4.34,4.34,0,1,1-8,3.45h0A4,4,0,0,1,441,.48Z"/><path class="cls-171" d="M715.13,207.89a3.78,3.78,0,0,1,3.76,6.55,3.86,3.86,0,0,1-.72.32,3.8,3.8,0,1,1-4.12-6.39A3.61,3.61,0,0,1,715.13,207.89Z"/><path class="cls-171" d="M567.68,280.71a3.8,3.8,0,1,1-2.38,5.07A4.08,4.08,0,0,1,567.68,280.71Z"/><path class="cls-171" d="M715.13,207.89a3.78,3.78,0,0,1,3.76,6.55,3.86,3.86,0,0,1-.72.32,3.8,3.8,0,1,1-4.12-6.39A3.61,3.61,0,0,1,715.13,207.89Z"/><path class="cls-171" d="M435.27,414.17a4,4,0,0,1,5.37,1.67l0,.05a4.31,4.31,0,0,1-7.8,3.45A4.05,4.05,0,0,1,435.27,414.17Z"/><path class="cls-171" d="M715.13,207.89a3.78,3.78,0,0,1,3.76,6.55,3.86,3.86,0,0,1-.72.32,3.8,3.8,0,1,1-4.12-6.39A3.61,3.61,0,0,1,715.13,207.89Z"/><path class="cls-171" d="M662.13,381.27a3.77,3.77,0,1,1-2.39,5.07A4.06,4.06,0,0,1,662.13,381.27Z"/><path class="cls-171" d="M715.13,207.89a3.78,3.78,0,0,1,3.76,6.55,3.86,3.86,0,0,1-.72.32,3.8,3.8,0,1,1-4.12-6.39A3.61,3.61,0,0,1,715.13,207.89Z"/><path class="cls-171" d="M662.13,381.27a3.77,3.77,0,1,1-2.39,5.07A4.06,4.06,0,0,1,662.13,381.27Z"/><path class="cls-171" d="M715.13,207.89a3.78,3.78,0,0,1,3.76,6.55,3.86,3.86,0,0,1-.72.32,3.8,3.8,0,1,1-4.12-6.39A3.61,3.61,0,0,1,715.13,207.89Z"/><path class="cls-171" d="M441.1.45a4,4,0,0,1,5.42,1.69,4.34,4.34,0,1,1-8,3.45h0A4,4,0,0,1,441,.48Z"/><path class="cls-171" d="M143.41,46.48A3.78,3.78,0,1,1,141,51.55,4.05,4.05,0,0,1,143.41,46.48Z"/><path class="cls-171" d="M215.73,363.75a3.78,3.78,0,1,1-2.53,5.07A4,4,0,0,1,215.73,363.75Z"/><path class="cls-171" d="M143.41,46.48A3.78,3.78,0,1,1,141,51.55,4.05,4.05,0,0,1,143.41,46.48Z"/><path class="cls-171" d="M171.47,163.51a3.78,3.78,0,1,1-2.38,5.07A4,4,0,0,1,171.47,163.51Z"/><path class="cls-171" d="M143.41,46.48A3.78,3.78,0,1,1,141,51.55,4.05,4.05,0,0,1,143.41,46.48Z"/><path class="cls-171" d="M2.73,214.61a4.06,4.06,0,0,1,5.43,1.7,4.06,4.06,0,0,1-2.54,5.07A4,4,0,0,1,.2,219.65,4,4,0,0,1,2.73,214.61Z"/><path class="cls-171" d="M143.41,46.48A3.78,3.78,0,1,1,141,51.55,4.05,4.05,0,0,1,143.41,46.48Z"/><path class="cls-171" d="M316.89,99.23a3.78,3.78,0,1,1-2.38,5.07A4,4,0,0,1,316.89,99.23Z"/><path class="cls-171" d="M143.41,46.48A3.78,3.78,0,1,1,141,51.55,4.05,4.05,0,0,1,143.41,46.48Z"/></g></g></svg>