<svg xmlns="http://www.w3.org/2000/svg" xmlns:xlink="http://www.w3.org/1999/xlink" viewBox="0 0 2178.23 1304.99"><defs><style>.cls-1{fill:url(#linear-gradient);}.cls-2{fill:#91b3fa;}.cls-16,.cls-3,.cls-82{fill:#fff;}.cls-3{opacity:0.57;}.cls-4{fill:#bdd0fb;}.cls-5{fill:#7d97f4;}.cls-6{fill:url(#linear-gradient-2);}.cls-7{fill:url(#linear-gradient-3);}.cls-8{fill:url(#linear-gradient-4);}.cls-9{fill:url(#linear-gradient-5);}.cls-10{fill:url(#linear-gradient-6);}.cls-11{fill:url(#linear-gradient-7);}.cls-12{fill:url(#linear-gradient-8);}.cls-13{fill:url(#linear-gradient-9);}.cls-14{fill:url(#linear-gradient-10);}.cls-15{opacity:0.72;}.cls-17{fill:url(#linear-gradient-11);}.cls-18{fill:url(#linear-gradient-12);}.cls-19{fill:url(#linear-gradient-13);}.cls-20{fill:url(#linear-gradient-14);}.cls-21{fill:url(#linear-gradient-15);}.cls-22{fill:url(#linear-gradient-16);}.cls-23{fill:url(#linear-gradient-17);}.cls-24{fill:url(#linear-gradient-18);}.cls-25{fill:url(#linear-gradient-19);}.cls-26{fill:url(#linear-gradient-20);}.cls-27{fill:url(#linear-gradient-21);}.cls-28{fill:url(#linear-gradient-22);}.cls-29{fill:url(#linear-gradient-23);}.cls-30{fill:url(#linear-gradient-24);}.cls-31{fill:url(#linear-gradient-25);}.cls-32{fill:url(#linear-gradient-26);}.cls-33{fill:url(#linear-gradient-27);}.cls-34{fill:url(#linear-gradient-28);}.cls-35{fill:url(#linear-gradient-29);}.cls-36{fill:url(#linear-gradient-30);}.cls-37{fill:url(#linear-gradient-31);}.cls-38{fill:url(#linear-gradient-32);}.cls-39{fill:url(#linear-gradient-33);}.cls-40{fill:url(#linear-gradient-34);}.cls-41{fill:url(#linear-gradient-35);}.cls-42{fill:url(#linear-gradient-36);}.cls-43{fill:url(#linear-gradient-37);}.cls-44{fill:url(#linear-gradient-38);}.cls-45{fill:url(#linear-gradient-39);}.cls-46{fill:url(#linear-gradient-40);}.cls-47{fill:url(#linear-gradient-41);}.cls-48{fill:url(#linear-gradient-42);}.cls-49{fill:url(#linear-gradient-43);}.cls-50{fill:url(#linear-gradient-44);}.cls-51{fill:url(#linear-gradient-45);}.cls-52{fill:url(#linear-gradient-46);}.cls-53{fill:url(#linear-gradient-47);}.cls-54{fill:url(#linear-gradient-48);}.cls-55{fill:url(#linear-gradient-49);}.cls-56{fill:url(#linear-gradient-50);}.cls-57{fill:url(#linear-gradient-51);}.cls-58{fill:url(#linear-gradient-52);}.cls-59{fill:url(#linear-gradient-53);}.cls-60{fill:url(#linear-gradient-54);}.cls-61{fill:url(#linear-gradient-55);}.cls-62{fill:url(#linear-gradient-56);}.cls-63{fill:url(#linear-gradient-57);}.cls-64{fill:url(#linear-gradient-58);}.cls-65{fill:url(#linear-gradient-59);}.cls-66{fill:url(#linear-gradient-60);}.cls-67{fill:url(#linear-gradient-61);}.cls-68{fill:url(#linear-gradient-62);}.cls-69{fill:url(#linear-gradient-63);}.cls-70{fill:url(#linear-gradient-64);}.cls-71{fill:url(#linear-gradient-65);}.cls-72{fill:url(#linear-gradient-66);}.cls-73{fill:url(#linear-gradient-67);}.cls-74{fill:url(#linear-gradient-68);}.cls-75{fill:url(#linear-gradient-69);}.cls-76{fill:url(#linear-gradient-70);}.cls-77{fill:url(#linear-gradient-71);}.cls-78{fill:url(#linear-gradient-72);}.cls-79{fill:url(#linear-gradient-73);}.cls-80{fill:url(#linear-gradient-74);}.cls-81{fill:url(#linear-gradient-75);}.cls-82{opacity:0.6;}.cls-83{fill:url(#linear-gradient-76);}.cls-84{fill:url(#linear-gradient-77);}.cls-85{fill:url(#linear-gradient-78);}.cls-86{fill:url(#linear-gradient-79);}.cls-87{fill:url(#linear-gradient-80);}.cls-88{fill:url(#linear-gradient-81);}.cls-89{fill:url(#linear-gradient-82);}.cls-90{fill:url(#linear-gradient-83);}</style><linearGradient id="linear-gradient" y1="639.16" x2="2178.23" y2="639.16" gradientUnits="userSpaceOnUse"><stop offset="0" stop-color="#dae3fe"/><stop offset="1" stop-color="#e9effd"/></linearGradient><linearGradient id="linear-gradient-2" x1="1132.79" y1="1086.06" x2="1080.87" y2="1428.74" gradientUnits="userSpaceOnUse"><stop offset="0" stop-color="#09005d"/><stop offset="1" stop-color="#1a0f91"/></linearGradient><linearGradient id="linear-gradient-3" x1="1112.29" y1="1240.36" x2="1001.55" y2="1643.8" gradientUnits="userSpaceOnUse"><stop offset="0" stop-color="#4042e2"/><stop offset="1" stop-color="#4f52ff"/></linearGradient><linearGradient id="linear-gradient-4" x1="1108.19" y1="1239.24" x2="997.45" y2="1642.67" xlink:href="#linear-gradient-3"/><linearGradient id="linear-gradient-5" x1="1097.9" y1="1236.41" x2="987.15" y2="1639.85" xlink:href="#linear-gradient-3"/><linearGradient id="linear-gradient-6" x1="1095.14" y1="1235.66" x2="984.39" y2="1639.09" xlink:href="#linear-gradient-3"/><linearGradient id="linear-gradient-7" x1="1082.43" y1="1094.67" x2="1151.43" y2="233.59" gradientUnits="userSpaceOnUse"><stop offset="0" stop-color="#fe7062"/><stop offset="1" stop-color="#ff928e"/></linearGradient><linearGradient id="linear-gradient-8" x1="1189.03" y1="787.25" x2="1213.9" y2="1577.17" gradientUnits="userSpaceOnUse"><stop offset="0" stop-color="#e1473d"/><stop offset="1" stop-color="#e9605a"/></linearGradient><linearGradient id="linear-gradient-9" x1="1052.08" y1="791.56" x2="1076.94" y2="1581.48" xlink:href="#linear-gradient-8"/><linearGradient id="linear-gradient-10" x1="1037.1" y1="641.24" x2="1215.44" y2="641.24" xlink:href="#linear-gradient-8"/><linearGradient id="linear-gradient-11" x1="-1350.44" y1="2641.65" x2="-1027.06" y2="2641.65" gradientTransform="matrix(-0.88, 0.48, -0.48, -0.88, 1193.43, 3376.05)" xlink:href="#linear-gradient-3"/><linearGradient id="linear-gradient-12" x1="-567.12" y1="3117.65" x2="-408.85" y2="2700.39" gradientTransform="translate(643.8 3666.59) rotate(170.17)" xlink:href="#linear-gradient-3"/><linearGradient id="linear-gradient-13" x1="-1658.36" y1="2273.06" x2="-1493.27" y2="1837.83" gradientTransform="matrix(-0.88, 0.48, -0.48, -0.88, 1193.43, 3376.05)" xlink:href="#linear-gradient-3"/><linearGradient id="linear-gradient-14" x1="1543.74" y1="753.31" x2="1629.09" y2="930.84" xlink:href="#linear-gradient-3"/><linearGradient id="linear-gradient-15" x1="-5059.55" y1="786.56" x2="-4996.79" y2="929.37" gradientTransform="translate(6534.44)" gradientUnits="userSpaceOnUse"><stop offset="0" stop-color="#ff928e"/><stop offset="1" stop-color="#feb3b1"/></linearGradient><linearGradient id="linear-gradient-16" x1="-4865.27" y1="1282.92" x2="-4836.46" y2="1282.92" gradientTransform="translate(6534.44)" xlink:href="#linear-gradient-3"/><linearGradient id="linear-gradient-17" x1="-4987" y1="1396.52" x2="-4945.54" y2="912" xlink:href="#linear-gradient-15"/><linearGradient id="linear-gradient-18" x1="-4999.11" y1="1277.66" x2="-4952.49" y2="1277.66" gradientTransform="translate(6534.44)" xlink:href="#linear-gradient-3"/><linearGradient id="linear-gradient-19" x1="-4903.6" y1="1403.73" x2="-4862.14" y2="919.08" xlink:href="#linear-gradient-15"/><linearGradient id="linear-gradient-20" x1="-4992.49" y1="877.68" x2="-4849.43" y2="1374.41" gradientTransform="translate(6534.44)" xlink:href="#linear-gradient-8"/><linearGradient id="linear-gradient-21" x1="-5018.63" y1="860.13" x2="-4875.57" y2="1356.86" gradientTransform="translate(6534.44)" xlink:href="#linear-gradient-2"/><linearGradient id="linear-gradient-22" x1="1554.23" y1="824.45" x2="1547.23" y2="921.95" gradientTransform="matrix(1, 0, 0, 1, 0, 0)" xlink:href="#linear-gradient-15"/><linearGradient id="linear-gradient-23" x1="-790.67" y1="-2370.46" x2="-852.17" y2="-2323.96" xlink:href="#linear-gradient-15"/><linearGradient id="linear-gradient-24" x1="1541.36" y1="754.45" x2="1626.72" y2="931.98" xlink:href="#linear-gradient-3"/><linearGradient id="linear-gradient-25" x1="-782.37" y1="-2359.49" x2="-843.87" y2="-2312.99" xlink:href="#linear-gradient-15"/><linearGradient id="linear-gradient-26" x1="-5076.43" y1="781.83" x2="-5033.08" y2="880.46" xlink:href="#linear-gradient-15"/><linearGradient id="linear-gradient-27" x1="8183.57" y1="6788.07" x2="8282.23" y2="6788.07" gradientTransform="translate(11257.59 -3433.73) rotate(116.55)" xlink:href="#linear-gradient-15"/><linearGradient id="linear-gradient-28" x1="-362.18" y1="811.82" x2="54.77" y2="811.82" gradientTransform="matrix(-1, 0, 0, 1, 1087.46, 0)" xlink:href="#linear-gradient-3"/><linearGradient id="linear-gradient-29" x1="1676.79" y1="1043.86" x2="1948.78" y2="1043.86" gradientTransform="translate(-1061.36)" xlink:href="#linear-gradient-2"/><linearGradient id="linear-gradient-30" x1="1800.35" y1="1043.46" x2="2034.51" y2="1043.46" gradientTransform="translate(-1061.36)" xlink:href="#linear-gradient-2"/><linearGradient id="linear-gradient-31" x1="1892.78" y1="883.77" x2="1990.28" y2="883.77" gradientTransform="translate(-1061.36)" xlink:href="#linear-gradient-2"/><linearGradient id="linear-gradient-32" x1="1868.64" y1="939.71" x2="1966.15" y2="939.71" gradientTransform="translate(-1061.36)" xlink:href="#linear-gradient-2"/><linearGradient id="linear-gradient-33" x1="1831.07" y1="1006.7" x2="1934.33" y2="1006.7" gradientTransform="translate(-1061.36)" xlink:href="#linear-gradient-2"/><linearGradient id="linear-gradient-34" x1="1920.92" y1="829.51" x2="2014.28" y2="829.51" gradientTransform="translate(-1061.36)" xlink:href="#linear-gradient-2"/><linearGradient id="linear-gradient-35" x1="1791.06" y1="1083.77" x2="1902.63" y2="1083.77" gradientTransform="translate(-1061.36)" xlink:href="#linear-gradient-2"/><linearGradient id="linear-gradient-36" x1="1758.96" y1="1143.55" x2="1878.11" y2="1143.55" gradientTransform="translate(-1061.36)" xlink:href="#linear-gradient-2"/><linearGradient id="linear-gradient-37" x1="1827.86" y1="1044.4" x2="1822.09" y2="1086.9" gradientTransform="translate(-1061.36)" xlink:href="#linear-gradient-2"/><linearGradient id="linear-gradient-38" x1="1825.68" y1="1076.48" x2="1812.36" y2="1161.11" gradientTransform="translate(-1061.36)" gradientUnits="userSpaceOnUse"><stop offset="0" stop-color="#020039"/><stop offset="1" stop-color="#090056"/></linearGradient><linearGradient id="linear-gradient-39" x1="1802.51" y1="1052.4" x2="1819.62" y2="1052.4" gradientTransform="translate(-1061.36)" xlink:href="#linear-gradient-15"/><linearGradient id="linear-gradient-40" x1="1875.81" y1="992.24" x2="1836.27" y2="1025.32" xlink:href="#linear-gradient-38"/><linearGradient id="linear-gradient-41" x1="1862.63" y1="983.91" x2="1907.2" y2="983.91" gradientTransform="translate(-1061.36)" xlink:href="#linear-gradient-2"/><linearGradient id="linear-gradient-42" x1="1874.02" y1="957.2" x2="1898.05" y2="957.2" gradientTransform="translate(-1061.36)" xlink:href="#linear-gradient-15"/><linearGradient id="linear-gradient-43" x1="1925.86" y1="847.83" x2="1750.47" y2="1003.41" gradientTransform="translate(-1061.36)" xlink:href="#linear-gradient-3"/><linearGradient id="linear-gradient-44" x1="1822.03" y1="931.38" x2="1854.2" y2="862.72" gradientTransform="translate(-1061.36)" xlink:href="#linear-gradient-3"/><linearGradient id="linear-gradient-45" x1="851.34" y1="697.88" x2="904.67" y2="852.55" xlink:href="#linear-gradient-2"/><linearGradient id="linear-gradient-46" x1="888.33" y1="599.73" x2="817.33" y2="741.73" gradientTransform="matrix(1, 0, 0, 1, 0, 0)" xlink:href="#linear-gradient-15"/><linearGradient id="linear-gradient-47" x1="962.88" y1="624.67" x2="790.22" y2="794" xlink:href="#linear-gradient-2"/><linearGradient id="linear-gradient-48" x1="851" y1="710.83" x2="882.21" y2="710.83" xlink:href="#linear-gradient-3"/><linearGradient id="linear-gradient-49" x1="-4182.03" y1="566.62" x2="-4239.32" y2="642.41" gradientTransform="translate(4268.77 -1909.15) rotate(-28.83)" xlink:href="#linear-gradient-15"/><linearGradient id="linear-gradient-50" x1="-4225.78" y1="584.9" x2="-4157.34" y2="584.9" gradientTransform="translate(4268.77 -1909.15) rotate(-28.83)" xlink:href="#linear-gradient-2"/><linearGradient id="linear-gradient-51" x1="-4265.94" y1="626.64" x2="-4219.99" y2="579.49" gradientTransform="translate(4268.77 -1909.15) rotate(-28.83)" xlink:href="#linear-gradient-15"/><linearGradient id="linear-gradient-52" x1="1041.69" y1="490.73" x2="1025.69" y2="566.73" gradientTransform="matrix(1, 0, 0, 1, 0, 0)" xlink:href="#linear-gradient-15"/><linearGradient id="linear-gradient-53" x1="970.88" y1="664.55" x2="934.88" y2="775.55" gradientTransform="matrix(1, 0, 0, 1, 0, 0)" xlink:href="#linear-gradient-15"/><linearGradient id="linear-gradient-54" x1="2507.58" y1="1243.55" x2="2323.58" y2="1443.7" gradientTransform="translate(-1941.26)" xlink:href="#linear-gradient-2"/><linearGradient id="linear-gradient-55" x1="2447.86" y1="1258.42" x2="2464.2" y2="1258.42" gradientTransform="translate(-1941.26)" xlink:href="#linear-gradient-15"/><linearGradient id="linear-gradient-56" x1="2375.52" y1="1208.41" x2="2639.53" y2="882.16" gradientTransform="translate(-1941.26)" xlink:href="#linear-gradient-3"/><linearGradient id="linear-gradient-57" x1="2466.31" y1="1205.6" x2="2282.3" y2="1405.75" gradientTransform="translate(-1941.26)" xlink:href="#linear-gradient-2"/><linearGradient id="linear-gradient-58" x1="2388.96" y1="1257.58" x2="2403.07" y2="1257.58" gradientTransform="translate(-1941.26)" xlink:href="#linear-gradient-15"/><linearGradient id="linear-gradient-59" x1="2349.63" y1="1187.46" x2="2613.64" y2="861.21" gradientTransform="translate(-1941.26)" xlink:href="#linear-gradient-3"/><linearGradient id="linear-gradient-60" x1="1599.23" y1="1697.94" x2="1470.23" y2="1817.94" gradientTransform="translate(-1941.26)" xlink:href="#linear-gradient-7"/><linearGradient id="linear-gradient-61" x1="2515.12" y1="832.02" x2="2598.61" y2="832.02" gradientTransform="translate(-1941.26)" xlink:href="#linear-gradient-15"/><linearGradient id="linear-gradient-62" x1="10234.8" y1="818.02" x2="10290.83" y2="945.5" gradientTransform="matrix(-1, 0, 0, 1, 10873.56, 0)" xlink:href="#linear-gradient-15"/><linearGradient id="linear-gradient-63" x1="613.83" y1="842.54" x2="664.49" y2="763.87" gradientTransform="matrix(1, 0, 0, 1, 0, 0)" xlink:href="#linear-gradient-15"/><linearGradient id="linear-gradient-64" x1="1558.91" y1="1654.61" x2="1429.91" y2="1774.61" gradientTransform="translate(-1941.26)" xlink:href="#linear-gradient-7"/><linearGradient id="linear-gradient-65" x1="2332.4" y1="950.29" x2="2438.07" y2="950.29" gradientTransform="translate(-1941.26)" xlink:href="#linear-gradient-15"/><linearGradient id="linear-gradient-66" x1="2470.04" y1="875.17" x2="2528.14" y2="1117.27" gradientTransform="translate(-1941.26)" xlink:href="#linear-gradient-2"/><linearGradient id="linear-gradient-67" x1="2506.42" y1="837" x2="2494.04" y2="891.35" gradientTransform="translate(-1941.26)" xlink:href="#linear-gradient-3"/><linearGradient id="linear-gradient-68" x1="2499.94" y1="859.8" x2="2494.02" y2="895.31" gradientTransform="translate(-1941.26)" xlink:href="#linear-gradient-3"/><linearGradient id="linear-gradient-69" x1="2430.23" y1="939.21" x2="2463.15" y2="939.21" gradientTransform="translate(-1941.26)" xlink:href="#linear-gradient-15"/><linearGradient id="linear-gradient-70" x1="498.92" y1="813.47" x2="482.25" y2="894.14" gradientTransform="matrix(1, 0, 0, 1, 0, 0)" xlink:href="#linear-gradient-15"/><linearGradient id="linear-gradient-71" x1="-11.46" y1="4540.96" x2="-60.12" y2="4481.62" gradientTransform="matrix(0.75, -0.67, 0.67, 0.75, 3825.29, -1603.81)" xlink:href="#linear-gradient-15"/><linearGradient id="linear-gradient-72" x1="-4084.95" y1="-486.81" x2="-4071.89" y2="-412.32" gradientTransform="matrix(0.75, -0.67, 0.67, 0.75, 3825.29, -1603.81)" xlink:href="#linear-gradient-2"/><linearGradient id="linear-gradient-73" x1="-18.33" y1="4546.64" x2="-67" y2="4487.3" gradientTransform="matrix(0.75, -0.67, 0.67, 0.75, 3825.29, -1603.81)" xlink:href="#linear-gradient-15"/><linearGradient id="linear-gradient-74" x1="2512.36" y1="1676.18" x2="2411.23" y2="1844.72" gradientTransform="translate(-2852.35 -2361.62) rotate(52.97)" xlink:href="#linear-gradient-8"/><linearGradient id="linear-gradient-75" x1="2433.98" y1="1629.14" x2="2332.85" y2="1797.69" gradientTransform="translate(-2852.35 -2361.62) rotate(52.97)" xlink:href="#linear-gradient-7"/><linearGradient id="linear-gradient-76" x1="2536.56" y1="1690.7" x2="2435.43" y2="1859.24" gradientTransform="translate(-2852.35 -2361.62) rotate(52.97)" xlink:href="#linear-gradient-7"/><linearGradient id="linear-gradient-77" x1="2696.19" y1="-3433.63" x2="2745.03" y2="-2941.75" gradientTransform="translate(-1406.16 -2918.58) rotate(95.88)" xlink:href="#linear-gradient-2"/><linearGradient id="linear-gradient-78" x1="4738.83" y1="-2274.68" x2="4650.17" y2="-2146.44" gradientTransform="translate(-2852.35 -2361.62) rotate(52.97)" xlink:href="#linear-gradient-7"/><linearGradient id="linear-gradient-79" x1="4678.86" y1="-2165.18" x2="4735.15" y2="-2165.18" gradientTransform="translate(-2852.35 -2361.62) rotate(52.97)" xlink:href="#linear-gradient-2"/><linearGradient id="linear-gradient-80" x1="1703.33" y1="79.46" x2="1731.82" y2="79.46" xlink:href="#linear-gradient"/><linearGradient id="linear-gradient-81" x1="4688.07" y1="-2098.72" x2="4725.26" y2="-2098.72" gradientTransform="translate(-2852.35 -2361.62) rotate(52.97)" xlink:href="#linear-gradient-2"/><linearGradient id="linear-gradient-82" x1="1652.48" y1="123.44" x2="1671.79" y2="123.44" xlink:href="#linear-gradient"/><linearGradient id="linear-gradient-83" x1="882.24" y1="551.35" x2="891.03" y2="551.35" gradientTransform="matrix(1, 0, 0, 1, 0, 0)" xlink:href="#linear-gradient-15"/></defs><g id="Layer_2" data-name="Layer 2"><g id="Illustration"><path class="cls-1" d="M432.65,117c-169,137.58,11.59,219.41-105.42,296.5S-274.38,641,213.63,939.24s512.69,443.14,861.07,254.27,312.06-170,598.75-42.33,586.33-71,484.45-306.73-166.74-232.82-50.41-383.38-67.28-622-486.67-325.13c-151.64,107.34-387.59,157.13-556.93-10.3C972.21,35,699.67-100.43,432.65,117Z"/><path class="cls-2" d="M1053.92,1144.42c-15.65-21.6-36.83-36-58.11-41.52a75.86,75.86,0,0,1-45.75-33.79q-1.6-2.65-3.47-5.23c-18.83-26-50-35.54-69.57-21.34s-20.21,46.77-1.38,72.76a75.44,75.44,0,0,0,12.89,13.81,76.27,76.27,0,0,1,27.35,49c2.15,17.19,9,35.07,20.79,51.27,17.51,24.16,41.92,39.27,65.65,43.12a74.46,74.46,0,0,1,25.52,9.11c13.07,7.6,28.14,8.25,39.14.28,11.86-8.6,15.67-24.82,11-40.77a79.4,79.4,0,0,1-2.78-27.82C1076.79,1191.17,1069.75,1166.27,1053.92,1144.42Z"/><path class="cls-3" d="M903.91,1065.21c15,15.32,29.5,31.11,43.84,47,3.59,4,7.11,8,10.64,12l5.3,6,5.25,6.09c3.49,4.08,7,8.1,10.47,12.21L989.73,1161c6.77,8.31,13.61,16.56,20.23,25,3.32,4.21,6.71,8.36,9.94,12.64l9.75,12.79c12.82,17.19,25.22,34.71,36.71,52.82l-.78.5-9.11-13.22-2.27-3.31-2.35-3.25-4.72-6.5-4.7-6.5c-1.56-2.18-3.21-4.29-4.81-6.43-3.23-4.27-6.42-8.56-9.68-12.81q-19.7-25.37-40.19-50.09c-6.91-8.18-13.76-16.41-20.73-24.54l-5.21-6.11-5.26-6.06c-3.51-4.05-7-8.09-10.56-12.11q-10.53-12.12-21.25-24.08t-21.5-23.88Z"/><path class="cls-4" d="M1149.15,1106.17c-6.77-37.43-25.14-69-49.1-89.24a108,108,0,0,1-38-71.65q-.43-4.41-1.24-8.86c-8.14-45-42.33-76.53-76.36-70.37s-55,47.65-46.85,92.66a106.77,106.77,0,0,0,8,25.71c11.55,25.11,13.66,53.67,4.85,79.88-7.88,23.41-10.07,50.66-5,78.72,7.57,41.86,29.65,76.34,57.82,95.94a106.34,106.34,0,0,1,27.22,27.45c12.12,17.83,31.12,28,50.22,24.51,20.61-3.73,35.57-22.23,39.48-45.59a113.17,113.17,0,0,1,13.66-37.47C1149.63,1180.37,1156,1144,1149.15,1106.17Z"/><path class="cls-3" d="M1005.06,911.79c9.82,28.94,18.72,58.19,27.3,87.52,2.15,7.33,4.18,14.7,6.24,22.06l3.08,11,3,11.06c2,7.39,4,14.74,5.91,22.15l5.64,22.22c3.57,14.86,7.27,29.69,10.57,44.62,1.66,7.46,3.46,14.89,5,22.38l4.62,22.46c5.86,30,11,60.18,14.55,90.54l-1.31.17-3.54-22.62-.87-5.65-1-5.64-2-11.26-2-11.26c-.67-3.75-1.48-7.48-2.21-11.23-1.51-7.48-3-15-4.53-22.43-6.44-29.84-13.27-59.59-20.72-89.19-3.84-14.77-7.55-29.58-11.49-44.32l-2.93-11.07-3-11c-2-7.37-4-14.73-6.1-22.08q-6.06-22.08-12.45-44.07c-4.18-14.68-8.51-29.33-12.88-44Z"/><path class="cls-2" d="M1185.88,1147.13c15.49-21,36.32-34.91,57.19-40.17a74.27,74.27,0,0,0,45-32.7q1.59-2.58,3.44-5.09c18.63-25.28,49.18-34.38,68.23-20.34s19.41,45.93.78,71.2a73.76,73.76,0,0,1-12.72,13.42,74.54,74.54,0,0,0-27.14,47.74c-2.24,16.8-9.14,34.24-20.75,50-17.32,23.5-41.33,38.09-64.58,41.67a73.09,73.09,0,0,0-25,8.71c-12.84,7.34-27.59,7.85-38.29,0-11.55-8.5-15.15-24.4-10.48-40a78.05,78.05,0,0,0,2.93-27.2C1163.14,1192.69,1170.22,1168.38,1185.88,1147.13Z"/><path class="cls-3" d="M1333.28,1070.81c-14.8,14.87-29.11,30.2-43.26,45.68-3.54,3.87-7,7.8-10.51,11.71l-5.23,5.87-5.19,5.92c-3.44,4-6.94,7.87-10.33,11.86l-10.2,12c-6.69,8.08-13.45,16.1-20,24.3-3.28,4.1-6.63,8.13-9.83,12.29l-9.64,12.45c-12.68,16.71-24.95,33.76-36.33,51.39l.75.49,9-12.86,2.25-3.22,2.33-3.17,4.66-6.32,4.66-6.33c1.54-2.11,3.17-4.16,4.75-6.25,3.19-4.15,6.35-8.32,9.57-12.45q19.48-24.66,39.73-48.7c6.82-7.94,13.58-15.94,20.47-23.84l5.15-5.94,5.19-5.89q5.19-5.89,10.43-11.76,10.39-11.77,21-23.4t21.22-23.2Z"/><path class="cls-4" d="M1090.82,1114c6.41-35.37,23.77-65.18,46.41-84.33a102,102,0,0,0,35.89-67.72c.28-2.77.66-5.57,1.17-8.38,7.7-42.54,40-72.31,72.17-66.5s52,45,44.28,87.58a101,101,0,0,1-7.6,24.29c-10.92,23.73-12.91,50.72-4.58,75.49,7.45,22.13,9.51,47.88,4.71,74.4-7.15,39.55-28,72.14-54.64,90.67a100.41,100.41,0,0,0-25.73,25.94c-11.45,16.85-29.41,26.43-47.46,23.16-19.48-3.53-33.61-21-37.31-43.08a107.23,107.23,0,0,0-12.91-35.42C1090.37,1184.1,1084.35,1149.75,1090.82,1114Z"/><path class="cls-3" d="M1227,930.28c-9.29,27.35-17.69,55-25.81,82.71-2,6.93-4,13.89-5.89,20.85l-2.91,10.43-2.83,10.46c-1.86,7-3.81,13.93-5.58,20.93l-5.34,21c-3.37,14-6.87,28.06-10,42.17-1.57,7.05-3.28,14.07-4.7,21.15l-4.37,21.23c-5.54,28.36-10.37,56.87-13.75,85.56l1.24.16,3.34-21.37.83-5.35,1-5.32,1.93-10.64,1.92-10.65c.63-3.55,1.39-7.07,2.08-10.61,1.43-7.07,2.81-14.15,4.28-21.2,6.09-28.2,12.55-56.31,19.59-84.29,3.63-14,7.13-28,10.86-41.89l2.76-10.46,2.85-10.44c1.9-7,3.8-13.91,5.77-20.85Q1210,993,1216,972.2c4-13.87,8-27.72,12.17-41.54Z"/><path class="cls-4" d="M150.22,344.44c-16.17,2.67-32.83,8.9-40.08,18.16-32.75,41.8.56,111.4,9.45,155.63,15.27,76,13.35,156-14.21,229C75.52,826.33,53,905.21,51.47,990.56c-.81,44,5.18,91.62,28.28,130.19,43.66,72.86,182.51,56.35,218.42-13.14,28.64-55.42,29.49-120.11,22.68-180.63-11.47-101.82-39.29-200.92-51.4-302.62-9.27-77.77,19.81-225.78-63.74-271.41C190.43,344.61,167.37,341.6,150.22,344.44Z"/><path class="cls-2" d="M149.21,1286.29a2.91,2.91,0,0,1-1.08-.2,3.06,3.06,0,0,1-1.78-3.94c41.11-108.35,67.19-223.36,77.53-341.82a1401.23,1401.23,0,0,0-5.16-288.94C202.78,519.3,170.64,414,155.88,376.81a3.05,3.05,0,1,1,5.67-2.25c.43,1.08,43.18,110.08,63.21,275.9A1407,1407,0,0,1,230,940.72c-10.38,119.07-36.59,234.68-77.91,343.6A3,3,0,0,1,149.21,1286.29Z"/><path class="cls-2" d="M218.35,1085.72c-.45-43.06,21.71-89.29,35.65-132.79,7.37-23,12.55-46.13,12.11-70.41s-7.91-51.24,5.64-73.32c27.3-44.48,73.25-16,96.28,23.65,26.72,46,26.07,114.9,31.08,168.74,3,32.46,9.71,66.25,9.12,98.81-1,53.93-18.15,89-47,110.32a77.52,77.52,0,0,1-92.85-.66C243.6,1191.29,219.07,1155.18,218.35,1085.72Z"/><path class="cls-5" d="M303,1298.57a2.89,2.89,0,0,1-.92-.14,3.05,3.05,0,0,1-2-3.83c.79-2.48,78.06-250.7,24.48-465.9a3.05,3.05,0,0,1,5.93-1.47c15.58,62.58,29.65,168.36,8.19,316.91-12.82,88.79-32.58,151.68-32.78,152.3A3.06,3.06,0,0,1,303,1298.57Z"/><path class="cls-4" d="M2053.61,798.59c-9.09-18.93-15.59-38.75-17.11-60.33-3.82-54.37,27.79-104.44,51-151.25,21.34-43,37.2-107.14-34.81-101.43-57.37,4.54-124.81,61.71-132.51,121.33-9.1,70.56,25.25,159.54-15.48,223.63-57,89.66-98.07,69.12-98.07,220.42,0,64.66,35.81,100.32,76.83,120A171.66,171.66,0,0,0,2077,1139.48c45.57-44.1,72.66-107.5,63.5-171.15C2131.24,904,2080.82,855.29,2053.61,798.59Z"/><path class="cls-2" d="M2005.47,1286.25a3.2,3.2,0,0,1-3.1-2.42c-35.71-142.54-55.15-271.76-57.77-384.08-2.11-90,6.51-169.41,25.62-236.07,17-59.49,39.49-97.63,55.31-119.15,17.28-23.51,30.44-32.78,31-33.16a3.2,3.2,0,0,1,3.65,5.25h0c-.13.09-13.11,9.28-29.87,32.21-15.49,21.19-37.46,58.77-54.18,117.46-18.81,66.05-27.26,144.8-25.12,234.07,2.69,111.66,22.06,240.16,57.57,381.92a3.2,3.2,0,0,1-2.32,3.88A3.46,3.46,0,0,1,2005.47,1286.25Z"/><path class="cls-4" d="M2110.77,639.08a23.94,23.94,0,0,0-9.07-.61c-17.94,2.06-25.31,21-30.58,35.78-4.52,12.67-9.84,28.06-7.17,41.78,2.88,14.85,18.64,27,30.08,11.88,13-17.13,32.51-43.43,32.62-66.12C2126.71,650.5,2120.38,641.69,2110.77,639.08Z"/><path class="cls-2" d="M1915.59,1094.78c6.33-41.73-8.84-89.63-16.4-133.75-4-23.33-5.86-46.48-2.11-70s14.71-48.64,4.58-71.92c-20.4-46.9-68.89-25.56-96.67,9.75-32.23,41-41,107.93-53.29,159.49-7.38,31.08-18.5,63-22.39,94.63-6.45,52.47,5.41,88.9,30.51,113.5a76,76,0,0,0,90.19,12.08C1876.61,1193.77,1905.37,1162.09,1915.59,1094.78Z"/><path class="cls-5" d="M1804.64,1289.52a2.75,2.75,0,0,1-2.71-2.3c-.11-.63-10.66-64.35-10.94-152.25-.26-81.16,8.45-200.19,51.37-306.32a2.76,2.76,0,1,1,5.11,2.07C1824,888.84,1796,988.8,1796.5,1135c.28,87.45,10.76,150.72,10.87,151.35a2.75,2.75,0,0,1-2.26,3.17A2.49,2.49,0,0,1,1804.64,1289.52Z"/><path class="cls-6" d="M1252.59,1112.31c-.45-5.6-6.16-10.44-15.84-14.33,10.52-5.8,16.33-12,15.84-18.11-1.48-18.45-59.91-28.79-130.49-23.1S995.51,1082,997,1100.48c.45,5.59,6.17,10.44,15.85,14.32-10.52,5.8-16.34,12-15.85,18.11.45,5.6,6.17,10.44,15.85,14.32-10.52,5.8-16.34,12-15.85,18.12.45,5.59,6.17,10.44,15.85,14.32-10.52,5.8-16.34,12-15.85,18.11.66,8.16,12.47,14.73,31.53,19a163.44,163.44,0,0,0,.48,19.93c2.76,34,41,60.65,91.57,60.65s94.34-36.34,94.84-70.44a171.79,171.79,0,0,0-1-22.25c24.2-8.08,38.94-18,38.16-27.53-.45-5.59-6.16-10.44-15.84-14.32,10.52-5.8,16.33-12,15.84-18.11-.45-5.6-6.16-10.44-15.84-14.32C1247.27,1124.62,1253.08,1118.4,1252.59,1112.31Z"/><path class="cls-7" d="M1089.45,1224.15c-21,0-40.15-1.54-56-4.57a1.71,1.71,0,0,1-1.35-2,1.69,1.69,0,0,1,2-1.34c24.79,4.74,57.91,5.79,93.25,2.94,28.92-2.33,56-7,78.22-13.49a1.7,1.7,0,0,1,1,3.26c-22.47,6.55-49.75,11.26-78.89,13.61C1114.5,1223.63,1101.67,1224.15,1089.45,1224.15Z"/><path class="cls-8" d="M1089.8,1191.69c-27.24,0-51.57-2.56-68.74-7.45a1.71,1.71,0,0,1-1.17-2.1,1.69,1.69,0,0,1,2.1-1.16c24.46,7,63.85,9.12,105.36,5.78,41.07-3.31,79.37-11.65,102.46-22.29a1.69,1.69,0,1,1,1.42,3.07c-23.43,10.81-62.16,19.25-103.6,22.6C1114.69,1191.18,1102,1191.69,1089.8,1191.69Z"/><path class="cls-9" d="M1089.45,1159.28c-29.41,0-55.14-3-72.46-8.72a1.69,1.69,0,1,1,1.06-3.22c24.11,8,65,10.56,109.3,7,41.07-3.31,79.37-11.64,102.46-22.29a1.7,1.7,0,1,1,1.42,3.08c-23.43,10.8-62.16,19.25-103.6,22.59C1114.5,1158.76,1101.66,1159.28,1089.45,1159.28Z"/><path class="cls-10" d="M1089.68,1126.83c-23.33,0-44.54-1.89-61-5.55a1.7,1.7,0,1,1,.74-3.31c24.8,5.51,60.51,6.94,98,3.92,40.7-3.28,78.81-11.53,101.93-22.05a1.69,1.69,0,1,1,1.41,3.08c-23.47,10.68-62,19-103.06,22.35C1114.65,1126.31,1101.87,1126.83,1089.68,1126.83Z"/><path class="cls-11" d="M949.63,948.58a238.68,238.68,0,0,0-42.74-83.45c-42-53-110.56-160.64-119-307.63-12.27-213.79,177.34-320.83,350.36-306.3S1482,394.56,1463.31,593.46c-11.5,122.37-80,215.2-131,268.51a283.3,283.3,0,0,0-68,120.46c-15.3,55.26-51.73,124.13-138.3,128.32C1014,1116.19,967.47,1011.77,949.63,948.58Z"/><path class="cls-12" d="M1154.64,1068.12l60.54-393.76c1.25-8.13,5.25-13.6,8.94-12.2s5.66,9.12,4.41,17.26c0,.21-.08.48-.12.69l-69,390.1c-.51,2.94-2,4.79-3.32,4.14S1154.2,1071,1154.64,1068.12Z"/><path class="cls-13" d="M1091.79,1071.25l-60.54-393.76c-1.25-8.14-5.25-13.6-8.94-12.2s-5.66,9.12-4.41,17.25c0,.22.08.49.11.7l69,390.1c.52,2.93,2,4.79,3.33,4.14S1092.23,1074.09,1091.79,1071.25Z"/><path class="cls-14" d="M1214.74,640.55a6.36,6.36,0,0,0-8-2.06l-33.71,15.75-11.7-33.34a7.17,7.17,0,0,0-4.1-4.13c-3.87-1.59-8.51-.16-10.36,3.2l-.05.1-27.73,50.55-25.72-72-.05-.12a8.16,8.16,0,0,0-3.89-4.39c-4.31-2.36-10-1.24-12.73,2.5L1038,650a4.68,4.68,0,0,0,1.37,6.73,6.49,6.49,0,0,0,8.24-.9l34.13-38.06,30.72,68.45,0,0a5.48,5.48,0,0,0,2.71,2.66,6.43,6.43,0,0,0,8-2.08l29.65-47.58L1164,663.35l.1.22a4.29,4.29,0,0,0,.28.51,6.34,6.34,0,0,0,7.94,2.06l40-18.7C1215.21,646.11,1216.28,643,1214.74,640.55Z"/><g class="cls-15"><path class="cls-16" d="M1333.63,810.6a7,7,0,0,1-4.21-1.4,7.08,7.08,0,0,1-1.47-9.9,444.65,444.65,0,0,0,28.12-42.71,7.08,7.08,0,0,1,12.26,7.07,459.84,459.84,0,0,1-29,44.08A7.08,7.08,0,0,1,1333.63,810.6Z"/></g><path class="cls-17" d="M884.11,635.35a2.52,2.52,0,0,0,3-.1l24.66-18.85a135.34,135.34,0,0,0,43,8.43l15.72,26.75a2.56,2.56,0,0,0,2.71,1.21l36.5-7.38a2.54,2.54,0,0,0,2-2.16l4.11-30.75A135.7,135.7,0,0,0,1052.14,588l30,7.8a2.53,2.53,0,0,0,2.76-1.06l20.6-31a2.56,2.56,0,0,0-.1-3l-18.86-24.67a135.07,135.07,0,0,0,8.44-43l26.75-15.73a2.54,2.54,0,0,0,1.2-2.7l-7.37-36.5a2.57,2.57,0,0,0-2.17-2l-30.75-4.1a135.12,135.12,0,0,0-24.46-36.35l7.8-30.05a2.55,2.55,0,0,0-1.06-2.77l-31-20.59a2.54,2.54,0,0,0-3,.09l-24.66,18.86a135.39,135.39,0,0,0-43-8.43L947.6,326.08a2.56,2.56,0,0,0-2.71-1.21l-36.5,7.38a2.53,2.53,0,0,0-2,2.16l-4.11,30.75a135.55,135.55,0,0,0-36.35,24.47l-30-7.8a2.53,2.53,0,0,0-2.76,1.06l-20.6,31a2.56,2.56,0,0,0,.1,3l18.85,24.67a135.33,135.33,0,0,0-8.43,43l-26.75,15.73a2.54,2.54,0,0,0-1.2,2.7l7.37,36.5a2.57,2.57,0,0,0,2.16,2l30.76,4.1a135.12,135.12,0,0,0,24.46,36.35L852,612a2.56,2.56,0,0,0,1.06,2.77Z"/><path class="cls-4" d="M941.64,457.18A36.12,36.12,0,1,1,923,487.1,35.9,35.9,0,0,1,941.64,457.18Zm31.83,57.95A30,30,0,1,0,929,487.39h0a30,30,0,0,0,44.43,27.74Z"/><path class="cls-4" d="M914.71,406.81a91.23,91.23,0,0,1,8.43-4.11,92.9,92.9,0,0,1,127.45,67.11,92.93,92.93,0,0,1-122,106l2-5.76a86.82,86.82,0,1,0-56.15-64.66c.35,1.73.75,3.46,1.2,5.16a86.89,86.89,0,0,0,2.91,9c0,.06.05.13.08.19l.46,1.18q.43,1.08.9,2.13l-5.59,2.44a93.8,93.8,0,0,1-5.95-18.86h0A93.09,93.09,0,0,1,914.71,406.81Z"/><path class="cls-18" d="M585,602.91a1.71,1.71,0,0,0,1.9.58l19.79-6.57a90.46,90.46,0,0,0,25.45,14.77l4.13,20.43a1.7,1.7,0,0,0,1.45,1.36l24.8,3.31a1.69,1.69,0,0,0,1.75-.93l9.35-18.63A90.66,90.66,0,0,0,702,609.66l17.37,11.54a1.71,1.71,0,0,0,2-.07l19.87-15.19a1.72,1.72,0,0,0,.59-1.9l-6.57-19.79A91,91,0,0,0,750,558.79l20.43-4.12a1.73,1.73,0,0,0,1.36-1.45l3.31-24.8a1.74,1.74,0,0,0-.93-1.76l-18.63-9.34A90.85,90.85,0,0,0,748,488.88l11.53-17.37a1.71,1.71,0,0,0-.06-2l-15.19-19.87a1.73,1.73,0,0,0-1.91-.59l-19.79,6.57a90.94,90.94,0,0,0-25.45-14.77L693,420.43a1.71,1.71,0,0,0-1.45-1.36l-24.79-3.31a1.71,1.71,0,0,0-1.76.93l-9.34,18.63a90.78,90.78,0,0,0-28.44,7.57l-17.38-11.53a1.71,1.71,0,0,0-2,.06L588,446.61a1.72,1.72,0,0,0-.58,1.9l6.57,19.8a90.73,90.73,0,0,0-14.78,25.45l-20.42,4.13a1.69,1.69,0,0,0-1.36,1.45l-3.32,24.79a1.72,1.72,0,0,0,.94,1.76l18.62,9.34a90.79,90.79,0,0,0,7.58,28.44l-11.54,17.38a1.7,1.7,0,0,0,.07,2Z"/><path class="cls-4" d="M660.19,500.48a26.18,26.18,0,1,1-19.87,16.09h0a26,26,0,0,1,14-14.33A26.55,26.55,0,0,1,660.19,500.48Zm7.51,43.79a18.24,18.24,0,1,0-9.86-1A18.26,18.26,0,0,0,667.7,544.27Z"/><path class="cls-4" d="M654.11,462.62a63.53,63.53,0,0,1,6.49-.79h0A64.31,64.31,0,1,1,625,576.32l4.92-6.18a56.41,56.41,0,1,0-20.79-51.62h0a57.06,57.06,0,0,0-.38,11.38c0,.21,0,.42.05.63l-7.87.63a64.58,64.58,0,0,1,.37-13.68l.15-1.09A64.43,64.43,0,0,1,654.11,462.62Z"/><path class="cls-19" d="M1500,717.37a1.79,1.79,0,0,0,2.07-.07l17.28-13.21a94.74,94.74,0,0,0,30.13,5.91l11,18.74a1.8,1.8,0,0,0,1.9.84l25.57-5.16a1.8,1.8,0,0,0,1.42-1.52l2.88-21.55a94.69,94.69,0,0,0,25.46-17.14l21.06,5.47a1.79,1.79,0,0,0,1.93-.74l14.43-21.74a1.77,1.77,0,0,0-.06-2.07l-13.22-17.29a94.41,94.41,0,0,0,5.91-30.12l18.74-11a1.77,1.77,0,0,0,.85-1.89l-5.17-25.57a1.78,1.78,0,0,0-1.51-1.42l-21.55-2.88A94.75,94.75,0,0,0,1622,549.47l5.46-21.05a1.77,1.77,0,0,0-.74-1.94L1605,512.05a1.8,1.8,0,0,0-2.08.07l-17.28,13.21a94.68,94.68,0,0,0-30.12-5.91l-11-18.74a1.8,1.8,0,0,0-1.89-.84L1517,505a1.81,1.81,0,0,0-1.42,1.52l-2.87,21.55a94.59,94.59,0,0,0-25.47,17.14l-21-5.47a1.8,1.8,0,0,0-1.94.74l-14.43,21.74a1.79,1.79,0,0,0,.07,2.07l13.21,17.29a94.68,94.68,0,0,0-5.91,30.12l-18.74,11a1.77,1.77,0,0,0-.85,1.89l5.17,25.57a1.79,1.79,0,0,0,1.52,1.42l21.54,2.88A95.21,95.21,0,0,0,1483,680l-5.46,21a1.8,1.8,0,0,0,.74,1.94Z"/><path class="cls-4" d="M1539.33,590.78A27.3,27.3,0,0,1,1579.72,616a27.29,27.29,0,1,1-54.51-2.62h0a27.09,27.09,0,0,1,8.91-18.89A27.6,27.6,0,0,1,1539.33,590.78Zm22.3,40.62a19,19,0,1,0-10.08,2.34A19,19,0,0,0,1561.63,631.4Z"/><path class="cls-4" d="M1520.46,555.51a65.46,65.46,0,0,1,6.13-3l0,0a67.08,67.08,0,1,1,3.82,125l2.75-7.76a58.85,58.85,0,1,0-38.06-43.83h0a59.82,59.82,0,0,0,3.5,11.34c.09.21.17.41.26.61l-7.55,3.3a67.6,67.6,0,0,1-4.29-13.62l-.21-1.12A67.2,67.2,0,0,1,1520.46,555.51Z"/><path class="cls-20" d="M1572.78,783.17s20.11,9.78,23.8,21c3,9,25.2,10.18,27.39,27.9A20.36,20.36,0,0,0,1641,850c22.71,3.48,57.69,15.27,63.29,54.69,4.27,30.08-11.06,41.49-27.16,45.44-11.82,2.9-19.68,14.4-17.29,26.33,2.3,11.45-1.13,24.69-21,35.15C1594.43,1035,1550,956,1550,956l-9.09-138Z"/><path class="cls-21" d="M1445.94,741.72s32.58,88.82,88.1,116.58c0,0-18.48,30.15-28.12,32,0,0-59.31-75.91-65.36-138.09Z"/><path class="cls-22" d="M1669.21,1276l1.64,13.47a5.58,5.58,0,0,0,4.88,4.87,86.88,86.88,0,0,0,18,.28,4.77,4.77,0,0,0,4-6.18c-1.65-5.2-4.68-13-9-17.6h-14.94A4.6,4.6,0,0,0,1669.21,1276Z"/><path class="cls-23" d="M1552.17,1118.21l-2.52,14.84s8.45,85.55,9.95,119.77a26.75,26.75,0,0,1-4,15.24L1541,1291.91l37.32-22,.74-4.55-6.11-8.4,8-95.84a29.34,29.34,0,0,0-3.35-16.26l-7.72-14.51Z"/><path class="cls-24" d="M1538.49,1295.36h11.91a7.16,7.16,0,0,0,5.69-2.79c3.71-4.82,11.41-14.24,15.09-14.48,5-.33,4.32,17.27,4.32,17.27h2.77l3.52-21.87A13,13,0,0,0,1575,1260h0s-1.13,8.37-7.27,12.07-25,17-25,17a16.94,16.94,0,0,0-4.84.13A3.15,3.15,0,0,0,1538.49,1295.36Z"/><path class="cls-25" d="M1603.3,1125.26s49.48,93.86,57.34,115.28,10.62,39.31,10.73,41c.16,2.65,3.45,5.19,12.52,5.19,4.68,0,7-1.88,8.1-3.7a5.32,5.32,0,0,0,.2-5.12c-2.87-5.79-12-24.3-15.31-32.7-4-10-12.66-55.45-17.4-71.24s-10.09-32.93-30.72-48.71C1628.76,1125.26,1614.59,1111.39,1603.3,1125.26Z"/><path class="cls-26" d="M1572,971.47c-12.76-54.08,19.57-84.67,19.57-84.67-20.4-19.59-57.57-28.5-57.57-28.5s-35.47,25.93-31.27,46.23c2.47,11.9,24.94,71.26,24.94,71.26S1548.48,985.62,1572,971.47Z"/><path class="cls-27" d="M1600.34,998.24c-5.2-15.64-28.3-26.77-28.3-26.77-23.56,14.15-44.33,4.32-44.33,4.32s-4.66,17.81-1.45,34.35,23.39,122.91,23.39,122.91c31.79,6.44,80.68-6.48,80.68-6.48C1610.08,1090.62,1605.53,1013.89,1600.34,998.24Z"/><path class="cls-28" d="M1557.23,822.56l10.37,46.61c1,4.11-2.75,3.44-6.9,2.65-6.8-1.28-15.56-3.92-18.49-9.21a5.23,5.23,0,0,1-.53-1.75l-4.45-32.32a5.81,5.81,0,0,1,3.39-6.11l8.61-3.81A5.81,5.81,0,0,1,1557.23,822.56Z"/><path class="cls-29" d="M1545.05,778.18s-12.29,5.19-20.65,23-2.11,26,5.73,27.08,19.56,1,32-10.51S1561,772,1545.05,778.18Z"/><path class="cls-30" d="M1553.75,808.22s9.27-26-13.76-26.29l-5.42,3.79s-8.45-14.41,5.42-21.29,30.11-1.19,36,17.5,6.91,31.2-2.91,40.14-13.87-1.2-13.87-1.2,5.35-8.36,3.17-12.84-7.2.93-7.2.93Z"/><path class="cls-31" d="M1553.71,812.82s4.69-13.39,10.94-8.06-5.08,12.37-9.52,14.64Z"/><path class="cls-32" d="M1442.81,757.89c-.5,1.58,5.26,4,8.65-2.48.12-3.1,2-16.37.15-18.89-9.86-13.44-20.27-14.31-20.27-14.31-1.94,3.5-4.3,6.46-5.41,10.7a13,13,0,0,0,1.29,9.56c1.63,2.93,3.85,6.75,6,9.73A12.85,12.85,0,0,0,1442.81,757.89Z"/><path class="cls-33" d="M1597.35,901.19s-94.92,115.91-165.84-16.06a16.37,16.37,0,0,1-.51-8.25c.43-2.46-1.2-11.18-2.09-15.64a2.45,2.45,0,0,1,2.19-2.92h0a3.36,3.36,0,0,1,3,1.27l13,16.49a6.91,6.91,0,0,1-3.66,8.21h0a3.41,3.41,0,0,0-1.27,5.15c53.93,70.7,144.14-6.88,145.79-6C1593.73,886.71,1600.49,890.28,1597.35,901.19Z"/><path class="cls-34" d="M1114.34,644a3.28,3.28,0,0,0-1.54,3.46l8,38.89a172.76,172.76,0,0,0-33.67,44.77l-39.53,3.18a3.26,3.26,0,0,0-2.9,2.44l-11.86,46.1a3.27,3.27,0,0,0,1.36,3.54l33.1,21.86a172.75,172.75,0,0,0,7.88,55.46l-25.72,30.22a3.29,3.29,0,0,0-.33,3.78l24.22,41a3.26,3.26,0,0,0,3.46,1.54l38.89-7.95a172.76,172.76,0,0,0,44.77,33.67l3.18,39.54a3.26,3.26,0,0,0,2.44,2.9l46.1,11.85a3.27,3.27,0,0,0,3.54-1.36l21.86-33.09a173,173,0,0,0,55.46-7.89l30.22,25.73a3.27,3.27,0,0,0,3.78.32l41-24.22a3.25,3.25,0,0,0,1.54-3.46l-8-38.88a172.93,172.93,0,0,0,33.67-44.77l39.54-3.18a3.25,3.25,0,0,0,2.89-2.44l11.86-46.11a3.25,3.25,0,0,0-1.36-3.53l-33.09-21.87a172.93,172.93,0,0,0-7.89-55.45l25.73-30.23a3.26,3.26,0,0,0,.32-3.77L1409,685a3.26,3.26,0,0,0-3.46-1.54l-38.88,7.95a172.93,172.93,0,0,0-44.77-33.67l-3.18-39.53a3.27,3.27,0,0,0-2.44-2.9l-46.11-11.86a3.25,3.25,0,0,0-3.53,1.36l-21.87,33.1a172.65,172.65,0,0,0-55.45,7.88l-30.23-25.72a3.26,3.26,0,0,0-3.77-.32Z"/><path class="cls-4" d="M1241.08,857.14A45.32,45.32,0,1,1,1281,833.51,45,45,0,0,1,1241.08,857.14Zm.13-84.56a39.39,39.39,0,0,0-11.13,1.62,39.24,39.24,0,1,0,29.85,3.19h0A38.94,38.94,0,0,0,1241.21,772.58Z"/><path class="cls-4" d="M1241.59,930.68a118,118,0,0,1-82.92-201.81l4.28,4.35a111.85,111.85,0,1,0,106.51-28.79h0a113.24,113.24,0,0,0-21.89-3.38h0l-1.62-.07.24-6.1a119.11,119.11,0,0,1,24.84,3.65c2.75.71,5.46,1.51,8.11,2.4a117.94,117.94,0,0,1-37.5,229.76Z"/><path class="cls-2" d="M1843.9,405.55,1576,404.06a14.06,14.06,0,0,0-12.13,21.3l1.35,2.24a14.05,14.05,0,0,0,12,6.82h266.56a14.06,14.06,0,0,0,14.06-14.06v-.75A14.06,14.06,0,0,0,1843.9,405.55Z"/><path class="cls-2" d="M1881.33,419.93v.43a14.05,14.05,0,0,0,14.06,14.06h59.47A14.07,14.07,0,0,0,1968.45,424h0A14.07,14.07,0,0,0,1955,406.3l-59.47-.44A14.07,14.07,0,0,0,1881.33,419.93Z"/><path class="cls-2" d="M1779.46,456,1576,454.54a14.06,14.06,0,0,0-12.13,21.3l1.35,2.24a14.05,14.05,0,0,0,12,6.82h202.11a14.06,14.06,0,0,0,14.07-14.06v-.75A14.06,14.06,0,0,0,1779.46,456Z"/><path class="cls-2" d="M1816.88,470.4v.44A14.06,14.06,0,0,0,1831,484.9h59.47A14.05,14.05,0,0,0,1904,474.47h0a14.06,14.06,0,0,0-13.48-17.69l-59.47-.44A14.06,14.06,0,0,0,1816.88,470.4Z"/><path class="cls-2" d="M559.3,669.9l-267.9-1.49a14.07,14.07,0,0,0-12.14,21.3l1.35,2.24a14.05,14.05,0,0,0,12.05,6.83H559.22a14.07,14.07,0,0,0,14.06-14.07V684A14.07,14.07,0,0,0,559.3,669.9Z"/><path class="cls-2" d="M596.72,684.28v.43a14.07,14.07,0,0,0,14.06,14.07h59.47a14.07,14.07,0,0,0,13.59-10.44h0a14.07,14.07,0,0,0-13.48-17.69l-59.48-.43A14.06,14.06,0,0,0,596.72,684.28Z"/><path class="cls-2" d="M494.85,720.38,291.4,718.89a14.07,14.07,0,0,0-12.14,21.3l1.35,2.24a14.07,14.07,0,0,0,12.05,6.83H494.78a14.07,14.07,0,0,0,14.06-14.07v-.75A14.07,14.07,0,0,0,494.85,720.38Z"/><path class="cls-2" d="M532.28,734.76v.43a14.06,14.06,0,0,0,14.06,14.07h59.47a14,14,0,0,0,13.58-10.44h0a14.06,14.06,0,0,0-13.48-17.69l-59.47-.43A14.06,14.06,0,0,0,532.28,734.76Z"/><path class="cls-35" d="M621.18,1300.8a5.69,5.69,0,0,1-2.64-.65,5.76,5.76,0,0,1-2.47-7.76L876.54,790a5.76,5.76,0,0,1,10.23,5.3L626.3,1297.69A5.73,5.73,0,0,1,621.18,1300.8Z"/><path class="cls-36" d="M744.75,1305a5.77,5.77,0,0,1-5.28-8.06L962.1,785.4a5.76,5.76,0,1,1,10.57,4.6L750,1301.53A5.77,5.77,0,0,1,744.75,1305Z"/><path class="cls-37" d="M925.32,887.37H835a3.6,3.6,0,0,1,0-7.2h90.3a3.6,3.6,0,0,1,0,7.2Z"/><path class="cls-38" d="M901.19,943.31h-90.3a3.6,3.6,0,0,1,0-7.2h90.3a3.6,3.6,0,0,1,0,7.2Z"/><path class="cls-39" d="M869.37,1010.3H773.31a3.6,3.6,0,1,1,0-7.2h96.06a3.6,3.6,0,1,1,0,7.2Z"/><path class="cls-40" d="M949.32,833.11H863.16a3.61,3.61,0,0,1,0-7.21h86.16a3.61,3.61,0,0,1,0,7.21Z"/><path class="cls-41" d="M837.67,1087.37H733.31a3.6,3.6,0,0,1,0-7.2H837.67a3.6,3.6,0,1,1,0,7.2Z"/><path class="cls-42" d="M813.15,1147.15H701.21a3.6,3.6,0,1,1,0-7.2H813.15a3.6,3.6,0,1,1,0,7.2Z"/><path class="cls-43" d="M791.14,1074.47c-11.53-10-36.3-18.07-36.3-18.07l-14.9.32c-3.78,4.26-5.49,12.5-6.22,17.67,2.8,1.68,8.06,3.15,17.7,3.61A144.6,144.6,0,0,0,791.14,1074.47Z"/><path class="cls-44" d="M791.14,1074.47a144.6,144.6,0,0,1-39.72,3.53c-9.64-.46-14.9-1.93-17.7-3.61-.06.42-.12.82-.16,1.19a4.39,4.39,0,0,0,3.09,4.74c13.61,4.17,43.55,2.83,55.22,2.1a3.06,3.06,0,0,0,2.2-5A26.23,26.23,0,0,0,791.14,1074.47Z"/><path class="cls-45" d="M741.16,1043.86v11.85a4.85,4.85,0,0,0,3.82,4.73,18.78,18.78,0,0,0,8.34.08,4.64,4.64,0,0,0,3.45-4l1.5-12.7Z"/><path class="cls-46" d="M816.51,983.14c-4.62-10.29-3.3-14.92-12.45-13.9a13.22,13.22,0,0,0-2.79.61,8.27,8.27,0,0,0,0,5.36,101.78,101.78,0,0,0,16,29.24,10.07,10.07,0,0,0,7.72,3.76l10.09.17C825.54,1000.73,820.35,991.68,816.51,983.14Z"/><path class="cls-47" d="M835.75,993.12c-7.74-5.45-10.63-27.72-10.63-27.72l-11.94-6.08-9,6.53a8.29,8.29,0,0,0-2.91,4,13.22,13.22,0,0,1,2.79-.61c9.15-1,7.83,3.61,12.45,13.9,3.84,8.54,9,17.59,18.6,25.24l6.94.12a3.73,3.73,0,0,0,3-6A45.2,45.2,0,0,0,835.75,993.12Z"/><path class="cls-48" d="M820.39,948.11l-7.21,11.21a3.28,3.28,0,0,0,.72,4.34,10.74,10.74,0,0,0,11.22,1.74l11.57-7.93Z"/><path class="cls-49" d="M766.29,829.79S762.5,840.47,757,878s-9.11,64.82-12.11,79.71c-2.74,13.61-7.07,62.63-6.81,84.07a5.13,5.13,0,0,0,5.29,5.08l14.18-.44a4.6,4.6,0,0,0,4.4-3.82c3.75-22.07,29.69-136,45.34-168.73,0,0,41.62,11.77,52,16.5,0,0-13.41,5.37-40.9,56.91,0,0,11.87,9.43,20.28,11.4,0,0,60.16-49.9,66.51-55.12s12.15-14.22-4.07-30.61-66-42.23-66-42.23Z"/><path class="cls-50" d="M805,875.05a.67.67,0,0,1-.31-.07l-14.85-5.72a18.65,18.65,0,0,1-10.56-16.64.73.73,0,0,1,.72-.73.69.69,0,0,1,.72.72A17.22,17.22,0,0,0,790.45,868l14.85,5.72a.72.72,0,0,1,.34,1A.73.73,0,0,1,805,875.05Z"/><path class="cls-51" d="M874.41,715s18.34,72.53,43.19,101.7c0,0-6.73,7.67-16.72,9.89,0,0-38.15-33.43-49.76-56.67S874.41,715,874.41,715Z"/><path class="cls-52" d="M853.92,632.08l-22.25,47.25h35.11s2.82-21.6,12.05-34.6Z"/><path class="cls-53" d="M827.62,676.72s8.13-13.36,61.27-10.08c27.63,1.7,89.76-22.38,103.6-34.49,0,0,9-.06,17.33,8.64,0,0-57.39,60.57-124.3,68.31,0,0-50.78,104.64-50.42,121.63,0,0-30.14,20.22-71,5.75,0,0-1.25-29.09,14.71-69.27C799.5,715,827.62,676.72,827.62,676.72Z"/><path class="cls-54" d="M851.72,712.82a.72.72,0,0,1-.06-1.44c.26,0,25.77-2.09,29.75-2.54a.72.72,0,0,1,.16,1.43c-4,.45-29.54,2.53-29.79,2.55Z"/><path class="cls-55" d="M888.22,598.06c.37.67,8.26,50,8.26,50l-28.26,3.9L853.8,606.32S882.13,587,888.22,598.06Z"/><path class="cls-56" d="M863.41,614.08l5.71,24.61a3.27,3.27,0,0,0,.34.9c.95,1.74,4.68,7.48,10.32,3.31,5.12-3.78,9.84-7.15,13.89-7.4a3.52,3.52,0,0,1,3.71,3,152.34,152.34,0,0,1,2,23.59,3.52,3.52,0,0,1-3.27,3.46c-5.48.41-17.06,1-26.48-.76a3.51,3.51,0,0,1-2.73-2.36c-2-6-8.06-24.27-10.54-29.09-2.32-4.53-9.2-5.18-12.11-5.25a3.49,3.49,0,0,1-2.49-1.13c-2.27-2.49-6.43-8.66,1.07-14.65a3.54,3.54,0,0,0,.48-5.07c-2.59-3-5.15-8.22.35-13.66s11.94-3.85,15.75-2a3.53,3.53,0,0,0,4.4-1.09,2.79,2.79,0,0,1,3-1,3.48,3.48,0,0,0,4.08-3.13c.37-3.91,2.31-8.68,9.31-10,12.42-2.39,18.61,10,18.38,18.78s-13.84,10.56-21.56,9.1c-5.87-1.1-10.92,4.27-13,6.91A3.51,3.51,0,0,0,863.41,614.08Z"/><path class="cls-57" d="M858.57,642.24s-.26-15.24-6.42-16.67-12.82,3-7.55,12.14C851.15,649.06,858.57,642.24,858.57,642.24Z"/><path class="cls-4" d="M892.68,599.31a.76.76,0,0,1-.55-1.29,8.38,8.38,0,0,0,1.92-5.85c-.17-3.51-2.38-7.12-6.57-10.72a.77.77,0,0,1-.08-1.07.75.75,0,0,1,1.08-.08c4.53,3.89,6.91,7.87,7.1,11.83a9.84,9.84,0,0,1-2.35,7A.78.78,0,0,1,892.68,599.31Z"/><path class="cls-58" d="M992.49,632.15s8.72-24,10.42-23.12,2.71,6.17,2.71,6.17,20.7-6.26,22.22-9,10.25-8.78,10.29-6.68-5.21,19.9-12,25.33-17.06,15.19-17.06,15.19Z"/><path class="cls-59" d="M900.88,826.63s15.63-11.84,22.74-9.61S936,825.9,936,825.9H920.27s-3.75,7.21,0,7.21h5.55S911.14,848.48,900.88,826.63Z"/><path class="cls-60" d="M508.16,1258.46s-1.9,10.79-2.84,21.47a7.36,7.36,0,0,0,7,8c14.22.59,44.64,1.74,55.56,1.26a2.39,2.39,0,0,0,2.1-3.28h0a5.35,5.35,0,0,0-2.74-2.89L517,1259.9Z"/><path class="cls-61" d="M506.6,1252.12l1.53,12.91s8.8,4.09,14.81-.52l-3.64-14.38Z"/><path class="cls-62" d="M507.75,1009.53c-.66,3.37-3.55,168.16,14.07,242a2.53,2.53,0,0,1-1.47,2.92,43.75,43.75,0,0,1-14.35,2.91,4.3,4.3,0,0,1-4.28-3.09c-5-17.14-29.17-103-32.31-185-3.52-91.63,0-3.12,0-3.12l2.06-56.64Z"/><path class="cls-63" d="M450.36,1264.09s-3,5.45-6,19.92a4.49,4.49,0,0,0,3.95,5.37c4.7.46,11.92,1.06,17.72,1a4.48,4.48,0,0,0,4.43-5c-.65-5.29-2.64-14-8.82-20.71Z"/><path class="cls-64" d="M447.7,1247.49l3.57,19.52s3.54,2.63,10.54.72l-1.71-21Z"/><path class="cls-65" d="M438,1014.59c-14.41,86.94,3.13,214.88,9,239.93a3.9,3.9,0,0,0,3.15,3,26.1,26.1,0,0,0,11.27-.45,3.57,3.57,0,0,0,2.57-3.29c.8-20.25-.63-144.54,12.79-193.66a11.1,11.1,0,0,1,4.31-6.15l26-18.52,2-29.94Z"/><path class="cls-66" d="M529.83,849.84c-43.17-.71-90.81,11.34-90.81,11.34-12.87,75.09-2.25,161.7-2.25,161.7,33.42,8.77,71.13-5.36,71.13-5.36,5.55-31.38,31.47-119.71,31.47-119.71,21.1-2.62,38.47-8.71,52.78-16.75-10.91-12.66-16.06-28.76-18.29-38.27C558.59,847.53,543.15,850.07,529.83,849.84Z"/><path class="cls-67" d="M657.36,786.25a8.27,8.27,0,0,0-9.61-2.7c-6.36,26.84-39.67,48.6-73.89,59.24,2.23,9.51,7.38,25.61,18.29,38.27C649,849.12,657.36,786.25,657.36,786.25Z"/><path class="cls-68" d="M656.33,787.56c.44,1.41-4.7,3.55-7.73-2.22-.1-2.76-1.78-14.61-.13-16.86,8.8-12,25.86-27,25.86-27a4.05,4.05,0,0,1,.51,5.64l-8.28,8.62c1.73,3.13,3.85,5.77,4.84,9.56a11.57,11.57,0,0,1-1.16,8.53c-1.45,2.62-3.44,6-5.31,8.69A11.46,11.46,0,0,1,656.33,787.56Z"/><path class="cls-69" d="M662.94,761.3l-7.54,6.39L653,774.06l6.73,7.46s2.26-12.63,3.94-15.37S664.51,762.1,662.94,761.3Z"/><path class="cls-70" d="M455.58,903,439,861.18s-40.33,27.4-47,62.14c7.62.56,21.49,2.54,35.06,9.4C430.1,916.31,455.58,903,455.58,903Z"/><path class="cls-71" d="M490.82,942.32s-45.28,25.59-60.55,3.74a17.14,17.14,0,0,1-3.15-13.34c-13.57-6.86-27.44-8.84-35.06-9.4a48,48,0,0,0,5.21,32.87c26.76,48.95,99.54-2.71,99.54-2.71Z"/><path class="cls-72" d="M485.38,974.69l24.71-86.29a2.52,2.52,0,0,1,2.13-1.81c4.47-.52,17.45-2,32.43-3.26,18-1.52,39-2.76,51.51-1.71a2.53,2.53,0,0,1,2.06,3.64c-7.12,14.4-36.4,73-51.07,92.19a2.57,2.57,0,0,1-2,1l-57.33-.54A2.52,2.52,0,0,1,485.38,974.69Z"/><path class="cls-73" d="M547.21,875.85l17.91-3a1.29,1.29,0,0,1,1.44,1.67l-1.78,5.37a1.26,1.26,0,0,1-1,.87l-17.24,2.31a1.29,1.29,0,0,1-1.42-1.57l1.1-4.69A1.3,1.3,0,0,1,547.21,875.85Z"/><path class="cls-74" d="M533.79,891l1.48-7.69a1.77,1.77,0,0,1,1.57-1.43L573,878.23a1.78,1.78,0,0,1,1.91,2.18l-2.3,9.58a1.79,1.79,0,0,1-1.64,1.36l-35.36,1.78A1.78,1.78,0,0,1,533.79,891Z"/><path class="cls-75" d="M491.35,953.84s-3.44-14.15-2.05-19.17,4.07-11.48,13-10a130.75,130.75,0,0,1,19.55,5.21s-.54,6.54-7.35,4.43l4.22,3.27s-.6,5.24-6.36,2.44l3.93,4.33s-2.47,4.31-6.7,1.55S503.36,955.55,491.35,953.84Z"/><path class="cls-76" d="M486.1,814.8l-13.74,39.72a1.44,1.44,0,0,0,.65,1.73c3.75,2.07,17.24,8,33.5-2.26a6.74,6.74,0,0,0,3.1-4.81l4.45-34.38Z"/><path class="cls-77" d="M516,778s15.08,28.39,13.15,39.86-20.63,10.65-36.95,1.33l-11.41-30.66Z"/><path class="cls-78" d="M492.91,804.15a1.18,1.18,0,0,0,.51-1.72c-1.21-1.84-3.48-5.61-4.2-8.91,0,0-2.71-1.73,6.9-4s24-5.88,27-14.06c2.94-8-4.78-28-17.1-12.06a1.16,1.16,0,0,1-1.85,0c-2-2.63-7.33-8.09-14.7-4.78-6.9,3.1-7.67,8.15-7.58,10.7a1.16,1.16,0,0,1-1.38,1.19c-3.48-.67-11.85-1.24-15.76,7.34-3.21,7.07-1.12,11.08.78,13a1.17,1.17,0,0,1-.5,1.94c-2.29.7-5.25,2.65-4.95,8,.41,7.43,8.71,6.77,11.07,6.43a1.2,1.2,0,0,1,1,.37c2,2.24,11.15,11.76,21,12.91a1.18,1.18,0,0,0,1.24-1.56l-4.28-12.43a1.17,1.17,0,0,1,.64-1.45Z"/><path class="cls-79" d="M494.63,805.91s-10.74-7.37-11.53-1.16,9.67,9,14.85,6.67Z"/><path class="cls-16" d="M1521.27,269.68a1.42,1.42,0,0,1,0-2.84c2.36,0,4.73-.12,7-.27a1.42,1.42,0,0,1,.18,2.84c-2.35.15-4.76.24-7.18.27Zm-7.1-.07h0c-2.35-.08-4.76-.21-7.17-.38a1.42,1.42,0,0,1-1.31-1.53,1.41,1.41,0,0,1,1.52-1.31c2.37.17,4.74.3,7,.38a1.42,1.42,0,0,1,0,2.84Zm21.29-.83a1.42,1.42,0,0,1-.16-2.83c2.35-.28,4.69-.62,7-1a1.42,1.42,0,1,1,.49,2.8c-2.31.41-4.71.76-7.11,1Zm-35.47-.21h-.16c-2.34-.26-4.73-.58-7.11-.93a1.42,1.42,0,0,1,.42-2.81c2.34.35,4.7.65,7,.91a1.42,1.42,0,0,1-.16,2.84Zm-14.07-2.09a1.14,1.14,0,0,1-.26,0c-2.32-.42-4.68-.9-7-1.4a1.42,1.42,0,0,1,.6-2.78c2.31.5,4.64,1,6.93,1.38a1.42,1.42,0,0,1-.25,2.82Zm63.53-.19a1.43,1.43,0,0,1-.34-2.81c2.29-.56,4.56-1.2,6.74-1.9a1.42,1.42,0,0,1,.88,2.7c-2.25.73-4.58,1.39-6.94,2A2,2,0,0,1,1549.45,266.29Zm-77.44-2.8a1.32,1.32,0,0,1-.34,0c-2.29-.57-4.62-1.18-6.93-1.82a1.42,1.42,0,0,1,.77-2.74c2.27.63,4.57,1.24,6.84,1.8a1.42,1.42,0,0,1-.34,2.8Zm91-1.57a1.42,1.42,0,0,1-.54-2.74c2.17-.88,4.31-1.86,6.35-2.9a1.42,1.42,0,1,1,1.29,2.54c-2.11,1.07-4.32,2.08-6.57,3A1.39,1.39,0,0,1,1563,261.92Zm-104.67-2.25a1.52,1.52,0,0,1-.42-.06c-2.32-.72-4.61-1.48-6.81-2.23a1.42,1.42,0,0,1,.93-2.69c2.17.75,4.43,1.49,6.72,2.2a1.42,1.42,0,0,1-.42,2.78Zm117.32-4.18a1.42,1.42,0,0,1-.75-2.63c2-1.22,3.9-2.55,5.76-3.94a1.42,1.42,0,1,1,1.71,2.27c-1.92,1.44-3.93,2.82-6,4.08A1.36,1.36,0,0,1,1575.62,255.49ZM1444.85,255a1.34,1.34,0,0,1-.52-.1l-1.64-.65-3.23-1.37,3.27-1.27.51-.18c.78-.27,2.39-.83,4.54-1.71a1.42,1.42,0,1,1,1.07,2.63c-1,.41-1.86.74-2.6,1a1.32,1.32,0,0,1-.08.73A1.42,1.42,0,0,1,1444.85,255Zm10-5.47a1.42,1.42,0,0,1-.64-2.7c2.12-1.05,4.18-2.18,6.15-3.36a1.42,1.42,0,1,1,1.46,2.44c-2,1.22-4.16,2.38-6.34,3.47A1.45,1.45,0,0,1,1454.81,249.53ZM1587,247a1.42,1.42,0,0,1-1-2.48c1.72-1.55,3.39-3.2,5-4.91a1.43,1.43,0,0,1,2.09,1.94c-1.63,1.76-3.36,3.47-5.14,5.08A1.44,1.44,0,0,1,1587,247Zm-120-4.78a1.42,1.42,0,0,1-.84-2.57,64.6,64.6,0,0,0,5.39-4.39,1.42,1.42,0,0,1,1.92,2.1,68.77,68.77,0,0,1-5.63,4.59A1.45,1.45,0,0,1,1467,242.18Zm129.62-5.63a1.42,1.42,0,0,1-1.12-2.3c1.41-1.81,2.77-3.72,4-5.68a1.42,1.42,0,1,1,2.38,1.55c-1.32,2-2.73,4-4.19,5.88A1.42,1.42,0,0,1,1596.6,236.55Zm-119.17-4a1.46,1.46,0,0,1-.92-.33,1.43,1.43,0,0,1-.16-2,45.23,45.23,0,0,0,4.05-5.57,1.42,1.42,0,0,1,2.42,1.49,48,48,0,0,1-4.3,5.92A1.42,1.42,0,0,1,1477.43,232.58Zm126.94-7.9a1.38,1.38,0,0,1-.68-.18,1.42,1.42,0,0,1-.56-1.93c1.1-2,2.16-4.11,3.15-6.25a1.42,1.42,0,1,1,2.58,1.19c-1,2.2-2.11,4.36-3.24,6.43A1.43,1.43,0,0,1,1604.37,224.68Zm-119.58-4.18a1.6,1.6,0,0,1-.52-.1,1.43,1.43,0,0,1-.8-1.85c.1-.24.19-.49.29-.74.78-2.1,1.62-4.09,2.51-5.91a1.42,1.42,0,0,1,2.56,1.25c-.85,1.74-1.66,3.64-2.41,5.65l-.3.8A1.43,1.43,0,0,1,1484.79,220.5Zm125.54-8.71a1.52,1.52,0,0,1-.51-.09,1.42,1.42,0,0,1-.81-1.84c.82-2.14,1.6-4.37,2.32-6.62a1.42,1.42,0,0,1,2.71.86c-.73,2.31-1.54,4.59-2.38,6.78A1.42,1.42,0,0,1,1610.33,211.79Zm-119.21-4a1.35,1.35,0,0,1-.81-.26,1.41,1.41,0,0,1-.35-2,31.82,31.82,0,0,1,4.88-5.57,1.42,1.42,0,1,1,1.89,2.12,29.35,29.35,0,0,0-4.44,5.08A1.42,1.42,0,0,1,1491.12,207.82Zm10.6-9.19a1.44,1.44,0,0,1-1.31-.85,1.42,1.42,0,0,1,.74-1.87,21.81,21.81,0,0,1,4.24-1.35c-1.36-.29-3-.61-4.78-.95a1.42,1.42,0,0,1,.52-2.79c2.92.54,5.29,1,7.06,1.45a1.44,1.44,0,0,1,1,1.72,2.25,2.25,0,0,1-.08.24,1.42,1.42,0,0,1-.44,2.72,20,20,0,0,0-6.43,1.57A1.44,1.44,0,0,1,1501.72,198.63Zm113-.36a1.47,1.47,0,0,1-.36,0,1.44,1.44,0,0,1-1-1.74c.25-.93.48-1.87.71-2.82l-1.81-1.85a1.42,1.42,0,0,1,2-2l2.93,3-.19.77c-.29,1.23-.59,2.45-.9,3.65A1.43,1.43,0,0,1,1614.67,198.27Zm-120.82-5.87-.23,0c-2.84-.48-5.38-.89-7-1.15a1.42,1.42,0,0,1,.44-2.81l1.37.22a1.42,1.42,0,0,1,.38-1.93,27.34,27.34,0,0,0,4.75-4.75,1.41,1.41,0,0,1,2-.17,1.44,1.44,0,0,1,.17,2,31.06,31.06,0,0,1-5.2,5.18l3.59.59a1.43,1.43,0,0,1-.24,2.83Zm114.36-5.22a1.43,1.43,0,0,1-1-.43l-5-5.07a1.42,1.42,0,0,1,2-2l5,5.07a1.42,1.42,0,0,1,0,2A1.44,1.44,0,0,1,1608.21,187.18Zm-109-8.3a1.41,1.41,0,0,1-1.07-2.36c1.69-1.91,3.33-3.61,5-5.21a1.41,1.41,0,0,1,2,0,1.43,1.43,0,0,1,0,2c-1.62,1.55-3.2,3.2-4.84,5A1.43,1.43,0,0,1,1499.22,178.88Zm99-1.84a1.44,1.44,0,0,1-1-.42l-5-5.07a1.42,1.42,0,0,1,2-2l5,5.07a1.42,1.42,0,0,1,0,2A1.36,1.36,0,0,1,1598.24,177Zm-88.76-8a1.39,1.39,0,0,1-1.11-.54,1.42,1.42,0,0,1,.22-2c1.84-1.47,3.8-2.9,5.83-4.26a1.42,1.42,0,1,1,1.58,2.36c-2,1.32-3.86,2.7-5.64,4.12A1.39,1.39,0,0,1,1509.48,169.08Zm78.78-2.17a1.4,1.4,0,0,1-1-.43l-5-5.06a1.44,1.44,0,0,1-.38-.72,1.37,1.37,0,0,1-.77-.46,32.65,32.65,0,0,0-5.74-2.94,1.42,1.42,0,1,1,1.11-2.62c.66.27,6.47,2.75,7,4.09a1.29,1.29,0,0,1,.08.26,1.47,1.47,0,0,1,.71.39l5,5.07a1.42,1.42,0,0,1,0,2A1.44,1.44,0,0,1,1588.26,166.91Zm-67-5.74a1.42,1.42,0,0,1-.7-2.66c1.39-.78,2.83-1.56,4.3-2.3.71-.36,1.41-.7,2.11-1a1.42,1.42,0,0,1,1.19,2.58c-.67.31-1.34.64-2,1-1.43.72-2.84,1.48-4.19,2.24A1.41,1.41,0,0,1,1521.27,161.17Zm12.92-5.85a1.41,1.41,0,0,1-1.35-1,1.43,1.43,0,0,1,.91-1.79,59.37,59.37,0,0,1,7.06-1.8,1.42,1.42,0,0,1,.53,2.8,55.43,55.43,0,0,0-6.71,1.71A1.35,1.35,0,0,1,1534.19,155.32Zm35-.27a1.44,1.44,0,0,1-.4-.06,63.18,63.18,0,0,0-6.77-1.56,1.43,1.43,0,0,1-1.16-1.64,1.41,1.41,0,0,1,1.64-1.16,64.36,64.36,0,0,1,7.09,1.63,1.42,1.42,0,0,1-.4,2.79Zm-21.1-2.38a1.42,1.42,0,0,1-.09-2.84,63.1,63.1,0,0,1,7.28,0,1.42,1.42,0,0,1-.16,2.84,59.39,59.39,0,0,0-6.93,0Z"/><path class="cls-80" d="M1594.17,174.52s-34.67-17.07-50,7-24.72,52.21-37.81,55.21c0,0,72.9,19.91,96.2-51.52Z"/><path class="cls-81" d="M1626.12,99.67s-26-27.62-38.44-24.3c-11.82,3.16-76.22,60-82.48,65.54a.7.7,0,0,0-.09,1h0a9.73,9.73,0,0,0,7.91,3.88c15-.24,59.83-1.31,73.28-6C1602.54,134.13,1626.12,99.67,1626.12,99.67Z"/><path class="cls-82" d="M1532.28,125.38a.72.72,0,0,1-.54-.25.71.71,0,0,1,.08-1c.36-.3,36.17-30.82,52.09-43.36a9,9,0,0,1,9.73-.88,135.9,135.9,0,0,1,22.95,15.2.71.71,0,0,1,.08,1,.7.7,0,0,1-1,.08,134.38,134.38,0,0,0-22.7-15,7.5,7.5,0,0,0-8.18.74c-15.9,12.52-51.69,43-52,43.33A.73.73,0,0,1,1532.28,125.38Z"/><path class="cls-83" d="M1679.2,170s19.42,32.6,12.82,43.63c-6.28,10.5-78.62,56.82-85.67,61.32a.71.71,0,0,1-.95-.18h0a9.73,9.73,0,0,1-1.55-8.68c4.34-14.37,17.68-57.17,25.86-68.82C1639.6,183.25,1679.2,170,1679.2,170Z"/><path class="cls-82" d="M1629.41,254.12a.71.71,0,0,1-.4-1.3c.4-.26,39.55-26.3,56-38.16a7.54,7.54,0,0,0,3-7.66,134,134,0,0,0-8.22-25.95.71.71,0,0,1,.35-.94.73.73,0,0,1,1,.35,133.43,133.43,0,0,1,8.31,26.24,9,9,0,0,1-3.52,9.11c-16.43,11.88-55.61,37.93-56,38.19A.71.71,0,0,1,1629.41,254.12Z"/><path class="cls-84" d="M1728.14,23.31a196.37,196.37,0,0,0-54.09,28.61c-56.14,42.1-90.13,82.76-99.48,94.58a7.42,7.42,0,0,0-1,7.54,131.12,131.12,0,0,0,37.3,50.25,10.8,10.8,0,0,0,11.12,1.63c16.13-6.81,62.78-28.27,116.27-68.87a195.8,195.8,0,0,0,42.12-43.81C1767.21,59.62,1742.76,35.93,1728.14,23.31Z"/><path class="cls-85" d="M1780.4,93.24c23.25-33.17,30.86-65.32,32.89-76.18a3.66,3.66,0,0,0-3.26-4.32c-11-1-43.77-2.52-81.89,10.57C1742.76,35.93,1767.21,59.62,1780.4,93.24Z"/><ellipse class="cls-2" cx="1709.81" cy="91.65" rx="32.91" ry="35.33" transform="translate(289.65 1048.21) rotate(-37.03)"/><path class="cls-86" d="M1728.1,114.36c-11.57,8.72-28.53,5.73-37.89-6.68s-7.58-29.54,4-38.26,28.53-5.74,37.89,6.67S1739.66,105.64,1728.1,114.36Z"/><path class="cls-87" d="M1731.11,87.56a.7.7,0,0,1-.67-.48,21.51,21.51,0,0,0-3.16-5.94c-5.44-7.21-14.89-10.17-23-7.22a.71.71,0,0,1-.91-.43.7.7,0,0,1,.42-.91c8.69-3.16,18.81,0,24.62,7.7a22.63,22.63,0,0,1,3.37,6.34.7.7,0,0,1-.44.9A.62.62,0,0,1,1731.11,87.56Z"/><path class="cls-2" d="M1671.06,150.12c-9.58,7.24-23.65,4.76-31.41-5.53s-6.28-24.49,3.3-31.73,23.65-4.75,31.42,5.54S1680.65,142.89,1671.06,150.12Z"/><path class="cls-88" d="M1669.09,146.49c-7.64,5.77-18.85,3.79-25-4.41s-5-19.51,2.64-25.28,18.84-3.79,25,4.41S1676.72,140.73,1669.09,146.49Z"/><path class="cls-89" d="M1671.08,129a.72.72,0,0,1-.68-.48,13.79,13.79,0,0,0-2.05-3.86,13.27,13.27,0,0,0-14.92-4.69.71.71,0,1,1-.48-1.33,14.69,14.69,0,0,1,16.54,5.16,15.45,15.45,0,0,1,2.26,4.26.7.7,0,0,1-.44.9A.66.66,0,0,1,1671.08,129Z"/><path class="cls-16" d="M1415.31,668.12l-.76-4.16v0a1.43,1.43,0,1,1,2.81-.51h0l.75,4.24a1.42,1.42,0,0,1-2.8.5Z"/><path class="cls-16" d="M1412.35,654.35l-1.13-4.08v0a1.46,1.46,0,1,1,2.81-.78h0l1.13,4.15a1.45,1.45,0,1,1-2.79.76Z"/><path class="cls-16" d="M1408.18,640.9l-1.48-4,0,0a1.5,1.5,0,0,1,.87-1.91,1.48,1.48,0,0,1,1.91.87h0l1.49,4a1.48,1.48,0,0,1-2.77,1Z"/><path class="cls-16" d="M1402.85,627.86,1401,624l0,0a1.51,1.51,0,0,1,2.74-1.29h0l1.83,3.9a1.51,1.51,0,0,1-2.73,1.28Z"/><path class="cls-16" d="M1396.45,615.31l-2.11-3.66,0,0a1.54,1.54,0,1,1,2.67-1.55h0l2.14,3.73a1.53,1.53,0,0,1-2.66,1.52Z"/><path class="cls-16" d="M1389.07,603.31l-2.4-3.49,0,0a1.57,1.57,0,1,1,2.59-1.77h0l2.42,3.55a1.56,1.56,0,0,1-2.58,1.76Z"/><path class="cls-16" d="M1380.79,591.9l-2.65-3.3,0,0a1.6,1.6,0,1,1,2.5-2h0l2.67,3.36a1.59,1.59,0,1,1-2.48,2Z"/><path class="cls-16" d="M1371.7,581.11l-2.87-3.11,0,0a1.63,1.63,0,1,1,2.39-2.21h0l2.9,3.17a1.62,1.62,0,0,1-2.39,2.18Z"/><path class="cls-16" d="M1361.9,571l-3.07-2.91,0,0a1.66,1.66,0,1,1,2.28-2.4h0l3.11,3a1.64,1.64,0,0,1-2.27,2.38Z"/><path class="cls-16" d="M1351.45,561.49l-3.26-2.71,0,0a1.69,1.69,0,0,1,2.16-2.59h0l3.29,2.77a1.66,1.66,0,0,1,.2,2.35,1.68,1.68,0,0,1-2.36.21Z"/><path class="cls-16" d="M1340.42,552.68l-3.41-2.51,0,0a1.71,1.71,0,0,1,2-2.75h0l3.45,2.56a1.7,1.7,0,0,1-2,2.73Z"/><path class="cls-16" d="M1328.88,544.55l-3.56-2.31,0,0a1.73,1.73,0,1,1,1.89-2.91h0l3.6,2.36a1.73,1.73,0,1,1-1.9,2.89Z"/><path class="cls-16" d="M1316.88,537.1l-3.68-2.1h0a1.77,1.77,0,1,1,1.75-3.07h0l3.73,2.14a1.76,1.76,0,0,1-1.76,3.05Z"/><path class="cls-16" d="M1304.48,530.35l-3.79-1.89h0a1.79,1.79,0,1,1,1.6-3.21h0l3.84,1.93a1.79,1.79,0,0,1-1.61,3.19Z"/><path class="cls-16" d="M1291.72,524.31l-3.89-1.67h0a1.82,1.82,0,0,1,1.44-3.35h0l3.94,1.71a1.82,1.82,0,1,1-1.45,3.33Z"/><path class="cls-16" d="M1278.64,519l-4-1.45h0a1.85,1.85,0,0,1,1.27-3.48h0l4,1.49a1.84,1.84,0,0,1-1.27,3.46Z"/><path class="cls-16" d="M1265.29,514.43l-4.06-1.22h0a1.88,1.88,0,0,1,1.09-3.59h0l4.11,1.25a1.87,1.87,0,1,1-1.09,3.58Z"/><path class="cls-16" d="M1251.7,510.64l-4.12-1h0a1.9,1.9,0,1,1,.89-3.7h0l4.16,1a1.89,1.89,0,1,1-.9,3.68Z"/><path class="cls-16" d="M1237.92,507.54l-4.17-.8h0a1.93,1.93,0,0,1,.73-3.8h0l4.21.83a1.93,1.93,0,1,1-.74,3.78Z"/><path class="cls-16" d="M1224,505.08l-4.19-.62h0a2,2,0,0,1,.57-3.89h0l4.24.65a2,2,0,0,1-.58,3.86Z"/><path class="cls-16" d="M1210,503.23l-4.22-.44h0a2,2,0,1,1,.41-4h0l4.26.46a2,2,0,0,1-.42,3.94Z"/><path class="cls-16" d="M1195.91,502l-4.23-.27h0a2,2,0,0,1,.26-4h0l4.28.29a2,2,0,1,1-.28,4Z"/><path class="cls-16" d="M1181.79,501.25l-4.25-.12h0a2,2,0,1,1,.11-4.09h0l4.28.13a2,2,0,1,1-.12,4.08Z"/><path class="cls-16" d="M1167.64,501.05l-4.24,0h0a2.08,2.08,0,0,1,0-4.15h0l4.29,0a2.07,2.07,0,0,1,0,4.14Z"/><path class="cls-16" d="M1153.49,501.33l-4.24.17h0a2.1,2.1,0,1,1-.17-4.2h0l4.28-.16a2.1,2.1,0,0,1,.15,4.19Z"/><path class="cls-16" d="M1139.36,502.05l-4.24.3h0a2.13,2.13,0,1,1-.3-4.25h0l4.27-.29a2.12,2.12,0,0,1,.29,4.24Z"/><path class="cls-16" d="M1125.24,503.17l-4.23.41h0a2.14,2.14,0,0,1-.41-4.26h0l4.27-.41a2.14,2.14,0,1,1,.4,4.26Z"/><path class="cls-16" d="M1111.15,504.66l-4.21.51h0a2.15,2.15,0,0,1-.52-4.27h0l4.25-.51a2.15,2.15,0,0,1,.51,4.27Z"/><path class="cls-16" d="M1097.1,506.49l-4.21.61h0a2.16,2.16,0,1,1-.62-4.28h0l4.24-.61a2.16,2.16,0,0,1,.61,4.28Z"/><path class="cls-16" d="M1083.09,508.62l-4.2.7h0a2.17,2.17,0,1,1-.71-4.28h0l4.22-.7a2.17,2.17,0,0,1,.71,4.28Z"/><path class="cls-16" d="M1069.11,511l-4.18.78h0a2.18,2.18,0,0,1-.79-4.29h0l4.21-.77a2.18,2.18,0,1,1,.78,4.28Z"/><path class="cls-16" d="M1055.18,513.69l-4.17.84h0a2.19,2.19,0,1,1-.86-4.29h0l4.19-.84a2.19,2.19,0,0,1,.86,4.29Z"/><path class="cls-16" d="M1041.29,516.56l-4.16.9h0a2.2,2.2,0,1,1-.93-4.3h0l4.18-.9a2.2,2.2,0,0,1,.92,4.3Z"/><path class="cls-16" d="M1027.43,519.62l-4.16,1h0a2.21,2.21,0,1,1-1-4.3h0l4.17-.94a2.21,2.21,0,1,1,1,4.3Z"/><path class="cls-16" d="M1013.6,522.84l-4.15,1a2.22,2.22,0,1,1-1-4.31h0l4.15-1a2.22,2.22,0,0,1,1,4.31Z"/><path class="cls-16" d="M999.79,526.18l-4.15,1a2.23,2.23,0,1,1-1.07-4.33h0l4.15-1a2.23,2.23,0,0,1,1.06,4.33Z"/><path class="cls-16" d="M986,529.6l-4.14,1a2.24,2.24,0,0,1-1.09-4.34h0l4.14-1A2.24,2.24,0,0,1,986,529.6Z"/><path class="cls-16" d="M972.2,533.07l-4.13,1a2.25,2.25,0,1,1-1.1-4.36h0l4.14-1a2.25,2.25,0,0,1,1.09,4.36Z"/><path class="cls-16" d="M958.42,536.56l-4.14,1a2.26,2.26,0,0,1-1.1-4.38h0l4.14-1a2.26,2.26,0,0,1,1.1,4.38Z"/><path class="cls-16" d="M944.63,540l-4.15,1a2.27,2.27,0,0,1-1.1-4.4h0l4.14-1a2.26,2.26,0,0,1,1.1,4.39Z"/><path class="cls-16" d="M930.81,543.46l-4.14,1a2.28,2.28,0,1,1-1.09-4.42h0l4.14-1a2.28,2.28,0,0,1,1.08,4.42Z"/><path class="cls-16" d="M917,546.81l-4.16,1a2.29,2.29,0,1,1-1.05-4.45h0l4.14-1a2.28,2.28,0,1,1,1.06,4.44Z"/><path class="cls-16" d="M903.11,550.05,899,551a2.3,2.3,0,1,1-1-4.48h0l4.15-.94h0a2.29,2.29,0,0,1,1,4.47Z"/><path class="cls-90" d="M889.21,553.15l-4.18.9a2.31,2.31,0,1,1-1-4.51h0l4.17-.89h0a2.3,2.3,0,1,1,1,4.5Z"/><path class="cls-16" d="M875.26,556.08l-4.2.84a2.32,2.32,0,0,1-.91-4.54h0l4.18-.83h0a2.31,2.31,0,0,1,.9,4.54Z"/><path class="cls-16" d="M861.26,558.79l-4.21.77a2.32,2.32,0,1,1-.84-4.57h0l4.18-.75h0a2.32,2.32,0,0,1,.83,4.57Z"/><path class="cls-16" d="M847.21,561.27,843,562a2.34,2.34,0,1,1-.75-4.61h0l4.2-.68h0a2.34,2.34,0,0,1,.75,4.61Z"/><path class="cls-16" d="M833.11,563.46l-4.23.6a2.35,2.35,0,0,1-.66-4.65h0l4.21-.59h0a2.34,2.34,0,1,1,.65,4.64Z"/><path class="cls-16" d="M819,565.34l-4.25.49a2.35,2.35,0,1,1-.55-4.67h0l4.22-.48h0a2.35,2.35,0,0,1,.55,4.67Z"/><path class="cls-16" d="M804.77,566.87l-4.26.38a2.36,2.36,0,1,1-.43-4.7h0l4.23-.37h0a2.36,2.36,0,0,1,.42,4.71Z"/><path class="cls-16" d="M790.54,568l-4.27.26a2.37,2.37,0,1,1-.3-4.74h0l4.23-.25h0a2.37,2.37,0,0,1,.29,4.74Z"/><path class="cls-16" d="M776.27,568.75l-4.3.12a2.39,2.39,0,0,1-.13-4.77h0l4.24-.11h0a2.38,2.38,0,1,1,.14,4.76Z"/><path class="cls-16" d="M762,569l-4.3-.05a2.39,2.39,0,1,1,.05-4.78h0l4.24,0h0a2.39,2.39,0,0,1,0,4.78Z"/><path class="cls-16" d="M747.64,568.61l-4.29-.23a2.4,2.4,0,0,1,.25-4.8h0l4.23.23h0a2.4,2.4,0,0,1-.26,4.8Z"/><path class="cls-16" d="M733.35,567.64l-4.28-.41a2.42,2.42,0,1,1,.47-4.81h0l4.22.41h0a2.41,2.41,0,0,1-.47,4.8Z"/><path class="cls-16" d="M719.11,566l-4.26-.63a2.42,2.42,0,1,1,.7-4.79h0l4.19.61h0a2.42,2.42,0,0,1-.7,4.79Z"/><path class="cls-16" d="M705,563.68l-4.22-.85a2.43,2.43,0,0,1,1-4.77h0l4.15.84h0a2.43,2.43,0,1,1-1,4.76Z"/><path class="cls-16" d="M690.94,560.57l-4.17-1.1a2.44,2.44,0,1,1,1.24-4.72h0l4.09,1.08h0a2.44,2.44,0,0,1-1.24,4.72Z"/><path class="cls-16" d="M677.12,556.61l-4.1-1.36a2.45,2.45,0,1,1,1.55-4.65h0l4,1.34h0a2.45,2.45,0,0,1-1.55,4.65Z"/><path class="cls-16" d="M663.58,551.75l-4-1.65a2.46,2.46,0,0,1,1.87-4.55h0l0,0,3.89,1.61.05,0a2.46,2.46,0,1,1-1.87,4.55Z"/><path class="cls-16" d="M650.4,545.91,646.54,544a2.47,2.47,0,0,1,2.23-4.41h0l.05,0,3.76,1.9,0,0a2.47,2.47,0,0,1-2.23,4.41Z"/><path class="cls-16" d="M637.72,539.05,634,536.79a2.48,2.48,0,1,1,2.59-4.23h0l.06,0,3.58,2.2,0,0a2.48,2.48,0,0,1-2.59,4.22Z"/><path class="cls-16" d="M625.65,531.14l-3.48-2.58a2.49,2.49,0,0,1,3-4h0l.06,0,3.37,2.51.05,0a2.48,2.48,0,0,1-3,4Z"/><path class="cls-16" d="M614.32,522.17l-3.22-2.89a2.5,2.5,0,1,1,3.33-3.72h0l.06.05,3.12,2.8,0,0a2.5,2.5,0,0,1-3.34,3.72Z"/><path class="cls-16" d="M603.89,512.16,601,509a2.51,2.51,0,0,1,3.7-3.39h0l.05.06,2.82,3.09.05.06a2.5,2.5,0,1,1-3.69,3.38Z"/><path class="cls-16" d="M594.5,501.16l-2.6-3.48a2.52,2.52,0,0,1,4-3h0l.05.06,2.5,3.36,0,.06a2.52,2.52,0,0,1-4,3Z"/><path class="cls-16" d="M586.24,489.29l-2.26-3.7a2.53,2.53,0,0,1,4.33-2.63h0l0,.06,2.17,3.59,0,.06a2.53,2.53,0,0,1-4.32,2.62Z"/><path class="cls-16" d="M579.14,476.7l-1.9-3.89a2.54,2.54,0,0,1,4.57-2.23h0l0,.06,1.83,3.77,0,.07a2.53,2.53,0,0,1-4.56,2.21Z"/><path class="cls-16" d="M573.23,463.53l-1.55-4a2.55,2.55,0,0,1,4.76-1.82h0l0,.06,1.49,3.93,0,.06a2.54,2.54,0,1,1-4.75,1.81Z"/><path class="cls-16" d="M568.48,449.9l-1.19-4.16a2.55,2.55,0,1,1,4.91-1.41h0l0,.06,1.16,4v.06a2.55,2.55,0,1,1-4.91,1.41Z"/><path class="cls-16" d="M564.89,435.93l-.85-4.24a2.57,2.57,0,1,1,5-1h0l0,.06.82,4.12v.06a2.57,2.57,0,0,1-5,1Z"/><path class="cls-16" d="M562.44,421.72l-.52-4.29a2.58,2.58,0,0,1,5.12-.62h0v.06l.49,4.18v.06a2.57,2.57,0,0,1-5.11.61Z"/><path class="cls-16" d="M561.1,407.37l-.19-4.32a2.59,2.59,0,0,1,5.17-.23h0v.06l.18,4.21v.05a2.58,2.58,0,1,1-5.16.23Z"/><path class="cls-16" d="M560.85,393l.13-4.33a2.6,2.6,0,1,1,5.19.17h0v.06l-.14,4.21v.05a2.59,2.59,0,1,1-5.18-.16Z"/><path class="cls-16" d="M561.67,378.57l.46-4.31a2.6,2.6,0,0,1,5.18.55h0v.05l-.45,4.19v.06a2.6,2.6,0,0,1-5.18-.55Z"/><path class="cls-16" d="M563.57,364.27l.78-4.25a2.61,2.61,0,1,1,5.14.94h0V361l-.76,4.14v.06a2.61,2.61,0,0,1-5.14-1Z"/><path class="cls-16" d="M566.53,350.17l1.09-4.19a2.63,2.63,0,0,1,5.08,1.33h0l0,.06-1.06,4.07,0,.06a2.62,2.62,0,0,1-5.07-1.33Z"/><path class="cls-16" d="M570.54,336.32l1.42-4.09a2.63,2.63,0,1,1,5,1.72h0l0,.06-1.38,4,0,.06a2.63,2.63,0,0,1-5-1.72Z"/><path class="cls-16" d="M575.62,322.82l1.74-4A2.64,2.64,0,1,1,582.2,321h0l0,.06-1.69,3.86,0,.05a2.64,2.64,0,0,1-4.84-2.11Z"/><path class="cls-16" d="M581.77,309.75l2.05-3.81a2.65,2.65,0,1,1,4.67,2.51h0l0,.06-2,3.7,0,.05a2.65,2.65,0,0,1-4.67-2.51Z"/><path class="cls-16" d="M588.91,297.23l2.32-3.65a2.67,2.67,0,1,1,4.5,2.86h0l0,.05L593.44,300l0,0a2.67,2.67,0,0,1-4.5-2.86Z"/><path class="cls-16" d="M596.93,285.26l2.57-3.47a2.67,2.67,0,1,1,4.3,3.17h0l0,.05-2.5,3.38,0,.05a2.67,2.67,0,1,1-4.3-3.18Z"/><path class="cls-16" d="M605.76,273.89l2.79-3.3a2.69,2.69,0,1,1,4.09,3.48h0l0,0-2.73,3.21,0,0a2.68,2.68,0,0,1-4.08-3.47Z"/><path class="cls-16" d="M615.33,263.13l3-3.1a2.69,2.69,0,0,1,3.87,3.75h0l0,0-2.94,3,0,0a2.69,2.69,0,0,1-3.86-3.75Z"/><path class="cls-16" d="M625.57,253l3.19-2.91a2.71,2.71,0,0,1,3.64,4h0l0,0L629.24,257l0,0a2.7,2.7,0,1,1-3.63-4Z"/><path class="cls-16" d="M636.42,243.59l3.37-2.7a2.71,2.71,0,1,1,3.39,4.23h0l0,0-3.29,2.63,0,0a2.71,2.71,0,0,1-3.39-4.23Z"/><path class="cls-16" d="M647.82,234.82l3.52-2.5a2.72,2.72,0,0,1,3.15,4.44h0l0,0L651,239.23l0,0a2.72,2.72,0,1,1-3.15-4.44Z"/><path class="cls-16" d="M659.71,226.74l3.65-2.3a2.73,2.73,0,0,1,2.9,4.63h0l0,0-3.58,2.24,0,0a2.72,2.72,0,1,1-2.89-4.62Z"/><path class="cls-16" d="M672,219.34l3.77-2.09a2.74,2.74,0,0,1,2.66,4.8h0l0,0-3.7,2,0,0a2.74,2.74,0,1,1-2.65-4.79Z"/><path class="cls-16" d="M684.72,212.62l3.88-1.88a2.75,2.75,0,1,1,2.4,4.95h0l0,0-3.8,1.84,0,0a2.75,2.75,0,0,1-2.4-4.95Z"/><path class="cls-16" d="M697.76,206.59l4-1.68a2.76,2.76,0,0,1,2.14,5.09h0l0,0-3.9,1.64h0a2.76,2.76,0,1,1-2.14-5.08Z"/><path class="cls-16" d="M711.1,201.24l4-1.46A2.77,2.77,0,0,1,717,205h0l-4,1.44h0a2.77,2.77,0,0,1-1.88-5.21Z"/><path class="cls-16" d="M724.68,196.59l4.12-1.26a2.78,2.78,0,0,1,1.63,5.32h0l-4,1.23h0a2.78,2.78,0,0,1-1.62-5.31Z"/><path class="cls-16" d="M738.49,192.63l4.17-1A2.79,2.79,0,0,1,744,197h0l-4.1,1h0a2.79,2.79,0,1,1-1.35-5.41Z"/><path class="cls-16" d="M752.47,189.38l4.23-.84a2.8,2.8,0,0,1,1.09,5.49h0l-4.15.82h0a2.8,2.8,0,0,1-1.09-5.49Z"/><path class="cls-16" d="M766.61,186.83l4.26-.62a2.81,2.81,0,1,1,.81,5.56h0l-4.18.6h0a2.81,2.81,0,0,1-.81-5.56Z"/><path class="cls-16" d="M780.84,185l4.28-.43a2.82,2.82,0,1,1,.56,5.61h0l-4.21.42h0a2.81,2.81,0,0,1-.56-5.6Z"/><path class="cls-16" d="M795.13,183.76l4.29-.24a2.83,2.83,0,1,1,.32,5.65h0l-4.22.23h0a2.82,2.82,0,0,1-.31-5.64Z"/><path class="cls-16" d="M809.45,183.16l4.3-.06a2.84,2.84,0,0,1,.09,5.68h0l-4.23.05h0a2.84,2.84,0,0,1-.08-5.67Z"/><path class="cls-16" d="M823.79,183.16l4.3.12a2.84,2.84,0,1,1-.16,5.68h0l-4.23-.11h0a2.85,2.85,0,0,1,.14-5.69Z"/><path class="cls-16" d="M838.11,183.75l4.28.29a2.83,2.83,0,1,1-.37,5.64h0l-4.22-.27h0a2.83,2.83,0,1,1,.36-5.65Z"/><path class="cls-16" d="M852.38,184.89l4.28.44a2.82,2.82,0,0,1-.58,5.61h0l-4.21-.43h0a2.82,2.82,0,0,1,.57-5.61Z"/><path class="cls-16" d="M866.61,186.54l4.25.6a2.8,2.8,0,0,1-.77,5.55h0l-4.19-.58h0a2.81,2.81,0,0,1,.76-5.57Z"/><path class="cls-16" d="M880.76,188.69l4.23.73a2.8,2.8,0,0,1-1,5.51h0l-4.18-.72h0a2.8,2.8,0,1,1,1-5.51Z"/><path class="cls-16" d="M894.83,191.3l4.2.87a2.78,2.78,0,0,1-1.13,5.45h0l-4.15-.85h0a2.79,2.79,0,0,1,1.13-5.46Z"/><path class="cls-16" d="M908.8,194.35l4.17,1a2.77,2.77,0,0,1-1.29,5.39h0l-4.13-1h0a2.77,2.77,0,1,1,1.28-5.4Z"/><path class="cls-16" d="M922.67,197.81l4.15,1.12a2.76,2.76,0,0,1-1.44,5.33h0l-4.1-1.1h0a2.76,2.76,0,1,1,1.43-5.34Z"/><path class="cls-16" d="M936.44,201.67l4.12,1.23a2.75,2.75,0,0,1-1.58,5.27h0L934.89,207h0a2.75,2.75,0,1,1,1.57-5.28Z"/><path class="cls-16" d="M950.1,205.9l4.08,1.34a2.74,2.74,0,1,1-1.71,5.2h0l-4.05-1.32h0a2.74,2.74,0,0,1,1.71-5.21Z"/><path class="cls-16" d="M963.64,210.48l4.05,1.44a2.73,2.73,0,0,1-1.83,5.14h0l-4-1.42h0a2.73,2.73,0,1,1,1.83-5.14Z"/><path class="cls-16" d="M977.06,215.39l4,1.53a2.72,2.72,0,0,1-2,5.07h0l-4-1.52h0a2.72,2.72,0,0,1,1.94-5.08Z"/><path class="cls-16" d="M990.36,220.61l4,1.62a2.71,2.71,0,0,1-2.05,5h0l-3.93-1.6h0a2.71,2.71,0,0,1,2.05-5Z"/><path class="cls-16" d="M1003.53,226.1l3.93,1.69a2.69,2.69,0,0,1-2.13,5h0l-3.91-1.67h0a2.69,2.69,0,1,1,2.12-5Z"/><path class="cls-16" d="M1016.59,231.81l3.9,1.75a2.68,2.68,0,1,1-2.19,4.89h0l-3.88-1.73h0a2.68,2.68,0,1,1,2.19-4.9Z"/><path class="cls-16" d="M1029.56,237.7l3.88,1.79a2.67,2.67,0,1,1-2.24,4.85h0l-3.87-1.78h0a2.68,2.68,0,1,1,2.24-4.86Z"/><path class="cls-16" d="M1042.47,243.71l3.86,1.82a2.66,2.66,0,1,1-2.27,4.81l-3.85-1.81a2.66,2.66,0,1,1,2.25-4.82Z"/><path class="cls-16" d="M1055.33,249.81l3.85,1.84a2.65,2.65,0,1,1-2.28,4.78l-3.85-1.83a2.65,2.65,0,1,1,2.28-4.79Z"/><path class="cls-16" d="M1068.17,256l3.85,1.84a2.64,2.64,0,0,1-2.28,4.76l-3.85-1.84a2.64,2.64,0,0,1,2.27-4.77Z"/><path class="cls-16" d="M1081,262.08l3.85,1.83a2.62,2.62,0,1,1-2.25,4.74l-3.86-1.83a2.63,2.63,0,1,1,2.25-4.75Z"/><path class="cls-16" d="M1093.84,268.16l3.85,1.81a2.6,2.6,0,0,1-2.19,4.72l-3.88-1.8a2.61,2.61,0,1,1,2.2-4.74Z"/><path class="cls-16" d="M1106.7,274.16l3.88,1.78h0a2.56,2.56,0,0,1-2.12,4.67l-3.9-1.77a2.58,2.58,0,0,1,2.13-4.69Z"/><path class="cls-16" d="M1119.63,280l3.89,1.72h0a2.53,2.53,0,0,1-2,4.63l-3.92-1.71a2.54,2.54,0,0,1,2-4.66h0Z"/><path class="cls-16" d="M1132.62,285.69l3.92,1.66h0a2.5,2.5,0,0,1-1.93,4.61l-3.95-1.65a2.51,2.51,0,1,1,1.93-4.63h0Z"/><path class="cls-16" d="M1145.71,291.12l4,1.58h0a2.46,2.46,0,0,1-1.82,4.58l-4-1.57a2.47,2.47,0,1,1,1.81-4.6h0Z"/><path class="cls-16" d="M1158.91,296.26l4,1.48h0a2.43,2.43,0,0,1-1.68,4.56l-4-1.48a2.44,2.44,0,1,1,1.68-4.58h0Z"/><path class="cls-16" d="M1172.22,301.07l4,1.38h0a2.4,2.4,0,0,1-1.54,4.54l-4.06-1.37a2.4,2.4,0,0,1,1.53-4.56h0Z"/><path class="cls-16" d="M1185.66,305.51l4,1.25h0a2.36,2.36,0,0,1-1.38,4.51l-4.11-1.24a2.37,2.37,0,0,1,1.38-4.54h0Z"/><path class="cls-16" d="M1199.22,309.52l4.09,1.11h0a2.33,2.33,0,0,1-1.21,4.49L1198,314a2.34,2.34,0,1,1,1.21-4.52h0Z"/><path class="cls-16" d="M1212.91,313.06l4.12,1h0a2.29,2.29,0,0,1-1,4.47l-4.18-.95a2.3,2.3,0,1,1,1-4.49h0Z"/><path class="cls-16" d="M1226.71,316.06l4.17.8h0a2.26,2.26,0,0,1-.83,4.44l-4.23-.78a2.27,2.27,0,0,1,.83-4.46h0Z"/><path class="cls-16" d="M1240.63,318.49l4.19.61h0a2.23,2.23,0,0,1-.63,4.41l-4.25-.6a2.23,2.23,0,1,1,.62-4.42h0Z"/><path class="cls-16" d="M1254.63,320.28l4.21.4h0a2.19,2.19,0,0,1-.41,4.37l-4.27-.39a2.2,2.2,0,0,1,.39-4.39h.05Z"/><path class="cls-16" d="M1268.69,321.37l4.22.18h0a2.16,2.16,0,0,1-.18,4.31l-4.29-.16a2.17,2.17,0,0,1,.17-4.33h0Z"/><path class="cls-16" d="M1282.78,321.71l4.23,0h0a2.12,2.12,0,0,1,.06,4.23l-4.3.08a2.13,2.13,0,1,1-.07-4.26h0Z"/><path class="cls-16" d="M1296.86,321.28l4.22-.3h0a2.05,2.05,0,0,1,.31,4.09l-4.29.35a2.07,2.07,0,1,1-.34-4.13h.06Z"/><path class="cls-16" d="M1310.89,320l4.18-.58h0a2,2,0,0,1,.56,3.95l-4.26.62a2,2,0,0,1-.58-4h.06Z"/><path class="cls-16" d="M1324.8,317.73l4.14-.85h0a1.94,1.94,0,0,1,.79,3.79l-4.21.9a2,2,0,0,1-.82-3.82h.06Z"/><path class="cls-16" d="M1338.53,314.58l4.08-1.12h0a1.87,1.87,0,0,1,1,3.61l-4.14,1.18a1.89,1.89,0,0,1-1-3.64h0Z"/><path class="cls-16" d="M1352,310.51l4-1.4h0a1.81,1.81,0,0,1,1.21,3.41l-4,1.47a1.83,1.83,0,0,1-1.25-3.45h0Z"/><path class="cls-16" d="M1365.19,305.5l3.87-1.69h0a1.75,1.75,0,1,1,1.41,3.2l-3.93,1.76a1.77,1.77,0,1,1-1.44-3.23h0Z"/><path class="cls-16" d="M1377.94,299.53l3.74-2,0,0a1.69,1.69,0,0,1,1.6,3l-3.78,2.05a1.71,1.71,0,1,1-1.63-3h0Z"/><path class="cls-16" d="M1390.19,292.57l3.56-2.28,0,0a1.63,1.63,0,0,1,1.77,2.74l-3.6,2.36a1.65,1.65,0,0,1-1.81-2.77h0Z"/><path class="cls-16" d="M1401.81,284.62l3.34-2.57,0,0a1.57,1.57,0,0,1,1.93,2.48l-3.39,2.66a1.59,1.59,0,1,1-2-2.5h0Z"/><path class="cls-16" d="M1412.68,275.69l3.1-2.88,0,0a1.51,1.51,0,1,1,2.06,2.2l-3.13,3a1.53,1.53,0,0,1-2.1-2.23h0Z"/><path class="cls-16" d="M1422.68,265.78l2.81-3.16,0,0a1.45,1.45,0,0,1,2.18,1.92l-2.84,3.24a1.45,1.45,0,0,1-2.07.14,1.47,1.47,0,0,1-.14-2.07h0Z"/></g></g></svg>